<svg width="1280" height="200" viewBox="0 0 1280 200" fill="none" xmlns="http://www.w3.org/2000/svg">
<rect width="1280" height="200" fill="#101010"/>
<rect width="1280" height="200" fill="#101010"/>
<path d="M1011.63 99.1954C1007.19 98.6412 1004.96 95.3224 1004.94 90.9984C1004.93 87.7933 1004.92 84.5875 1004.93 81.3809C1004.93 81.343 1004.95 81.3241 1004.99 81.3241H1011.74C1011.77 81.3241 1011.8 81.3363 1011.82 81.358C1011.84 81.3798 1011.85 81.4093 1011.85 81.44C1011.85 84.1387 1011.85 86.8444 1011.85 89.557C1011.85 90.9393 1012.21 92.3748 1013.83 92.5835C1015.61 92.812 1016.21 91.4866 1016.33 89.9258C1016.44 88.5374 1016.44 87.1482 1016.33 85.7583C1016.18 83.6548 1015.17 81.9711 1013.92 80.3465C1012.33 78.2779 1010.73 76.215 1009.12 74.1579C1006.88 71.2972 1005.51 68.2313 1005.35 64.574C1005.15 60.0389 1005.04 54.5762 1010.22 52.8101C1011.07 52.5202 1011.99 52.349 1013 52.2964C1014.71 52.2068 1016.18 52.247 1017.39 52.417C1021.57 53.0038 1023.1 55.9166 1023.12 59.8731C1023.14 62.5053 1023.14 65.1383 1023.13 67.7721C1023.13 67.81 1023.11 67.8289 1023.07 67.8289L1016.53 67.8498C1016.49 67.8498 1016.46 67.8375 1016.44 67.8155C1016.42 67.7935 1016.41 67.7638 1016.41 67.7327C1016.41 65.6377 1016.41 63.5296 1016.41 61.4084C1016.42 60.1908 1016.3 58.6938 1014.77 58.5106C1012.94 58.2926 1012.45 59.5171 1012.41 61.1115C1012.39 62.0029 1012.41 62.8938 1012.47 63.7843C1012.62 65.7591 1013.53 67.3361 1014.7 68.8714C1016.43 71.155 1018.18 73.4332 1019.92 75.7059C1021.85 78.2048 1023.28 80.7107 1023.65 83.9018C1023.88 85.8708 1023.88 88.0473 1023.75 90.1148C1023.46 94.7995 1021.21 98.7444 1016.15 99.2279C1014.54 99.3817 1013.03 99.3709 1011.63 99.1954Z" fill="#F4F4F4"/>
<path d="M1002.88 93.6126C1002.92 95.328 1002.93 97.0136 1002.9 98.6695C1002.9 98.7785 1002.84 98.833 1002.74 98.833H996.044C996.013 98.833 995.984 98.8208 995.962 98.799C995.94 98.7773 995.928 98.7478 995.928 98.7171V78.6854C995.928 78.6547 995.916 78.6252 995.894 78.6034C995.873 78.5817 995.843 78.5694 995.813 78.5694H991.283C991.252 78.5694 991.223 78.5817 991.201 78.6034C991.179 78.6252 991.167 78.6547 991.167 78.6854L991.169 98.6881C991.169 98.7847 991.121 98.833 991.025 98.833L984.286 98.8307C984.239 98.8307 984.215 98.8067 984.215 98.7588V52.7689C984.215 52.7303 984.234 52.7109 984.273 52.7109H991.124C991.135 52.7109 991.146 52.7155 991.154 52.7235C991.162 52.7315 991.167 52.7425 991.167 52.7538L991.172 71.0786C991.172 71.0915 991.175 71.1044 991.18 71.1163C991.185 71.1283 991.192 71.1391 991.201 71.1483C991.211 71.1574 991.222 71.1647 991.234 71.1697C991.246 71.1746 991.259 71.1772 991.272 71.1772H995.813C995.843 71.1772 995.873 71.1649 995.894 71.1432C995.916 71.1215 995.928 71.092 995.928 71.0612V52.784C995.928 52.7353 995.952 52.7109 996 52.7109H1002.82C1002.84 52.7109 1002.87 52.7203 1002.88 52.7371C1002.9 52.7538 1002.91 52.7765 1002.91 52.8002C1002.91 66.3464 1002.91 79.903 1002.91 93.47C1002.91 93.4901 1002.91 93.5086 1002.9 93.5256C1002.89 93.5535 1002.88 93.5825 1002.88 93.6126Z" fill="#F4F4F4"/>
<path d="M1032.83 71.4671L1039.66 71.4705C1039.68 71.4705 1039.7 71.4773 1039.71 71.4892C1039.72 71.5012 1039.73 71.5174 1039.73 71.5343L1039.72 78.4477C1039.72 78.4646 1039.72 78.4808 1039.7 78.4928C1039.69 78.5047 1039.68 78.5115 1039.66 78.5115H1032.83C1032.82 78.5115 1032.8 78.5182 1032.79 78.5301C1032.78 78.5421 1032.77 78.5583 1032.77 78.5752L1032.77 91.7248C1032.77 91.7417 1032.78 91.758 1032.79 91.7699C1032.8 91.7819 1032.82 91.7886 1032.83 91.7886H1041.94C1041.96 91.7886 1041.97 91.7953 1041.98 91.8073C1042 91.8192 1042 91.8355 1042 91.8524V98.7692C1042 98.7862 1042 98.8024 1041.98 98.8143C1041.97 98.8263 1041.96 98.833 1041.94 98.833H1025.85C1025.84 98.833 1025.82 98.8263 1025.81 98.8143C1025.8 98.8024 1025.79 98.7862 1025.79 98.7692V52.7747C1025.79 52.7578 1025.8 52.7416 1025.81 52.7296C1025.82 52.7177 1025.84 52.7109 1025.85 52.7109H1041.59C1041.61 52.7109 1041.63 52.7177 1041.64 52.7296C1041.65 52.7416 1041.66 52.7578 1041.66 52.7747V59.3437C1041.66 59.3606 1041.65 59.3768 1041.64 59.3888C1041.63 59.4008 1041.61 59.4075 1041.59 59.4075H1032.83C1032.82 59.4075 1032.8 59.4142 1032.79 59.4262C1032.78 59.4381 1032.77 59.4543 1032.77 59.4713V71.4033C1032.77 71.4117 1032.77 71.4199 1032.78 71.4277C1032.78 71.4354 1032.78 71.4425 1032.79 71.4484C1032.8 71.4543 1032.8 71.459 1032.81 71.4622C1032.82 71.4654 1032.83 71.4671 1032.83 71.4671Z" fill="#F4F4F4"/>
<path d="M1055.75 90.2498L1054.84 98.7484C1054.84 98.7717 1054.83 98.7933 1054.81 98.8089C1054.79 98.8246 1054.77 98.8332 1054.75 98.833H1048.69C1048.68 98.8331 1048.66 98.8303 1048.65 98.8248C1048.64 98.8194 1048.63 98.8113 1048.62 98.8012C1048.61 98.7911 1048.6 98.7792 1048.6 98.7663C1048.59 98.7534 1048.59 98.7398 1048.59 98.7263L1054.19 52.7944C1054.19 52.7713 1054.2 52.75 1054.22 52.7346C1054.24 52.7192 1054.26 52.7108 1054.28 52.7109H1062.4C1062.42 52.711 1062.44 52.7194 1062.46 52.7345C1062.48 52.7497 1062.49 52.7705 1062.49 52.7933L1068.45 98.7252C1068.45 98.7386 1068.45 98.7522 1068.45 98.7652C1068.45 98.7782 1068.44 98.7902 1068.43 98.8004C1068.42 98.8106 1068.41 98.8188 1068.4 98.8244C1068.39 98.83 1068.37 98.833 1068.36 98.833H1061.81C1061.79 98.8332 1061.76 98.8246 1061.75 98.8089C1061.73 98.7933 1061.72 98.7717 1061.72 98.7484L1060.81 90.2475C1060.81 90.2242 1060.79 90.2026 1060.78 90.1869C1060.76 90.1713 1060.74 90.1627 1060.71 90.1629L1055.84 90.1652C1055.82 90.1651 1055.8 90.1736 1055.78 90.1893C1055.76 90.2049 1055.75 90.2265 1055.75 90.2498ZM1056.45 83.1962C1056.45 83.2013 1056.45 83.2065 1056.45 83.2114C1056.45 83.2163 1056.46 83.2208 1056.46 83.2247C1056.46 83.2285 1056.47 83.2315 1056.47 83.2336C1056.48 83.2357 1056.48 83.2368 1056.49 83.2367L1060.01 83.2391C1060.02 83.2391 1060.02 83.238 1060.02 83.2359C1060.03 83.2339 1060.03 83.2308 1060.04 83.227C1060.04 83.2232 1060.04 83.2187 1060.05 83.2137C1060.05 83.2088 1060.05 83.2036 1060.05 83.1985L1058.25 66.6293C1058.25 66.6207 1058.25 66.613 1058.24 66.6074C1058.23 66.6018 1058.22 66.5987 1058.22 66.5987C1058.21 66.5987 1058.2 66.6018 1058.19 66.6074C1058.19 66.613 1058.18 66.6207 1058.18 66.6293L1056.45 83.1962Z" fill="#F4F4F4"/>
<path d="M1076.61 78.266C1076.56 78.2683 1076.54 78.2939 1076.54 78.3426V98.7024C1076.54 98.7368 1076.52 98.7698 1076.5 98.7942C1076.47 98.8186 1076.44 98.8322 1076.41 98.8322L1069.67 98.8346C1069.64 98.8346 1069.61 98.8222 1069.59 98.8003C1069.57 98.7783 1069.55 98.7485 1069.55 98.7174V52.825C1069.55 52.7948 1069.57 52.7659 1069.59 52.7446C1069.61 52.7233 1069.64 52.7113 1069.67 52.7113C1073.52 52.7106 1077.39 52.7109 1081.27 52.7125C1086.21 52.7148 1087.88 55.6659 1087.84 60.2068C1087.81 62.926 1087.84 65.6452 1087.81 68.3644C1087.78 70.6534 1087 72.8137 1084.89 73.8747C1084.88 73.8773 1084.88 73.8813 1084.88 73.8861C1084.87 73.8909 1084.87 73.8965 1084.87 73.902C1084.87 73.9076 1084.87 73.913 1084.88 73.9176C1084.88 73.9222 1084.88 73.9258 1084.89 73.9281C1086.71 74.7591 1087.68 76.1989 1087.78 78.2475C1087.8 78.6742 1087.81 79.1028 1087.82 79.5334C1087.84 83.6306 1087.85 87.7278 1087.84 91.8249C1087.84 94.0687 1087.56 96.425 1088.53 98.5342C1088.54 98.5663 1088.55 98.6017 1088.54 98.6369C1088.54 98.6722 1088.53 98.7063 1088.51 98.7361C1088.49 98.7658 1088.47 98.7904 1088.44 98.8074C1088.4 98.8244 1088.37 98.8333 1088.34 98.8334H1081.72C1081.67 98.8333 1081.62 98.8184 1081.58 98.7904C1081.54 98.7624 1081.5 98.7226 1081.48 98.6757C1081.14 97.8926 1080.96 97.0488 1080.95 96.1443C1080.9 90.9819 1080.88 85.8195 1080.9 80.6571C1080.91 79.1717 1080.34 78.3959 1078.86 78.2892C1078.1 78.2351 1077.35 78.2274 1076.61 78.266ZM1078.96 71.6066C1080.78 71.3944 1080.96 69.328 1080.92 67.9099C1080.87 65.8841 1080.89 63.8548 1080.89 61.8279C1080.89 60.4295 1080.61 59.133 1078.99 59.0217C1078.2 58.9661 1077.41 58.9529 1076.64 58.9823C1076.61 58.9832 1076.58 58.9946 1076.57 59.0141C1076.55 59.0335 1076.54 59.0596 1076.54 59.0867V71.5544C1076.54 71.5716 1076.54 71.5885 1076.55 71.6043C1076.55 71.62 1076.56 71.6342 1076.58 71.646C1076.59 71.6577 1076.6 71.6667 1076.62 71.6725C1076.64 71.6783 1076.65 71.6808 1076.67 71.6796C1077.45 71.6263 1078.21 71.6936 1078.96 71.6066Z" fill="#F4F4F4"/>
<path d="M1101.79 98.833H1095.08C1095.06 98.833 1095.05 98.8302 1095.04 98.8248C1095.02 98.8194 1095.01 98.8114 1095 98.8014C1094.99 98.7914 1094.98 98.7795 1094.98 98.7664C1094.97 98.7534 1094.97 98.7393 1094.97 98.7252V59.5153C1094.97 59.4867 1094.96 59.4593 1094.94 59.4391C1094.92 59.4188 1094.89 59.4075 1094.86 59.4075H1089.22C1089.19 59.4075 1089.16 59.3961 1089.14 59.3759C1089.12 59.3557 1089.11 59.3282 1089.11 59.2996V52.8188C1089.11 52.8046 1089.12 52.7906 1089.12 52.7775C1089.13 52.7644 1089.13 52.7525 1089.14 52.7425C1089.15 52.7325 1089.17 52.7246 1089.18 52.7191C1089.19 52.7137 1089.21 52.7109 1089.22 52.7109H1107.64C1107.66 52.7109 1107.67 52.7137 1107.68 52.7191C1107.7 52.7246 1107.71 52.7325 1107.72 52.7425C1107.73 52.7525 1107.74 52.7644 1107.74 52.7775C1107.75 52.7906 1107.75 52.8046 1107.75 52.8188V59.2996C1107.75 59.3282 1107.74 59.3557 1107.72 59.3759C1107.7 59.3961 1107.67 59.4075 1107.64 59.4075H1102C1101.99 59.4075 1101.97 59.4103 1101.96 59.4157C1101.95 59.4211 1101.94 59.4291 1101.93 59.4391C1101.92 59.4491 1101.91 59.461 1101.9 59.4741C1101.9 59.4871 1101.89 59.5012 1101.89 59.5153V98.7252C1101.89 98.7538 1101.88 98.7812 1101.86 98.8014C1101.84 98.8216 1101.82 98.833 1101.79 98.833Z" fill="#F4F4F4"/>
<path d="M1126.41 90.1617L1121.51 90.164C1121.49 90.1642 1121.47 90.1712 1121.46 90.1836C1121.44 90.196 1121.43 90.2129 1121.43 90.2313L1120.52 98.7658C1120.52 98.7841 1120.51 98.8011 1120.5 98.8135C1120.48 98.8259 1120.47 98.8328 1120.45 98.833H1114.35C1114.34 98.8329 1114.33 98.8306 1114.32 98.8262C1114.31 98.8217 1114.3 98.8153 1114.29 98.8073C1114.29 98.7993 1114.28 98.79 1114.28 98.7798C1114.27 98.7696 1114.27 98.7589 1114.27 98.7484L1119.87 52.777C1119.87 52.7587 1119.88 52.7418 1119.9 52.7296C1119.91 52.7175 1119.93 52.7108 1119.95 52.7109H1128.1C1128.12 52.7111 1128.14 52.7179 1128.15 52.73C1128.16 52.7422 1128.17 52.7589 1128.17 52.777L1134.14 98.7495C1134.14 98.7601 1134.14 98.7708 1134.14 98.7809C1134.13 98.7911 1134.13 98.8005 1134.12 98.8085C1134.11 98.8165 1134.1 98.8229 1134.09 98.8273C1134.09 98.8318 1134.07 98.8341 1134.06 98.8342L1127.47 98.8295C1127.45 98.8294 1127.44 98.8224 1127.42 98.81C1127.41 98.7976 1127.4 98.7806 1127.4 98.7623L1126.49 90.229C1126.49 90.2106 1126.48 90.1936 1126.46 90.1812C1126.45 90.1688 1126.43 90.1619 1126.41 90.1617ZM1125.67 83.2367C1125.68 83.2368 1125.69 83.2352 1125.7 83.232C1125.7 83.2289 1125.71 83.2242 1125.71 83.2184C1125.72 83.2126 1125.72 83.2058 1125.73 83.1984C1125.73 83.1909 1125.73 83.1831 1125.73 83.1753L1123.94 66.7105C1123.91 66.4337 1123.88 66.4341 1123.85 66.7116L1122.13 83.2008C1122.13 83.2057 1122.13 83.2107 1122.13 83.2155C1122.13 83.2203 1122.13 83.2247 1122.14 83.2284C1122.14 83.2321 1122.15 83.2351 1122.15 83.2372C1122.16 83.2392 1122.16 83.2402 1122.17 83.2402L1125.67 83.2367Z" fill="#F4F4F4"/>
<path d="M1141.58 72.5744C1141.55 72.845 1141.54 73.087 1141.54 73.3003C1141.54 81.7931 1141.53 90.2842 1141.54 98.7739C1141.54 98.7902 1141.53 98.8058 1141.52 98.8173C1141.51 98.8289 1141.49 98.8353 1141.48 98.8353L1135.41 98.8284C1135.3 98.8284 1135.25 98.7723 1135.25 98.6602V52.7689C1135.25 52.7535 1135.25 52.7388 1135.26 52.7279C1135.27 52.717 1135.29 52.7109 1135.3 52.7109H1141.52C1141.54 52.7109 1141.56 52.721 1141.56 52.7411L1147.44 77.0214C1147.49 77.2263 1147.51 77.2232 1147.51 77.0121L1147.51 52.7585C1147.51 52.7459 1147.51 52.7338 1147.52 52.7249C1147.53 52.7159 1147.54 52.7109 1147.55 52.7109H1153.83C1153.84 52.7109 1153.86 52.717 1153.87 52.7279C1153.88 52.7388 1153.88 52.7535 1153.88 52.7689V98.6834C1153.88 98.7028 1153.88 98.7219 1153.87 98.7398C1153.86 98.7576 1153.85 98.7739 1153.84 98.7876C1153.83 98.8012 1153.81 98.8121 1153.79 98.8195C1153.78 98.8269 1153.76 98.8307 1153.74 98.8307L1148.29 98.8342C1148.26 98.8341 1148.24 98.8255 1148.22 98.8095C1148.2 98.7935 1148.18 98.7712 1148.17 98.746L1141.6 72.5721C1141.59 72.5304 1141.58 72.5312 1141.58 72.5744Z" fill="#F4F4F4"/>
<path d="M1156.66 98.8222C1156.61 98.8215 1156.55 98.7987 1156.51 98.7585C1156.48 98.7183 1156.45 98.6641 1156.45 98.6076V52.8276C1156.45 52.7975 1156.46 52.7686 1156.49 52.7473C1156.51 52.726 1156.54 52.714 1156.57 52.714C1160.18 52.7124 1163.8 52.7101 1167.45 52.707C1171.37 52.7047 1173.92 54.5113 1174.7 58.3843C1174.88 59.2695 1174.97 60.1063 1174.97 60.8948C1174.98 70.6816 1174.97 80.468 1174.95 90.2541C1174.94 95.4084 1172.58 98.8048 1167.16 98.8337C1163.71 98.8523 1160.21 98.8484 1156.66 98.8222ZM1167.8 62.4022C1167.79 60.9493 1167.61 59.0986 1165.71 59.0047C1164.97 58.9683 1164.24 58.9606 1163.51 58.9815C1163.5 58.9818 1163.49 58.9874 1163.48 58.9972C1163.47 59.0069 1163.46 59.02 1163.46 59.0337V92.0247C1163.46 92.0688 1163.49 92.092 1163.53 92.0943C1164.17 92.1299 1164.82 92.1291 1165.46 92.092C1167.64 91.9679 1167.81 90.1068 1167.81 88.3987C1167.82 79.7336 1167.81 71.0681 1167.8 62.4022Z" fill="#F4F4F4"/>
<path d="M1024.29 143.493C1023.09 141.91 1022.65 139.856 1022.65 137.908C1022.64 134.747 1022.64 131.586 1022.65 128.425C1022.65 128.391 1022.67 128.374 1022.7 128.374L1029.48 128.375C1029.52 128.375 1029.54 128.395 1029.54 128.435C1029.54 130.708 1029.54 132.98 1029.54 135.249C1029.54 136.874 1029.36 139.524 1031.68 139.63C1033.23 139.701 1033.89 138.664 1034.01 137.245C1034.15 135.645 1034.18 133.7 1033.99 132.291C1033.73 130.409 1032.8 128.934 1031.63 127.406C1030.02 125.306 1028.4 123.212 1026.78 121.122C1024.67 118.402 1023.4 115.643 1023.11 112.176C1022.61 106.32 1023 99.8475 1030.5 99.3593C1036.29 98.9825 1040.75 99.9322 1040.83 106.906C1040.86 109.491 1040.86 112.127 1040.84 114.813C1040.84 114.827 1040.84 114.841 1040.83 114.851C1040.82 114.861 1040.8 114.866 1040.79 114.866H1034.16C1034.14 114.866 1034.13 114.86 1034.12 114.849C1034.1 114.838 1034.1 114.823 1034.1 114.807C1034.1 112.584 1034.1 110.352 1034.1 108.112C1034.09 106.668 1033.69 105.41 1031.96 105.534C1030.98 105.605 1030.41 106.111 1030.25 107.051C1030.03 108.286 1030.05 109.85 1030.18 111.015C1030.4 113.045 1031.44 114.669 1032.66 116.265C1034.71 118.955 1036.12 120.792 1036.89 121.775C1038.63 123.996 1040.2 126.177 1040.96 128.898C1041.57 131.063 1041.55 133.363 1041.5 135.71C1041.47 136.988 1041.4 137.991 1041.28 138.718C1040.61 142.918 1038.13 145.862 1033.76 146.283C1030.46 146.6 1026.51 146.409 1024.29 143.493Z" fill="#F4F4F4"/>
<path d="M1066.33 141.425C1066.33 141.42 1066.33 141.415 1066.32 141.412C1066.32 141.408 1066.31 141.406 1066.31 141.406C1066.3 141.405 1066.29 141.407 1066.29 141.41C1066.29 141.413 1066.28 141.418 1066.28 141.423C1065.29 143.899 1063.13 146.135 1060.41 146.437C1056.05 146.919 1053.5 143.612 1052.95 139.677C1052.89 139.201 1052.85 138.48 1052.85 137.514C1052.85 127.973 1052.85 118.432 1052.87 108.891C1052.87 105.296 1054.06 101.383 1057.73 99.9404C1059.61 99.2017 1061.73 99.2295 1063.78 99.3397C1069.42 99.6435 1071.01 103.421 1071.08 108.435C1071.11 110.302 1071.12 112.24 1071.12 114.25C1071.12 114.281 1071.11 114.311 1071.08 114.333C1071.06 114.355 1071.03 114.368 1071 114.368L1064.42 114.375C1064.39 114.375 1064.36 114.363 1064.34 114.341C1064.31 114.32 1064.3 114.29 1064.3 114.26C1064.31 112.333 1064.3 110.4 1064.3 108.463C1064.29 106.914 1063.36 105.751 1061.7 106.052C1060.08 106.349 1059.95 108.143 1059.95 109.469C1059.95 118.349 1059.94 127.231 1059.94 136.112C1059.94 137.61 1060.45 139.384 1062.25 139.373C1064.31 139.361 1064.79 137.857 1064.79 136.133C1064.79 132.415 1064.79 128.705 1064.8 125.003C1064.8 124.991 1064.8 124.979 1064.79 124.968C1064.79 124.957 1064.78 124.947 1064.77 124.938C1064.76 124.93 1064.75 124.923 1064.74 124.918C1064.73 124.914 1064.72 124.912 1064.71 124.912L1061.77 124.927C1061.75 124.927 1061.74 124.924 1061.72 124.918C1061.71 124.912 1061.7 124.904 1061.68 124.893C1061.67 124.882 1061.66 124.869 1061.66 124.854C1061.65 124.84 1061.65 124.824 1061.65 124.809V117.936C1061.65 117.905 1061.66 117.876 1061.68 117.854C1061.7 117.832 1061.73 117.82 1061.76 117.82H1071.33C1071.36 117.82 1071.38 117.83 1071.4 117.849C1071.42 117.868 1071.43 117.894 1071.43 117.921V145.795C1071.43 145.833 1071.41 145.853 1071.37 145.853H1067.54C1067.52 145.852 1067.5 145.847 1067.49 145.836C1067.47 145.825 1067.46 145.81 1067.46 145.793L1066.33 141.425Z" fill="#F4F4F4"/>
<path d="M1119.57 131.818C1120.07 138.043 1119.44 146.121 1111.15 146.334C1109.7 146.371 1108.22 146.393 1106.79 146.11C1102.2 145.205 1100.78 141.547 1100.77 137.312C1100.76 134.351 1100.76 131.39 1100.77 128.43C1100.77 128.392 1100.79 128.373 1100.83 128.373H1107.63C1107.65 128.373 1107.66 128.379 1107.67 128.39C1107.69 128.401 1107.69 128.416 1107.69 128.432C1107.69 131.196 1107.69 133.969 1107.69 136.751C1107.69 138.476 1108.41 139.762 1110.31 139.591C1111.73 139.462 1112.09 138.159 1112.18 136.946C1112.28 135.566 1112.28 134.187 1112.18 132.806C1112.03 130.736 1111.07 129.081 1109.83 127.473C1108.15 125.296 1106.46 123.122 1104.78 120.952C1102.46 117.969 1101.22 114.725 1101.17 110.927C1101.13 108.589 1101.03 106.82 1101.53 104.832C1102.9 99.4334 1108.07 98.9858 1112.65 99.3824C1117.44 99.7963 1118.96 102.876 1118.97 107.328C1118.97 109.821 1118.98 112.314 1118.97 114.807C1118.97 114.822 1118.96 114.837 1118.95 114.847C1118.94 114.858 1118.93 114.864 1118.91 114.864H1112.31C1112.29 114.864 1112.28 114.857 1112.27 114.846C1112.26 114.835 1112.25 114.82 1112.25 114.804C1112.25 112.687 1112.25 110.562 1112.25 108.428C1112.25 107.225 1112.14 105.739 1110.63 105.549C1108.97 105.34 1108.38 106.289 1108.29 107.77C1108.23 108.626 1108.22 109.484 1108.25 110.343C1108.33 112.579 1109.34 114.341 1110.66 116.064C1112.53 118.515 1114.41 120.967 1116.28 123.42C1118.22 125.947 1119.31 128.563 1119.57 131.818Z" fill="#F4F4F4"/>
<path d="M1129.79 146.403C1125.97 146.388 1122.9 144.565 1121.92 140.691C1121.53 139.127 1121.43 137.864 1121.43 136.078C1121.42 126.891 1121.42 117.705 1121.43 108.518C1121.43 103.719 1123.56 99.7547 1128.81 99.3709C1132.68 99.0868 1137.22 99.2456 1139.02 103.415C1139.76 105.126 1139.88 107.124 1139.89 108.99C1139.89 111.694 1139.89 114.397 1139.89 117.1C1139.89 117.115 1139.88 117.129 1139.87 117.14C1139.86 117.15 1139.85 117.156 1139.83 117.156H1133.08C1133.07 117.156 1133.06 117.152 1133.05 117.144C1133.04 117.136 1133.03 117.125 1133.03 117.112C1132.96 116.838 1133.02 116.513 1133.02 116.317C1133.03 113.93 1133.03 111.543 1133.02 109.155C1133.01 107.147 1132.3 105.525 1129.91 106.117C1128.88 106.371 1128.55 107.481 1128.55 108.409C1128.55 117.837 1128.55 127.266 1128.55 136.695C1128.55 138.018 1128.97 139.39 1130.5 139.566C1132.27 139.769 1133.04 138.263 1133.01 136.746C1132.95 133.14 1133.03 129.502 1133.02 125.824C1133.02 125.809 1133.03 125.794 1133.04 125.783C1133.05 125.772 1133.07 125.766 1133.08 125.766H1139.83C1139.85 125.766 1139.86 125.772 1139.87 125.784C1139.89 125.795 1139.89 125.81 1139.89 125.825C1139.89 129.402 1139.89 132.986 1139.88 136.579C1139.88 141.904 1137.79 146.378 1131.73 146.403C1131.08 146.406 1130.44 146.406 1129.79 146.403Z" fill="#F4F4F4"/>
<path d="M1168.4 145.785C1163.84 144.151 1163.18 139.14 1163.18 134.976C1163.17 121.791 1163.17 113.367 1163.18 109.704C1163.18 105.518 1164.39 101.057 1168.89 99.7344C1170.61 99.2277 1172.58 99.2288 1174.38 99.3436C1181.05 99.7727 1182.27 104.956 1182.27 110.528C1182.28 118.776 1182.28 127.025 1182.27 135.273C1182.27 140.846 1180.76 146.166 1174.05 146.392C1172.15 146.456 1170.26 146.449 1168.4 145.785ZM1170.3 135.208C1170.3 136.861 1170.25 139.501 1172.64 139.587C1174.69 139.66 1175.15 137.843 1175.15 136.201C1175.15 127.197 1175.15 118.193 1175.14 109.19C1175.14 107.981 1174.77 106.462 1173.45 106.111C1172.64 105.893 1171.92 106.006 1171.31 106.45C1170.21 107.241 1170.3 109.028 1170.3 110.204C1170.28 118.539 1170.28 126.874 1170.3 135.208Z" fill="#F4F4F4"/>
<path d="M1187.4 144.411C1184.86 142.137 1184.47 138.458 1184.47 135.274C1184.46 126.634 1184.46 117.995 1184.47 109.356C1184.47 104.444 1186.43 99.9367 1191.91 99.4021C1194.04 99.1934 1196.31 99.1865 1198.3 99.8567C1202.77 101.36 1203.53 105.985 1203.53 110.078C1203.54 118.679 1203.54 127.28 1203.53 135.881C1203.53 141.59 1201.44 146.375 1194.91 146.404C1192.15 146.416 1189.59 146.368 1187.4 144.411ZM1193.14 139.399C1194.25 139.854 1195.63 139.465 1196.09 138.256C1196.31 137.666 1196.42 137.029 1196.42 136.345C1196.41 127.4 1196.41 118.456 1196.41 109.511C1196.41 108.591 1196.32 107.727 1195.92 107.015C1195.23 105.784 1193.21 105.679 1192.31 106.691C1191.68 107.388 1191.57 108.584 1191.57 109.53C1191.56 118.437 1191.57 127.344 1191.58 136.251C1191.58 137.499 1191.83 138.869 1193.14 139.399Z" fill="#F4F4F4"/>
<path d="M995.283 145.831C991.605 145.86 987.931 145.865 984.261 145.846C984.247 145.846 984.235 145.841 984.225 145.831C984.216 145.822 984.211 145.809 984.211 145.796V99.7901C984.211 99.7763 984.216 99.763 984.226 99.7532C984.236 99.7434 984.249 99.7379 984.263 99.7379C988.076 99.7178 991.896 99.7244 995.722 99.7576C996.419 99.7638 997.149 99.8817 997.913 100.111C1001.97 101.335 1002.7 104.919 1002.7 108.667C1002.71 118.259 1002.71 127.853 1002.7 137.446C1002.7 137.831 1002.66 138.382 1002.57 139.1C1002.06 143.267 999.564 145.797 995.283 145.831ZM995.536 109.42C995.534 107.877 995.306 106.031 993.297 106.026C992.295 106.024 991.608 106.022 991.237 106.019C991.19 106.019 991.167 106.043 991.167 106.089L991.164 139.039C991.164 139.085 991.187 139.109 991.232 139.11C993.048 139.182 994.993 139.399 995.41 137.212C995.502 136.725 995.548 136.233 995.548 135.736C995.55 126.964 995.546 118.192 995.536 109.42Z" fill="#F4F4F4"/>
<path d="M1005.16 145.776V99.807C1005.16 99.7867 1005.16 99.7672 1005.18 99.7529C1005.19 99.7385 1005.21 99.7305 1005.23 99.7305H1020.95C1020.97 99.7305 1020.99 99.7385 1021 99.7529C1021.02 99.7672 1021.02 99.7867 1021.02 99.807V106.35C1021.02 106.371 1021.02 106.39 1021 106.405C1020.99 106.419 1020.97 106.427 1020.95 106.427H1012.21C1012.2 106.427 1012.19 106.429 1012.19 106.433C1012.18 106.437 1012.17 106.442 1012.16 106.449C1012.15 106.457 1012.15 106.465 1012.14 106.474C1012.14 106.484 1012.14 106.493 1012.14 106.504V118.415C1012.14 118.425 1012.14 118.435 1012.14 118.444C1012.15 118.453 1012.15 118.462 1012.16 118.469C1012.17 118.476 1012.18 118.482 1012.19 118.485C1012.19 118.489 1012.2 118.491 1012.21 118.491L1019.04 118.484C1019.06 118.484 1019.08 118.492 1019.1 118.507C1019.11 118.521 1019.12 118.541 1019.12 118.561V125.454C1019.12 125.475 1019.11 125.494 1019.1 125.509C1019.08 125.523 1019.06 125.531 1019.04 125.531H1012.21C1012.2 125.531 1012.19 125.533 1012.19 125.537C1012.18 125.541 1012.17 125.546 1012.16 125.553C1012.15 125.561 1012.15 125.569 1012.14 125.578C1012.14 125.588 1012.14 125.597 1012.14 125.608V138.761C1012.14 138.781 1012.15 138.8 1012.16 138.815C1012.17 138.829 1012.19 138.837 1012.21 138.837H1021.32C1021.34 138.837 1021.36 138.845 1021.38 138.86C1021.39 138.874 1021.4 138.893 1021.4 138.914V145.776C1021.4 145.796 1021.39 145.816 1021.38 145.83C1021.36 145.844 1021.34 145.853 1021.32 145.853H1005.23C1005.21 145.853 1005.19 145.844 1005.18 145.83C1005.16 145.816 1005.16 145.796 1005.16 145.776Z" fill="#F4F4F4"/>
<path d="M1050.39 99.7344H1043.54C1043.5 99.7344 1043.47 99.764 1043.47 99.8005V145.789C1043.47 145.826 1043.5 145.855 1043.54 145.855H1050.39C1050.43 145.855 1050.45 145.826 1050.45 145.789V99.8005C1050.45 99.764 1050.43 99.7344 1050.39 99.7344Z" fill="#F4F4F4"/>
<path d="M1086.08 124.084V99.7908C1086.08 99.7763 1086.09 99.7624 1086.1 99.7522C1086.11 99.742 1086.12 99.7363 1086.14 99.7363L1092.37 99.7328C1092.39 99.7328 1092.42 99.7418 1092.43 99.7579C1092.45 99.774 1092.46 99.7958 1092.46 99.8186V145.795C1092.46 145.81 1092.45 145.825 1092.44 145.836C1092.43 145.846 1092.42 145.853 1092.4 145.853H1086.83C1086.81 145.853 1086.79 145.846 1086.78 145.834C1086.76 145.822 1086.75 145.805 1086.75 145.786L1080.16 119.538C1080.15 119.529 1080.15 119.521 1080.14 119.516C1080.13 119.511 1080.12 119.509 1080.11 119.51C1080.11 119.511 1080.1 119.515 1080.09 119.522C1080.08 119.529 1080.08 119.538 1080.08 119.548C1080.08 119.565 1080.08 119.582 1080.09 119.596C1080.09 119.622 1080.1 119.646 1080.1 119.665C1080.11 119.685 1080.11 119.698 1080.11 119.704V145.795C1080.11 145.81 1080.1 145.825 1080.09 145.836C1080.08 145.846 1080.07 145.853 1080.05 145.853H1073.94C1073.91 145.853 1073.88 145.84 1073.85 145.819C1073.83 145.797 1073.82 145.767 1073.82 145.737V99.7884C1073.82 99.7731 1073.83 99.7583 1073.84 99.7475C1073.85 99.7366 1073.86 99.7305 1073.88 99.7305H1080.08C1080.09 99.7305 1080.1 99.7343 1080.11 99.7412C1080.12 99.7481 1080.13 99.7578 1080.13 99.7687L1086.01 124.092C1086.02 124.096 1086.02 124.101 1086.02 124.105C1086.02 124.108 1086.02 124.112 1086.03 124.115C1086.03 124.117 1086.03 124.119 1086.04 124.121C1086.04 124.122 1086.05 124.122 1086.05 124.122C1086.06 124.121 1086.06 124.12 1086.06 124.117C1086.07 124.115 1086.07 124.112 1086.07 124.109C1086.08 124.105 1086.08 124.101 1086.08 124.097C1086.08 124.093 1086.08 124.088 1086.08 124.084Z" fill="#F4F4F4"/>
<path d="M1149.07 125.674L1149.06 145.768C1149.06 145.779 1149.06 145.79 1149.06 145.8C1149.05 145.811 1149.04 145.82 1149.04 145.828C1149.03 145.836 1149.02 145.842 1149.01 145.846C1149 145.85 1148.99 145.853 1148.98 145.853H1142.17C1142.14 145.853 1142.12 145.844 1142.11 145.828C1142.09 145.812 1142.08 145.79 1142.08 145.768V99.8174C1142.08 99.795 1142.09 99.7735 1142.11 99.7576C1142.12 99.7417 1142.14 99.7328 1142.17 99.7328L1148.98 99.7386C1149 99.7386 1149.02 99.7475 1149.04 99.7634C1149.06 99.7793 1149.07 99.8008 1149.07 99.8232L1149.06 118.112C1149.06 118.134 1149.07 118.156 1149.09 118.172C1149.1 118.188 1149.12 118.197 1149.15 118.197H1153.71C1153.73 118.197 1153.75 118.188 1153.77 118.172C1153.79 118.156 1153.8 118.134 1153.8 118.112V99.8151C1153.8 99.7927 1153.8 99.7711 1153.82 99.7553C1153.84 99.7394 1153.86 99.7305 1153.88 99.7305H1160.72C1160.74 99.7305 1160.77 99.7394 1160.78 99.7553C1160.8 99.7711 1160.81 99.7927 1160.81 99.8151V145.768C1160.81 145.79 1160.8 145.812 1160.78 145.828C1160.77 145.844 1160.74 145.853 1160.72 145.853H1153.88C1153.86 145.853 1153.84 145.844 1153.82 145.828C1153.8 145.812 1153.8 145.79 1153.8 145.768V125.674C1153.8 125.651 1153.79 125.63 1153.77 125.614C1153.75 125.598 1153.73 125.589 1153.71 125.589H1149.15C1149.13 125.589 1149.11 125.598 1149.09 125.614C1149.08 125.63 1149.07 125.651 1149.07 125.674Z" fill="#F4F4F4"/>
<path d="M1212.99 138.721H1221.34C1221.36 138.721 1221.38 138.73 1221.4 138.745C1221.41 138.761 1221.42 138.782 1221.42 138.803V145.77C1221.42 145.792 1221.41 145.813 1221.4 145.828C1221.38 145.844 1221.36 145.853 1221.34 145.853H1206.01C1205.99 145.853 1205.97 145.844 1205.95 145.828C1205.94 145.813 1205.93 145.792 1205.93 145.77V99.8128C1205.93 99.791 1205.94 99.77 1205.95 99.7546C1205.97 99.7391 1205.99 99.7305 1206.01 99.7305H1212.83C1212.85 99.7305 1212.87 99.7391 1212.89 99.7546C1212.9 99.77 1212.91 99.791 1212.91 99.8128V138.639C1212.91 138.661 1212.92 138.682 1212.94 138.697C1212.95 138.712 1212.97 138.721 1212.99 138.721Z" fill="#F4F4F4"/>
<path d="M116.85 66.83C119.43 66.83 121.42 67.37 122.82 68.45C124.24 69.53 124.95 71.13 124.95 73.25C124.95 75.53 124.22 77.23 122.76 78.35C121.3 79.45 119.33 80 116.85 80H110.43V59.27H122.61L122.19 62.36H114.39V66.83H116.85ZM116.73 77.03C118.03 77.03 119.03 76.75 119.73 76.19C120.43 75.61 120.78 74.65 120.78 73.31C120.78 72.07 120.43 71.16 119.73 70.58C119.05 70 118.02 69.71 116.64 69.71H114.39V77.03H116.73ZM140.967 71.69C140.967 71.89 140.937 72.41 140.877 73.25H130.917C131.037 74.79 131.437 75.89 132.117 76.55C132.797 77.21 133.697 77.54 134.817 77.54C135.517 77.54 136.177 77.43 136.797 77.21C137.417 76.97 138.077 76.61 138.777 76.13L140.367 78.32C138.607 79.74 136.647 80.45 134.487 80.45C132.067 80.45 130.197 79.71 128.877 78.23C127.577 76.75 126.927 74.73 126.927 72.17C126.927 70.55 127.207 69.1 127.767 67.82C128.327 66.52 129.137 65.51 130.197 64.79C131.257 64.05 132.517 63.68 133.977 63.68C136.197 63.68 137.917 64.39 139.137 65.81C140.357 67.21 140.967 69.17 140.967 71.69ZM137.157 70.58C137.157 67.8 136.127 66.41 134.067 66.41C133.127 66.41 132.387 66.76 131.847 67.46C131.327 68.14 131.017 69.24 130.917 70.76H137.157V70.58ZM157.582 64.13L153.112 71.48L158.062 80H153.832L149.962 72.95H148.252V80H144.412V64.13H148.252V70.4H150.052L153.742 64.13H157.582ZM173.164 71.69C173.164 71.89 173.134 72.41 173.074 73.25H163.114C163.234 74.79 163.634 75.89 164.314 76.55C164.994 77.21 165.894 77.54 167.014 77.54C167.714 77.54 168.374 77.43 168.994 77.21C169.614 76.97 170.274 76.61 170.974 76.13L172.564 78.32C170.804 79.74 168.844 80.45 166.684 80.45C164.264 80.45 162.394 79.71 161.074 78.23C159.774 76.75 159.124 74.73 159.124 72.17C159.124 70.55 159.404 69.1 159.964 67.82C160.524 66.52 161.334 65.51 162.394 64.79C163.454 64.05 164.714 63.68 166.174 63.68C168.394 63.68 170.114 64.39 171.334 65.81C172.554 67.21 173.164 69.17 173.164 71.69ZM169.354 70.58C169.354 67.8 168.324 66.41 166.264 66.41C165.324 66.41 164.584 66.76 164.044 67.46C163.524 68.14 163.214 69.24 163.114 70.76H169.354V70.58ZM187.517 64.13L187.037 67.07H182.387V80H178.547V67.07H173.627V64.13H187.517ZM195.452 63.68C197.792 63.68 199.612 64.43 200.912 65.93C202.232 67.41 202.892 69.45 202.892 72.05C202.892 73.71 202.592 75.18 201.992 76.46C201.392 77.72 200.532 78.7 199.412 79.4C198.292 80.1 196.962 80.45 195.422 80.45C193.082 80.45 191.252 79.71 189.932 78.23C188.612 76.73 187.952 74.67 187.952 72.05C187.952 70.39 188.252 68.93 188.852 67.67C189.452 66.41 190.312 65.43 191.432 64.73C192.572 64.03 193.912 63.68 195.452 63.68ZM195.452 66.59C193.152 66.59 192.002 68.41 192.002 72.05C192.002 73.93 192.282 75.32 192.842 76.22C193.422 77.1 194.282 77.54 195.422 77.54C196.562 77.54 197.412 77.09 197.972 76.19C198.552 75.29 198.842 73.91 198.842 72.05C198.842 70.19 198.552 68.82 197.972 67.94C197.412 67.04 196.572 66.59 195.452 66.59ZM215.612 71.33C218.332 71.63 219.692 72.9 219.692 75.14C219.692 76.78 219.062 78 217.802 78.8C216.562 79.6 214.882 80 212.762 80H206.492V64.31C208.632 63.89 210.562 63.68 212.282 63.68C214.342 63.68 215.962 64.05 217.142 64.79C218.322 65.53 218.912 66.6 218.912 68C218.912 68.9 218.632 69.63 218.072 70.19C217.512 70.75 216.692 71.13 215.612 71.33ZM212.252 66.29C211.712 66.29 211.072 66.34 210.332 66.44V70.46H212.612C214.272 70.46 215.102 69.75 215.102 68.33C215.102 66.97 214.152 66.29 212.252 66.29ZM212.672 77.33C214.692 77.33 215.702 76.52 215.702 74.9C215.702 74.16 215.472 73.62 215.012 73.28C214.552 72.92 213.792 72.74 212.732 72.74H210.332V77.33H212.672ZM234.716 75.8C234.716 76.42 234.806 76.88 234.986 77.18C235.186 77.46 235.496 77.68 235.916 77.84L235.106 80.39C234.206 80.31 233.466 80.09 232.886 79.73C232.326 79.37 231.896 78.82 231.596 78.08C231.056 78.88 230.376 79.48 229.556 79.88C228.756 80.26 227.856 80.45 226.856 80.45C225.276 80.45 224.026 80 223.106 79.1C222.186 78.2 221.726 77.02 221.726 75.56C221.726 73.84 222.346 72.53 223.586 71.63C224.846 70.71 226.636 70.25 228.956 70.25H230.936V69.35C230.936 68.33 230.696 67.62 230.216 67.22C229.756 66.8 229.006 66.59 227.966 66.59C226.806 66.59 225.406 66.87 223.766 67.43L222.866 64.82C224.846 64.06 226.766 63.68 228.626 63.68C232.686 63.68 234.716 65.5 234.716 69.14V75.8ZM227.876 77.66C229.176 77.66 230.196 77.01 230.936 75.71V72.5H229.346C226.866 72.5 225.626 73.42 225.626 75.26C225.626 76.02 225.816 76.61 226.196 77.03C226.576 77.45 227.136 77.66 227.876 77.66ZM257.963 80L256.673 75.2H249.803L248.513 80H244.403L250.853 59.27H255.743L262.163 80H257.963ZM250.583 72.2H255.863L253.223 62.3L250.583 72.2ZM273.563 80V73.37H268.193V80H264.353V64.13H268.193V70.46H273.563V64.13H277.403V80H273.563ZM293.749 75.8C293.749 76.42 293.839 76.88 294.019 77.18C294.219 77.46 294.529 77.68 294.949 77.84L294.139 80.39C293.239 80.31 292.499 80.09 291.919 79.73C291.359 79.37 290.929 78.82 290.629 78.08C290.089 78.88 289.409 79.48 288.589 79.88C287.789 80.26 286.889 80.45 285.889 80.45C284.309 80.45 283.059 80 282.139 79.1C281.219 78.2 280.759 77.02 280.759 75.56C280.759 73.84 281.379 72.53 282.619 71.63C283.879 70.71 285.669 70.25 287.989 70.25H289.969V69.35C289.969 68.33 289.729 67.62 289.249 67.22C288.789 66.8 288.039 66.59 286.999 66.59C285.839 66.59 284.439 66.87 282.799 67.43L281.899 64.82C283.879 64.06 285.799 63.68 287.659 63.68C291.719 63.68 293.749 65.5 293.749 69.14V75.8ZM286.909 77.66C288.209 77.66 289.229 77.01 289.969 75.71V72.5H288.379C285.899 72.5 284.659 73.42 284.659 75.26C284.659 76.02 284.849 76.61 285.229 77.03C285.609 77.45 286.169 77.66 286.909 77.66ZM304.786 63.68C305.826 63.68 306.756 63.83 307.576 64.13C308.416 64.43 309.206 64.9 309.946 65.54L308.236 67.85C307.696 67.45 307.176 67.16 306.676 66.98C306.176 66.8 305.626 66.71 305.026 66.71C302.646 66.71 301.456 68.52 301.456 72.14C301.456 73.98 301.766 75.31 302.386 76.13C303.006 76.93 303.886 77.33 305.026 77.33C305.586 77.33 306.096 77.24 306.556 77.06C307.036 76.88 307.596 76.59 308.236 76.19L309.946 78.62C308.446 79.84 306.736 80.45 304.816 80.45C303.296 80.45 301.976 80.12 300.856 79.46C299.736 78.78 298.876 77.82 298.276 76.58C297.676 75.34 297.376 73.88 297.376 72.2C297.376 70.52 297.676 69.04 298.276 67.76C298.876 66.46 299.736 65.46 300.856 64.76C301.976 64.04 303.286 63.68 304.786 63.68ZM324.392 64.13L323.912 67.07H319.262V80H315.422V67.07H310.502V64.13H324.392ZM337.138 75.8C337.138 76.42 337.228 76.88 337.408 77.18C337.608 77.46 337.918 77.68 338.338 77.84L337.528 80.39C336.628 80.31 335.888 80.09 335.308 79.73C334.748 79.37 334.318 78.82 334.018 78.08C333.478 78.88 332.798 79.48 331.978 79.88C331.178 80.26 330.278 80.45 329.278 80.45C327.698 80.45 326.448 80 325.528 79.1C324.608 78.2 324.148 77.02 324.148 75.56C324.148 73.84 324.768 72.53 326.008 71.63C327.268 70.71 329.058 70.25 331.378 70.25H333.358V69.35C333.358 68.33 333.118 67.62 332.638 67.22C332.178 66.8 331.428 66.59 330.388 66.59C329.228 66.59 327.828 66.87 326.188 67.43L325.288 64.82C327.268 64.06 329.188 63.68 331.048 63.68C335.108 63.68 337.138 65.5 337.138 69.14V75.8ZM330.298 77.66C331.598 77.66 332.618 77.01 333.358 75.71V72.5H331.768C329.288 72.5 328.048 73.42 328.048 75.26C328.048 76.02 328.238 76.61 328.618 77.03C328.998 77.45 329.558 77.66 330.298 77.66ZM348.175 63.68C349.215 63.68 350.145 63.83 350.965 64.13C351.805 64.43 352.595 64.9 353.335 65.54L351.625 67.85C351.085 67.45 350.565 67.16 350.065 66.98C349.565 66.8 349.015 66.71 348.415 66.71C346.035 66.71 344.845 68.52 344.845 72.14C344.845 73.98 345.155 75.31 345.775 76.13C346.395 76.93 347.275 77.33 348.415 77.33C348.975 77.33 349.485 77.24 349.945 77.06C350.425 76.88 350.985 76.59 351.625 76.19L353.335 78.62C351.835 79.84 350.125 80.45 348.205 80.45C346.685 80.45 345.365 80.12 344.245 79.46C343.125 78.78 342.265 77.82 341.665 76.58C341.065 75.34 340.765 73.88 340.765 72.2C340.765 70.52 341.065 69.04 341.665 67.76C342.265 66.46 343.125 65.46 344.245 64.76C345.365 64.04 346.675 63.68 348.175 63.68ZM369.341 80H365.651V73.64C365.651 72.48 365.701 71.39 365.801 70.37C365.901 69.33 366.011 68.55 366.131 68.03L360.221 80H356.111V64.13H359.831V70.49C359.831 71.59 359.771 72.68 359.651 73.76C359.551 74.84 359.441 75.61 359.321 76.07L365.171 64.13H369.341V80ZM385.953 64.13V80H382.113V74.21H379.443L376.353 80H372.183L375.903 73.34C375.063 72.92 374.413 72.36 373.953 71.66C373.513 70.94 373.293 70.1 373.293 69.14C373.293 67.5 373.893 66.26 375.093 65.42C376.293 64.56 378.013 64.13 380.253 64.13H385.953ZM382.113 71.72V66.74H380.193C378.233 66.74 377.253 67.55 377.253 69.17C377.253 70.03 377.483 70.67 377.943 71.09C378.403 71.51 379.133 71.72 380.133 71.72H382.113Z" fill="#F4F4F4"/>
<path d="M116.85 122.83C119.43 122.83 121.42 123.37 122.82 124.45C124.24 125.53 124.95 127.13 124.95 129.25C124.95 131.53 124.22 133.23 122.76 134.35C121.3 135.45 119.33 136 116.85 136H110.43V115.27H122.61L122.19 118.36H114.39V122.83H116.85ZM116.73 133.03C118.03 133.03 119.03 132.75 119.73 132.19C120.43 131.61 120.78 130.65 120.78 129.31C120.78 128.07 120.43 127.16 119.73 126.58C119.05 126 118.02 125.71 116.64 125.71H114.39V133.03H116.73ZM132.187 115.45C133.547 115.45 134.717 115.7 135.697 116.2C136.697 116.7 137.457 117.38 137.977 118.24C138.497 119.1 138.757 120.06 138.757 121.12C138.757 122.26 138.507 123.36 138.007 124.42C137.527 125.46 136.717 126.62 135.577 127.9C134.437 129.18 132.767 130.87 130.567 132.97H139.207L138.787 136H126.217V133.18C128.777 130.58 130.607 128.66 131.707 127.42C132.827 126.16 133.617 125.09 134.077 124.21C134.557 123.31 134.797 122.38 134.797 121.42C134.797 120.5 134.527 119.78 133.987 119.26C133.467 118.74 132.767 118.48 131.887 118.48C131.107 118.48 130.417 118.65 129.817 118.99C129.237 119.31 128.627 119.85 127.987 120.61L125.647 118.75C127.347 116.55 129.527 115.45 132.187 115.45ZM155.303 128.44V131.38H152.873V136H149.123V131.38H140.543V128.74L146.423 115.42L149.693 116.65L144.533 128.44H149.153L149.543 123.37H152.873V128.44H155.303ZM173.867 132.88V140.74H170.987L170.477 136H159.077L158.567 140.74H155.687V132.88H157.157C157.637 132.38 158.017 131.75 158.297 130.99C158.577 130.21 158.827 129.14 159.047 127.78C159.287 126.42 159.587 124.34 159.947 121.54L160.727 115.27H172.097V132.88H173.867ZM168.197 118.3H164.117L163.787 121.39C163.507 123.99 163.227 126.01 162.947 127.45C162.687 128.87 162.357 130 161.957 130.84C161.577 131.66 161.057 132.34 160.397 132.88H168.197V118.3ZM181.729 136.45C178.849 136.45 176.539 135.49 174.799 133.57L177.019 131.44C177.659 132.08 178.339 132.56 179.059 132.88C179.779 133.2 180.589 133.36 181.489 133.36C182.729 133.36 183.689 133.06 184.369 132.46C185.069 131.86 185.419 131.02 185.419 129.94C185.419 128.86 185.069 128.03 184.369 127.45C183.689 126.85 182.669 126.55 181.309 126.55H179.239L179.719 123.58H181.369C182.449 123.58 183.299 123.32 183.919 122.8C184.539 122.26 184.849 121.53 184.849 120.61C184.849 119.79 184.599 119.12 184.099 118.6C183.599 118.08 182.829 117.82 181.789 117.82C180.289 117.82 178.799 118.42 177.319 119.62L175.399 117.49C177.339 115.71 179.619 114.82 182.239 114.82C183.659 114.82 184.869 115.06 185.869 115.54C186.889 116 187.659 116.64 188.179 117.46C188.699 118.26 188.959 119.17 188.959 120.19C188.959 121.43 188.579 122.46 187.819 123.28C187.059 124.1 185.989 124.66 184.609 124.96C186.109 125.12 187.319 125.64 188.239 126.52C189.159 127.38 189.619 128.57 189.619 130.09C189.619 131.35 189.279 132.46 188.599 133.42C187.939 134.38 187.009 135.13 185.809 135.67C184.629 136.19 183.269 136.45 181.729 136.45ZM199.256 115.45C201.616 115.45 203.406 116.35 204.626 118.15C205.866 119.95 206.486 122.54 206.486 125.92C206.486 129.32 205.866 131.93 204.626 133.75C203.406 135.55 201.616 136.45 199.256 136.45C196.896 136.45 195.096 135.55 193.856 133.75C192.636 131.93 192.026 129.32 192.026 125.92C192.026 122.54 192.636 119.95 193.856 118.15C195.096 116.35 196.896 115.45 199.256 115.45ZM199.256 118.36C198.116 118.36 197.286 118.94 196.766 120.1C196.246 121.24 195.986 123.18 195.986 125.92C195.986 128.68 196.246 130.64 196.766 131.8C197.286 132.96 198.116 133.54 199.256 133.54C200.396 133.54 201.226 132.97 201.746 131.83C202.266 130.67 202.526 128.7 202.526 125.92C202.526 123.16 202.266 121.21 201.746 120.07C201.226 118.93 200.396 118.36 199.256 118.36ZM219.663 125.17C222.423 126.41 223.803 128.21 223.803 130.57C223.803 131.67 223.493 132.67 222.873 133.57C222.253 134.45 221.373 135.15 220.233 135.67C219.113 136.19 217.803 136.45 216.303 136.45C214.823 136.45 213.533 136.2 212.433 135.7C211.333 135.18 210.483 134.48 209.883 133.6C209.283 132.72 208.983 131.73 208.983 130.63C208.983 128.31 210.263 126.61 212.823 125.53C210.803 124.43 209.793 122.84 209.793 120.76C209.793 119.7 210.083 118.77 210.663 117.97C211.263 117.15 212.063 116.53 213.063 116.11C214.083 115.67 215.193 115.45 216.393 115.45C217.613 115.45 218.723 115.65 219.723 116.05C220.723 116.45 221.513 117.04 222.093 117.82C222.693 118.6 222.993 119.53 222.993 120.61C222.993 122.51 221.883 124.03 219.663 125.17ZM216.393 118.15C215.493 118.15 214.783 118.38 214.263 118.84C213.763 119.3 213.513 119.96 213.513 120.82C213.513 121.62 213.753 122.26 214.233 122.74C214.713 123.2 215.483 123.62 216.543 124L217.113 124.21C217.893 123.73 218.443 123.23 218.763 122.71C219.103 122.17 219.273 121.53 219.273 120.79C219.273 119.97 219.023 119.33 218.523 118.87C218.023 118.39 217.313 118.15 216.393 118.15ZM216.393 133.6C217.493 133.6 218.353 133.32 218.973 132.76C219.593 132.2 219.903 131.47 219.903 130.57C219.903 129.65 219.633 128.93 219.093 128.41C218.553 127.87 217.593 127.35 216.213 126.85L215.283 126.52C213.663 127.38 212.853 128.71 212.853 130.51C212.853 131.47 213.173 132.23 213.813 132.79C214.453 133.33 215.313 133.6 216.393 133.6Z" fill="#F4F4F4"/>
</svg>
