<svg width="389" height="393" viewBox="0 0 389 393" fill="none" xmlns="http://www.w3.org/2000/svg">
<path fill-rule="evenodd" clip-rule="evenodd" d="M184.933 391.004C212.736 391.004 239.118 384.653 262.819 373.267C266.561 378.256 272.328 381.454 278.799 381.454C290.078 381.454 299.222 371.735 299.222 359.747C299.222 356.798 298.669 353.986 297.667 351.423C337.333 319.953 364.546 272.28 370.243 217.859C379.773 216.023 386.999 207.159 386.999 196.501C386.999 185.842 379.772 176.978 370.243 175.142C364.485 120.146 336.753 72.0407 296.402 40.5864C298.194 37.2931 299.222 33.453 299.222 29.3527C299.222 17.1241 290.078 7.21094 278.799 7.21094C271.043 7.21094 264.297 11.8974 260.839 18.8006C237.653 8.00285 211.965 2 184.933 2C158.696 2 133.724 7.65523 111.077 17.8611C107.418 11.4756 100.801 7.21094 93.2448 7.21094C81.7252 7.21094 72.3867 17.1241 72.3867 29.3527C72.3867 33.048 73.2395 36.5318 74.7475 39.5946C33.7238 71.0074 5.47247 119.512 -0.367439 175.051C-10.3554 176.665 -18 185.653 -18 196.501C-18 207.348 -10.3556 216.336 -0.367737 217.95C5.41574 272.96 33.1855 321.069 73.5756 352.505C72.8057 354.77 72.3867 357.207 72.3867 359.747C72.3867 371.735 81.7252 381.454 93.2448 381.454C99.4635 381.454 105.047 378.622 108.868 374.129C132.096 384.974 157.839 391.004 184.933 391.004Z" fill="#77F721"/>
<path d="M262.819 373.267L264.419 372.067L263.433 370.753L261.953 371.464L262.819 373.267ZM297.667 351.423L296.424 349.856L295.266 350.775L295.804 352.151L297.667 351.423ZM370.243 217.859L369.865 215.895L368.408 216.176L368.254 217.651L370.243 217.859ZM370.243 175.142L368.254 175.35L368.408 176.825L369.864 177.106L370.243 175.142ZM296.402 40.5864L294.645 39.6305L293.834 41.1207L295.172 42.1637L296.402 40.5864ZM260.839 18.8006L259.995 20.6136L261.757 21.4342L262.627 19.6964L260.839 18.8006ZM111.077 17.8611L109.342 18.8556L110.245 20.4302L111.899 19.6845L111.077 17.8611ZM74.7475 39.5946L75.9634 41.1825L77.2671 40.1842L76.5418 38.7111L74.7475 39.5946ZM-0.367439 175.051L-0.0484553 177.025L1.46163 176.781L1.6216 175.26L-0.367439 175.051ZM-0.367737 217.95L1.6213 217.741L1.46136 216.22L-0.0487218 215.976L-0.367737 217.95ZM73.5756 352.505L75.4692 353.148L75.9274 351.801L74.804 350.926L73.5756 352.505ZM108.868 374.129L109.714 372.317L108.332 371.672L107.345 372.833L108.868 374.129ZM261.953 371.464C238.515 382.724 212.428 389.004 184.933 389.004V393.004C213.045 393.004 239.722 386.582 263.685 375.069L261.953 371.464ZM278.799 379.454C273.012 379.454 267.817 376.598 264.419 372.067L261.219 374.467C265.305 379.915 271.644 383.454 278.799 383.454V379.454ZM297.222 359.747C297.222 370.747 288.86 379.454 278.799 379.454V383.454C291.296 383.454 301.222 372.723 301.222 359.747H297.222ZM295.804 352.151C296.716 354.484 297.222 357.049 297.222 359.747H301.222C301.222 356.546 300.622 353.488 299.529 350.695L295.804 352.151ZM368.254 217.651C362.614 271.534 335.671 318.719 296.424 349.856L298.91 352.99C338.995 321.188 366.479 273.026 372.232 218.067L368.254 217.651ZM384.999 196.501C384.999 206.268 378.388 214.253 369.865 215.895L370.622 219.823C381.158 217.793 388.999 208.049 388.999 196.501H384.999ZM369.864 177.106C378.388 178.748 384.999 186.733 384.999 196.501H388.999C388.999 184.952 381.157 175.208 370.621 173.178L369.864 177.106ZM295.172 42.1637C335.097 73.2857 362.553 120.898 368.254 175.35L372.232 174.934C366.417 119.394 338.409 70.7957 297.632 39.009L295.172 42.1637ZM297.222 29.3527C297.222 33.1169 296.279 36.6286 294.645 39.6305L298.159 41.5423C300.109 37.9576 301.222 33.7891 301.222 29.3527H297.222ZM278.799 9.21094C288.825 9.21094 297.222 18.0735 297.222 29.3527H301.222C301.222 16.1747 291.332 5.21094 278.799 5.21094V9.21094ZM262.627 19.6964C265.789 13.3858 271.89 9.21094 278.799 9.21094V5.21094C270.196 5.21094 262.806 10.4089 259.051 17.9048L262.627 19.6964ZM184.933 4C211.665 4 237.066 9.9357 259.995 20.6136L261.683 16.9876C238.24 6.07001 212.264 0 184.933 0V4ZM111.899 19.6845C134.294 9.59202 158.986 4 184.933 4V0C158.405 0 133.154 5.71844 110.256 16.0377L111.899 19.6845ZM93.2448 9.21094C100.016 9.21094 106.004 13.0305 109.342 18.8556L112.813 16.8667C108.832 9.92073 101.586 5.21094 93.2448 5.21094V9.21094ZM74.3867 29.3527C74.3867 18.1145 82.9406 9.21094 93.2448 9.21094V5.21094C80.5098 5.21094 70.3867 16.1338 70.3867 29.3527H74.3867ZM76.5418 38.7111C75.1676 35.9202 74.3867 32.7383 74.3867 29.3527H70.3867C70.3867 33.3576 71.3113 37.1434 72.9532 40.478L76.5418 38.7111ZM1.6216 175.26C7.40379 120.27 35.3737 72.263 75.9634 41.1825L73.5315 38.0066C32.0738 69.7518 3.54114 118.754 -2.35647 174.842L1.6216 175.26ZM-16 196.501C-16 186.592 -9.02541 178.476 -0.0484553 177.025L-0.686423 173.077C-11.6855 174.854 -20 184.715 -20 196.501H-16ZM-0.0487218 215.976C-9.02555 214.525 -16 206.409 -16 196.501H-20C-20 208.286 -11.6856 218.147 -0.686752 219.925L-0.0487218 215.976ZM74.804 350.926C34.8408 319.823 7.34762 272.207 1.6213 217.741L-2.35677 218.159C3.48386 273.713 31.5302 322.315 72.3472 354.083L74.804 350.926ZM74.3867 359.747C74.3867 357.428 74.7691 355.208 75.4692 353.148L71.6821 351.861C70.8423 354.331 70.3867 356.986 70.3867 359.747H74.3867ZM93.2448 379.454C82.9043 379.454 74.3867 370.707 74.3867 359.747H70.3867C70.3867 372.764 80.5461 383.454 93.2448 383.454V379.454ZM107.345 372.833C103.877 376.911 98.8374 379.454 93.2448 379.454V383.454C100.09 383.454 106.216 380.333 110.391 375.425L107.345 372.833ZM184.933 389.004C158.14 389.004 132.684 383.041 109.714 372.317L108.022 375.941C131.508 386.906 157.539 393.004 184.933 393.004V389.004Z" fill="#77F721"/>
<ellipse cx="184.929" cy="196.502" rx="186.421" ry="194.502" fill="#F4F4F4" stroke="#77F721" stroke-width="4"/>
<ellipse cx="185.5" cy="197.5" rx="128.5" ry="129.5" fill="#F4F4F4" stroke="#77F721" stroke-width="4"/>
</svg>
