<svg width="1280" height="906" viewBox="0 0 1280 906" fill="none" xmlns="http://www.w3.org/2000/svg">
<path fill-rule="evenodd" clip-rule="evenodd" d="M916.121 318.62H735.722H604.104V325.984V341.631V362.34V383.049V398.696V413.422V694.147C622.512 713.476 711.976 713.476 871.021 713.476L1190.38 715.948L1287.04 716.697V529.394V318.62H1101.58H916.121ZM616.07 677.58V331.506H1264.03V694.147H763.334C650.677 694.147 618.217 683.102 616.07 677.58Z" fill="#77F721"/>
<path d="M735.722 318.62H916.121V151.106H735.722V318.62Z" fill="#77F721"/>
<path d="M1101.58 151.106V318.62H1287.04V151.106H1101.58Z" fill="#77F721"/>
<path d="M1101.58 2H916.121V151.106H1101.58V2Z" fill="#77F721"/>
<path d="M-181 2V151.106H-2.4417V2H-181Z" fill="#77F721"/>
<path d="M188.082 318.62V151.106H-2.4417V318.62H108.007H121.813H178.878H188.082Z" fill="#77F721"/>
<path d="M375.844 2H188.082V151.106H375.844V2Z" fill="#77F721"/>
<path d="M375.844 318.62H410.82H420.024H553.482V151.106H375.844V318.62Z" fill="#77F721"/>
<path d="M1461 151.106V2H1287.04V151.106H1461Z" fill="#77F721"/>
<path d="M916.121 318.62H1101.58V151.106H916.121V318.62Z" fill="#F4F4F4"/>
<path d="M768.857 904H1461V716.697H1287.04C1264.39 716.697 1230.77 716.382 1190.38 715.948L871.021 713.476C711.976 713.476 622.512 713.476 604.104 694.147V850.616C604.104 869.024 691.543 865.343 734.802 865.343C769.409 865.343 768.857 873.166 768.857 878.229V904Z" fill="#F4F4F4"/>
<path d="M443.034 444.716V636.161H574.651V444.716H443.034Z" fill="#77F721"/>
<path d="M430.148 325.984V398.696H481.691V325.984H430.148Z" fill="#77F721"/>
<path d="M121.813 421.706H-35.9974C-36.4718 540.258 -34.4419 733.549 -32.8277 850.616H121.813V806.437H-7.04372V723.6H121.813V668.376H-7.04372V444.716H121.813V421.706Z" fill="#77F721"/>
<path fill-rule="evenodd" clip-rule="evenodd" d="M359.277 850.616V421.706H178.878V850.616H359.277ZM200.967 806.437V723.6H331.665V806.437H200.967ZM200.967 668.376V444.716H331.665V668.376H200.967Z" fill="#77F721"/>
<path d="M188.082 318.62H178.878V398.696H359.277V318.62H331.665V372.924H211.092V318.62H188.082Z" fill="#77F721"/>
<path d="M-7.04372 318.62H-32.815C-34.5648 318.62 -35.4916 349.968 -35.8656 398.696H121.813V318.62H108.007V372.924H-7.04372V318.62Z" fill="#77F721"/>
<path d="M-181 151.106V2H-2.4417M-181 151.106V318.62M-181 151.106H-2.4417M1461 151.106V2H1287.04M1461 151.106V318.62M1461 151.106H1287.04M-181 318.62H-91.7208M-181 318.62V529.394M1461 318.62H1287.04M1461 318.62V529.394M-2.4417 2H188.082M-2.4417 2V151.106M-2.4417 318.62H-7.04372M-2.4417 318.62H108.007M-2.4417 318.62V151.106M1287.04 2V151.106M1287.04 2H1101.58M1287.04 151.106V318.62M1287.04 151.106H1101.58M188.082 2H375.844M188.082 2V151.106M188.082 318.62H178.878M188.082 318.62H211.092M188.082 318.62V151.106M375.844 2H553.482H735.722H916.121M375.844 2V151.106M375.844 318.62H359.277M375.844 318.62H410.82M375.844 318.62V151.106M553.482 318.62H604.104M553.482 318.62H420.024M553.482 318.62V151.106M735.722 318.62H916.121M735.722 318.62H604.104M735.722 318.62V151.106M916.121 2H1101.58M916.121 2V151.106M916.121 318.62H1101.58M916.121 318.62V151.106M1101.58 2V151.106M1101.58 318.62H1287.04M1101.58 318.62V151.106M1287.04 318.62V529.394M-91.7208 318.62V529.394M-91.7208 318.62H-57.6659M-91.7208 904H-181V713.476M-91.7208 904V878.229M-91.7208 904H768.857M-181 713.476H-91.7208M-181 713.476V529.394M-91.7208 713.476V529.394M-91.7208 713.476V878.229M-181 529.394H-91.7208M-91.7208 878.229H768.857M-91.7208 878.229L-57.6659 860.741M768.857 878.229V904M768.857 878.229C768.857 873.166 769.409 865.343 734.802 865.343C691.543 865.343 604.104 869.024 604.104 850.616V694.147M768.857 904H1461V716.697M604.104 694.147C622.512 713.476 711.976 713.476 871.021 713.476M604.104 694.147V413.422M871.021 713.476L1190.38 715.948M871.021 713.476C980.314 713.476 1101.66 714.997 1190.38 715.948M1287.04 716.697V529.394M1287.04 716.697H1461M1287.04 716.697C1264.39 716.697 1230.77 716.382 1190.38 715.948M1287.04 716.697L1190.38 715.948M-57.6659 318.62V860.741M-57.6659 318.62H-32.815M-57.6659 860.741H-42.0191L-32.815 851.537C-32.8192 851.23 -32.8235 850.924 -32.8277 850.616M-32.815 318.62H-7.04372M-32.815 318.62C-34.5648 318.62 -35.4916 349.968 -35.8656 398.696M121.813 318.62H178.878M121.813 318.62H108.007M121.813 318.62V398.696M121.813 850.616C121.813 868.104 178.878 867.184 178.878 851.537V850.616M121.813 850.616V806.437M121.813 850.616H-32.8277M178.878 318.62V398.696M359.277 318.62H331.665M359.277 318.62V398.696M359.277 850.616C359.277 865.343 410.82 865.343 410.82 851.537V318.62M359.277 850.616V421.706M359.277 850.616H178.878M410.82 318.62H420.024M604.104 318.62V325.984M1461 529.394H1287.04M1461 529.394V716.697M420.024 318.62V413.422H604.104M604.104 413.422V398.696M604.104 398.696H491.815V383.049M604.104 398.696V383.049M604.104 325.984H491.815V341.631M604.104 325.984V341.631M211.092 318.62V372.924H331.665V318.62M211.092 318.62H331.665M-7.04372 318.62V372.924H108.007V318.62M-35.8656 398.696H121.813M-35.8656 398.696C-35.9217 405.992 -35.9653 413.678 -35.9974 421.706M121.813 398.696V421.706M178.878 398.696H359.277M178.878 398.696V421.706M359.277 398.696V421.706M178.878 421.706H359.277M178.878 421.706V850.616M-35.9974 421.706H121.813M-35.9974 421.706C-36.4718 540.258 -34.4419 733.55 -32.8277 850.616M121.813 421.706V444.716M121.813 444.716H-7.04372V668.376H121.813M121.813 444.716V668.376M121.813 668.376V723.6M121.813 806.437H-7.04372V723.6H121.813M121.813 806.437V723.6M763.334 694.147C650.677 694.147 618.217 683.102 616.07 677.58V331.506H1264.03V694.147M763.334 694.147C875.992 694.147 1144.07 694.147 1264.03 694.147M763.334 694.147H1264.03M553.482 151.106H735.722M553.482 151.106H375.844M735.722 151.106H916.121M916.121 151.106H1101.58M-2.4417 151.106H188.082M188.082 151.106H375.844M491.815 341.631H604.104M491.815 341.631V362.34M604.104 341.631V362.34M491.815 383.049H604.104M491.815 383.049V362.34M604.104 383.049V362.34M491.815 362.34H604.104M420.024 421.706H596.741V851.537H420.024V421.706ZM430.148 431.831V844.174H586.617V431.831H430.148ZM443.034 444.716V636.161H574.651V444.716H443.034ZM443.034 652.729H574.651V832.208H443.034V652.729ZM430.148 325.984V398.696H481.691V325.984H430.148ZM200.967 723.6V806.437H331.665V723.6H200.967ZM200.967 444.716V668.376H331.665V444.716H200.967Z" stroke="#77F721" stroke-width="4"/>
</svg>
