<svg width="1280" height="1024" viewBox="0 0 1280 1024" fill="none" xmlns="http://www.w3.org/2000/svg">
<g clip-path="url(#clip0_5013_1681)">
<rect width="1280" height="1024" fill="#F4F4F4"/>
<rect x="1.15979" y="0.809247" width="102.927" height="30.2143" rx="3.60204" transform="matrix(0.98452 -0.175273 0.175272 0.98452 458.876 748.747)" fill="#F4F4F4" stroke="#101010" stroke-width="2"/>
<path d="M511.141 712.195L511.141 740.268" stroke="#101010" stroke-width="2"/>
<rect x="1088.71" y="675.766" width="142.194" height="122.874" rx="5.21682" stroke="#77F721" stroke-width="2"/>
<line y1="-1" x2="29.1797" y2="-1" transform="matrix(0.864012 0.503471 -0.500287 0.86586 1106.32 731.75)" stroke="#77F721" stroke-width="2"/>
<line y1="-1" x2="29.1797" y2="-1" transform="matrix(-0.864015 0.503466 0.500292 0.865857 1214.63 731.75)" stroke="#77F721" stroke-width="2"/>
<rect x="1101.43" y="800.641" width="15.055" height="2.35969" fill="#F4F4F4" stroke="#77F721" stroke-width="2"/>
<rect x="1202.2" y="800.641" width="15.3651" height="2.35969" fill="#101010" stroke="#77F721" stroke-width="2"/>
<rect x="1101.43" y="800.641" width="15.3651" height="2.35969" fill="#101010" stroke="#77F721" stroke-width="2"/>
<path d="M1151.52 700.926C1151.52 721.876 1134.61 738.852 1113.76 738.852C1092.91 738.852 1076 721.876 1076 700.926C1076 679.976 1092.91 663 1113.76 663C1134.61 663 1151.52 679.976 1151.52 700.926Z" fill="#F4F4F4" stroke="#77F721" stroke-width="2"/>
<path d="M1145.94 701.083C1145.94 718.851 1131.6 733.247 1113.92 733.247C1096.23 733.247 1081.89 718.851 1081.89 701.083C1081.89 683.315 1096.23 668.918 1113.92 668.918C1131.6 668.918 1145.94 683.315 1145.94 701.083Z" stroke="#77F721" stroke-width="2"/>
<path d="M1131.36 701.861C1131.36 709.771 1126.1 716.445 1118.91 718.546C1117.37 718.994 1115.75 719.234 1114.07 719.234C1112.39 719.234 1110.77 718.994 1109.23 718.546C1102.04 716.445 1096.77 709.771 1096.77 701.861C1096.77 700.386 1096.96 698.955 1097.3 697.59C1098.16 694.183 1100.02 691.175 1102.55 688.903C1105.61 686.157 1109.64 684.488 1114.07 684.488C1118.49 684.488 1122.53 686.157 1125.59 688.903C1128.12 691.175 1129.98 694.183 1130.84 697.59C1131.18 698.955 1131.36 700.386 1131.36 701.861Z" stroke="#77F721" stroke-width="2"/>
<path d="M1122.69 702.017C1122.69 706.715 1118.89 710.515 1114.23 710.515C1109.56 710.515 1105.77 706.715 1105.77 702.017C1105.77 697.32 1109.56 693.52 1114.23 693.52C1118.89 693.52 1122.69 697.32 1122.69 702.017Z" fill="#77F721" stroke="#77F721" stroke-width="2"/>
<path d="M1110.04 730.346C1109.67 730.278 1109.33 730.21 1109.05 730.15L1109.54 727.786C1109.72 727.822 1109.92 727.853 1110.12 727.879C1111.09 728.007 1112.36 728.067 1113.61 728.067C1114.86 728.067 1116.13 728.007 1117.09 727.879C1117.29 727.853 1117.49 727.822 1117.68 727.786L1118.17 730.147C1117.86 730.211 1117.5 730.283 1117.11 730.355C1115.95 730.566 1114.56 730.763 1113.51 730.758C1112.49 730.752 1111.16 730.555 1110.04 730.346ZM1110.38 725.897C1110.21 725.874 1110.07 725.851 1109.94 725.827L1110.56 722.793H1116.65L1117.28 725.827C1117.15 725.851 1117 725.874 1116.83 725.897C1115.98 726.008 1114.81 726.067 1113.61 726.067C1112.41 726.067 1111.23 726.008 1110.38 725.897Z" stroke="#77F721" stroke-width="2"/>
<path d="M1141.96 691.558C1142.06 691.917 1142.15 692.25 1142.23 692.534L1139.91 693.146C1139.85 692.958 1139.79 692.765 1139.73 692.57C1139.41 691.646 1138.9 690.476 1138.35 689.354C1137.79 688.231 1137.17 687.115 1136.63 686.304C1136.52 686.133 1136.4 685.967 1136.28 685.812L1138.17 684.329C1138.36 684.574 1138.58 684.866 1138.82 685.189C1139.53 686.14 1140.32 687.298 1140.78 688.25C1141.23 689.168 1141.65 690.457 1141.96 691.558ZM1137.84 693.222C1137.89 693.386 1137.94 693.53 1137.97 693.655L1135 694.44L1132.29 688.956L1134.71 687.05C1134.79 687.154 1134.87 687.277 1134.97 687.421C1135.45 688.133 1136.02 689.166 1136.56 690.246C1137.09 691.326 1137.56 692.411 1137.84 693.222Z" stroke="#77F721" stroke-width="2"/>
<path d="M1097.14 688.36L1093.71 695.303L1089.23 694.121C1088.29 693.874 1092.73 684.888 1093.49 685.489L1097.14 688.36Z" fill="#77F721"/>
<path d="M1086.21 691.245C1086.11 691.605 1086.02 691.938 1085.95 692.222L1088.27 692.833C1088.32 692.646 1088.38 692.452 1088.44 692.258C1088.76 691.334 1089.27 690.164 1089.83 689.041C1090.38 687.919 1091 686.802 1091.54 685.991C1091.66 685.821 1091.77 685.654 1091.89 685.5L1090 684.016C1089.81 684.261 1089.59 684.554 1089.35 684.876C1088.64 685.827 1087.85 686.985 1087.39 687.937C1086.94 688.856 1086.52 690.145 1086.21 691.245ZM1090.33 692.91C1090.28 693.074 1090.23 693.218 1090.2 693.343L1093.18 694.128L1095.89 688.644L1093.46 686.737C1093.38 686.841 1093.3 686.965 1093.2 687.108C1092.73 687.821 1092.15 688.853 1091.62 689.933C1091.08 691.013 1090.61 692.098 1090.33 692.91Z" stroke="#77F721" stroke-width="2"/>
<path d="M1243 700.926C1243 721.876 1226.09 738.852 1205.24 738.852C1184.39 738.852 1167.48 721.876 1167.48 700.926C1167.48 679.976 1184.39 663 1205.24 663C1226.09 663 1243 679.976 1243 700.926Z" fill="#F4F4F4" stroke="#77F721" stroke-width="2"/>
<path d="M1237.42 701.083C1237.42 718.851 1223.07 733.247 1205.39 733.247C1187.71 733.247 1173.37 718.851 1173.37 701.083C1173.37 683.315 1187.71 668.918 1205.39 668.918C1223.07 668.918 1237.42 683.315 1237.42 701.083Z" fill="#F4F4F4" stroke="#77F721" stroke-width="2"/>
<path d="M1222.84 701.861C1222.84 709.771 1217.58 716.445 1210.38 718.546C1208.85 718.994 1207.23 719.234 1205.55 719.234C1203.87 719.234 1202.24 718.994 1200.71 718.546C1193.51 716.445 1188.25 709.771 1188.25 701.861C1188.25 700.386 1188.43 698.955 1188.78 697.59C1189.63 694.183 1191.49 691.175 1194.02 688.903C1197.08 686.157 1201.12 684.488 1205.55 684.488C1209.97 684.488 1214.01 686.157 1217.07 688.903C1219.6 691.175 1221.46 694.183 1222.31 697.59C1222.66 698.955 1222.84 700.386 1222.84 701.861Z" fill="#F4F4F4" stroke="#77F721" stroke-width="2"/>
<path d="M1214.16 702.017C1214.16 706.715 1210.37 710.515 1205.7 710.515C1201.04 710.515 1197.25 706.715 1197.25 702.017C1197.25 697.32 1201.04 693.52 1205.7 693.52C1210.37 693.52 1214.16 697.32 1214.16 702.017Z" fill="#77F721" stroke="#77F721" stroke-width="2"/>
<path fill-rule="evenodd" clip-rule="evenodd" d="M1210.82 730.91L1209.88 726.351C1210.08 727.305 1200.09 727.305 1200.29 726.351L1199.35 730.91C1199.35 730.91 1202.76 731.746 1204.98 731.758C1207.28 731.77 1210.82 730.91 1210.82 730.91Z" fill="#F4F4F4"/>
<path d="M1208.94 721.793H1201.23L1200.29 726.351C1200.09 727.305 1210.08 727.305 1209.88 726.351L1208.94 721.793Z" fill="#77F721"/>
<path d="M1201.51 730.346C1201.15 730.278 1200.81 730.21 1200.53 730.15L1201.01 727.786C1201.2 727.822 1201.4 727.853 1201.6 727.879C1202.56 728.007 1203.84 728.067 1205.08 728.067C1206.33 728.067 1207.6 728.007 1208.57 727.879C1208.77 727.853 1208.97 727.822 1209.16 727.786L1209.64 730.147C1209.34 730.211 1208.98 730.283 1208.59 730.355C1207.42 730.566 1206.04 730.763 1204.99 730.758C1203.97 730.752 1202.63 730.555 1201.51 730.346ZM1201.86 725.897C1201.69 725.874 1201.54 725.851 1201.42 725.827L1202.04 722.793H1208.13L1208.75 725.827C1208.63 725.851 1208.48 725.874 1208.31 725.897C1207.46 726.008 1206.28 726.067 1205.08 726.067C1203.88 726.067 1202.71 726.008 1201.86 725.897Z" stroke="#77F721" stroke-width="2"/>
<path fill-rule="evenodd" clip-rule="evenodd" d="M1229.8 682.931L1226.16 685.802C1226.92 685.201 1231.36 694.186 1230.42 694.434L1234.91 693.252C1234.91 693.252 1234.14 689.814 1233.16 687.808C1232.14 685.73 1229.8 682.931 1229.8 682.931Z" fill="#F4F4F4"/>
<path d="M1222.51 688.673L1225.94 695.616L1230.42 694.434C1231.36 694.186 1226.92 685.201 1226.16 685.802L1222.51 688.673Z" fill="#77F721"/>
<path d="M1233.44 691.557C1233.54 691.917 1233.63 692.25 1233.7 692.534L1231.38 693.146C1231.33 692.958 1231.27 692.765 1231.2 692.57C1230.89 691.646 1230.38 690.476 1229.82 689.354C1229.27 688.231 1228.65 687.115 1228.11 686.304C1227.99 686.133 1227.88 685.967 1227.76 685.812L1229.64 684.329C1229.84 684.574 1230.06 684.866 1230.3 685.189C1231 686.14 1231.8 687.298 1232.26 688.25C1232.71 689.168 1233.13 690.457 1233.44 691.557ZM1229.31 693.222C1229.37 693.386 1229.41 693.53 1229.45 693.655L1226.47 694.44L1223.76 688.956L1226.19 687.05C1226.26 687.154 1226.35 687.277 1226.45 687.421C1226.92 688.133 1227.5 689.166 1228.03 690.246C1228.57 691.326 1229.04 692.411 1229.31 693.222Z" stroke="#77F721" stroke-width="2"/>
<path fill-rule="evenodd" clip-rule="evenodd" d="M1181.32 682.618L1184.97 685.489C1184.21 684.888 1179.76 693.874 1180.7 694.121L1176.22 692.939C1176.22 692.939 1176.99 689.501 1177.97 687.496C1178.98 685.418 1181.32 682.618 1181.32 682.618Z" fill="#F4F4F4"/>
<path d="M1188.62 688.36L1185.19 695.303L1180.7 694.121C1179.76 693.874 1184.21 684.888 1184.97 685.489L1188.62 688.36Z" fill="#77F721"/>
<path d="M1177.69 691.245C1177.59 691.605 1177.5 691.938 1177.42 692.222L1179.74 692.833C1179.79 692.646 1179.85 692.452 1179.92 692.258C1180.24 691.334 1180.75 690.163 1181.3 689.041C1181.86 687.919 1182.48 686.802 1183.02 685.991C1183.13 685.82 1183.25 685.654 1183.37 685.5L1181.48 684.016C1181.29 684.261 1181.06 684.554 1180.83 684.876C1180.12 685.827 1179.33 686.985 1178.86 687.937C1178.42 688.856 1178 690.145 1177.69 691.245ZM1181.81 692.91C1181.76 693.074 1181.71 693.218 1181.67 693.343L1184.65 694.128L1187.36 688.644L1184.94 686.737C1184.86 686.841 1184.77 686.965 1184.68 687.108C1184.2 687.821 1183.63 688.853 1183.09 689.933C1182.56 691.013 1182.09 692.098 1181.81 692.91Z" stroke="#77F721" stroke-width="2"/>
<line x1="1186.59" y1="746.465" x2="1132.4" y2="746.465" stroke="#77F721" stroke-width="2"/>
<line x1="1195.56" y1="737.738" x2="1123.94" y2="737.738" stroke="#77F721" stroke-width="2"/>
<path d="M1135.4 743.74C1135.4 745.342 1134.11 746.633 1132.52 746.633C1130.94 746.633 1129.64 745.342 1129.64 743.74C1129.64 742.139 1130.94 740.848 1132.52 740.848C1134.11 740.848 1135.4 742.139 1135.4 743.74Z" fill="#F4F4F4" stroke="#77F721" stroke-width="2"/>
<path d="M1189.35 743.74C1189.35 745.342 1188.06 746.633 1186.47 746.633C1184.89 746.633 1183.6 745.342 1183.6 743.74C1183.6 742.139 1184.89 740.848 1186.47 740.848C1188.06 740.848 1189.35 742.139 1189.35 743.74Z" fill="#F4F4F4" stroke="#77F721" stroke-width="2"/>
<path d="M1168.1 729.785L1174.47 735.609V748.494H1144.53V735.582L1150.3 729.785H1168.1Z" fill="#F4F4F4" stroke="#77F721" stroke-width="2"/>
<rect x="646.715" y="675.805" width="142.194" height="123.195" rx="5.21682" stroke="#77F721" stroke-width="2"/>
<line y1="-1" x2="29.1988" y2="-1" transform="matrix(0.863448 0.504438 -0.499322 0.866416 664.316 731.938)" stroke="#77F721" stroke-width="2"/>
<line y1="-1" x2="29.1988" y2="-1" transform="matrix(-0.863451 0.504433 0.499327 0.866413 772.637 731.938)" stroke="#77F721" stroke-width="2"/>
<path d="M709.524 701.027C709.524 722.034 692.611 739.053 671.762 739.053C650.913 739.053 634 722.034 634 701.027C634 680.019 650.913 663 671.762 663C692.611 663 709.524 680.019 709.524 701.027Z" fill="#F4F4F4" stroke="#77F721" stroke-width="2"/>
<path d="M703.94 701.184C703.94 719.002 689.596 733.435 671.915 733.435C654.235 733.435 639.891 719.002 639.891 701.184C639.891 683.366 654.235 668.934 671.915 668.934C689.596 668.934 703.94 683.366 703.94 701.184Z" stroke="#77F721" stroke-width="2"/>
<path d="M689.364 701.963C689.364 709.897 684.1 716.588 676.904 718.694C675.371 719.143 673.749 719.384 672.069 719.384C670.389 719.384 668.767 719.143 667.233 718.694C660.038 716.588 654.773 709.897 654.773 701.963C654.773 700.484 654.956 699.049 655.3 697.679C656.158 694.263 658.018 691.247 660.549 688.969C663.609 686.215 667.644 684.543 672.069 684.543C676.493 684.543 680.529 686.215 683.589 688.969C686.119 691.247 687.98 694.263 688.837 697.679C689.181 699.049 689.364 700.484 689.364 701.963Z" stroke="#77F721" stroke-width="2"/>
<path d="M680.685 702.12C680.685 706.833 676.892 710.643 672.227 710.643C667.563 710.643 663.77 706.833 663.77 702.12C663.77 697.407 667.563 693.598 672.227 693.598C676.892 693.598 680.685 697.407 680.685 702.12Z" fill="#77F721" stroke="#77F721" stroke-width="2"/>
<path d="M668.037 730.523C667.671 730.455 667.334 730.387 667.048 730.326L667.536 727.952C667.724 727.988 667.922 728.018 668.123 728.045C669.088 728.172 670.36 728.233 671.608 728.233C672.856 728.233 674.127 728.172 675.092 728.045C675.293 728.018 675.491 727.988 675.68 727.952L676.167 730.324C675.863 730.388 675.502 730.46 675.108 730.532C673.947 730.744 672.563 730.942 671.509 730.936C670.491 730.931 669.157 730.733 668.037 730.523ZM675.277 725.992C675.151 726.016 675.002 726.04 674.831 726.062C673.984 726.174 672.808 726.233 671.608 726.233C670.408 726.233 669.231 726.174 668.385 726.062C668.214 726.04 668.065 726.016 667.938 725.992L668.564 722.945H674.652L675.277 725.992Z" stroke="#77F721" stroke-width="2"/>
<path d="M699.962 691.637C700.064 691.998 700.153 692.332 700.226 692.618L697.907 693.231C697.855 693.042 697.793 692.847 697.726 692.651C697.411 691.725 696.9 690.552 696.345 689.427C695.791 688.302 695.172 687.183 694.63 686.37C694.515 686.198 694.398 686.031 694.281 685.875L696.167 684.387C696.359 684.633 696.584 684.927 696.823 685.25C697.528 686.204 698.32 687.365 698.784 688.32C699.233 689.241 699.65 690.534 699.962 691.637ZM690.285 689.027L692.709 687.115C692.787 687.22 692.874 687.344 692.97 687.488C693.447 688.203 694.023 689.238 694.556 690.321C695.09 691.404 695.561 692.492 695.838 693.306C695.894 693.471 695.939 693.616 695.975 693.741L692.997 694.528L690.285 689.027Z" stroke="#77F721" stroke-width="2"/>
<path d="M655.141 688.428L651.71 695.389L647.226 694.204C646.288 693.956 650.729 684.947 651.492 685.549L655.141 688.428Z" fill="#77F721"/>
<path d="M644.21 691.32C644.108 691.682 644.019 692.016 643.946 692.301L646.265 692.914C646.317 692.726 646.379 692.531 646.445 692.335C646.761 691.409 647.272 690.236 647.827 689.111C648.381 687.985 649 686.866 649.542 686.053C649.656 685.881 649.773 685.714 649.891 685.559L648.005 684.071C647.813 684.317 647.588 684.61 647.349 684.934C646.644 685.887 645.852 687.049 645.387 688.003C644.939 688.925 644.522 690.218 644.21 691.32ZM653.887 688.711L651.463 686.799C651.385 686.903 651.298 687.027 651.201 687.172C650.725 687.886 650.149 688.922 649.616 690.005C649.082 691.087 648.611 692.175 648.334 692.989C648.278 693.154 648.233 693.299 648.197 693.425L651.175 694.212L653.887 688.711Z" stroke="#77F721" stroke-width="2"/>
<path d="M801 701.027C801 722.034 784.087 739.053 763.238 739.053C742.389 739.053 725.477 722.034 725.477 701.027C725.477 680.019 742.389 663 763.238 663C784.087 663 801 680.019 801 701.027Z" fill="#F4F4F4" stroke="#77F721" stroke-width="2"/>
<path d="M795.416 701.184C795.416 719.002 781.072 733.435 763.392 733.435C745.712 733.435 731.367 719.002 731.367 701.184C731.367 683.366 745.712 668.934 763.392 668.934C781.072 668.934 795.416 683.366 795.416 701.184Z" fill="#F4F4F4" stroke="#77F721" stroke-width="2"/>
<path d="M780.841 701.963C780.841 709.897 775.577 716.588 768.381 718.694C766.848 719.143 765.225 719.384 763.545 719.384C761.865 719.384 760.243 719.143 758.71 718.694C751.514 716.588 746.25 709.897 746.25 701.963C746.25 700.484 746.433 699.049 746.777 697.679C747.634 694.263 749.495 691.247 752.026 688.969C755.085 686.215 759.121 684.543 763.545 684.543C767.97 684.543 772.005 686.215 775.065 688.969C777.596 691.247 779.457 694.263 780.314 697.679C780.658 699.049 780.841 700.484 780.841 701.963Z" fill="#F4F4F4" stroke="#77F721" stroke-width="2"/>
<path d="M772.162 702.12C772.162 706.833 768.369 710.643 763.704 710.643C759.039 710.643 755.246 706.833 755.246 702.12C755.246 697.407 759.039 693.598 763.704 693.598C768.369 693.598 772.162 697.407 772.162 702.12Z" fill="#77F721" stroke="#77F721" stroke-width="2"/>
<path fill-rule="evenodd" clip-rule="evenodd" d="M768.821 731.086L767.882 726.516C768.079 727.472 758.09 727.472 758.286 726.516L757.348 731.086C757.348 731.086 760.756 731.924 762.98 731.936C765.284 731.948 768.821 731.086 768.821 731.086Z" fill="#F4F4F4"/>
<path d="M766.944 721.945H759.225L758.286 726.516C758.09 727.472 768.079 727.472 767.882 726.516L766.944 721.945Z" fill="#77F721"/>
<path d="M759.514 730.523C759.147 730.455 758.811 730.387 758.525 730.326L759.012 727.952C759.201 727.988 759.399 728.018 759.6 728.045C760.565 728.172 761.836 728.233 763.084 728.233C764.332 728.233 765.604 728.172 766.569 728.045C766.77 728.018 766.968 727.988 767.156 727.952L767.644 730.324C767.34 730.388 766.979 730.46 766.585 730.532C765.424 730.744 764.039 730.942 762.985 730.936C761.968 730.931 760.633 730.733 759.514 730.523ZM766.754 725.992C766.627 726.016 766.478 726.04 766.307 726.062C765.461 726.174 764.284 726.233 763.084 726.233C761.884 726.233 760.708 726.174 759.861 726.062C759.69 726.04 759.542 726.016 759.415 725.992L760.041 722.945H766.128L766.754 725.992Z" stroke="#77F721" stroke-width="2"/>
<path fill-rule="evenodd" clip-rule="evenodd" d="M787.805 682.987L784.156 685.866C784.92 685.263 789.36 694.272 788.422 694.52L792.905 693.335C792.905 693.335 792.136 689.888 791.158 687.877C790.144 685.794 787.805 682.987 787.805 682.987Z" fill="#F4F4F4"/>
<path d="M780.508 688.744L783.939 695.705L788.422 694.52C789.36 694.272 784.92 685.263 784.156 685.866L780.508 688.744Z" fill="#77F721"/>
<path d="M791.438 691.637C791.54 691.998 791.629 692.332 791.703 692.618L789.383 693.231C789.331 693.042 789.27 692.847 789.203 692.651C788.888 691.725 788.377 690.552 787.822 689.427C787.267 688.302 786.648 687.183 786.107 686.37C785.992 686.198 785.875 686.031 785.757 685.875L787.643 684.387C787.835 684.633 788.06 684.927 788.3 685.25C789.005 686.204 789.797 687.365 790.261 688.32C790.709 689.241 791.127 690.534 791.438 691.637ZM781.762 689.027L784.185 687.115C784.263 687.22 784.351 687.344 784.447 687.488C784.923 688.203 785.499 689.238 786.033 690.321C786.567 691.404 787.037 692.492 787.315 693.306C787.371 693.471 787.416 693.616 787.451 693.741L784.474 694.528L781.762 689.027Z" stroke="#77F721" stroke-width="2"/>
<path fill-rule="evenodd" clip-rule="evenodd" d="M739.32 682.671L742.969 685.549C742.205 684.947 737.765 693.956 738.703 694.204L734.22 693.019C734.22 693.019 734.989 689.572 735.967 687.561C736.981 685.477 739.32 682.671 739.32 682.671Z" fill="#F4F4F4"/>
<path d="M746.617 688.428L743.186 695.389L738.703 694.204C737.765 693.956 742.205 684.947 742.969 685.549L746.617 688.428Z" fill="#77F721"/>
<path d="M735.687 691.32C735.585 691.682 735.496 692.016 735.422 692.301L737.742 692.914C737.794 692.726 737.855 692.531 737.922 692.335C738.237 691.409 738.748 690.236 739.303 689.111C739.858 687.985 740.477 686.866 741.018 686.053C741.133 685.881 741.25 685.714 741.368 685.558L739.482 684.071C739.29 684.317 739.065 684.61 738.825 684.934C738.12 685.887 737.328 687.049 736.864 688.003C736.416 688.925 735.998 690.217 735.687 691.32ZM745.363 688.711L742.94 686.799C742.862 686.903 742.774 687.027 742.678 687.172C742.202 687.886 741.626 688.922 741.092 690.005C740.558 691.087 740.088 692.175 739.81 692.989C739.754 693.154 739.709 693.299 739.674 693.425L742.651 694.212L745.363 688.711Z" stroke="#77F721" stroke-width="2"/>
<line x1="744.594" y1="746.684" x2="690.403" y2="746.684" stroke="#77F721" stroke-width="2"/>
<line x1="753.562" y1="737.934" x2="681.943" y2="737.934" stroke="#77F721" stroke-width="2"/>
<path d="M693.397 743.957C693.397 745.567 692.103 746.86 690.521 746.86C688.939 746.86 687.645 745.567 687.645 743.957C687.645 742.348 688.939 741.055 690.521 741.055C692.103 741.055 693.397 742.348 693.397 743.957Z" fill="#F4F4F4" stroke="#77F721" stroke-width="2"/>
<path d="M747.354 743.957C747.354 745.567 746.06 746.86 744.478 746.86C742.896 746.86 741.602 745.567 741.602 743.957C741.602 742.348 742.896 741.055 744.478 741.055C746.06 741.055 747.354 742.348 747.354 743.957Z" fill="#F4F4F4" stroke="#77F721" stroke-width="2"/>
<path d="M670.211 764.043L676.684 755.664" stroke="#77F721" stroke-width="2" stroke-linecap="round"/>
<path d="M697.496 764.043L703.969 755.664" stroke="#77F721" stroke-width="2" stroke-linecap="round"/>
<path d="M726.104 729.961L732.471 735.801V748.723H702.531V735.774L708.304 729.961H726.104Z" fill="#F4F4F4" stroke="#77F721" stroke-width="2"/>
<path d="M1106.31 447.412H1099.5H1095.5V449.451H1093V452H1113V449.451H1110.5V447.412H1110H1106.31Z" fill="#77F721"/>
<path d="M1103.75 435.615C1102.92 435.637 1102.08 435.611 1101.25 435.539C1100.38 435.464 1099.54 435.34 1098.75 435.169V442.315H1099.5H1101.5L1102.75 439.512L1104.25 442.315H1105.62H1106.31H1107V435.237C1106.01 435.462 1104.9 435.585 1103.75 435.615Z" fill="#77F721"/>
<path d="M1110.75 410.967V406.607C1110.75 405.361 1109.64 404.438 1108 403.837M1110.75 410.967H1103.75M1110.75 410.967V415.809M1101.25 403.037C1101.66 403.012 1102.08 403 1102.5 403C1102.92 403 1103.34 403.012 1103.75 403.037M1101.25 403.037V408.418M1101.25 403.037C1100.57 403.078 1099.89 403.153 1099.25 403.261C1098.44 403.399 1097.67 403.591 1097 403.837M1103.75 403.037L1103.75 408.418M1103.75 403.037C1105.3 403.13 1106.8 403.397 1108 403.837M1097 403.837C1095.36 404.438 1094.25 405.361 1094.25 406.607V410.967M1097 403.837V408.418M1108 403.837V408.418M1094.25 415.809H1101.25M1094.25 415.809V424.001M1094.25 415.809V410.967M1110.75 415.809H1103.75M1110.75 415.809V424.001M1094.25 424.001H1101.25M1094.25 424.001V428.097M1110.75 424.001H1103.75M1110.75 424.001V428.097M1094.25 428.097V432.193C1094.25 433.243 1095.36 434.089 1097 434.678M1094.25 428.097H1101.25M1110.75 428.097V432.193C1110.75 433.505 1109.64 434.41 1108 434.959M1110.75 428.097H1103.75M1101.25 435.539V430.082M1101.25 435.539C1102.08 435.611 1102.92 435.637 1103.75 435.615M1101.25 435.539C1100.38 435.464 1099.54 435.34 1098.75 435.169M1103.75 435.615L1103.75 430.082M1103.75 435.615C1104.9 435.585 1106.01 435.462 1107 435.237M1108 434.959V430.082M1108 434.959C1107.69 435.065 1107.35 435.157 1107 435.237M1097 434.678V430.082M1097 434.678C1097.53 434.87 1098.12 435.034 1098.75 435.169M1098.75 435.169V442.315H1099.5M1107 435.237V442.315H1106.31M1099.5 442.315H1101.5L1102.75 439.512L1104.25 442.315H1105.63H1106.31M1099.5 442.315V447.412M1099.5 447.412H1106.31M1099.5 447.412H1095.5V449.451H1093V452H1113V449.451H1110.5V447.412H1110H1106.31M1106.31 442.315V447.412M1094.25 410.967H1101.25" stroke="#77F721"/>
<path d="M1103.5 419.381C1103.5 419.958 1103.04 420.41 1102.5 420.41C1101.95 420.41 1101.5 419.958 1101.5 419.381C1101.5 418.803 1101.95 418.352 1102.5 418.352C1103.04 418.352 1103.5 418.803 1103.5 419.381Z" fill="#77F721" fill-opacity="0.7" stroke="#77F721"/>
<path d="M1146.31 447.412H1139.5H1135.5V449.451H1133V452H1153V449.451H1150.5V447.412H1150H1146.31Z" fill="#77F721"/>
<path d="M1143.75 435.615C1142.92 435.637 1142.08 435.611 1141.25 435.539C1140.38 435.464 1139.54 435.34 1138.75 435.169V442.315H1139.5H1141.5L1142.75 439.512L1144.25 442.315H1145.62H1146.31H1147V435.237C1146.01 435.462 1144.9 435.585 1143.75 435.615Z" fill="#77F721"/>
<path d="M1150.75 410.967V406.607C1150.75 405.361 1149.64 404.438 1148 403.837M1150.75 410.967H1143.75M1150.75 410.967V415.809M1141.25 403.037C1141.66 403.012 1142.08 403 1142.5 403C1142.92 403 1143.34 403.012 1143.75 403.037M1141.25 403.037V408.418M1141.25 403.037C1140.57 403.078 1139.89 403.153 1139.25 403.261C1138.44 403.399 1137.67 403.591 1137 403.837M1143.75 403.037L1143.75 408.418M1143.75 403.037C1145.3 403.13 1146.8 403.397 1148 403.837M1137 403.837C1135.36 404.438 1134.25 405.361 1134.25 406.607V410.967M1137 403.837V408.418M1148 403.837V408.418M1134.25 415.809H1141.25M1134.25 415.809V424.001M1134.25 415.809V410.967M1150.75 415.809H1143.75M1150.75 415.809V424.001M1134.25 424.001H1141.25M1134.25 424.001V428.097M1150.75 424.001H1143.75M1150.75 424.001V428.097M1134.25 428.097V432.193C1134.25 433.243 1135.36 434.089 1137 434.678M1134.25 428.097H1141.25M1150.75 428.097V432.193C1150.75 433.505 1149.64 434.41 1148 434.959M1150.75 428.097H1143.75M1141.25 435.539V430.082M1141.25 435.539C1142.08 435.611 1142.92 435.637 1143.75 435.615M1141.25 435.539C1140.38 435.464 1139.54 435.34 1138.75 435.169M1143.75 435.615L1143.75 430.082M1143.75 435.615C1144.9 435.585 1146.01 435.462 1147 435.237M1148 434.959V430.082M1148 434.959C1147.69 435.065 1147.35 435.157 1147 435.237M1137 434.678V430.082M1137 434.678C1137.53 434.87 1138.12 435.034 1138.75 435.169M1138.75 435.169V442.315H1139.5M1147 435.237V442.315H1146.31M1139.5 442.315H1141.5L1142.75 439.512L1144.25 442.315H1145.63H1146.31M1139.5 442.315V447.412M1139.5 447.412H1146.31M1139.5 447.412H1135.5V449.451H1133V452H1153V449.451H1150.5V447.412H1150H1146.31M1146.31 442.315V447.412M1134.25 410.967H1141.25" stroke="#77F721"/>
<path d="M1143.5 419.381C1143.5 419.958 1143.04 420.41 1142.5 420.41C1141.95 420.41 1141.5 419.958 1141.5 419.381C1141.5 418.803 1141.95 418.352 1142.5 418.352C1143.04 418.352 1143.5 418.803 1143.5 419.381Z" fill="#77F721" fill-opacity="0.7" stroke="#77F721"/>
<path d="M1186.31 447.412H1179.5H1175.5V449.451H1173V452H1193V449.451H1190.5V447.412H1190H1186.31Z" fill="#77F721"/>
<path d="M1183.75 435.615C1182.92 435.637 1182.08 435.611 1181.25 435.539C1180.38 435.464 1179.54 435.34 1178.75 435.169V442.315H1179.5H1181.5L1182.75 439.512L1184.25 442.315H1185.62H1186.31H1187V435.237C1186.01 435.462 1184.9 435.585 1183.75 435.615Z" fill="#77F721"/>
<path d="M1190.75 410.967V406.607C1190.75 405.361 1189.64 404.438 1188 403.837M1190.75 410.967H1183.75M1190.75 410.967V415.809M1181.25 403.037C1181.66 403.012 1182.08 403 1182.5 403C1182.92 403 1183.34 403.012 1183.75 403.037M1181.25 403.037V408.418M1181.25 403.037C1180.57 403.078 1179.89 403.153 1179.25 403.261C1178.44 403.399 1177.67 403.591 1177 403.837M1183.75 403.037L1183.75 408.418M1183.75 403.037C1185.3 403.13 1186.8 403.397 1188 403.837M1177 403.837C1175.36 404.438 1174.25 405.361 1174.25 406.607V410.967M1177 403.837V408.418M1188 403.837V408.418M1174.25 415.809H1181.25M1174.25 415.809V424.001M1174.25 415.809V410.967M1190.75 415.809H1183.75M1190.75 415.809V424.001M1174.25 424.001H1181.25M1174.25 424.001V428.097M1190.75 424.001H1183.75M1190.75 424.001V428.097M1174.25 428.097V432.193C1174.25 433.243 1175.36 434.089 1177 434.678M1174.25 428.097H1181.25M1190.75 428.097V432.193C1190.75 433.505 1189.64 434.41 1188 434.959M1190.75 428.097H1183.75M1181.25 435.539V430.082M1181.25 435.539C1182.08 435.611 1182.92 435.637 1183.75 435.615M1181.25 435.539C1180.38 435.464 1179.54 435.34 1178.75 435.169M1183.75 435.615L1183.75 430.082M1183.75 435.615C1184.9 435.585 1186.01 435.462 1187 435.237M1188 434.959V430.082M1188 434.959C1187.69 435.065 1187.35 435.157 1187 435.237M1177 434.678V430.082M1177 434.678C1177.53 434.87 1178.12 435.034 1178.75 435.169M1178.75 435.169V442.315H1179.5M1187 435.237V442.315H1186.31M1179.5 442.315H1181.5L1182.75 439.512L1184.25 442.315H1185.63H1186.31M1179.5 442.315V447.412M1179.5 447.412H1186.31M1179.5 447.412H1175.5V449.451H1173V452H1193V449.451H1190.5V447.412H1190H1186.31M1186.31 442.315V447.412M1174.25 410.967H1181.25" stroke="#77F721"/>
<path d="M1183.5 419.381C1183.5 419.958 1183.04 420.41 1182.5 420.41C1181.95 420.41 1181.5 419.958 1181.5 419.381C1181.5 418.803 1181.95 418.352 1182.5 418.352C1183.04 418.352 1183.5 418.803 1183.5 419.381Z" fill="#77F721" fill-opacity="0.7" stroke="#77F721"/>
<path d="M663.996 456H675.496M801.996 456H791.416M791.416 456V462M791.416 456H675.496M675.496 456V462" stroke="#101010" stroke-width="2"/>
<path d="M869.996 456H881.496M1008 456H997.416M997.416 456V462M997.416 456H881.496M881.496 456V462" stroke="#101010" stroke-width="2"/>
<path d="M1075 456H1086.5M1213 456H1202.42M1202.42 456V462M1202.42 456H1086.5M1086.5 456V462" stroke="#101010" stroke-width="2"/>
<path d="M1075 540H1086.5M1213 540H1202.42M1202.42 540V546M1202.42 540H1086.5M1086.5 540V546" stroke="#101010" stroke-width="2"/>
<path d="M1075 628H1086.5M1213 628H1202.42M1202.42 628V634M1202.42 628H1086.5M1086.5 628V634" stroke="#101010" stroke-width="2"/>
<path d="M869.996 540H881.496M1008 540H997.416M997.416 540V546M997.416 540H881.496M881.496 540V546" stroke="#101010" stroke-width="2"/>
<path d="M869.996 628H881.496M1008 628H997.416M997.416 628V634M997.416 628H881.496M881.496 628V634" stroke="#101010" stroke-width="2"/>
<path d="M663.996 540H675.496M801.996 540H791.416M791.416 540V546M791.416 540H675.496M675.496 540V546" stroke="#101010" stroke-width="2"/>
<path d="M624.996 628H643.746M849.995 628H832.745M832.745 628V634M832.745 628H643.746M643.746 628V634" stroke="#101010" stroke-width="2"/>
<path d="M825.996 716H844.746M1050.99 716H1033.75M1033.75 716V722M1033.75 716H844.746M844.746 716V722" stroke="#101010" stroke-width="2"/>
<path fill-rule="evenodd" clip-rule="evenodd" d="M916.121 377.62H735.722H604.104V384.984V400.631V421.34V442.049V457.696V472.422V753.147C622.512 772.476 711.976 772.476 871.021 772.476L1190.38 774.948L1287.04 775.697V588.394V377.62H1101.58H916.121ZM616.07 736.58V390.506H1264.03V753.147H763.334C650.677 753.147 618.217 742.102 616.07 736.58Z" fill="#77F721"/>
<path d="M735.722 377.62H916.121V210.106H735.722V377.62Z" fill="#77F721"/>
<path d="M1101.58 210.106V377.62H1287.04V210.106H1101.58Z" fill="#77F721"/>
<path d="M1101.58 61H916.121V210.106H1101.58V61Z" fill="#77F721"/>
<path d="M-181 61V210.106H-2.4417V61H-181Z" fill="#77F721"/>
<path d="M188.082 377.62V210.106H-2.4417V377.62H108.007H121.813H178.878H188.082Z" fill="#77F721"/>
<path d="M375.844 61H188.082V210.106H375.844V61Z" fill="#77F721"/>
<path d="M375.844 377.62H410.82H420.024H553.482V210.106H375.844V377.62Z" fill="#77F721"/>
<path d="M1461 210.106V61H1287.04V210.106H1461Z" fill="#77F721"/>
<path d="M916.121 377.62H1101.58V210.106H916.121V377.62Z" fill="#F4F4F4"/>
<path d="M768.857 963H1461V775.697H1287.04C1264.39 775.697 1230.77 775.382 1190.38 774.948L871.021 772.476C711.976 772.476 622.512 772.476 604.104 753.147V909.616C604.104 928.024 691.543 924.343 734.802 924.343C769.409 924.343 768.857 932.166 768.857 937.229V963Z" fill="#F4F4F4"/>
<path d="M443.034 503.716V695.161H574.651V503.716H443.034Z" fill="#77F721"/>
<path d="M430.148 384.984V457.696H481.691V384.984H430.148Z" fill="#77F721"/>
<path d="M121.813 480.706H-35.9974C-36.4718 599.258 -34.4419 792.55 -32.8277 909.616H121.813V865.437H-7.04372V782.6H121.813V727.376H117H-7.04372V503.716H117H121.813V480.706Z" fill="#77F721"/>
<path fill-rule="evenodd" clip-rule="evenodd" d="M359.277 909.616V480.706H178.878V909.616H359.277ZM200.967 865.437V782.6H331.665V865.437H200.967ZM200.967 727.376V503.716H331.665V727.376H200.967Z" fill="#77F721"/>
<path d="M188.082 377.62H178.878V457.696H359.277V377.62H331.665V431.924H211.092V377.62H188.082Z" fill="#77F721"/>
<path d="M-7.04372 377.62H-32.815C-34.5648 377.62 -35.4916 408.968 -35.8656 457.696H121.813V377.62H108.007V431.924H-7.04372V377.62Z" fill="#77F721"/>
<path d="M121.813 727.376V503.716H117V727.376H121.813Z" fill="#77F721"/>
<path d="M-181 210.106V61H-2.4417M-181 210.106V377.62M-181 210.106H-2.4417M1461 210.106V61H1287.04M1461 210.106V377.62M1461 210.106H1287.04M-181 377.62H-91.7208M-181 377.62V588.394M1461 377.62H1287.04M1461 377.62V588.394M-2.4417 61H188.082M-2.4417 61V210.106M-2.4417 377.62H-7.04372M-2.4417 377.62H108.007M-2.4417 377.62V210.106M1287.04 61V210.106M1287.04 61H1101.58M1287.04 210.106V377.62M1287.04 210.106H1101.58M188.082 61H375.844M188.082 61V210.106M188.082 377.62H178.878M188.082 377.62H211.092M188.082 377.62V210.106M375.844 61H553.482H735.722H916.121M375.844 61V210.106M375.844 377.62H359.277M375.844 377.62H410.82M375.844 377.62V210.106M553.482 377.62H604.104M553.482 377.62H420.024M553.482 377.62V210.106M735.722 377.62H916.121M735.722 377.62H604.104M735.722 377.62V210.106M916.121 61H1101.58M916.121 61V210.106M916.121 377.62H1101.58M916.121 377.62V210.106M1101.58 61V210.106M1101.58 377.62H1287.04M1101.58 377.62V210.106M1287.04 377.62V588.394M-91.7208 377.62V588.394M-91.7208 377.62H-57.6659M-91.7208 963H-181V772.476M-91.7208 963V937.229M-91.7208 963H768.857M-181 772.476H-91.7208M-181 772.476V588.394M-91.7208 772.476V588.394M-91.7208 772.476V937.229M-181 588.394H-91.7208M-91.7208 937.229H768.857M-91.7208 937.229L-57.6659 919.741M768.857 937.229V963M768.857 937.229C768.857 932.166 769.409 924.343 734.802 924.343C691.543 924.343 604.104 928.024 604.104 909.616V753.147M768.857 963H1461V775.697M604.104 753.147C622.512 772.476 711.976 772.476 871.021 772.476M604.104 753.147V472.422M871.021 772.476L1190.38 774.948M871.021 772.476C980.314 772.476 1101.66 773.997 1190.38 774.948M1287.04 775.697V588.394M1287.04 775.697H1461M1287.04 775.697C1264.39 775.697 1230.77 775.382 1190.38 774.948M1287.04 775.697L1190.38 774.948M-57.6659 377.62V919.741M-57.6659 377.62H-32.815M-57.6659 919.741H-42.0191L-32.815 910.537C-32.8192 910.23 -32.8235 909.924 -32.8277 909.616M-32.815 377.62H-7.04372M-32.815 377.62C-34.5648 377.62 -35.4916 408.968 -35.8656 457.696M121.813 377.62H178.878M121.813 377.62H108.007M121.813 377.62V457.696M121.813 909.616C121.813 927.104 178.878 926.184 178.878 910.537V909.616M121.813 909.616V865.437M121.813 909.616H-32.8277M178.878 377.62V457.696M359.277 377.62H331.665M359.277 377.62V457.696M359.277 909.616C359.277 924.343 410.82 924.343 410.82 910.537V377.62M359.277 909.616V480.706M359.277 909.616H178.878M410.82 377.62H420.024M604.104 377.62V384.984M1461 588.394H1287.04M1461 588.394V775.697M420.024 377.62V472.422H604.104M604.104 472.422V457.696M604.104 457.696H491.815V442.049M604.104 457.696V442.049M604.104 384.984H491.815V400.631M604.104 384.984V400.631M211.092 377.62V431.924H331.665V377.62M211.092 377.62H331.665M-7.04372 377.62V431.924H108.007V377.62M-35.8656 457.696H121.813M-35.8656 457.696C-35.9217 464.992 -35.9653 472.678 -35.9974 480.706M121.813 457.696V480.706M178.878 457.696H359.277M178.878 457.696V480.706M359.277 457.696V480.706M178.878 480.706H359.277M178.878 480.706V909.616M-35.9974 480.706H121.813M-35.9974 480.706C-36.4718 599.258 -34.4419 792.55 -32.8277 909.616M121.813 480.706V503.716M121.813 503.716V727.376M121.813 503.716H117M121.813 727.376V782.6M121.813 727.376H117M121.813 865.437H-7.04372V782.6H121.813M121.813 865.437V782.6M763.334 753.147C650.677 753.147 618.217 742.102 616.07 736.58V390.506H1264.03V753.147M763.334 753.147C875.992 753.147 1144.07 753.147 1264.03 753.147M763.334 753.147H1264.03M553.482 210.106H735.722M553.482 210.106H375.844M735.722 210.106H916.121M916.121 210.106H1101.58M-2.4417 210.106H188.082M188.082 210.106H375.844M491.815 400.631H604.104M491.815 400.631V421.34M604.104 400.631V421.34M491.815 442.049H604.104M491.815 442.049V421.34M604.104 442.049V421.34M491.815 421.34H604.104M117 503.716H-7.04372V727.376H117M117 503.716V727.376M420.024 480.706H596.741V910.537H420.024V480.706ZM430.148 490.831V903.174H586.617V490.831H430.148ZM443.034 503.716V695.161H574.651V503.716H443.034ZM443.034 711.729H574.651V891.208H443.034V711.729ZM430.148 384.984V457.696H481.691V384.984H430.148ZM200.967 782.6V865.437H331.665V782.6H200.967ZM200.967 503.716V727.376H331.665V503.716H200.967Z" stroke="#77F721" stroke-width="4"/>
<rect x="844.332" y="895.809" width="44.1796" height="34.0551" fill="#77F721"/>
<rect x="979.789" y="948" width="81" height="50" transform="rotate(-90 979.789 948)" fill="#F4F4F4" stroke="#77F721" stroke-width="4"/>
<rect x="1042.79" y="948" width="81" height="50" transform="rotate(-90 1042.79 948)" fill="#F4F4F4" stroke="#77F721" stroke-width="4"/>
<rect x="1105.79" y="948" width="81" height="50" transform="rotate(-90 1105.79 948)" fill="#F4F4F4" stroke="#77F721" stroke-width="4"/>
<path d="M849.041 515.799C858.783 517.305 859.882 506.492 853.57 504.302L854.256 502.525C855.491 502.935 857.549 501.156 854.256 499.787C851.621 498.692 850.414 501.019 852.609 501.84L851.923 503.756L847.943 502.525L848.355 501.019C850.276 501.567 851.511 499.103 848.63 498.008C845.473 496.809 845.336 500.061 846.983 500.608L846.571 502.114L842.18 500.608L842.592 499.513C844.238 499.787 846.297 497.734 843.003 496.229C839.984 494.848 839.298 498.282 841.357 499.103L840.945 500.198L836.554 499.103L837.103 497.734C838.612 498.008 840.396 495.818 837.514 494.723C834.77 493.68 833.398 496.502 835.593 497.187L835.044 498.555L830.653 497.05L831.202 495.818C832.711 496.229 834.633 493.902 831.202 492.67C828.183 491.586 828.32 494.723 829.692 495.407L829.144 496.502L825.164 495.407L825.713 494.039C827.497 494.586 828.595 491.986 825.713 491.027C823.106 490.161 821.871 492.67 824.341 493.628L823.655 494.997L822.831 494.586C816.656 491.849 817.342 497.324 815.421 497.324L721.696 495.818C714.697 495.818 713.325 495.818 713.325 488.701C713.325 481.583 720.735 479.804 724.166 479.804H729.381C733.113 479.804 731.851 474.601 729.381 472.137C726.087 468.852 712.639 466.994 702.622 472.137C697.819 474.603 686.054 477.751 673.804 472.137C658.572 465.157 639.086 458.726 629.48 472.137C618.914 486.889 619.051 522.508 629.48 534.003C636.189 541.398 647.183 543.972 667.904 534.003C679.568 528.391 681.901 527.275 698.505 534.003C702.896 535.782 708.385 536.193 713.325 534.003C718.265 531.813 717.804 526.126 713.325 525.791C709.308 525.49 706.007 523.692 704.543 522.095C700.152 517.305 702.484 508.955 704.543 508.955L806.776 507.587H816.656C818.897 507.769 822.133 509.092 822.831 511.009C823.979 514.157 825.53 514.111 826.811 513.746L842.866 510.324C845.473 510.324 846.434 515.115 849.041 515.799Z" stroke="#77F721" stroke-width="1.09695"/>
<rect x="655.477" y="494.176" width="15.8771" height="10.7036" rx="1.37119" transform="rotate(90 655.477 494.176)" stroke="#77F721" stroke-width="1.09695"/>
<path d="M648.423 516.625C644.169 512.38 633.464 528.94 636.348 531.818C639.167 534.633 652.809 521.001 648.423 516.625Z" stroke="#77F721" stroke-width="1.09695"/>
<path d="M698.242 497.595C698.242 496.172 699.477 495.816 701.672 495.816H706.599C706.928 495.816 707.834 493.902 708.383 492.396C708.657 490.207 708.108 488.247 701.933 490.207C698.914 491.165 690.955 491.512 685.878 490.343C684.094 489.933 681.898 489.06 680.251 488.153C675.037 485.281 671.606 484.594 665.568 484.594C657.335 484.597 655.551 489.517 655.551 493.08C656.868 493.08 658.707 492.806 658.707 494.175V508.546C658.707 510.627 656.42 511.056 655.276 511.01V517.853C655.276 521.96 648.387 528.803 646.494 531.541C643.75 535.51 646.494 537.426 649.787 537.426C651.983 537.426 657.198 535.647 661.452 533.867L673.527 528.393C678.879 525.792 683.819 525.245 691.102 528.393C697.267 531.541 702.212 533.594 709.906 532.225C712.752 531.719 715.207 529.049 709.906 528.393C706.774 528.005 704.366 526.859 702.221 524.56C698.642 520.724 698.242 512.926 701.672 508.956C699.477 508.956 698.242 508.956 698.242 507.04V497.595Z" fill="#77F721" fill-opacity="0.7" stroke="#77F721" stroke-width="1.09695"/>
<ellipse cx="662.279" cy="515.8" rx="2.73743" ry="2.74451" transform="rotate(90 662.279 515.8)" stroke="#F4F4F4" stroke-width="1.09695"/>
<ellipse cx="657.611" cy="525.109" rx="2.73743" ry="2.74451" transform="rotate(90 657.611 525.109)" stroke="#F4F4F4" stroke-width="1.09695"/>
<ellipse cx="650.201" cy="533.05" rx="2.73743" ry="2.74451" transform="rotate(90 650.201 533.05)" stroke="#F4F4F4" stroke-width="1.09695"/>
<rect x="695.764" y="494.177" width="16.4226" height="3.84317" rx="1.92159" transform="rotate(90 695.764 494.177)" stroke="#F4F4F4" stroke-width="1.09695"/>
<rect x="681.217" y="494.177" width="16.4226" height="3.84317" rx="1.92159" transform="rotate(90 681.217 494.177)" stroke="#F4F4F4" stroke-width="1.09695"/>
<rect x="-0.643362" y="0.433953" width="16.4243" height="3.84271" rx="1.92135" transform="matrix(-0.191284 0.981535 -0.981719 -0.190335 669.355 495.441)" stroke="#F4F4F4" stroke-width="1.09695"/>
<rect x="-0.484665" y="-0.0207691" width="8.9093" height="0.685167" rx="0.342584" transform="matrix(-0.737601 0.675236 -0.677132 -0.735861 671.667 522.834)" fill="#77F721" stroke="#F4F4F4" stroke-width="0.685167"/>
<path d="M904.373 414.618L904.203 415.015C904.25 414.864 904.307 414.732 904.373 414.618L907.055 408.329C907.22 407.886 907.923 407 909.41 407H917.428H968.549C971.07 407 972.269 407.201 972.93 409.296L974.79 415.056C974.569 414.371 974.253 413.807 972.558 413.928C972.558 413.928 906.228 413.888 905.608 413.928C905.105 413.961 904.657 414.126 904.373 414.618Z" fill="#77F721"/>
<path d="M904.203 415.015L907.055 408.329C907.22 407.886 907.923 407 909.41 407C910.898 407 915.375 407 917.428 407H968.549C971.07 407 972.269 407.201 972.93 409.296L974.79 415.056C974.569 414.371 974.253 413.807 972.558 413.928C972.558 413.928 906.228 413.888 905.608 413.928C904.988 413.968 904.451 414.21 904.203 415.015Z" stroke="#77F721" stroke-width="0.352648" stroke-linecap="round"/>
<rect x="904.46" y="414.226" width="70.0796" height="36.0566" rx="1.18633" fill="#F4F4F4" stroke="#77F721" stroke-width="0.920408"/>
<rect opacity="0.7" x="906.691" y="416.398" width="65.6989" height="31.7651" rx="1.07459" fill="#77F721" stroke="#77F721" stroke-width="0.920408"/>
<path d="M907.801 450.578C907.801 452.432 911.892 452.512 911.892 450.578H907.801Z" fill="#77F721" stroke="#77F721" stroke-width="0.920408" stroke-linecap="round"/>
<path d="M967.23 450.578C967.23 452.432 971.322 452.512 971.322 450.578H967.23Z" fill="#77F721" stroke="#77F721" stroke-width="0.920408" stroke-linecap="round"/>
<path d="M962.009 410.264C962.038 410.278 962.063 410.29 962.086 410.302C962.063 410.315 962.038 410.327 962.009 410.341C961.742 410.466 961.32 410.599 960.738 410.732C959.581 410.995 957.888 411.236 955.774 411.439C951.552 411.846 945.71 412.098 939.249 412.098C932.788 412.098 926.945 411.846 922.724 411.439C920.61 411.236 918.917 410.995 917.76 410.732C917.178 410.599 916.755 410.466 916.488 410.341C916.46 410.327 916.435 410.315 916.412 410.302C916.435 410.29 916.46 410.278 916.488 410.264C916.755 410.139 917.178 410.006 917.76 409.873C918.917 409.61 920.61 409.369 922.724 409.166C926.945 408.759 932.788 408.507 939.249 408.507C945.71 408.507 951.552 408.759 955.774 409.166C957.888 409.369 959.581 409.61 960.738 409.873C961.32 410.006 961.742 410.139 962.009 410.264ZM916.245 410.19C916.245 410.19 916.245 410.19 916.245 410.19L916.245 410.19ZM916.245 410.415C916.245 410.415 916.245 410.415 916.245 410.415L916.245 410.415Z" fill="#F4F4F4" stroke="#F4F4F4" stroke-width="0.920408"/>
<g opacity="0.7">
<path d="M931.645 410.463V410.979C931.598 411.142 931.891 411.255 932.217 411.32C932.47 411.37 932.71 411.392 933.035 411.388C933.312 411.384 933.591 411.361 933.831 411.32C934.221 411.253 934.506 411.137 934.506 410.979V410.463C934.506 409.923 931.645 409.946 931.645 410.463Z" fill="#77F721"/>
<path d="M931.645 410.979L931.195 412.13V412.805H932.013M931.645 410.979V410.463C931.645 409.946 934.506 409.923 934.506 410.463V410.979M931.645 410.979C931.598 411.142 931.891 411.255 932.217 411.32M934.506 410.979L934.915 412.13V412.805H934.097M934.506 410.979C934.506 411.137 934.221 411.253 933.831 411.32M932.217 411.32L932.013 412.805M932.217 411.32C932.47 411.37 932.71 411.392 933.035 411.388M932.013 412.805H933.035M933.035 411.388V412.805M933.035 411.388C933.312 411.384 933.591 411.361 933.831 411.32M933.035 412.805H934.097M933.831 411.32L934.097 412.805" stroke="#77F721" stroke-width="0.920408" stroke-linecap="round"/>
</g>
<g opacity="0.7">
<path d="M944.95 410.459V410.975C944.903 411.138 945.196 411.251 945.522 411.316C945.775 411.366 946.015 411.388 946.339 411.384C946.617 411.38 946.896 411.357 947.136 411.316C947.526 411.249 947.811 411.133 947.811 410.975V410.459C947.811 409.919 944.95 409.942 944.95 410.459Z" fill="#77F721"/>
<path d="M944.95 410.975L944.5 412.126V412.801H945.317M944.95 410.975V410.459C944.95 409.942 947.811 409.919 947.811 410.459V410.975M944.95 410.975C944.903 411.138 945.196 411.251 945.522 411.316M947.811 410.975L948.219 412.126V412.801H947.402M947.811 410.975C947.811 411.133 947.526 411.249 947.136 411.316M945.522 411.316L945.317 412.801M945.522 411.316C945.775 411.366 946.015 411.388 946.339 411.384M945.317 412.801H946.339M946.339 411.384V412.801M946.339 411.384C946.617 411.38 946.896 411.357 947.136 411.316M946.339 412.801H947.402M947.136 411.316L947.402 412.801" stroke="#77F721" stroke-width="0.920408" stroke-linecap="round"/>
</g>
<g opacity="0.7">
<path d="M938.254 410.459V410.975C938.208 411.138 938.501 411.251 938.827 411.316C939.079 411.366 939.319 411.388 939.644 411.384C939.921 411.38 940.201 411.357 940.441 411.316C940.831 411.249 941.115 411.133 941.115 410.975V410.459C941.115 409.919 938.254 409.942 938.254 410.459Z" fill="#77F721"/>
<path d="M938.254 410.975L937.805 412.126V412.801H938.622M938.254 410.975V410.459C938.254 409.942 941.115 409.919 941.115 410.459V410.975M938.254 410.975C938.208 411.138 938.501 411.251 938.827 411.316M941.115 410.975L941.524 412.126V412.801H940.707M941.115 410.975C941.115 411.133 940.831 411.249 940.441 411.316M938.827 411.316L938.622 412.801M938.827 411.316C939.079 411.366 939.319 411.388 939.644 411.384M938.622 412.801H939.644M939.644 411.384V412.801M939.644 411.384C939.921 411.38 940.201 411.357 940.441 411.316M939.644 412.801H940.707M940.441 411.316L940.707 412.801" stroke="#77F721" stroke-width="0.920408" stroke-linecap="round"/>
</g>
<path opacity="0.7" d="M956.315 411.739H955.913V410.031C955.96 410.013 956.033 409.997 956.121 409.995C956.206 409.994 956.273 410.007 956.315 410.022V411.739Z" fill="#77F721" stroke="#77F721" stroke-width="0.920408" stroke-linecap="round"/>
<path d="M907.801 447.371H971.362" stroke="#F4F4F4" stroke-width="0.920408" stroke-linecap="round"/>
<path d="M907.883 423.746H971.444" stroke="#F4F4F4" stroke-opacity="0.9" stroke-width="0.352648" stroke-linecap="round" stroke-dasharray="2.98 2.98"/>
<path d="M909.945 425.922H969.374" stroke="#F4F4F4" stroke-opacity="0.9" stroke-width="0.352648" stroke-linecap="round" stroke-dasharray="2.98 2.98"/>
<path d="M907.883 428.328H971.444" stroke="#F4F4F4" stroke-opacity="0.9" stroke-width="0.352648" stroke-linecap="round" stroke-dasharray="2.98 2.98"/>
<path d="M909.945 430.504H969.374" stroke="#F4F4F4" stroke-opacity="0.9" stroke-width="0.352648" stroke-linecap="round" stroke-dasharray="2.98 2.98"/>
<path d="M907.883 432.922H971.444" stroke="#F4F4F4" stroke-opacity="0.9" stroke-width="0.352648" stroke-linecap="round" stroke-dasharray="2.98 2.98"/>
<path d="M909.945 435.098H969.374" stroke="#F4F4F4" stroke-opacity="0.9" stroke-width="0.352648" stroke-linecap="round" stroke-dasharray="2.98 2.98"/>
<path d="M907.883 437.512H971.444" stroke="#F4F4F4" stroke-opacity="0.9" stroke-width="0.352648" stroke-linecap="round" stroke-dasharray="2.98 2.98"/>
<path d="M909.945 439.688H969.374" stroke="#F4F4F4" stroke-opacity="0.9" stroke-width="0.352648" stroke-linecap="round" stroke-dasharray="2.98 2.98"/>
<path d="M907.883 419.156H971.444" stroke="#F4F4F4" stroke-opacity="0.9" stroke-width="0.352648" stroke-linecap="round" stroke-dasharray="2.98 2.98"/>
<path d="M909.949 421.332H969.378" stroke="#F4F4F4" stroke-opacity="0.9" stroke-width="0.352648" stroke-linecap="round" stroke-dasharray="2.98 2.98"/>
<path d="M907.883 442.105H971.444" stroke="#F4F4F4" stroke-opacity="0.9" stroke-width="0.352648" stroke-linecap="round" stroke-dasharray="2.98 2.98"/>
<path d="M909.945 444.281H969.374" stroke="#F4F4F4" stroke-opacity="0.9" stroke-width="0.352648" stroke-linecap="round" stroke-dasharray="2.98 2.98"/>
<path d="M562 569.204C562 558.228 555.579 550.113 546.179 544.806C536.8 539.512 524.367 536.945 511.995 537.001C499.624 537.057 487.194 539.736 477.819 545.056C468.428 550.386 462 558.443 462 569.204V648.428C462 657.404 468.549 664.197 477.874 668.745C487.228 673.308 499.631 675.76 511.982 675.983C524.331 676.206 536.747 674.203 546.117 669.745C555.492 665.286 562 658.259 562 648.428V569.204Z" fill="#F4F4F4" stroke="#101010" stroke-width="2"/>
<path d="M541.493 608.554C542.929 604.839 549.341 597.124 555.276 592.457C556.998 591.102 555.467 587.504 552.595 585.98C549.69 584.438 545.417 579.439 543.886 576.55L540.44 568.454L537.186 561.596C532.592 553.595 522.925 555.31 519 559.691C519 559.691 515.076 564.358 513.928 564.834C512.779 565.311 510.195 558.929 510.195 558.929C507.706 553.881 497.752 556.072 489.617 565.787C486.267 570.454 484.735 576.455 479.376 581.884C475.26 587.313 467.603 586.551 469.039 592.266C470.02 596.171 479.376 600.648 477.078 602.934C470.57 609.411 464.923 627.603 469.9 641.129C474.303 654.749 500.241 668.179 514.311 642.272C519.096 642.272 527.615 639.033 532.783 627.603L541.493 608.554Z" fill="#77F721" stroke="#101010" stroke-width="2"/>
<path d="M522.924 588.455C524.838 586.55 524.647 585.502 526.083 588.741C527.231 590.645 531.251 590.645 533.74 589.407C530.709 585.724 531.347 579.311 521.68 578.358C518.713 578.358 513.64 581.547 510.673 581.597C505.026 581.692 501.867 577.58 498.805 577.787C494.115 578.358 489.712 580.992 489.712 581.692C489.712 585.426 493.828 586.55 496.699 584.073C500.336 593.217 507.61 588.741 510.673 586.169L510.96 586.645C514.789 592.265 518.713 591.693 522.924 588.455Z" fill="#F4F4F4"/>
<path d="M478.514 590.836L482.342 597.408L495.933 588.741C497.241 589.915 500.719 592.265 504.165 592.265C498.518 597.884 488.946 609.791 489.233 622.935C493.253 610.172 504.605 592.836 509.429 592.836H519.191L526.083 588.741C524.647 585.502 524.838 586.55 522.924 588.455C518.713 591.693 514.789 592.265 510.96 586.645L510.673 586.169C507.61 588.741 500.336 593.217 496.699 584.073C493.828 586.55 489.712 585.426 489.712 581.692C489.712 580.992 494.115 578.358 498.805 577.787C501.867 577.58 505.026 581.692 510.673 581.597C513.64 581.547 518.713 578.358 521.68 578.358C531.347 579.311 530.709 585.724 533.74 589.407C534.505 590.169 542.067 590.931 540.44 592.169C539.444 593.16 531.443 599.027 523.403 613.696C521.68 616.839 520.819 621.696 515.65 635.317L513.353 640.461C512.874 641.318 516.161 640.556 517.66 639.984L522.637 624.078C524.934 615.696 529.624 606.838 529.911 606.838C531.251 604.742 536.707 597.218 543.981 590.931L536.707 589.026C532.974 588.359 530.007 576.37 520.914 577.501C517.8 577.888 512.3 580.739 510.673 580.739C508.089 581.248 502.442 577.51 500.623 577.12C494.402 575.787 491.371 580.168 488.659 581.692L478.227 590.36L478.514 590.836Z" fill="#101010"/>
<path d="M526.083 588.741L519.191 592.836H509.429C504.605 592.836 493.253 610.172 489.233 622.935C488.946 609.791 498.518 597.884 504.165 592.265C500.719 592.265 497.241 589.915 495.933 588.741L482.342 597.408L478.514 590.836L478.227 590.36L488.659 581.692C491.371 580.168 494.402 575.787 500.623 577.12C502.442 577.51 508.089 581.248 510.673 580.739C512.3 580.739 517.8 577.888 520.914 577.501C530.007 576.37 532.974 588.359 536.707 589.026L543.981 590.931C536.707 597.218 531.251 604.742 529.911 606.838C529.624 606.838 524.934 615.696 522.637 624.078L517.66 639.984C516.161 640.556 512.874 641.318 513.353 640.461L515.65 635.317C520.819 621.696 521.68 616.839 523.403 613.696C531.443 599.027 539.444 593.16 540.44 592.169C542.067 590.931 534.505 590.169 533.74 589.407M526.083 588.741C524.647 585.502 524.838 586.55 522.924 588.455C518.713 591.693 514.789 592.265 510.96 586.645L510.673 586.169C507.61 588.741 500.336 593.217 496.699 584.073C493.828 586.55 489.712 585.426 489.712 581.692C489.712 580.992 494.115 578.358 498.805 577.787C501.867 577.58 505.026 581.692 510.673 581.597C513.64 581.547 518.713 578.358 521.68 578.358C531.347 579.311 530.709 585.724 533.74 589.407M526.083 588.741C527.231 590.645 531.251 590.645 533.74 589.407" stroke="#101010" stroke-width="0.381919"/>
<path d="M524.74 604.747C534.598 593.127 524.74 596.841 520.72 601.985C519.035 603.661 516.891 607.636 516.03 609.414L506.555 630.845C503.779 637.227 508.374 646.275 513.159 632.56C516.892 619.034 519.38 612.176 524.74 604.747Z" fill="#F4F4F4"/>
<path fill-rule="evenodd" clip-rule="evenodd" d="M503.155 568.332C501.763 567.257 500.087 567.936 498.778 568.465C497.578 568.952 496.688 569.312 496.613 568.076C496.326 563.313 501.303 561.694 503.983 561.789C505.845 561.855 508.492 563.117 508.812 564.104C509.147 564.624 509.341 565.233 509.341 565.886C509.341 567.78 507.712 569.315 505.703 569.315C504.838 569.315 504.043 569.03 503.419 568.554C503.416 568.553 503.412 568.553 503.409 568.552C503.399 568.542 503.389 568.533 503.379 568.523C503.301 568.463 503.227 568.399 503.155 568.332Z" fill="#F4F4F4"/>
<path fill-rule="evenodd" clip-rule="evenodd" d="M530.143 568.332C528.752 567.257 527.075 567.936 525.767 568.465C524.566 568.952 523.676 569.312 523.602 568.076C523.315 563.313 528.292 561.694 530.972 561.789C532.833 561.855 535.48 563.117 535.8 564.104C536.136 564.624 536.329 565.233 536.329 565.886C536.329 567.78 534.7 569.315 532.692 569.315C531.826 569.315 531.032 569.03 530.407 568.554C530.404 568.553 530.401 568.553 530.397 568.552C530.387 568.542 530.377 568.533 530.367 568.523C530.29 568.463 530.215 568.399 530.143 568.332Z" fill="#F4F4F4"/>
<path d="M490.096 607.692C486.555 614.398 486.842 634.076 478.802 631.219C476.678 630.572 475.548 627.123 479.876 614.112C486.172 601.12 495.437 596.092 497.561 596.738C498.902 598.262 492.47 603.197 490.096 607.692Z" fill="#F4F4F4"/>
<path d="M24.3025 546.722L24.5952 546.624L24.7826 546.38L31.7492 537.296L41.4916 541.601L41.8585 541.763L42.237 541.628L52.773 537.868L58.6596 546.856L58.9013 547.225L59.3386 547.295L69.9925 549L70.8044 560.096L70.8335 560.495L71.1314 560.763L79.0408 567.868L73.508 577.88L73.3592 578.149L73.3881 578.455L74.4297 589.456L63.8887 592.967L63.5958 593.065L63.4084 593.309L56.4405 602.396L46.6981 598.09L46.3312 597.928L45.9527 598.063L35.4169 601.823L29.5315 592.833L29.2898 592.464L28.8522 592.394L18.1972 590.691L17.3853 579.595L17.3562 579.196L17.0583 578.929L9.14889 571.823L14.683 561.81L14.8319 561.54L14.8029 561.235L13.7601 550.235L24.3025 546.722Z" fill="#F4F4F4" stroke="#101010" stroke-width="2"/>
<path d="M28.4414 636.593L28.6547 636.369L28.705 636.064L31.0704 621.758L44.587 620.719L44.9864 620.688L45.2568 620.391L54.819 609.878L66.8173 616.38L67.2033 616.589L67.6208 616.445L80.5997 611.955L88.1629 623.849L88.3767 624.185L88.7651 624.279L101.905 627.467L101.702 641.947L101.698 642.255L101.868 642.511L109.631 654.16L99.9154 664.397L99.7021 664.622L99.6517 664.927L97.2861 679.235L83.7695 680.274L83.3701 680.305L83.0997 680.602L73.5376 691.116L61.5396 684.611L61.1535 684.401L60.7358 684.546L47.7567 689.038L40.1936 677.144L39.9798 676.808L39.5914 676.714L26.4519 673.527L26.6549 659.044L26.6592 658.735L26.4888 658.479L18.7255 646.833L28.4414 636.593Z" fill="#F4F4F4" stroke="#101010" stroke-width="2"/>
<path d="M284.354 668.877C285.543 663.443 292.296 661.506 296.184 665.485L324.202 694.155C327.901 697.94 326.216 704.303 321.128 705.762L284.544 716.252C279.456 717.711 274.656 713.207 275.787 708.037L284.354 668.877Z" fill="#101010"/>
<path d="M292.336 686.895L288.443 685.823L289.818 680.614C290.428 677.739 294.854 675.668 297.731 678.199L302.8 682.874L305.014 680.342L305.504 688.301L297.712 688.638L300.087 685.914L295.95 681.992C293.12 679.375 293.372 683.753 292.336 686.895Z" fill="#F4F4F4"/>
<path d="M305.515 690.941L308.46 688.184L312.073 692.188C314.146 694.27 313.54 699.189 309.916 700.284L303.351 702.096L304.293 705.368L297.408 701.472L301.232 694.607L302.249 698.12L307.695 696.699C311.365 695.692 307.587 693.533 305.515 690.941Z" fill="#F4F4F4"/>
<path d="M289.748 688.873L282.76 692.263L286.446 693.614L284.914 699.525C284.505 701.101 285.036 702.7 286.314 704.158C288.257 705.935 290.334 705.923 296.326 704.06L295.204 700.149L291.096 701.327C289.347 701.829 288.611 701.164 288.945 699.828L290.265 694.927L293.219 695.976L289.748 688.873Z" fill="#F4F4F4"/>
<rect x="216.555" y="566.45" width="60.9967" height="40.9992" rx="7.20555" transform="rotate(6 216.555 566.45)" fill="#F4F4F4" stroke="#101010"/>
<path opacity="0.7" d="M215.879 577.67C216.271 573.935 216.467 572.068 217.344 570.718C218.115 569.53 219.243 568.617 220.565 568.11C222.068 567.533 223.935 567.729 227.67 568.121L265.998 572.15C269.733 572.542 271.6 572.739 272.95 573.616C274.138 574.387 275.051 575.514 275.558 576.836C276.135 578.339 275.939 580.207 275.547 583.941L275.079 588.387L215.411 582.116L215.879 577.67Z" fill="#77F721"/>
<path opacity="0.7" d="M273.185 606.421C272.8 610.083 269.52 612.739 265.859 612.354L219.45 607.476C215.788 607.091 213.132 603.811 213.517 600.15L273.185 606.421Z" fill="#77F721"/>
<g clip-path="url(#clip1_5013_1681)">
<path d="M233.615 683.971L234.098 683.841C232.743 678.786 235.322 673.804 239.717 672.627C244.111 671.449 248.836 674.474 250.19 679.53C252.289 687.362 247.963 696.78 239.077 704.356C227.594 702.238 219.138 696.245 217.04 688.412C215.685 683.357 218.264 678.375 222.658 677.198C227.053 676.02 231.777 679.045 233.132 684.1L233.615 683.971Z" fill="#77F721" stroke="#101010"/>
<path d="M230.957 692.903C233.219 691.184 233.655 687.988 231.932 685.765C230.208 683.541 226.978 683.131 224.716 684.849C222.455 686.568 222.018 689.764 223.742 691.988C225.465 694.211 228.696 694.621 230.957 692.903Z" fill="#F4F4F4"/>
<path d="M231.529 692.103C233.166 690.86 233.482 688.547 232.235 686.938C230.988 685.329 228.65 685.033 227.014 686.276C225.377 687.519 225.062 689.832 226.309 691.441C227.556 693.05 229.893 693.346 231.529 692.103Z" fill="#101010"/>
<path d="M244.192 689.356C246.453 687.637 246.89 684.442 245.166 682.218C243.443 679.994 240.212 679.584 237.951 681.303C235.689 683.021 235.253 686.217 236.976 688.441C238.699 690.665 241.93 691.074 244.192 689.356Z" fill="#F4F4F4"/>
<path d="M236.915 696.281C235.301 696.713 233.641 695.769 233.214 694.177C233.152 693.945 233.292 693.707 233.526 693.644C233.761 693.581 234.001 693.718 234.063 693.949C234.366 695.08 235.545 695.749 236.69 695.442C237.836 695.135 238.522 693.966 238.219 692.836C238.157 692.604 238.297 692.366 238.531 692.303C238.766 692.24 239.006 692.377 239.068 692.608C239.495 694.201 238.529 695.848 236.915 696.281Z" fill="#101010"/>
<path d="M242.252 689.232C243.888 687.989 244.204 685.676 242.957 684.067C241.71 682.458 239.373 682.162 237.736 683.405C236.1 684.648 235.784 686.961 237.031 688.57C238.278 690.179 240.616 690.475 242.252 689.232Z" fill="#101010"/>
</g>
<path d="M300.447 524.904C301.873 533.904 282.687 544.421 257.595 548.396C232.503 552.37 211.006 548.296 209.581 539.296C208.156 530.296 227.341 519.778 252.433 515.804C277.525 511.83 299.022 515.904 300.447 524.904Z" fill="#101010"/>
<path d="M300.447 524.904C301.873 533.904 282.687 544.421 257.595 548.396M300.447 524.904C299.022 515.904 277.525 511.83 252.433 515.804M300.447 524.904L209.581 539.296M257.595 548.396C232.503 552.37 211.006 548.296 209.581 539.296M257.595 548.396L252.433 515.804M209.581 539.296C208.156 530.296 227.341 519.778 252.433 515.804" stroke="#F4F4F4"/>
<ellipse cx="255.142" cy="532.137" rx="11.4852" ry="16.4412" transform="rotate(-9 255.142 532.137)" stroke="#F4F4F4"/>
<ellipse cx="255.135" cy="532.142" rx="22.9705" ry="16.4412" transform="rotate(-9 255.135 532.142)" stroke="#F4F4F4"/>
<ellipse cx="255.079" cy="532.148" rx="34.3681" ry="16.4412" transform="rotate(-9 255.079 532.148)" stroke="#F4F4F4"/>
<ellipse cx="255.012" cy="532.07" rx="45.9994" ry="8.11985" transform="rotate(-9 255.012 532.07)" stroke="#F4F4F4"/>
<path d="M293.295 647.16C308.702 644.698 320.094 635.828 318.741 627.348C317.388 618.869 303.802 613.99 288.396 616.452C272.989 618.914 261.597 627.784 262.95 636.264C264.302 644.744 277.889 649.622 293.295 647.16Z" fill="#F4F4F4" stroke="#101010"/>
<path d="M292.982 645.207C285.884 646.341 279.105 645.806 273.973 644.073C268.809 642.329 265.459 639.433 264.903 635.946C264.346 632.459 266.628 628.663 270.993 625.396C275.331 622.149 281.607 619.529 288.705 618.394C295.802 617.26 302.581 617.795 307.714 619.528C312.878 621.272 316.228 624.168 316.784 627.655C317.34 631.142 315.059 634.938 310.694 638.205C306.356 641.452 300.08 644.072 292.982 645.207Z" stroke="#101010"/>
<path d="M295.706 553.022C288.053 544.25 282.245 545.901 279.672 550.953C277.773 554.679 281.296 560.599 282.879 561.949L292.283 570.877C292.175 574.854 293.248 582.937 302.026 587.749C306.62 589.843 316.132 590.299 322.55 582.407C324.688 580.039 326.832 571.602 325.014 567.318C325.758 565.475 325.209 557.462 322.927 553.937C321.795 551.272 316.233 550.599 314.152 552.044C313.829 551.283 311.537 550.908 310.395 551.392L309.499 547.167C306.765 532.262 290.102 535.853 295.706 553.022Z" fill="#77F721"/>
<path d="M314.704 556.528C314.643 554.532 318.866 553.638 320.352 555.816C322.091 559.186 323.189 564.144 321.428 567.079M314.704 556.528L316.92 567.832M314.704 556.528C313.4 554.776 310.192 554.074 308.297 555.453M316.92 567.832C319.138 570.149 320.856 567.847 320.856 567.847C321.073 567.611 321.263 567.353 321.428 567.079M316.92 567.832L315.624 570.068C314.52 571.435 313.269 572.191 310.927 570.376L310.142 569.586M321.428 567.079C326.148 584.811 308.044 589.238 301.182 583.388C298.122 581.204 294.143 574.265 295.851 570.035C295.881 569.924 295.934 569.783 296.013 569.624M307.937 563.332C305.654 564.301 300.612 566.442 298.71 567.249C297.166 567.904 296.351 568.94 296.013 569.624M307.937 563.332C311.171 561.96 313.644 565.404 310.142 569.586M307.937 563.332C306.102 559.009 306.777 556.56 308.297 555.453M310.142 569.586C306.646 572.193 309.013 570.627 304.96 573.246L307.374 573.907C308.674 574.591 309.297 575 310.671 578.237M296.013 569.624L285.19 559.731C277.832 552.183 285.15 546.942 291.331 553.305L301.129 561.841L297.76 545.97C296.784 541.554 303.564 539.013 305.19 544.165L308.297 555.453" stroke="#101010"/>
<path d="M244.874 643.625C246.048 636.239 241.012 629.299 233.626 628.125C226.24 626.95 219.3 631.986 218.126 639.372C216.952 646.758 221.988 653.698 229.374 654.872C236.76 656.047 243.7 651.011 244.874 643.625Z" fill="#F4F4F4" stroke="#101010"/>
<path d="M230.282 647.915L230.484 643.42L226.691 645.859L225.53 643.835L229.557 641.779L225.53 639.723L226.691 637.699L230.484 640.138L230.282 635.643H232.593L232.391 640.138L236.184 637.699L237.345 639.723L233.318 641.779L237.345 643.835L236.184 645.859L232.391 643.42L232.593 647.915H230.282Z" fill="#101010"/>
</g>
<defs>
<clipPath id="clip0_5013_1681">
<rect width="1280" height="1024" fill="white"/>
</clipPath>
<clipPath id="clip1_5013_1681">
<rect width="35.3199" height="31.5355" fill="white" transform="translate(214 679) rotate(-15)"/>
</clipPath>
</defs>
</svg>
