<svg width="1280" height="1024" viewBox="0 0 1280 1024" fill="none" xmlns="http://www.w3.org/2000/svg">
<g clip-path="url(#clip0_323_838)">
<rect width="1280" height="1024" fill="#F4F4F4"/>
<rect x="373" y="-367" width="533" height="998" stroke="#77F721" stroke-width="4"/>
<rect x="421" y="-319" width="437" height="902" stroke="#77F721" stroke-width="4"/>
<path d="M688.098 -267.137C693.598 -302.633 654.098 -306.637 646.098 -283.637L639.605 -286.137C641.105 -290.637 634.605 -298.137 629.605 -286.137C625.605 -276.537 634.105 -272.137 637.105 -280.137L644.105 -277.637L639.605 -263.137L634.105 -264.637C636.105 -271.637 627.105 -276.137 623.105 -265.637C618.725 -254.137 630.605 -253.637 632.605 -259.637L638.105 -258.137L632.605 -242.137L628.605 -243.637C629.605 -249.637 622.105 -257.137 616.605 -245.137C611.564 -234.137 624.105 -231.637 627.105 -239.137L631.105 -237.637L627.105 -221.637L622.105 -223.637C623.105 -229.137 615.105 -235.637 611.105 -225.137C607.296 -215.137 617.605 -210.137 620.105 -218.137L625.105 -216.137L619.605 -200.137L615.105 -202.137C616.605 -207.637 608.105 -214.637 603.605 -202.137C599.645 -191.137 611.105 -191.637 613.605 -196.637L617.605 -194.637L613.605 -180.137L608.605 -182.137C610.605 -188.637 601.105 -192.637 597.605 -182.137C594.439 -172.637 603.605 -168.137 607.105 -177.137L612.105 -174.637L610.605 -171.637C600.605 -149.137 620.605 -151.637 620.605 -144.637L615.105 196.863C615.105 222.363 615.105 227.363 589.105 227.363C563.105 227.363 556.605 200.363 556.605 187.863V168.863C556.605 155.263 537.598 159.863 528.598 168.863C516.598 180.863 509.811 229.863 528.598 266.363C537.605 283.863 549.105 326.729 528.598 371.363C503.098 426.863 479.606 497.863 528.598 532.863C582.489 571.363 712.605 570.863 754.598 532.863C781.611 508.419 791.016 468.363 754.598 392.863C734.098 350.363 730.02 341.863 754.598 281.363C761.098 265.363 762.598 245.363 754.598 227.363C745.598 211.363 722.598 209.863 724.598 227.363C726.233 241.67 716.932 254.029 711.098 259.363C693.598 275.363 663.098 266.863 663.098 259.363L658.098 -113.137V-149.137C658.765 -157.303 663.598 -169.091 670.598 -171.637C682.098 -175.819 681.931 -181.47 680.598 -186.137L668.098 -244.637C668.098 -254.137 685.598 -257.637 688.098 -267.137Z" stroke="#77F721" stroke-width="4"/>
<rect x="608.105" y="290.363" width="62" height="16" rx="8" stroke="#77F721" stroke-width="2"/>
<rect x="608.105" y="343.363" width="62" height="16" rx="8" stroke="#77F721" stroke-width="2"/>
<rect x="610.33" y="387.536" width="62" height="16" rx="8" transform="rotate(11 610.33 387.536)" stroke="#77F721" stroke-width="2"/>
<rect x="712.674" y="377.444" width="33" height="3" rx="1.5" transform="rotate(47.4538 712.674 377.444)" fill="#77F721" stroke="#77F721" stroke-width="2"/>
<rect x="609.105" y="430.363" width="58" height="39" rx="5" stroke="#77F721" stroke-width="2"/>
<circle cx="688.105" cy="413.363" r="10" stroke="#77F721" stroke-width="2"/>
<circle cx="722.105" cy="430.363" r="10" stroke="#77F721" stroke-width="2"/>
<circle cx="751.105" cy="457.363" r="10" stroke="#77F721" stroke-width="2"/>
<path d="M691.121 463.847C675.614 479.347 736.105 518.353 746.621 507.847C756.905 497.574 707.105 447.866 691.121 463.847Z" stroke="#77F721" stroke-width="2"/>
<path d="M621.597 282.314C616.397 282.314 615.099 277.814 615.097 269.814V251.863C615.097 250.663 608.105 247.363 602.605 245.363C594.605 244.363 587.446 246.363 594.605 268.863C598.105 279.863 599.375 308.863 595.105 327.363C593.605 333.863 590.419 341.863 587.105 347.863C576.613 366.863 574.104 379.363 574.102 401.363C574.113 431.363 592.087 437.863 605.101 437.863C605.101 433.063 604.102 426.363 609.101 426.363H661.601C669.201 426.363 670.768 434.697 670.601 438.863H695.601C710.601 438.863 735.601 463.967 745.601 470.863C760.101 480.863 767.101 470.863 767.101 458.863C767.101 450.863 760.601 431.863 754.101 416.363L734.101 372.363C724.601 352.863 722.601 334.863 734.101 308.329C745.601 285.863 753.101 267.848 748.101 239.814C746.252 229.445 734.101 215.332 734.101 239.814C734.101 251.314 728.291 258.314 720.101 267.814C707.601 282.314 677.601 282.314 663.1 269.814C663.1 277.814 663.1 282.314 656.1 282.314H621.597Z" stroke="#77F721" stroke-width="2"/>
<path d="M51 611H1236" stroke="#77F721" stroke-width="4" stroke-linecap="round" stroke-linejoin="round"/>
<rect x="956" y="108" width="401" height="401" stroke="#77F721" stroke-width="4"/>
<circle opacity="0.7" cx="1156" cy="309" r="167" stroke="#77F721" stroke-width="4"/>
<circle opacity="0.7" cx="1155.83" cy="308.82" r="32" stroke="#77F721" stroke-width="4"/>
<circle cx="1156.5" cy="309.5" r="101" stroke="#77F721" stroke-width="4"/>
<rect x="-77" y="108" width="401" height="401" stroke="#77F721" stroke-width="4"/>
<circle opacity="0.7" cx="123" cy="309" r="167" stroke="#77F721" stroke-width="4"/>
<circle opacity="0.7" cx="122.832" cy="308.82" r="32" stroke="#77F721" stroke-width="4"/>
<circle cx="123.504" cy="309.5" r="101" stroke="#77F721" stroke-width="4"/>
<path d="M243.679 501.36L241.762 505.976C242.29 504.214 242.934 502.685 243.679 501.36L273.978 428.418C275.846 423.279 283.783 413 300.592 413H391.171H968.733C997.214 413 1010.75 415.335 1018.22 439.631L1039.24 506.443C1036.74 498.501 1033.17 491.96 1014.02 493.361C1014.02 493.361 264.64 492.894 257.636 493.361C251.953 493.74 246.885 495.658 243.679 501.36Z" fill="#77F721"/>
<path d="M241.762 505.976L273.978 428.418C275.846 423.279 283.783 413 300.592 413C317.4 413 367.982 413 391.171 413H968.733C997.214 413 1010.75 415.335 1018.22 439.631L1039.24 506.443C1036.74 498.501 1033.17 491.96 1014.02 493.361C1014.02 493.361 264.64 492.894 257.636 493.361C250.633 493.828 244.563 496.632 241.762 505.976Z" stroke="#77F721" stroke-width="4" stroke-linecap="round"/>
<rect x="241.43" y="493.492" width="798.143" height="424.905" rx="16.6762" fill="#F4F4F4" stroke="#77F721" stroke-width="4"/>
<rect opacity="0.7" x="266.641" y="518.652" width="748.651" height="375.127" rx="15.4088" fill="#77F721" stroke="#77F721" stroke-width="4"/>
<path d="M282.387 918.527C282.387 940.019 328.61 940.954 328.61 918.527H282.387Z" fill="#77F721" stroke="#77F721" stroke-width="4" stroke-linecap="round"/>
<path d="M953.793 918.527C953.793 940.019 1000.02 940.954 1000.02 918.527H953.793Z" fill="#77F721" stroke="#77F721" stroke-width="4" stroke-linecap="round"/>
<path d="M900.435 451.313C900.435 451.48 900.358 451.888 899.674 452.554C898.987 453.223 897.856 453.978 896.187 454.785C892.859 456.392 887.827 457.995 881.176 459.549C867.907 462.65 848.623 465.459 824.699 467.823C776.875 472.55 710.76 475.477 637.7 475.477C564.64 475.477 498.525 472.55 450.701 467.823C426.777 465.459 407.493 462.65 394.224 459.549C387.573 457.995 382.541 456.392 379.213 454.785C377.544 453.978 376.413 453.223 375.727 452.554C375.042 451.888 374.965 451.48 374.965 451.313C374.965 451.146 375.042 450.737 375.727 450.071C376.413 449.403 377.544 448.647 379.213 447.841C382.541 446.233 387.573 444.63 394.224 443.076C407.493 439.975 426.777 437.166 450.701 434.802C498.525 430.076 564.64 427.148 637.7 427.148C710.76 427.148 776.875 430.076 824.699 434.802C848.623 437.166 867.907 439.975 881.176 443.076C887.827 444.63 892.859 446.233 896.187 447.841C897.856 448.647 898.987 449.403 899.674 450.071C900.358 450.737 900.435 451.146 900.435 451.313Z" fill="#F4F4F4" stroke="#F4F4F4" stroke-width="4"/>
<g opacity="0.7">
<path d="M551.732 453.103V459.091C551.207 460.989 554.515 462.292 558.197 463.047C561.053 463.633 563.766 463.889 567.432 463.838C570.567 463.794 573.724 463.526 576.431 463.047C580.838 462.267 584.056 460.928 584.056 459.091V453.103C584.056 446.839 551.732 447.115 551.732 453.103Z" fill="#77F721"/>
<path d="M551.732 459.091L546.652 472.448V480.279H555.888M551.732 459.091V453.103C551.732 447.115 584.056 446.839 584.056 453.103V459.091M551.732 459.091C551.207 460.989 554.515 462.292 558.197 463.047M584.056 459.091L588.674 472.448V480.279H579.438M584.056 459.091C584.056 460.928 580.838 462.267 576.431 463.047M558.197 463.047L555.888 480.279M558.197 463.047C561.053 463.633 563.766 463.889 567.432 463.838M555.888 480.279H567.432M567.432 463.838V480.279M567.432 463.838C570.567 463.794 573.724 463.526 576.431 463.047M567.432 480.279H579.438M576.431 463.047L579.438 480.279" stroke="#77F721" stroke-width="4" stroke-linecap="round"/>
</g>
<g opacity="0.7">
<path d="M702.076 453.079V459.067C701.551 460.965 704.858 462.268 708.54 463.023C711.396 463.609 714.11 463.865 717.776 463.814C720.911 463.771 724.068 463.503 726.775 463.023C731.182 462.243 734.4 460.905 734.4 459.067V453.079C734.4 446.815 702.076 447.092 702.076 453.079Z" fill="#77F721"/>
<path d="M702.076 459.067L696.996 472.425V480.255H706.232M702.076 459.067V453.079C702.076 447.092 734.4 446.815 734.4 453.079V459.067M702.076 459.067C701.551 460.965 704.858 462.268 708.54 463.023M734.4 459.067L739.018 472.425V480.255H729.782M734.4 459.067C734.4 460.905 731.182 462.243 726.775 463.023M708.54 463.023L706.232 480.255M708.54 463.023C711.396 463.609 714.11 463.865 717.776 463.814M706.232 480.255H717.776M717.776 463.814V480.255M717.776 463.814C720.911 463.771 724.068 463.503 726.775 463.023M717.776 480.255H729.782M726.775 463.023L729.782 480.255" stroke="#77F721" stroke-width="4" stroke-linecap="round"/>
</g>
<g opacity="0.7">
<path d="M626.439 453.079V459.067C625.914 460.965 629.222 462.268 632.904 463.023C635.76 463.609 638.473 463.865 642.139 463.814C645.274 463.771 648.431 463.503 651.138 463.023C655.545 462.243 658.763 460.905 658.763 459.067V453.079C658.763 446.815 626.439 447.092 626.439 453.079Z" fill="#77F721"/>
<path d="M626.439 459.067L621.359 472.425V480.255H630.595M626.439 459.067V453.079C626.439 447.092 658.763 446.815 658.763 453.079V459.067M626.439 459.067C625.914 460.965 629.222 462.268 632.904 463.023M658.763 459.067L663.381 472.425V480.255H654.145M658.763 459.067C658.763 460.905 655.545 462.243 651.138 463.023M632.904 463.023L630.595 480.255M632.904 463.023C635.76 463.609 638.473 463.865 642.139 463.814M630.595 480.255H642.139M642.139 463.814V480.255M642.139 463.814C645.274 463.771 648.431 463.503 651.138 463.023M642.139 480.255H654.145M651.138 463.023L654.145 480.255" stroke="#77F721" stroke-width="4" stroke-linecap="round"/>
</g>
<path opacity="0.7" d="M833.668 471.267H822.727V447.103C822.727 446.549 823.028 445.94 824.049 445.36C825.086 444.771 826.603 444.398 828.228 444.372C829.857 444.347 831.35 444.674 832.359 445.236C833.313 445.769 833.668 446.385 833.668 447.103V471.267Z" fill="#77F721" stroke="#77F721" stroke-width="4" stroke-linecap="round"/>
<path d="M282.387 881.293H1000.49" stroke="#F4F4F4" stroke-width="4" stroke-linecap="round"/>
<path d="M283.316 607.223H1001.42" stroke="#F4F4F4" stroke-opacity="0.9" stroke-width="4" stroke-linecap="round" stroke-dasharray="33.82 33.82"/>
<path d="M306.66 632.43H978.07" stroke="#F4F4F4" stroke-opacity="0.9" stroke-width="4" stroke-linecap="round" stroke-dasharray="33.82 33.82"/>
<path d="M283.316 660.445H1001.42" stroke="#F4F4F4" stroke-opacity="0.9" stroke-width="4" stroke-linecap="round" stroke-dasharray="33.82 33.82"/>
<path d="M306.66 685.652H978.07" stroke="#F4F4F4" stroke-opacity="0.9" stroke-width="4" stroke-linecap="round" stroke-dasharray="33.82 33.82"/>
<path d="M283.316 713.66H1001.42" stroke="#F4F4F4" stroke-opacity="0.9" stroke-width="4" stroke-linecap="round" stroke-dasharray="33.82 33.82"/>
<path d="M306.66 738.867H978.07" stroke="#F4F4F4" stroke-opacity="0.9" stroke-width="4" stroke-linecap="round" stroke-dasharray="33.82 33.82"/>
<path d="M283.316 766.914H1001.42" stroke="#F4F4F4" stroke-opacity="0.9" stroke-width="4" stroke-linecap="round" stroke-dasharray="33.82 33.82"/>
<path d="M306.66 792.121H978.07" stroke="#F4F4F4" stroke-opacity="0.9" stroke-width="4" stroke-linecap="round" stroke-dasharray="33.82 33.82"/>
<path d="M283.316 554.004H1001.42" stroke="#F4F4F4" stroke-opacity="0.9" stroke-width="4" stroke-linecap="round" stroke-dasharray="33.82 33.82"/>
<path d="M306.668 579.211H978.077" stroke="#F4F4F4" stroke-opacity="0.9" stroke-width="4" stroke-linecap="round" stroke-dasharray="33.82 33.82"/>
<path d="M283.316 820.133H1001.42" stroke="#F4F4F4" stroke-opacity="0.9" stroke-width="4" stroke-linecap="round" stroke-dasharray="33.82 33.82"/>
<path d="M306.66 845.34H978.07" stroke="#F4F4F4" stroke-opacity="0.9" stroke-width="4" stroke-linecap="round" stroke-dasharray="33.82 33.82"/>
<path d="M47 975H1232" stroke="#77F721" stroke-width="4" stroke-linecap="round" stroke-linejoin="round"/>
<path d="M97.2706 702.832L-179 782.805L12.9353 691.2L-32.1404 649.032L133.622 622.859L36.2002 660.665L97.2706 702.832Z" fill="black" stroke="black" stroke-width="5.81622"/>
<path d="M1139.83 904.944L1067.12 855.506L1112.2 868.593L1120.93 833.695L1362.3 999.458L1139.83 868.593V904.944Z" fill="black" stroke="black" stroke-width="5.81622"/>
<path d="M141.469 908.249L214.172 858.811L169.096 871.897L160.372 837L-81.0014 1002.76L141.469 871.897V908.249Z" fill="black" stroke="black" stroke-width="5.81622"/>
<path d="M1241.61 633.04L1075.85 583.603H1179.09L1145.64 521.078L1421.91 583.603L1216.89 567.608L1241.61 633.04Z" fill="black" stroke="black" stroke-width="5.81622"/>
<path d="M1160.18 285.519L1000.24 336.411L1208.17 300.06L1186.36 265.162L1295.41 207L1125.29 265.162L1160.18 285.519Z" fill="black" stroke="black" stroke-width="5.81622"/>
<path d="M56.2258 387.519L216.172 438.411L8.24193 402.06L30.0528 367.162L-79.0014 309L91.1231 367.162L56.2258 387.519Z" fill="black" stroke="black" stroke-width="5.81622"/>
<path d="M1259.07 374.827L1059 454M1353.07 847.552L1166.27 758.37M-49.805 849.37L174.421 758.37M-81.0742 552.667L174.421 537M12.7221 248.164L279 374.827" stroke="black" stroke-width="4.82067"/>
</g>
<defs>
<clipPath id="clip0_323_838">
<rect width="1280" height="1024" fill="white"/>
</clipPath>
</defs>
</svg>
