<svg width="1280" height="1100" viewBox="0 0 1280 1100" fill="none" xmlns="http://www.w3.org/2000/svg">
<rect width="1280" height="1100" fill="#F4F4F4"/>
<path d="M155.457 837.5C134.666 837.5 146.794 874.833 155.457 893.5H1120.04C1123.04 885.333 1123.46 886 1130.54 867C1139.06 844.128 1134.37 838.989 1125.54 837.835C1122.98 837.5 1120.08 837.5 1117.05 837.5H769.195H398.353C382.69 837.5 378.999 811.539 370.882 799.5C368.431 795.866 365.577 793.5 361.869 793.5H208.434C205.605 793.5 203.053 795.865 200.668 799.5C192.943 811.271 186.966 836.354 178.947 837.5H155.457Z" fill="#77F721" fill-opacity="0.05"/>
<path d="M398.353 837.5H769.195H1117.05C1120.08 837.5 1122.98 837.5 1125.54 837.835C1136.04 827.328 1140.42 805.833 1120.54 800.645C1117.72 799.908 1114.4 799.5 1110.55 799.5H806.179C786.376 799.5 782.23 783.837 776.705 770.5C772.609 760.611 767.755 752 755.201 752H543.791C532.938 752 526.616 760.611 521.66 770.5C514.977 783.837 510.78 799.5 501.309 799.5H370.882C378.999 811.539 382.69 837.5 398.353 837.5Z" fill="#77F721" fill-opacity="0.1"/>
<path d="M543.791 752H755.201C767.755 752 772.609 760.611 776.705 770.5H1108.55H1123.04C1132.64 760.9 1132.54 745.5 1116.05 745.5H1099.05H799.182C781.522 745.5 775.968 730.715 771.056 717.729C767.211 707.563 763.76 698.5 755.201 698.5H547.289C532.693 698.5 527.399 706.537 523.649 716C518.284 729.541 516.083 746 494.312 746H170.95C142.962 746 149.959 763.769 156.956 772.654C160.293 771.299 164.854 770.5 170.95 770.5H521.66C526.616 760.611 532.938 752 543.791 752Z" fill="#77F721" fill-opacity="0.15"/>
<path d="M769.195 664H158.397L156.196 690L1124.09 690.625L1121.8 664H1050.07C1037.67 664 1033.26 648.02 1027.23 634.5C1022.81 624.589 1017.03 610.5 1007.09 610.5H819.673C807.623 610.5 800.459 624.589 796.241 634.5C790.488 648.02 786.497 664 769.195 664Z" fill="#77F721" fill-opacity="0.3"/>
<path d="M158.397 664H769.195C786.497 664 790.488 648.02 796.241 634.5H789.186C779.601 634.5 775.924 622.276 771.056 610.5C766.533 599.557 760.981 589 748.703 589H543.791C542.2 589 540.704 589.148 539.293 589.426C516.763 593.874 516.125 631.706 505.307 635H160.853L158.397 664Z" fill="#77F721" fill-opacity="0.4"/>
<path d="M160.853 635H505.307C516.125 631.706 516.763 593.874 539.293 589.426C532.963 589.426 535.388 568.679 518.802 565.824C517.576 565.613 516.247 565.5 514.803 565.5H372.864C362.333 565.5 357.507 575.455 353.009 586C347.944 597.876 343.294 610.5 331.382 610.5H162.927L160.853 635Z" fill="#77F721" fill-opacity="0.6"/>
<path d="M537.793 541H751.702C757.955 540.596 762.417 548.012 767.092 557C787.77 557 789.544 541.898 793.494 529C781.861 531.292 776.401 515.852 770.193 502.25C765.566 492.115 760.524 483 752.202 483H543.791C535.554 483 532.077 492.127 528.633 502.25C524.346 514.853 520.111 529 506.807 529H169.828L167.458 557H521.302C524.266 549.241 529.611 541 537.793 541Z" fill="#77F721"/>
<path d="M795.683 587L1115.09 586L1112.64 557.5H1044.08C1029.97 557.5 1026.15 542.08 1020.48 529C1016.3 519.365 1011.12 511 1000.1 511H814.675C800.589 511 796.437 519.388 793.494 529C789.544 541.898 787.77 557 767.092 557C774.001 570.282 781.376 587 795.683 587Z" fill="#77F721" fill-opacity="0.8"/>
<path d="M819.673 610.5H1007.09H1117.2L1115.09 586L795.683 587C781.376 587 774.001 570.282 767.092 557C762.417 548.012 757.955 540.596 751.702 541H537.793C529.611 541 524.266 549.241 521.302 557C520.065 560.236 519.243 563.389 518.802 565.824C535.388 568.679 532.963 589.426 539.293 589.426C540.704 589.148 542.2 589 543.791 589H748.703C760.981 589 766.533 599.557 771.056 610.5H819.673Z" fill="#77F721" fill-opacity="0.7"/>
<path d="M781.689 217H1083.36L1080.78 187H1021.09C1011.89 187 1007.52 174.75 1002.19 162.5C996.872 150.25 990.6 138 977.605 138H801.181C785.937 138 783.563 150.25 779.829 162.5C776.094 174.75 770.999 187 750.313 187C754.182 200.37 757.479 217 781.689 217Z" fill="#77F721"/>
<path d="M500.809 217C515.303 217 522.3 212 525.799 197.5C526.761 193.513 527.77 190.025 528.83 187H198.788L196.247 217H295.397H465.824H500.809Z" fill="#77F721"/>
<path d="M525.799 197.5C522.3 212 515.303 217 500.809 217H465.824C473.599 217 477.948 228.342 482.834 240L1085.42 241L1083.36 217H781.689C757.479 217 754.182 200.37 750.313 187C747.712 178.013 744.852 170.5 735.209 170.5H543.791C537.832 170.5 532.942 175.276 528.83 187C527.77 190.025 526.761 193.513 525.799 197.5Z" fill="#77F721" fill-opacity="0.8"/>
<path d="M295.397 217H196.247L194.3 240H273.969C277.155 228.5 281.403 217 295.397 217Z" fill="#77F721" fill-opacity="0.8"/>
<path d="M258.913 263H192.352L189.854 292.5H529.289C533.703 284.012 540.042 277 551.288 277H739.707C745.547 277 749.567 283.979 753.422 292.5L1089.98 294L1087.49 265H504.808C493.764 265 487.999 252.324 482.834 240C477.948 228.342 473.599 217 465.824 217H295.397C281.403 217 277.155 228.5 273.969 240C270.783 251.5 268.659 263 258.913 263Z" fill="#77F721" fill-opacity="0.7"/>
<path d="M511.805 322H187.356L185.112 348.5H528.208C532.473 338.278 537.913 329 547.789 329H739.707C749.773 329 749.828 339.728 752.525 348.5L1094.75 349.5L1092.47 323H776.691C765.097 323 759.463 305.856 753.422 292.5C749.567 283.979 745.547 277 739.707 277H551.288C540.042 277 533.703 284.012 529.289 292.5C522.52 305.515 520.275 322 511.805 322Z" fill="#77F721" fill-opacity="0.6"/>
<path d="M180.752 400H725.713C744.138 400 738.723 363.617 756.7 356.28C754.668 354.248 753.443 351.487 752.525 348.5C749.828 339.728 749.773 329 739.707 329H547.789C537.913 329 532.473 338.278 528.208 348.5C522.976 361.039 519.514 375 511.805 375H182.869L180.752 400Z" fill="#77F721" fill-opacity="0.4"/>
<path d="M956.614 400H1099.09L1097.03 376H932.583C937.286 387.727 942.52 400 956.614 400Z" fill="#77F721" fill-opacity="0.4"/>
<path d="M725.713 400H180.752L178.529 426.25L176.306 452.5H253.415C257.413 441 262.911 429.5 276.905 429.5H453.829C461.076 429.5 465.324 441 470.697 452.5H766.696C785.188 452.5 781.689 406.5 802.18 406.5H1000.1C1015.09 406.5 1021.99 452.5 1039.58 452.5H1103.61L1099.09 400H956.614C942.52 400 937.286 387.727 932.583 376C928.28 365.272 924.422 355 914.632 355H763.697C761.026 355 758.716 355.458 756.7 356.28C738.723 363.617 744.138 400 725.713 400Z" fill="#77F721" fill-opacity="0.3"/>
<path d="M814.675 511H1000.1C1011.12 511 1016.3 519.365 1020.48 529H1110.19L1108.12 505H1056.07C1050.09 505 1045.54 494.496 1040.69 483.316C1040.52 482.918 1040.35 482.52 1040.17 482.121C1039.21 479.901 1038.23 477.669 1037.23 475.5C1032.64 465.589 1027.48 457 1020.48 457H811.676C798.053 457 791.637 465.705 787.489 475.5C787.428 475.644 787.368 475.788 787.308 475.933C785.927 479.256 784.797 482.692 783.728 485.944C780.465 495.866 777.761 504.089 770.193 502.25C776.401 515.852 781.861 531.292 793.494 529C796.437 519.388 800.589 511 814.675 511Z" fill="#77F721" fill-opacity="0.05"/>
<path d="M169.828 529H506.807C520.111 529 524.346 514.853 528.633 502.25H172.094L169.828 529Z" fill="#77F721" fill-opacity="0.05"/>
<path d="M238.921 475.5H174.359L172.094 502.25H528.633C532.077 492.127 535.554 483 543.791 483H752.202C760.524 483 765.566 492.115 770.193 502.25C777.761 504.089 780.465 495.866 783.728 485.944C784.797 482.692 785.927 479.256 787.308 475.933C787.368 475.788 787.428 475.644 787.489 475.5H494.312C482.567 475.5 476.07 464 470.697 452.5C465.324 441 461.076 429.5 453.829 429.5H276.905C262.911 429.5 257.413 441 253.415 452.5C249.417 464 246.918 475.5 238.921 475.5Z" fill="#77F721" fill-opacity="0.1"/>
<path d="M1037.23 475.5C1038.23 477.669 1039.21 479.901 1040.17 482.121C1040.35 482.52 1040.52 482.918 1040.69 483.316C1045.54 494.496 1050.09 505 1056.07 505H1108.12L1105.59 475.5H1037.23Z" fill="#77F721" fill-opacity="0.1"/>
<path d="M470.697 452.5C476.07 464 482.567 475.5 494.312 475.5H787.489C791.637 465.705 798.053 457 811.676 457H1020.48C1027.48 457 1032.64 465.589 1037.23 475.5H1105.59L1103.61 452.5H1039.58C1021.99 452.5 1015.09 406.5 1000.1 406.5H802.18C781.689 406.5 785.188 452.5 766.696 452.5H470.697Z" fill="#77F721" fill-opacity="0.15"/>
<path d="M796.241 634.5C800.459 624.589 807.623 610.5 819.673 610.5H771.056C775.924 622.276 779.601 634.5 789.186 634.5H796.241Z" fill="#77F721" fill-opacity="0.6"/>
<path d="M1007.09 610.5C1017.03 610.5 1022.81 624.589 1027.23 634.5H1119.26L1117.2 610.5H1007.09Z" fill="#77F721" fill-opacity="0.6"/>
<path d="M1050.07 664H1121.8L1119.26 634.5H1027.23C1033.26 648.02 1037.67 664 1050.07 664Z" fill="#77F721" fill-opacity="0.4"/>
<path d="M162.927 610.5H331.382C343.294 610.5 347.944 597.876 353.009 586H165.002L162.927 610.5Z" fill="#77F721" fill-opacity="0.7"/>
<path d="M372.864 565.5H514.803C516.247 565.5 517.576 565.613 518.802 565.824C519.243 563.389 520.065 560.236 521.302 557H167.458L165.002 586H353.009C357.507 575.455 362.333 565.5 372.864 565.5Z" fill="#77F721" fill-opacity="0.8"/>
<path d="M89.985 1012.5L55 915.5M55 915.5H1224M55 915.5V893.5H138.964M1224 915.5L1187.52 1017.5M1224 915.5V893.5H1141.54M138.964 893.5H155.457M138.964 893.5L153.994 716M1141.54 893.5H1120.04M1141.54 893.5L1130.96 770.5M196.247 217H295.397M196.247 217L198.788 187M196.247 217L194.3 240M1083.36 217H781.689C757.479 217 754.182 200.37 750.313 187M1083.36 217L1080.78 187M1083.36 217L1085.42 241M192.352 263H258.913C268.659 263 270.783 251.5 273.969 240M192.352 263L194.3 240M192.352 263L189.854 292.5M295.397 217H465.824M295.397 217C281.403 217 277.155 228.5 273.969 240M465.824 217H500.809C515.303 217 522.3 212 525.799 197.5C526.761 193.513 527.77 190.025 528.83 187M465.824 217C473.599 217 477.948 228.342 482.834 240M1087.49 265H504.808C493.764 265 487.999 252.324 482.834 240M1087.49 265L1085.42 241M1087.49 265L1089.98 294M187.356 322H511.805C520.275 322 522.52 305.515 529.289 292.5M187.356 322L189.854 292.5M187.356 322L185.112 348.5M1092.47 323H776.691C765.097 323 759.463 305.856 753.422 292.5M1092.47 323L1089.98 294M1092.47 323L1094.75 349.5M180.752 400H725.713C744.138 400 738.723 363.617 756.7 356.28M180.752 400L182.869 375M180.752 400L178.529 426.25L176.306 452.5M1099.09 400H956.614C942.52 400 937.286 387.727 932.583 376M1099.09 400L1103.61 452.5M1099.09 400L1097.03 376M174.359 475.5H238.921C246.918 475.5 249.417 464 253.415 452.5M174.359 475.5L176.306 452.5M174.359 475.5L172.094 502.25M1105.59 475.5L1103.61 452.5M1105.59 475.5L1108.12 505M1105.59 475.5H1037.23M176.306 452.5H253.415M253.415 452.5C257.413 441 262.911 429.5 276.905 429.5H453.829C461.076 429.5 465.324 441 470.697 452.5M470.697 452.5C476.07 464 482.567 475.5 494.312 475.5H787.489M470.697 452.5H766.696C785.188 452.5 781.689 406.5 802.18 406.5H1000.1C1015.09 406.5 1021.99 452.5 1039.58 452.5H1103.61M155.457 893.5C146.794 874.833 134.666 837.5 155.457 837.5M155.457 893.5H1120.04M155.457 837.5C176.248 837.5 179.78 837.5 178.947 837.5M155.457 837.5C148.793 824.833 139.464 799.5 155.457 799.5M155.457 837.5H178.947M178.947 837.5C186.966 836.354 192.943 811.271 200.668 799.5M1120.04 893.5C1123.04 885.333 1123.46 886 1130.54 867C1139.06 844.128 1134.37 838.989 1125.54 837.835M198.788 187H528.83M198.788 187L200.862 162.5M528.83 187C532.942 175.276 537.832 170.5 543.791 170.5H735.209C744.852 170.5 747.712 178.013 750.313 187M750.313 187C770.999 187 776.094 174.75 779.829 162.5M801.181 138H202.937L200.862 162.5M801.181 138H977.605M801.181 138C785.937 138 783.563 150.25 779.829 162.5M977.605 138H1076.56L1078.67 162.5M977.605 138C990.6 138 996.872 150.25 1002.19 162.5M1080.78 187H1021.09C1011.89 187 1007.52 174.75 1002.19 162.5M1080.78 187L1078.67 162.5M155.457 799.5C171.45 799.5 192.261 799.5 200.668 799.5M155.457 799.5C149.617 791.799 143.883 777.962 156.956 772.654M200.668 799.5C203.053 795.865 205.605 793.5 208.434 793.5H361.869C365.577 793.5 368.431 795.866 370.882 799.5M370.882 799.5C378.999 811.539 382.69 837.5 398.353 837.5H769.195H1117.05C1120.08 837.5 1122.98 837.5 1125.54 837.835M370.882 799.5H501.309C510.78 799.5 514.977 783.837 521.66 770.5M1125.54 837.835C1136.04 827.328 1140.42 805.833 1120.54 800.645M170.95 770.5C200.938 770.5 417.252 770.5 521.66 770.5M170.95 770.5C164.854 770.5 160.293 771.299 156.956 772.654M170.95 770.5H521.66M521.66 770.5C526.616 760.611 532.938 752 543.791 752H755.201C767.755 752 772.609 760.611 776.705 770.5M776.705 770.5C782.23 783.837 786.376 799.5 806.179 799.5H1110.55C1114.4 799.5 1117.72 799.908 1120.54 800.645M776.705 770.5H1108.55M1130.96 770.5H1123.04M1130.96 770.5L1126.38 717.25M156.956 772.654C149.959 763.769 142.962 746 170.95 746M170.95 746C198.938 746 398.187 746 494.312 746M170.95 746H494.312M494.312 746C516.083 746 518.284 729.541 523.649 716M1123.04 770.5C1132.64 760.9 1132.54 745.5 1116.05 745.5H1099.05H799.182C781.522 745.5 775.968 730.715 771.056 717.729M1123.04 770.5H1108.55M182.869 375H511.805C519.514 375 522.976 361.039 528.208 348.5M182.869 375L185.112 348.5M756.7 356.28C758.716 355.458 761.026 355 763.697 355H914.632C924.422 355 928.28 365.272 932.583 376M756.7 356.28C754.668 354.248 753.443 351.487 752.525 348.5M932.583 376H1097.03M1097.03 376L1094.75 349.5M158.397 664H769.195C786.497 664 790.488 648.02 796.241 634.5M158.397 664L160.853 635M158.397 664L156.196 690M819.673 610.5H1007.09M819.673 610.5C807.623 610.5 800.459 624.589 796.241 634.5M819.673 610.5H771.056M1007.09 610.5C1017.03 610.5 1022.81 624.589 1027.23 634.5M1007.09 610.5H1117.2M1121.8 664H1050.07C1037.67 664 1033.26 648.02 1027.23 634.5M1121.8 664L1119.26 634.5M1121.8 664L1124.09 690.625M160.853 635H505.307C516.125 631.706 516.763 593.874 539.293 589.426M160.853 635L162.927 610.5M796.241 634.5H789.186C779.601 634.5 775.924 622.276 771.056 610.5M1027.23 634.5H1119.26M1119.26 634.5L1117.2 610.5M162.927 610.5H331.382C343.294 610.5 347.944 597.876 353.009 586M162.927 610.5L165.002 586M539.293 589.426C540.704 589.148 542.2 589 543.791 589H748.703C760.981 589 766.533 599.557 771.056 610.5M539.293 589.426C532.963 589.426 535.388 568.679 518.802 565.824M771.056 610.5H1117.2M1117.2 610.5L1115.09 586M165.002 586H353.009M165.002 586L167.458 557M353.009 586C357.507 575.455 362.333 565.5 372.864 565.5H514.803C516.247 565.5 517.576 565.613 518.802 565.824M518.802 565.824C519.243 563.389 520.065 560.236 521.302 557M537.793 541C549.389 541 685.23 541 751.702 541M537.793 541C529.611 541 524.266 549.241 521.302 557M537.793 541H751.702M751.702 541C757.955 540.596 762.417 548.012 767.092 557M1115.09 586L795.683 587C781.376 587 774.001 570.282 767.092 557M1115.09 586L1112.64 557.5M167.458 557H521.302M167.458 557L169.828 529M767.092 557C787.77 557 789.544 541.898 793.494 529M1112.64 557.5H1044.08C1029.97 557.5 1026.15 542.08 1020.48 529M1112.64 557.5L1110.19 529M169.828 529H506.807C520.111 529 524.346 514.853 528.633 502.25M169.828 529L172.094 502.25M793.494 529C796.437 519.388 800.589 511 814.675 511H1000.1C1011.12 511 1016.3 519.365 1020.48 529M793.494 529C781.861 531.292 776.401 515.852 770.193 502.25M1020.48 529H1110.19M1110.19 529L1108.12 505M172.094 502.25H528.633M528.633 502.25C532.077 492.127 535.554 483 543.791 483H752.202C760.524 483 765.566 492.115 770.193 502.25M770.193 502.25C777.761 504.089 780.465 495.866 783.728 485.944C784.797 482.692 785.927 479.256 787.308 475.933M811.676 457H1020.48M811.676 457C798.053 457 791.637 465.705 787.489 475.5M811.676 457C797.853 457 791.45 465.963 787.308 475.933M1020.48 457C1027.48 457 1032.64 465.589 1037.23 475.5M1020.48 457C1029.01 457 1034.81 469.759 1040.17 482.121M1108.12 505H1056.07C1050.09 505 1045.54 494.496 1040.69 483.316C1040.52 482.918 1040.35 482.52 1040.17 482.121M787.489 475.5C787.428 475.644 787.368 475.788 787.308 475.933M1037.23 475.5C1038.23 477.669 1039.21 479.901 1040.17 482.121M1108.55 770.5C1124.04 770.5 1144.03 772 1120.54 800.645M153.994 716H523.649M153.994 716L156.196 690M523.649 716C527.399 706.537 532.693 698.5 547.289 698.5H755.201C763.76 698.5 767.211 707.563 771.056 717.729M771.056 717.729L1126.38 717.25M1126.38 717.25L1124.09 690.625M156.196 690L1124.09 690.625M200.862 162.5H779.829M1078.67 162.5H1002.19M194.3 240H273.969M482.834 240L1085.42 241M189.854 292.5H529.289M529.289 292.5C533.703 284.012 540.042 277 551.288 277H739.707C745.547 277 749.567 283.979 753.422 292.5M753.422 292.5L1089.98 294M185.112 348.5H528.208M528.208 348.5C532.473 338.278 537.913 329 547.789 329H739.707C749.773 329 749.828 339.728 752.525 348.5M752.525 348.5L1094.75 349.5" stroke="#77F721" stroke-width="4"/>
</svg>
