<svg width="1173" height="883" viewBox="0 0 1173 883" fill="none" xmlns="http://www.w3.org/2000/svg">
<path d="M102.457 701.5C81.6659 701.5 93.7941 738.833 102.457 757.5H1067.04C1070.04 749.333 1070.46 750 1077.54 731C1086.06 708.128 1081.37 702.989 1072.54 701.835C1069.98 701.5 1067.08 701.5 1064.05 701.5H716.195H345.353C329.69 701.5 325.999 675.539 317.882 663.5C315.431 659.866 312.577 657.5 308.869 657.5H155.434C152.605 657.5 150.053 659.865 147.668 663.5C139.943 675.271 133.966 700.354 125.947 701.5H102.457Z" fill="#77F721" fill-opacity="0.05"/>
<path d="M345.353 701.5H716.195H1064.05C1067.08 701.5 1069.98 701.5 1072.54 701.835C1083.04 691.328 1087.42 669.833 1067.54 664.645C1064.72 663.908 1061.4 663.5 1057.55 663.5H753.179C733.376 663.5 729.23 647.837 723.705 634.5C719.609 624.611 714.755 616 702.201 616H490.791C479.938 616 473.616 624.611 468.66 634.5C461.977 647.837 457.78 663.5 448.309 663.5H317.882C325.999 675.539 329.69 701.5 345.353 701.5Z" fill="#77F721" fill-opacity="0.1"/>
<path d="M490.791 616H702.201C714.755 616 719.609 624.611 723.705 634.5H1055.55H1070.04C1079.64 624.9 1079.54 609.5 1063.05 609.5H1046.05H746.182C728.522 609.5 722.968 594.715 718.056 581.729C714.211 571.563 710.76 562.5 702.201 562.5H494.289C479.693 562.5 474.399 570.537 470.649 580C465.284 593.541 463.083 610 441.312 610H117.95C89.9624 610 96.9594 627.769 103.956 636.654C107.293 635.299 111.854 634.5 117.95 634.5H468.66C473.616 624.611 479.938 616 490.791 616Z" fill="#77F721" fill-opacity="0.15"/>
<path d="M716.195 528H105.397L103.196 554L1071.09 554.625L1068.8 528H997.074C984.674 528 980.261 512.02 974.234 498.5C969.815 488.589 964.029 474.5 954.093 474.5H766.673C754.622 474.5 747.459 488.589 743.241 498.5C737.488 512.02 733.497 528 716.195 528Z" fill="#77F721" fill-opacity="0.3"/>
<path d="M105.397 528H716.195C733.497 528 737.488 512.02 743.241 498.5H736.186C726.601 498.5 722.924 486.276 718.056 474.5C713.533 463.557 707.981 453 695.703 453H490.791C489.2 453 487.704 453.148 486.293 453.426C463.763 457.874 463.125 495.706 452.307 499H107.853L105.397 528Z" fill="#77F721" fill-opacity="0.4"/>
<path d="M107.853 499H452.307C463.125 495.706 463.763 457.874 486.293 453.426C479.963 453.426 482.388 432.679 465.802 429.824C464.576 429.613 463.247 429.5 461.803 429.5H319.864C309.333 429.5 304.507 439.455 300.009 450C294.944 461.875 290.294 474.5 278.382 474.5H109.927L107.853 499Z" fill="#77F721" fill-opacity="0.6"/>
<path d="M484.793 405H698.702C704.955 404.596 709.417 412.012 714.092 421C734.77 421 736.544 405.898 740.494 393C728.861 395.292 723.401 379.852 717.193 366.25C712.566 356.115 707.524 347 699.202 347H490.791C482.554 347 479.077 356.127 475.633 366.25C471.346 378.853 467.111 393 453.807 393H116.828L114.458 421H468.302C471.266 413.241 476.611 405 484.793 405Z" fill="#77F721"/>
<path d="M742.683 451L1062.09 450L1059.64 421.5H991.077C976.975 421.5 973.148 406.08 967.476 393C963.298 383.365 958.119 375 947.096 375H761.675C747.589 375 743.437 383.388 740.494 393C736.544 405.898 734.77 421 714.092 421C721.001 434.282 728.376 451 742.683 451Z" fill="#77F721" fill-opacity="0.8"/>
<path d="M766.673 474.5H954.093H1064.2L1062.09 450L742.683 451C728.376 451 721.001 434.282 714.092 421C709.417 412.012 704.955 404.596 698.702 405H484.793C476.611 405 471.266 413.241 468.302 421C467.065 424.236 466.243 427.389 465.802 429.824C482.388 432.679 479.963 453.426 486.293 453.426C487.704 453.148 489.2 453 490.791 453H695.703C707.981 453 713.533 463.557 718.056 474.5H766.673Z" fill="#77F721" fill-opacity="0.7"/>
<path d="M728.689 81H1030.36L1027.78 51H968.087C958.891 51 954.518 38.75 949.195 26.5C943.872 14.25 937.6 2 924.605 2H748.181C732.937 2 730.563 14.25 726.829 26.5C723.094 38.75 717.999 51 697.313 51C701.182 64.3697 704.479 81 728.689 81Z" fill="#77F721"/>
<path d="M447.809 81C462.303 81 469.3 76 472.799 61.5C473.761 57.5126 474.77 54.025 475.83 51H145.788L143.247 81H242.397H412.824H447.809Z" fill="#77F721"/>
<path d="M472.799 61.5C469.3 76 462.303 81 447.809 81H412.824C420.599 81 424.948 92.3424 429.834 104L1032.42 105L1030.36 81H728.689C704.479 81 701.182 64.3697 697.313 51C694.712 42.0135 691.852 34.5 682.209 34.5H490.791C484.832 34.5 479.942 39.2759 475.83 51C474.77 54.025 473.761 57.5126 472.799 61.5Z" fill="#77F721" fill-opacity="0.8"/>
<path d="M242.397 81H143.247L141.3 104H220.969C224.155 92.5 228.403 81 242.397 81Z" fill="#77F721" fill-opacity="0.8"/>
<path d="M205.913 127H139.352L136.854 156.5H476.289C480.703 148.012 487.042 141 498.288 141H686.707C692.547 141 696.568 147.979 700.422 156.5L1036.98 158L1034.48 129H451.808C440.764 129 434.999 116.324 429.834 104C424.948 92.3424 420.599 81 412.824 81H242.397C228.403 81 224.155 92.5 220.969 104C217.783 115.5 215.659 127 205.913 127Z" fill="#77F721" fill-opacity="0.7"/>
<path d="M458.805 186H134.356L132.112 212.5H475.208C479.473 202.278 484.913 193 494.789 193H686.707C696.773 193 696.828 203.728 699.525 212.5L1041.75 213.5L1039.47 187H723.691C712.097 187 706.463 169.856 700.422 156.5C696.568 147.979 692.547 141 686.707 141H498.288C487.042 141 480.703 148.012 476.289 156.5C469.52 169.515 467.275 186 458.805 186Z" fill="#77F721" fill-opacity="0.6"/>
<path d="M127.752 264H672.713C691.138 264 685.723 227.617 703.7 220.28C701.668 218.248 700.443 215.487 699.525 212.5C696.828 203.728 696.773 193 686.707 193H494.789C484.913 193 479.473 202.278 475.208 212.5C469.976 225.039 466.514 239 458.805 239H129.869L127.752 264Z" fill="#77F721" fill-opacity="0.4"/>
<path d="M903.614 264H1046.09L1044.03 240H879.583C884.286 251.727 889.52 264 903.614 264Z" fill="#77F721" fill-opacity="0.4"/>
<path d="M672.713 264H127.752L125.529 290.25L123.306 316.5H200.415C204.413 305 209.911 293.5 223.905 293.5H400.829C408.076 293.5 412.324 305 417.697 316.5H713.696C732.188 316.5 728.689 270.5 749.18 270.5H947.096C962.089 270.5 968.986 316.5 986.579 316.5H1050.61L1046.09 264H903.614C889.52 264 884.286 251.727 879.583 240C875.28 229.272 871.422 219 861.632 219H710.697C708.026 219 705.716 219.458 703.7 220.28C685.723 227.617 691.138 264 672.713 264Z" fill="#77F721" fill-opacity="0.3"/>
<path d="M761.675 375H947.096C958.119 375 963.298 383.365 967.476 393H1057.19L1055.12 369H1003.07C997.087 369 992.535 358.496 987.691 347.316C987.519 346.918 987.346 346.52 987.173 346.121C986.21 343.901 985.233 341.669 984.229 339.5C979.639 329.589 974.481 321 967.476 321H758.676C745.053 321 738.637 329.705 734.489 339.5C734.428 339.644 734.368 339.788 734.308 339.933C732.927 343.256 731.797 346.692 730.728 349.944C727.465 359.866 724.761 368.089 717.193 366.25C723.401 379.852 728.861 395.292 740.494 393C743.437 383.388 747.589 375 761.675 375Z" fill="#77F721" fill-opacity="0.05"/>
<path d="M116.828 393H453.807C467.111 393 471.346 378.853 475.633 366.25H119.094L116.828 393Z" fill="#77F721" fill-opacity="0.05"/>
<path d="M185.921 339.5H121.359L119.094 366.25H475.633C479.077 356.127 482.554 347 490.791 347H699.202C707.524 347 712.566 356.115 717.193 366.25C724.761 368.089 727.465 359.866 730.728 349.944C731.797 346.692 732.927 343.256 734.308 339.933C734.368 339.788 734.428 339.644 734.489 339.5H441.312C429.567 339.5 423.07 328 417.697 316.5C412.324 305 408.076 293.5 400.829 293.5H223.905C209.911 293.5 204.413 305 200.415 316.5C196.417 328 193.918 339.5 185.921 339.5Z" fill="#77F721" fill-opacity="0.1"/>
<path d="M984.229 339.5C985.233 341.669 986.21 343.901 987.173 346.121C987.346 346.52 987.519 346.918 987.691 347.316C992.535 358.496 997.087 369 1003.07 369H1055.12L1052.59 339.5H984.229Z" fill="#77F721" fill-opacity="0.1"/>
<path d="M417.697 316.5C423.07 328 429.567 339.5 441.312 339.5H734.489C738.637 329.705 745.053 321 758.676 321H967.476C974.481 321 979.639 329.589 984.229 339.5H1052.59L1050.61 316.5H986.579C968.986 316.5 962.089 270.5 947.096 270.5H749.18C728.689 270.5 732.188 316.5 713.696 316.5H417.697Z" fill="#77F721" fill-opacity="0.15"/>
<path d="M743.241 498.5C747.459 488.589 754.622 474.5 766.673 474.5H718.056C722.924 486.276 726.601 498.5 736.186 498.5H743.241Z" fill="#77F721" fill-opacity="0.6"/>
<path d="M954.093 474.5C964.029 474.5 969.815 488.589 974.234 498.5H1066.26L1064.2 474.5H954.093Z" fill="#77F721" fill-opacity="0.6"/>
<path d="M997.074 528H1068.8L1066.26 498.5H974.234C980.261 512.02 984.674 528 997.074 528Z" fill="#77F721" fill-opacity="0.4"/>
<path d="M109.927 474.5H278.382C290.294 474.5 294.944 461.875 300.009 450H112.002L109.927 474.5Z" fill="#77F721" fill-opacity="0.7"/>
<path d="M319.864 429.5H461.803C463.247 429.5 464.576 429.613 465.802 429.824C466.243 427.389 467.065 424.236 468.302 421H114.458L112.002 450H300.009C304.507 439.455 309.333 429.5 319.864 429.5Z" fill="#77F721" fill-opacity="0.8"/>
<path d="M36.985 876.5L2 779.5M2 779.5H1171M2 779.5V757.5H85.9641M1171 779.5L1134.52 881.5M1171 779.5V757.5H1088.54M85.9641 757.5H102.457M85.9641 757.5L100.994 580M1088.54 757.5H1067.04M1088.54 757.5L1077.96 634.5M143.247 81H242.397M143.247 81L145.788 51M143.247 81L141.3 104M1030.36 81H728.689C704.479 81 701.182 64.3697 697.313 51M1030.36 81L1027.78 51M1030.36 81L1032.42 105M139.352 127H205.913C215.659 127 217.783 115.5 220.969 104M139.352 127L141.3 104M139.352 127L136.854 156.5M242.397 81H412.824M242.397 81C228.403 81 224.155 92.5 220.969 104M412.824 81H447.809C462.303 81 469.3 76 472.799 61.5C473.761 57.5126 474.77 54.025 475.83 51M412.824 81C420.599 81 424.948 92.3424 429.834 104M1034.49 129H451.808C440.764 129 434.999 116.324 429.834 104M1034.49 129L1032.42 105M1034.49 129L1036.98 158M134.356 186H458.805C467.275 186 469.52 169.515 476.289 156.5M134.356 186L136.854 156.5M134.356 186L132.112 212.5M1039.47 187H723.691C712.097 187 706.463 169.856 700.422 156.5M1039.47 187L1036.98 158M1039.47 187L1041.75 213.5M127.752 264H672.713C691.138 264 685.723 227.617 703.7 220.28M127.752 264L129.869 239M127.752 264L125.529 290.25L123.306 316.5M1046.09 264H903.614C889.52 264 884.286 251.727 879.583 240M1046.09 264L1050.61 316.5M1046.09 264L1044.03 240M121.359 339.5H185.921C193.918 339.5 196.417 328 200.415 316.5M121.359 339.5L123.306 316.5M121.359 339.5L119.094 366.25M1052.59 339.5L1050.61 316.5M1052.59 339.5L1055.12 369M1052.59 339.5H984.229M123.306 316.5H200.415M200.415 316.5C204.413 305 209.911 293.5 223.905 293.5H400.829C408.076 293.5 412.324 305 417.697 316.5M417.697 316.5C423.07 328 429.567 339.5 441.312 339.5H734.489M417.697 316.5H713.696C732.188 316.5 728.689 270.5 749.18 270.5H947.096C962.089 270.5 968.986 316.5 986.579 316.5H1050.61M102.457 757.5C93.7941 738.833 81.6659 701.5 102.457 701.5M102.457 757.5H1067.04M102.457 701.5C123.248 701.5 126.78 701.5 125.947 701.5M102.457 701.5C95.7932 688.833 86.4639 663.5 102.457 663.5M102.457 701.5H125.947M125.947 701.5C133.966 700.354 139.943 675.271 147.668 663.5M1067.04 757.5C1070.04 749.333 1070.46 750 1077.54 731C1086.06 708.128 1081.37 702.989 1072.54 701.835M145.788 51H475.83M145.788 51L147.862 26.5M475.83 51C479.942 39.2759 484.832 34.5 490.791 34.5H682.209C691.852 34.5 694.712 42.0135 697.313 51M697.313 51C717.999 51 723.094 38.75 726.829 26.5M748.181 2H149.937L147.862 26.5M748.181 2H924.605M748.181 2C732.937 2 730.563 14.25 726.829 26.5M924.605 2H1023.56L1025.67 26.5M924.605 2C937.6 2 943.872 14.25 949.195 26.5M1027.78 51H968.087C958.891 51 954.518 38.75 949.195 26.5M1027.78 51L1025.67 26.5M102.457 663.5C118.45 663.5 139.261 663.5 147.668 663.5M102.457 663.5C96.6171 655.799 90.883 641.962 103.956 636.654M147.668 663.5C150.053 659.865 152.605 657.5 155.434 657.5H308.869C312.577 657.5 315.431 659.866 317.882 663.5M317.882 663.5C325.999 675.539 329.69 701.5 345.353 701.5H716.195H1064.05C1067.08 701.5 1069.98 701.5 1072.54 701.835M317.882 663.5H448.309C457.78 663.5 461.977 647.837 468.66 634.5M1072.54 701.835C1083.04 691.328 1087.42 669.833 1067.54 664.645M117.95 634.5C147.938 634.5 364.252 634.5 468.66 634.5M117.95 634.5C111.854 634.5 107.293 635.299 103.956 636.654M117.95 634.5H468.66M468.66 634.5C473.616 624.611 479.938 616 490.791 616H702.201C714.755 616 719.609 624.611 723.705 634.5M723.705 634.5C729.23 647.837 733.376 663.5 753.179 663.5H1057.55C1061.4 663.5 1064.72 663.908 1067.54 664.645M723.705 634.5H1055.55M1077.96 634.5H1070.04M1077.96 634.5L1073.38 581.25M103.956 636.654C96.9594 627.769 89.9624 610 117.95 610M117.95 610C145.938 610 345.187 610 441.312 610M117.95 610H441.312M441.312 610C463.083 610 465.284 593.541 470.649 580M1070.04 634.5C1079.64 624.9 1079.54 609.5 1063.05 609.5H1046.05H746.182C728.522 609.5 722.968 594.715 718.056 581.729M1070.04 634.5H1055.55M129.869 239H458.805C466.514 239 469.976 225.039 475.208 212.5M129.869 239L132.112 212.5M703.7 220.28C705.716 219.458 708.026 219 710.697 219H861.632C871.422 219 875.28 229.272 879.583 240M703.7 220.28C701.668 218.248 700.443 215.487 699.525 212.5M879.583 240H1044.03M1044.03 240L1041.75 213.5M105.397 528H716.195C733.497 528 737.488 512.02 743.241 498.5M105.397 528L107.853 499M105.397 528L103.196 554M766.673 474.5H954.093M766.673 474.5C754.623 474.5 747.459 488.589 743.241 498.5M766.673 474.5H718.056M954.093 474.5C964.029 474.5 969.815 488.589 974.234 498.5M954.093 474.5H1064.2M1068.8 528H997.074C984.674 528 980.261 512.02 974.234 498.5M1068.8 528L1066.26 498.5M1068.8 528L1071.09 554.625M107.853 499H452.307C463.125 495.706 463.763 457.874 486.293 453.426M107.853 499L109.927 474.5M743.241 498.5H736.186C726.601 498.5 722.924 486.276 718.056 474.5M974.234 498.5H1066.26M1066.26 498.5L1064.2 474.5M109.927 474.5H278.382C290.294 474.5 294.944 461.876 300.009 450M109.927 474.5L112.002 450M486.293 453.426C487.704 453.148 489.2 453 490.791 453H695.703C707.981 453 713.533 463.557 718.056 474.5M486.293 453.426C479.963 453.426 482.388 432.679 465.802 429.824M718.056 474.5H1064.2M1064.2 474.5L1062.09 450M112.002 450H300.009M112.002 450L114.458 421M300.009 450C304.507 439.455 309.333 429.5 319.864 429.5H461.803C463.247 429.5 464.576 429.613 465.802 429.824M465.802 429.824C466.243 427.389 467.065 424.236 468.302 421M484.793 405C496.389 405 632.23 405 698.702 405M484.793 405C476.611 405 471.266 413.241 468.302 421M484.793 405H698.702M698.702 405C704.955 404.596 709.417 412.012 714.092 421M1062.09 450L742.683 451C728.376 451 721.001 434.282 714.092 421M1062.09 450L1059.64 421.5M114.458 421H468.302M114.458 421L116.828 393M714.092 421C734.77 421 736.544 405.898 740.494 393M1059.64 421.5H991.077C976.975 421.5 973.148 406.08 967.476 393M1059.64 421.5L1057.19 393M116.828 393H453.807C467.111 393 471.346 378.853 475.633 366.25M116.828 393L119.094 366.25M740.494 393C743.437 383.388 747.589 375 761.675 375H947.096C958.119 375 963.298 383.365 967.476 393M740.494 393C728.861 395.292 723.401 379.852 717.193 366.25M967.476 393H1057.19M1057.19 393L1055.12 369M119.094 366.25H475.633M475.633 366.25C479.077 356.127 482.554 347 490.791 347H699.202C707.524 347 712.566 356.115 717.193 366.25M717.193 366.25C724.761 368.089 727.465 359.866 730.728 349.944C731.797 346.692 732.927 343.256 734.308 339.933M758.676 321H967.476M758.676 321C745.053 321 738.637 329.705 734.489 339.5M758.676 321C744.853 321 738.45 329.963 734.308 339.933M967.476 321C974.481 321 979.639 329.589 984.229 339.5M967.476 321C976.014 321 981.809 333.759 987.173 346.121M1055.12 369H1003.07C997.087 369 992.535 358.496 987.691 347.316C987.519 346.918 987.346 346.52 987.173 346.121M734.489 339.5C734.428 339.644 734.368 339.788 734.308 339.933M984.229 339.5C985.233 341.669 986.21 343.901 987.173 346.121M1055.55 634.5C1071.04 634.5 1091.03 636 1067.54 664.645M100.994 580H470.649M100.994 580L103.196 554M470.649 580C474.399 570.537 479.693 562.5 494.289 562.5H702.201C710.76 562.5 714.211 571.563 718.056 581.729M718.056 581.729L1073.38 581.25M1073.38 581.25L1071.09 554.625M103.196 554L1071.09 554.625M147.862 26.5H726.829M1025.67 26.5H949.195M141.3 104H220.969M429.834 104L1032.42 105M136.854 156.5H476.289M476.289 156.5C480.703 148.012 487.042 141 498.288 141H686.707C692.547 141 696.567 147.979 700.422 156.5M700.422 156.5L1036.98 158M132.112 212.5H475.208M475.208 212.5C479.473 202.278 484.913 193 494.789 193H686.707C696.773 193 696.828 203.728 699.525 212.5M699.525 212.5L1041.75 213.5" stroke="#77F721" stroke-width="4"/>
</svg>
