<svg width="1280" height="1024" viewBox="0 0 1280 1024" fill="none" xmlns="http://www.w3.org/2000/svg">
<g clip-path="url(#clip0_5292_54932)">
<rect width="1280" height="1024" fill="#F4F4F4"/>
<line x1="90" y1="902" x2="90" y2="148" stroke="#101010" stroke-width="4"/>
<line x1="1190" y1="902" x2="1190" y2="148" stroke="#101010" stroke-width="4"/>
<line y1="448" x2="1280" y2="448" stroke="#101010" stroke-width="4"/>
<line y1="297" x2="1280" y2="297" stroke="#101010" stroke-width="4"/>
<line y1="599" x2="1280" y2="599" stroke="#101010" stroke-width="4"/>
<line y1="750" x2="1280" y2="750" stroke="#101010" stroke-width="4"/>
<line y1="146" x2="1280" y2="146" stroke="#101010" stroke-width="4"/>
<line y1="901" x2="1280" y2="901" stroke="#101010" stroke-width="4"/>
<circle cx="314" cy="739" r="75" fill="#F4F4F4"/>
<path d="M418.5 32L432.777 103.561L486.389 54.0585L455.877 120.344L528.347 111.809L464.7 147.5L528.347 183.191L455.877 174.656L486.389 240.941L432.777 191.439L418.5 263L404.223 191.439L350.611 240.941L381.123 174.656L308.653 183.191L372.3 147.5L308.653 111.809L381.123 120.344L350.611 54.0585L404.223 103.561L418.5 32Z" fill="#77F721"/>
<path d="M432.474 103.622L432.581 104.162L432.986 103.788L485.461 55.3356L455.596 120.215L455.366 120.715L455.913 120.651L526.846 112.296L464.549 147.231L464.069 147.5L464.549 147.769L526.846 182.704L455.913 174.349L455.366 174.285L455.596 174.785L485.461 239.664L432.986 191.212L432.581 190.838L432.474 191.378L418.5 261.422L404.526 191.378L404.419 190.838L404.014 191.212L351.539 239.664L381.404 174.785L381.634 174.285L381.087 174.349L310.154 182.704L372.451 147.769L372.931 147.5L372.451 147.231L310.154 112.296L381.087 120.651L381.634 120.715L381.404 120.215L351.539 55.3356L404.014 103.788L404.419 104.162L404.526 103.622L418.5 33.5785L432.474 103.622Z" stroke="#77F721" stroke-opacity="0.7" stroke-width="0.617647"/>
<path d="M1003.5 32L1017.78 103.561L1071.39 54.0585L1040.88 120.344L1113.35 111.809L1049.7 147.5L1113.35 183.191L1040.88 174.656L1071.39 240.941L1017.78 191.439L1003.5 263L989.223 191.439L935.611 240.941L966.123 174.656L893.653 183.191L957.3 147.5L893.653 111.809L966.123 120.344L935.611 54.0585L989.223 103.561L1003.5 32Z" fill="#77F721"/>
<path d="M1017.47 103.622L1017.58 104.162L1017.99 103.788L1070.46 55.3356L1040.6 120.215L1040.37 120.715L1040.91 120.651L1111.85 112.296L1049.55 147.231L1049.07 147.5L1049.55 147.769L1111.85 182.704L1040.91 174.349L1040.37 174.285L1040.6 174.785L1070.46 239.664L1017.99 191.212L1017.58 190.838L1017.47 191.378L1003.5 261.422L989.526 191.378L989.419 190.838L989.014 191.212L936.539 239.664L966.404 174.785L966.634 174.285L966.087 174.349L895.154 182.704L957.451 147.769L957.931 147.5L957.451 147.231L895.154 112.296L966.087 120.651L966.634 120.715L966.404 120.215L936.539 55.3356L989.014 103.788L989.419 104.162L989.526 103.622L1003.5 33.5785L1017.47 103.622Z" stroke="#77F721" stroke-opacity="0.7" stroke-width="0.617647"/>
<path d="M243.5 331L257.777 402.561L311.389 353.059L280.877 419.344L353.347 410.809L289.7 446.5L353.347 482.191L280.877 473.656L311.389 539.941L257.777 490.439L243.5 562L229.223 490.439L175.611 539.941L206.123 473.656L133.653 482.191L197.3 446.5L133.653 410.809L206.123 419.344L175.611 353.059L229.223 402.561L243.5 331Z" fill="#77F721"/>
<path d="M257.474 402.622L257.581 403.162L257.986 402.788L310.461 354.336L280.596 419.215L280.366 419.715L280.913 419.651L351.846 411.296L289.549 446.231L289.069 446.5L289.549 446.769L351.846 481.704L280.913 473.349L280.366 473.285L280.596 473.785L310.461 538.664L257.986 490.212L257.581 489.838L257.474 490.378L243.5 560.422L229.526 490.378L229.419 489.838L229.014 490.212L176.539 538.664L206.404 473.785L206.634 473.285L206.087 473.349L135.154 481.704L197.451 446.769L197.931 446.5L197.451 446.231L135.154 411.296L206.087 419.651L206.634 419.715L206.404 419.215L176.539 354.336L229.014 402.788L229.419 403.162L229.526 402.622L243.5 332.578L257.474 402.622Z" stroke="#77F721" stroke-opacity="0.7" stroke-width="0.617647"/>
<path d="M313.5 636L327.777 707.561L381.389 658.059L350.877 724.344L423.347 715.809L359.7 751.5L423.347 787.191L350.877 778.656L381.389 844.941L327.777 795.439L313.5 867L299.223 795.439L245.611 844.941L276.123 778.656L203.653 787.191L267.3 751.5L203.653 715.809L276.123 724.344L245.611 658.059L299.223 707.561L313.5 636Z" fill="#77F721"/>
<path d="M327.474 707.622L327.581 708.162L327.986 707.788L380.461 659.336L350.596 724.215L350.366 724.715L350.913 724.651L421.846 716.296L359.549 751.231L359.069 751.5L359.549 751.769L421.846 786.704L350.913 778.349L350.366 778.285L350.596 778.785L380.461 843.664L327.986 795.212L327.581 794.838L327.474 795.378L313.5 865.422L299.526 795.378L299.419 794.838L299.014 795.212L246.539 843.664L276.404 778.785L276.634 778.285L276.087 778.349L205.154 786.704L267.451 751.769L267.931 751.5L267.451 751.231L205.154 716.296L276.087 724.651L276.634 724.715L276.404 724.215L246.539 659.336L299.014 707.788L299.419 708.162L299.526 707.622L313.5 637.578L327.474 707.622Z" stroke="#77F721" stroke-opacity="0.7" stroke-width="0.617647"/>
<path d="M751.5 636L765.777 707.561L819.389 658.059L788.877 724.344L861.347 715.809L797.7 751.5L861.347 787.191L788.877 778.656L819.389 844.941L765.777 795.439L751.5 867L737.223 795.439L683.611 844.941L714.123 778.656L641.653 787.191L705.3 751.5L641.653 715.809L714.123 724.344L683.611 658.059L737.223 707.561L751.5 636Z" fill="#77F721"/>
<path d="M765.474 707.622L765.581 708.162L765.986 707.788L818.461 659.336L788.596 724.215L788.366 724.715L788.913 724.651L859.846 716.296L797.549 751.231L797.069 751.5L797.549 751.769L859.846 786.704L788.913 778.349L788.366 778.285L788.596 778.785L818.461 843.664L765.986 795.212L765.581 794.838L765.474 795.378L751.5 865.422L737.526 795.378L737.419 794.838L737.014 795.212L684.539 843.664L714.404 778.785L714.634 778.285L714.087 778.349L643.154 786.704L705.451 751.769L705.931 751.5L705.451 751.231L643.154 716.296L714.087 724.651L714.634 724.715L714.404 724.215L684.539 659.336L737.014 707.788L737.419 708.162L737.526 707.622L751.5 637.578L765.474 707.622Z" stroke="#77F721" stroke-opacity="0.7" stroke-width="0.617647"/>
<path d="M1025.5 331L1039.78 402.561L1093.39 353.059L1062.88 419.344L1135.35 410.809L1071.7 446.5L1135.35 482.191L1062.88 473.656L1093.39 539.941L1039.78 490.439L1025.5 562L1011.22 490.439L957.611 539.941L988.123 473.656L915.653 482.191L979.3 446.5L915.653 410.809L988.123 419.344L957.611 353.059L1011.22 402.561L1025.5 331Z" fill="#77F721"/>
<path d="M1039.47 402.622L1039.58 403.162L1039.99 402.788L1092.46 354.336L1062.6 419.215L1062.37 419.715L1062.91 419.651L1133.85 411.296L1071.55 446.231L1071.07 446.5L1071.55 446.769L1133.85 481.704L1062.91 473.349L1062.37 473.285L1062.6 473.785L1092.46 538.664L1039.99 490.212L1039.58 489.838L1039.47 490.378L1025.5 560.422L1011.53 490.378L1011.42 489.838L1011.01 490.212L958.539 538.664L988.404 473.785L988.634 473.285L988.087 473.349L917.154 481.704L979.451 446.769L979.931 446.5L979.451 446.231L917.154 411.296L988.087 419.651L988.634 419.715L988.404 419.215L958.539 354.336L1011.01 402.788L1011.42 403.162L1011.53 402.622L1025.5 332.578L1039.47 402.622Z" stroke="#77F721" stroke-opacity="0.7" stroke-width="0.617647"/>
<path d="M285.74 255.46V266H283.9V255.46H285.74ZM284.8 250.4C285.187 250.4 285.5 250.52 285.74 250.76C285.98 251 286.1 251.3 286.1 251.66C286.1 252.02 285.98 252.32 285.74 252.56C285.5 252.787 285.187 252.9 284.8 252.9C284.427 252.9 284.12 252.787 283.88 252.56C283.64 252.32 283.52 252.02 283.52 251.66C283.52 251.3 283.64 251 283.88 250.76C284.12 250.52 284.427 250.4 284.8 250.4Z" fill="#F4F4F4"/>
<circle cx="419" cy="149" r="75" fill="#F4F4F4"/>
<path d="M398.523 119.136C392.785 120.218 386.891 121.765 380.843 123.776L370.84 94.5436C378.439 91.4502 386.659 89.0529 395.499 87.3516" stroke="#77F721" stroke-width="2" stroke-linecap="round"/>
<path d="M468.781 170.094C469.875 172.093 471.828 173.631 474.641 174.707L465.266 204.001C456.828 203.386 449.953 201.849 444.641 199.388" stroke="#77F721" stroke-width="2" stroke-linecap="round"/>
<circle cx="244" cy="449" r="75" fill="#F4F4F4"/>
<mask id="mask0_5292_54932" style="mask-type:alpha" maskUnits="userSpaceOnUse" x="169" y="374" width="150" height="150">
<circle cx="244" cy="449" r="75" fill="#D9D9D9"/>
</mask>
<g mask="url(#mask0_5292_54932)">
<path d="M205.105 416.599L225.705 413.199C226.772 417.333 228.639 420.333 231.305 422.199C233.972 424.066 237.572 424.999 242.105 424.999C246.639 424.999 250.239 424.066 252.905 422.199C255.572 420.333 257.439 417.333 258.505 413.199L279.105 416.599" stroke="#77F721" stroke-opacity="0.7" stroke-width="2"/>
</g>
<path d="M639.5 331L653.777 402.561L707.389 353.059L676.877 419.344L749.347 410.809L685.7 446.5L749.347 482.191L676.877 473.656L707.389 539.941L653.777 490.439L639.5 562L625.223 490.439L571.611 539.941L602.123 473.656L529.653 482.191L593.3 446.5L529.653 410.809L602.123 419.344L571.611 353.059L625.223 402.561L639.5 331Z" fill="#77F721"/>
<path d="M653.474 402.622L653.581 403.162L653.986 402.788L706.461 354.336L676.596 419.215L676.366 419.715L676.913 419.651L747.846 411.296L685.549 446.231L685.069 446.5L685.549 446.769L747.846 481.704L676.913 473.349L676.366 473.285L676.596 473.785L706.461 538.664L653.986 490.212L653.581 489.838L653.474 490.378L639.5 560.422L625.526 490.378L625.419 489.838L625.014 490.212L572.539 538.664L602.404 473.785L602.634 473.285L602.087 473.349L531.154 481.704L593.451 446.769L593.931 446.5L593.451 446.231L531.154 411.296L602.087 419.651L602.634 419.715L602.404 419.215L572.539 354.336L625.014 402.788L625.419 403.162L625.526 402.622L639.5 332.578L653.474 402.622Z" stroke="#77F721" stroke-opacity="0.7" stroke-width="0.617647"/>
<circle cx="641" cy="449" r="75" fill="#F4F4F4"/>
<mask id="mask1_5292_54932" style="mask-type:alpha" maskUnits="userSpaceOnUse" x="566" y="374" width="150" height="150">
<circle cx="641" cy="449" r="75" fill="#F4F4F4"/>
</mask>
<g mask="url(#mask1_5292_54932)">
<line x1="640" y1="384" x2="640" y2="509" stroke="#77F721" stroke-width="2"/>
</g>
<circle cx="314" cy="752" r="75" fill="#F4F4F4"/>
<path d="M295.867 790.505H278.861L259.855 723.734" stroke="#77F721" stroke-width="2"/>
<circle cx="1004" cy="149" r="75" fill="#F4F4F4"/>
<circle cx="753" cy="752" r="75" fill="#F4F4F4"/>
<mask id="mask2_5292_54932" style="mask-type:alpha" maskUnits="userSpaceOnUse" x="678" y="677" width="150" height="150">
<circle cx="753" cy="752" r="75" fill="#F4F4F4"/>
</mask>
<g mask="url(#mask2_5292_54932)">
<path d="M708 794.897L723.702 773.833M726 729.599L710.298 709.301" stroke="#77F721" stroke-width="1.91489"/>
</g>
<circle cx="1025" cy="449" r="75" fill="#F4F4F4"/>
<path d="M1029.66 465.809H1021M1021 430.708H1029.66V412M1078.6 412V449" stroke="#77F721" stroke-width="2"/>
</g>
<defs>
<clipPath id="clip0_5292_54932">
<rect width="1280" height="1024" fill="white"/>
</clipPath>
</defs>
</svg>
