<svg width="1280" height="1024" viewBox="0 0 1280 1024" fill="none" xmlns="http://www.w3.org/2000/svg">
<g clip-path="url(#clip0_5300_55040)">
<rect width="1280" height="1024" fill="#F4F4F4"/>
<path fill-rule="evenodd" clip-rule="evenodd" d="M367.869 633C391.554 633 414.028 627.58 434.217 617.861C437.405 622.118 442.317 624.846 447.827 624.846C457.436 624.846 465.225 616.551 465.225 606.319C465.225 603.804 464.754 601.406 463.901 599.219C497.69 572.362 520.871 531.676 525.725 485.232C533.842 483.665 539.998 476.099 539.998 467.003C539.998 457.907 533.843 450.342 525.725 448.775C520.822 401.835 497.197 360.777 462.822 333.931C464.349 331.12 465.225 327.842 465.225 324.342C465.225 313.906 457.436 305.445 447.827 305.445C441.22 305.445 435.474 309.446 432.528 315.338C412.777 306.123 390.895 301 367.869 301C345.52 301 324.249 305.826 304.959 314.535C301.841 309.085 296.204 305.445 289.768 305.445C279.955 305.445 272 313.906 272 324.342C272 327.496 272.726 330.469 274.011 333.083C239.062 359.893 214.995 401.293 210.021 448.697C201.512 450.074 195 457.745 195 467.003C195 476.261 201.513 483.933 210.021 485.31C214.949 532.257 238.605 573.315 273.011 600.144C272.356 602.075 272 604.154 272 606.319C272 616.551 279.955 624.846 289.768 624.846C295.063 624.846 299.818 622.43 303.073 618.598C322.86 627.853 344.789 633 367.869 633Z" fill="#77F721"/>
<path d="M434.217 617.861L435.818 616.662L434.832 615.346L433.35 616.059L434.217 617.861ZM463.901 599.219L462.657 597.653L461.502 598.571L462.038 599.946L463.901 599.219ZM525.725 485.232L525.346 483.268L523.89 483.549L523.736 485.024L525.725 485.232ZM525.725 448.775L523.736 448.982L523.89 450.457L525.346 450.738L525.725 448.775ZM462.822 333.931L461.065 332.976L460.256 334.465L461.591 335.507L462.822 333.931ZM432.528 315.338L431.682 317.15L433.446 317.973L434.317 316.232L432.528 315.338ZM304.959 314.535L303.222 315.528L304.125 317.106L305.782 316.358L304.959 314.535ZM274.011 333.083L275.228 334.67L276.529 333.672L275.806 332.201L274.011 333.083ZM210.021 448.697L210.34 450.671L211.85 450.427L212.01 448.905L210.021 448.697ZM210.021 485.31L212.01 485.101L211.851 483.58L210.341 483.335L210.021 485.31ZM273.011 600.144L274.905 600.786L275.361 599.44L274.241 598.566L273.011 600.144ZM303.073 618.598L303.921 616.787L302.537 616.14L301.549 617.303L303.073 618.598ZM433.35 616.059C413.423 625.651 391.245 631 367.869 631V635C391.863 635 414.632 629.508 435.085 619.663L433.35 616.059ZM447.827 622.846C443.003 622.846 438.663 620.461 435.818 616.662L432.617 619.06C436.147 623.775 441.632 626.846 447.827 626.846V622.846ZM463.225 606.319C463.225 615.567 456.215 622.846 447.827 622.846V626.846C458.657 626.846 467.225 617.536 467.225 606.319H463.225ZM462.038 599.946C462.801 601.903 463.225 604.055 463.225 606.319H467.225C467.225 603.553 466.707 600.909 465.765 598.492L462.038 599.946ZM523.736 485.024C518.938 530.931 496.027 571.129 462.657 597.653L465.146 600.785C499.353 573.595 522.804 532.42 527.714 485.44L523.736 485.024ZM537.998 467.003C537.998 475.212 532.455 481.896 525.346 483.268L526.104 487.196C535.23 485.434 541.998 476.987 541.998 467.003H537.998ZM525.346 450.738C532.455 452.111 537.998 458.795 537.998 467.003H541.998C541.998 457.019 535.23 448.573 526.105 446.811L525.346 450.738ZM461.591 335.507C495.54 362.02 518.889 402.585 523.736 448.982L527.714 448.567C522.754 401.085 498.854 359.533 464.053 332.355L461.591 335.507ZM463.225 324.342C463.225 327.507 462.433 330.457 461.065 332.976L464.58 334.885C466.265 331.783 467.225 328.178 467.225 324.342H463.225ZM447.827 307.445C456.179 307.445 463.225 314.852 463.225 324.342H467.225C467.225 312.96 458.693 303.445 447.827 303.445V307.445ZM434.317 316.232C436.967 310.932 442.069 307.445 447.827 307.445V303.445C440.371 303.445 433.981 307.959 430.739 314.444L434.317 316.232ZM367.869 303C390.595 303 412.189 308.056 431.682 317.15L433.374 313.526C413.365 304.19 391.195 299 367.869 299V303ZM305.782 316.358C324.82 307.763 345.811 303 367.869 303V299C345.229 299 323.678 303.889 304.136 312.713L305.782 316.358ZM289.768 307.445C295.417 307.445 300.426 310.638 303.222 315.528L306.695 313.542C303.257 307.532 296.991 303.445 289.768 303.445V307.445ZM274 324.342C274 314.892 281.174 307.445 289.768 307.445V303.445C278.736 303.445 270 312.919 270 324.342H274ZM275.806 332.201C274.655 329.859 274 327.187 274 324.342H270C270 327.805 270.798 331.08 272.216 333.965L275.806 332.201ZM212.01 448.905C216.926 402.049 240.713 361.147 275.228 334.67L272.794 331.496C237.411 358.64 213.063 400.537 208.032 448.488L212.01 448.905ZM197 467.003C197 458.68 202.845 451.884 210.34 450.671L209.701 446.722C200.179 448.263 193 456.81 193 467.003H197ZM210.341 483.335C202.846 482.123 197 475.326 197 467.003H193C193 477.196 200.18 485.743 209.702 487.284L210.341 483.335ZM274.241 598.566C240.262 572.071 216.881 531.506 212.01 485.101L208.032 485.518C213.017 533.009 236.948 574.56 271.781 601.721L274.241 598.566ZM274 606.319C274 604.374 274.32 602.513 274.905 600.786L271.117 599.502C270.393 601.638 270 603.934 270 606.319H274ZM289.768 622.846C281.137 622.846 274 615.527 274 606.319H270C270 617.576 278.772 626.846 289.768 626.846V622.846ZM301.549 617.303C298.647 620.72 294.436 622.846 289.768 622.846V626.846C295.691 626.846 300.989 624.141 304.597 619.893L301.549 617.303ZM367.869 631C345.09 631 323.449 625.921 303.921 616.787L302.226 620.41C322.27 629.786 344.489 635 367.869 635V631Z" fill="#77F721"/>
<ellipse cx="367.869" cy="467" rx="158.803" ry="166" fill="#F4F4F4" stroke="#77F721" stroke-width="4"/>
<circle cx="368.5" cy="466.82" r="109.5" fill="#F4F4F4" stroke="#77F721" stroke-width="4"/>
<mask id="mask0_5300_55040" style="mask-type:alpha" maskUnits="userSpaceOnUse" x="260" y="359" width="215" height="216">
<path d="M473.024 467C473.024 525.567 425.844 573.024 367.67 573.024C309.496 573.024 262.315 525.567 262.315 467C262.315 408.433 309.496 360.976 367.67 360.976C425.844 360.976 473.024 408.433 473.024 467Z" fill="#F4F4F4" stroke="#77F721" stroke-width="3.95106"/>
</mask>
<g mask="url(#mask0_5300_55040)">
<path d="M382.716 386.425C397.383 386.425 408.583 390.958 416.316 400.025C424.183 409.092 428.116 421.625 428.116 437.625V481.825C428.116 495.558 423.983 506.025 415.716 513.225C407.45 520.425 396.183 524.025 381.916 524.025C369.25 524.025 358.783 521.025 350.516 515.025L363.316 491.025C366.25 492.492 368.583 493.492 370.316 494.025C372.183 494.692 374.383 495.025 376.916 495.025C380.116 495.025 382.583 494.092 384.316 492.225C386.05 490.492 386.916 487.892 386.916 484.425V437.625C386.916 429.892 385.65 424.292 383.116 420.825C380.716 417.358 376.716 415.625 371.116 415.625C364.45 415.625 358.783 417.425 354.116 421.025V478.625H312.916V339.425H406.516L402.516 370.025H354.116V395.825C362.25 389.558 371.783 386.425 382.716 386.425Z" fill="#101010"/>
</g>
<path fill-rule="evenodd" clip-rule="evenodd" d="M641.793 481C660.672 481 678.585 476.674 694.678 468.917C697.219 472.315 701.135 474.493 705.528 474.493C713.187 474.493 719.396 467.873 719.396 459.706C719.396 457.697 719.02 455.782 718.34 454.036C745.272 432.599 763.75 400.124 767.619 363.053C774.092 361.804 779.001 355.765 779.001 348.503C779.001 341.241 774.092 335.201 767.62 333.952C763.711 296.485 744.88 263.713 717.48 242.285C718.697 240.041 719.396 237.425 719.396 234.631C719.396 226.3 713.187 219.547 705.528 219.547C700.261 219.547 695.68 222.741 693.332 227.444C677.589 220.089 660.147 216 641.793 216C623.978 216 607.024 219.852 591.647 226.804C589.163 222.453 584.669 219.547 579.538 219.547C571.716 219.547 565.375 226.3 565.375 234.63C565.375 237.148 565.954 239.522 566.978 241.608C539.121 263.008 519.936 296.053 515.972 333.891C509.19 334.99 504 341.114 504 348.503C504 355.892 509.191 362.015 515.972 363.115C519.9 400.588 538.756 433.36 566.182 454.774C565.659 456.317 565.375 457.977 565.375 459.706C565.375 467.873 571.716 474.493 579.538 474.493C583.76 474.493 587.55 472.565 590.145 469.505C605.917 476.892 623.396 481 641.793 481Z" fill="#77F721"/>
<path d="M694.678 468.917L696.28 467.719L695.294 466.4L693.81 467.115L694.678 468.917ZM718.34 454.036L717.094 452.472L715.941 453.389L716.476 454.762L718.34 454.036ZM767.619 363.053L767.24 361.09L765.784 361.371L765.63 362.846L767.619 363.053ZM767.62 333.952L765.631 334.159L765.785 335.635L767.241 335.916L767.62 333.952ZM717.48 242.285L715.722 241.331L714.915 242.818L716.248 243.86L717.48 242.285ZM693.332 227.444L692.486 229.256L694.251 230.081L695.122 228.338L693.332 227.444ZM591.647 226.804L589.91 227.795L590.813 229.376L592.471 228.626L591.647 226.804ZM566.978 241.608L568.197 243.194L569.495 242.197L568.774 240.727L566.978 241.608ZM515.972 333.891L516.292 335.865L517.802 335.62L517.961 334.099L515.972 333.891ZM515.972 363.115L517.961 362.906L517.802 361.385L516.292 361.14L515.972 363.115ZM566.182 454.774L568.076 455.416L568.531 454.072L567.412 453.198L566.182 454.774ZM590.145 469.505L590.993 467.694L589.608 467.045L588.619 468.211L590.145 469.505ZM693.81 467.115C677.98 474.745 660.362 479 641.793 479V483C660.981 483 679.191 478.602 695.547 470.718L693.81 467.115ZM705.528 472.493C701.822 472.493 698.478 470.66 696.28 467.719L693.076 470.114C695.96 473.971 700.448 476.493 705.528 476.493V472.493ZM717.396 459.706C717.396 466.891 711.963 472.493 705.528 472.493V476.493C714.41 476.493 721.396 468.854 721.396 459.706H717.396ZM716.476 454.762C717.067 456.279 717.396 457.948 717.396 459.706H721.396C721.396 457.447 720.973 455.286 720.203 453.31L716.476 454.762ZM765.63 362.846C761.817 399.381 743.609 431.368 717.094 452.472L719.585 455.601C746.936 433.831 765.684 400.868 769.609 363.261L765.63 362.846ZM777.001 348.503C777.001 354.879 772.702 360.035 767.24 361.09L767.999 365.017C775.482 363.573 781.001 356.651 781.001 348.503H777.001ZM767.241 335.916C772.703 336.97 777.001 342.127 777.001 348.503H781.001C781.001 340.355 775.482 333.433 767.999 331.988L767.241 335.916ZM716.248 243.86C743.222 264.955 761.778 297.234 765.631 334.159L769.609 333.744C765.644 295.736 746.538 262.471 718.712 240.71L716.248 243.86ZM717.396 234.631C717.396 237.09 716.781 239.379 715.722 241.331L719.238 243.239C720.613 240.704 721.396 237.76 721.396 234.631H717.396ZM705.528 221.547C711.927 221.547 717.396 227.243 717.396 234.631H721.396C721.396 225.357 714.446 217.547 705.528 217.547V221.547ZM695.122 228.338C697.174 224.225 701.111 221.547 705.528 221.547V217.547C699.411 217.547 694.186 221.256 691.543 226.551L695.122 228.338ZM641.793 218C659.846 218 677 222.021 692.486 229.256L694.179 225.632C678.178 218.157 660.448 214 641.793 214V218ZM592.471 228.626C607.596 221.788 624.27 218 641.793 218V214C623.687 214 606.452 217.916 590.823 224.981L592.471 228.626ZM579.538 221.547C583.88 221.547 587.745 224.004 589.91 227.795L593.384 225.812C590.58 220.901 585.457 217.547 579.538 217.547V221.547ZM567.375 234.63C567.375 227.284 572.937 221.547 579.538 221.547V217.547C570.495 217.547 563.375 225.316 563.375 234.63H567.375ZM568.774 240.727C567.883 238.912 567.375 236.839 567.375 234.63H563.375C563.375 237.457 564.026 240.132 565.183 242.49L568.774 240.727ZM517.961 334.099C521.868 296.808 540.773 264.261 568.197 243.194L565.76 240.022C537.468 261.756 518.005 295.298 513.983 333.682L517.961 334.099ZM506 348.503C506 342.047 510.525 336.8 516.292 335.865L515.652 331.917C507.855 333.181 502 340.181 502 348.503H506ZM516.292 361.14C510.526 360.205 506 354.959 506 348.503H502C502 356.825 507.855 363.825 515.652 365.089L516.292 361.14ZM567.412 453.198C540.414 432.117 521.833 399.838 517.961 362.906L513.983 363.323C517.968 401.338 537.099 434.603 564.951 456.351L567.412 453.198ZM567.375 459.706C567.375 458.197 567.623 456.754 568.076 455.416L564.287 454.133C563.696 455.88 563.375 457.756 563.375 459.706H567.375ZM579.538 472.493C572.901 472.493 567.375 466.85 567.375 459.706H563.375C563.375 468.895 570.531 476.493 579.538 476.493V472.493ZM588.619 468.211C586.377 470.855 583.131 472.493 579.538 472.493V476.493C584.388 476.493 588.723 474.274 591.67 470.798L588.619 468.211ZM641.793 479C623.698 479 606.507 474.96 590.993 467.694L589.296 471.316C605.326 478.824 623.095 483 641.793 483V479Z" fill="#77F721"/>
<ellipse cx="641.793" cy="348.5" rx="126.582" ry="132.5" fill="#F4F4F4" stroke="#77F721" stroke-width="4"/>
<ellipse cx="642.338" cy="348.502" rx="87.3383" ry="87.5446" fill="#F4F4F4" stroke="#77F721" stroke-width="4"/>
<mask id="mask1_5300_55040" style="mask-type:alpha" maskUnits="userSpaceOnUse" x="557" y="263" width="171" height="171">
<path d="M725.683 348.5C725.683 394.646 688.364 432.047 642.338 432.047C596.312 432.047 558.992 394.646 558.992 348.5C558.992 302.354 596.312 264.953 642.338 264.953C688.364 264.953 725.683 302.354 725.683 348.5Z" fill="#F4F4F4" stroke="#77F721" stroke-width="3.90658"/>
</mask>
<g mask="url(#mask1_5300_55040)">
<path d="M690.8 294.2V446.4L651.2 442.4V392.8C644.267 400.933 635.2 405 624 405C610.533 405 600.4 399.867 593.6 389.6C586.8 379.333 583.4 365.133 583.4 347C583.4 336.067 585.267 326.267 589 317.6C592.733 308.933 598 302.2 604.8 297.4C611.6 292.6 619.4 290.2 628.2 290.2C638.467 290.2 647.2 294 654.4 301.6L656.2 294.2H690.8ZM637.4 376.6C643 376.6 647.6 373.467 651.2 367.2V324.4C649.2 322.4 647.333 320.933 645.6 320C643.867 318.933 641.867 318.4 639.6 318.4C634.8 318.4 631 320.733 628.2 325.4C625.4 329.933 624 337.267 624 347.4C624 359.133 625.133 366.933 627.4 370.8C629.8 374.667 633.133 376.6 637.4 376.6Z" fill="#101010"/>
</g>
<path fill-rule="evenodd" clip-rule="evenodd" d="M928.856 611.996C952.131 611.996 974.215 606.673 994.054 597.129C997.187 601.312 1002.01 603.992 1007.43 603.992C1016.87 603.992 1024.53 595.848 1024.53 585.801C1024.53 583.328 1024.06 580.971 1023.22 578.822C1056.42 552.451 1079.2 512.503 1083.97 466.901C1091.95 465.367 1098 457.936 1098 449C1098 440.064 1091.95 432.633 1083.97 431.099C1079.15 385.012 1055.94 344.699 1022.16 318.339C1023.66 315.578 1024.53 312.357 1024.53 308.919C1024.53 298.671 1016.87 290.363 1007.43 290.363C1000.94 290.363 995.289 294.293 992.396 300.081C972.987 291.031 951.484 286 928.856 286C906.897 286 885.997 290.738 867.042 299.29C863.979 293.938 858.44 290.363 852.115 290.363C842.473 290.363 834.656 298.671 834.656 308.919C834.656 312.015 835.37 314.935 836.632 317.502C802.291 343.827 778.642 384.478 773.754 431.026C765.396 432.38 759 439.912 759 449C759 458.089 765.396 465.62 773.755 466.975C778.596 513.075 801.841 553.392 835.65 579.735C835.007 581.632 834.656 583.674 834.656 585.801C834.656 595.848 842.473 603.992 852.115 603.992C857.319 603.992 861.992 601.62 865.19 597.856C884.632 606.943 906.179 611.996 928.856 611.996Z" fill="#77F721"/>
<path d="M994.054 597.129L995.655 595.93L994.669 594.614L993.187 595.327L994.054 597.129ZM1023.22 578.822L1021.98 577.256L1020.82 578.174L1021.36 579.55L1023.22 578.822ZM1083.97 466.901L1083.59 464.937L1082.13 465.217L1081.98 466.693L1083.97 466.901ZM1083.97 431.099L1081.98 431.307L1082.13 432.783L1083.59 433.063L1083.97 431.099ZM1022.16 318.339L1020.41 317.383L1019.6 318.873L1020.93 319.916L1022.16 318.339ZM992.396 300.081L991.55 301.894L993.314 302.716L994.185 300.976L992.396 300.081ZM867.042 299.29L865.306 300.283L866.209 301.86L867.865 301.113L867.042 299.29ZM836.632 317.502L837.849 319.089L839.151 318.091L838.427 316.619L836.632 317.502ZM773.754 431.026L774.074 433L775.583 432.755L775.743 431.234L773.754 431.026ZM773.755 466.975L775.744 466.766L775.584 465.245L774.074 465L773.755 466.975ZM835.65 579.735L837.544 580.378L838.001 579.032L836.88 578.158L835.65 579.735ZM865.19 597.856L866.037 596.044L864.655 595.398L863.666 596.561L865.19 597.856ZM993.187 595.327C973.611 604.744 951.822 609.996 928.856 609.996V613.996C952.439 613.996 974.819 608.602 994.921 598.932L993.187 595.327ZM1007.43 601.992C1002.7 601.992 998.444 599.654 995.655 595.93L992.454 598.328C995.929 602.969 1001.33 605.992 1007.43 605.992V601.992ZM1022.53 585.801C1022.53 594.862 1015.65 601.992 1007.43 601.992V605.992C1018.09 605.992 1026.53 596.833 1026.53 585.801H1022.53ZM1021.36 579.55C1022.11 581.469 1022.53 583.579 1022.53 585.801H1026.53C1026.53 583.077 1026.02 580.473 1025.09 578.094L1021.36 579.55ZM1081.98 466.693C1077.26 511.757 1054.76 551.217 1021.98 577.256L1024.47 580.388C1058.08 553.684 1081.13 513.248 1085.95 467.109L1081.98 466.693ZM1096 449C1096 457.047 1090.56 463.597 1083.59 464.937L1084.34 468.865C1093.33 467.138 1100 458.825 1100 449H1096ZM1083.59 433.063C1090.56 434.403 1096 440.953 1096 449H1100C1100 439.175 1093.33 430.863 1084.34 429.135L1083.59 433.063ZM1020.93 319.916C1054.28 345.943 1077.21 385.763 1081.98 431.307L1085.96 430.891C1081.08 384.261 1057.59 343.455 1023.39 316.762L1020.93 319.916ZM1022.53 308.919C1022.53 312.021 1021.75 314.913 1020.41 317.383L1023.92 319.295C1025.58 316.242 1026.53 312.693 1026.53 308.919H1022.53ZM1007.43 292.363C1015.62 292.363 1022.53 299.618 1022.53 308.919H1026.53C1026.53 297.724 1018.13 288.363 1007.43 288.363V292.363ZM994.185 300.976C996.782 295.78 1001.79 292.363 1007.43 292.363V288.363C1000.09 288.363 993.797 292.806 990.607 299.187L994.185 300.976ZM928.856 288C951.184 288 972.399 292.964 991.55 301.894L993.241 298.269C973.575 289.099 951.784 284 928.856 284V288ZM867.865 301.113C886.567 292.675 907.188 288 928.856 288V284C906.606 284 885.426 288.802 866.22 297.467L867.865 301.113ZM852.115 292.363C857.654 292.363 862.564 295.491 865.306 300.283L868.778 298.296C865.394 292.384 859.226 288.363 852.115 288.363V292.363ZM836.656 308.919C836.656 299.659 843.69 292.363 852.115 292.363V288.363C841.255 288.363 832.656 297.683 832.656 308.919H836.656ZM838.427 316.619C837.298 314.324 836.656 311.706 836.656 308.919H832.656C832.656 312.325 833.442 315.546 834.838 318.384L838.427 316.619ZM775.743 431.234C780.573 385.235 803.942 345.082 837.849 319.089L835.416 315.914C800.64 342.573 776.71 383.721 771.765 430.817L775.743 431.234ZM761 449C761 440.848 766.728 434.19 774.074 433L773.434 429.051C764.064 430.57 757 438.976 757 449H761ZM774.074 465C766.729 463.81 761 457.152 761 449H757C757 459.025 764.064 467.431 773.435 468.949L774.074 465ZM836.88 578.158C803.497 552.147 780.528 512.323 775.744 466.766L771.765 467.183C776.664 513.827 800.185 554.637 834.421 581.313L836.88 578.158ZM836.656 585.801C836.656 583.895 836.97 582.07 837.544 580.378L833.756 579.093C833.043 581.195 832.656 583.453 832.656 585.801H836.656ZM852.115 601.992C843.654 601.992 836.656 594.821 836.656 585.801H832.656C832.656 596.874 841.292 605.992 852.115 605.992V601.992ZM863.666 596.561C860.821 599.909 856.692 601.992 852.115 601.992V605.992C857.946 605.992 863.162 603.33 866.714 599.151L863.666 596.561ZM928.856 609.996C906.48 609.996 885.221 605.011 866.037 596.044L864.343 599.668C884.043 608.875 905.879 613.996 928.856 613.996V609.996Z" fill="#77F721"/>
<ellipse cx="928.86" cy="448.998" rx="156.04" ry="162.998" fill="#F4F4F4" stroke="#77F721" stroke-width="4"/>
<circle cx="929.5" cy="448.801" r="107.5" fill="#F4F4F4" stroke="#77F721" stroke-width="4"/>
<path d="M960.8 467.8L988.2 525H947.8L928.4 481.2H921V525H881.4V413H871V391.8H881.4V376.2L921 372.2V391.8H945.4V413H921V459.2H929.4L950 418.2H986.6L960.8 467.8Z" fill="#101010"/>
<path fill-rule="evenodd" clip-rule="evenodd" d="M865.5 981C897.491 981 927.846 973.687 955.116 960.574C959.421 966.318 966.057 970 973.5 970C986.479 970 997 958.807 997 945C997 941.605 996.364 938.369 995.212 935.418C1040.85 899.176 1072.17 844.272 1078.72 781.598C1089.69 779.482 1098 769.274 1098 757C1098 744.726 1089.69 734.518 1078.72 732.402C1072.1 669.064 1040.19 613.661 993.756 577.436C995.817 573.644 997 569.222 997 564.5C997 550.417 986.479 539 973.5 539C964.577 539 956.815 544.397 952.835 552.347C926.158 539.913 896.602 533 865.5 533C835.31 533 806.578 539.513 780.52 551.267C776.309 543.912 768.694 539 760 539C746.745 539 736 550.417 736 564.5C736 568.756 736.982 572.769 738.717 576.297C691.515 612.474 659.009 668.335 652.29 732.297C640.797 734.155 632 744.507 632 757C632 769.493 640.797 779.845 652.29 781.703C658.944 845.054 690.896 900.457 737.368 936.66C736.482 939.269 736 942.076 736 945C736 958.807 746.745 970 760 970C767.155 970 773.579 966.739 777.976 961.565C804.703 974.055 834.325 981 865.5 981Z" fill="#77F721"/>
<path d="M955.116 960.574L956.716 959.374L955.73 958.059L954.249 958.771L955.116 960.574ZM995.212 935.418L993.968 933.852L992.812 934.77L993.349 936.145L995.212 935.418ZM1078.72 781.598L1078.34 779.634L1076.89 779.915L1076.73 781.39L1078.72 781.598ZM1078.72 732.402L1076.73 732.61L1076.89 734.085L1078.34 734.366L1078.72 732.402ZM993.756 577.436L991.999 576.481L991.189 577.97L992.526 579.013L993.756 577.436ZM952.835 552.347L951.991 554.16L953.753 554.981L954.624 553.242L952.835 552.347ZM780.52 551.267L778.784 552.261L779.686 553.837L781.342 553.09L780.52 551.267ZM738.717 576.297L739.934 577.884L741.236 576.886L740.512 575.414L738.717 576.297ZM652.29 732.297L652.609 734.271L654.119 734.027L654.279 732.506L652.29 732.297ZM652.29 781.703L654.279 781.494L654.119 779.973L652.609 779.729L652.29 781.703ZM737.368 936.66L739.262 937.303L739.719 935.957L738.597 935.083L737.368 936.66ZM777.976 961.565L778.822 959.753L777.44 959.107L776.452 960.27L777.976 961.565ZM954.249 958.771C927.242 971.758 897.182 979 865.5 979V983C897.799 983 928.45 975.615 955.982 962.376L954.249 958.771ZM973.5 968C966.741 968 960.678 964.661 956.716 959.374L953.515 961.773C958.164 967.976 965.372 972 973.5 972V968ZM995 945C995 957.821 985.259 968 973.5 968V972C987.698 972 999 959.793 999 945H995ZM993.349 936.145C994.411 938.866 995 941.856 995 945H999C999 941.354 998.317 937.871 997.075 934.69L993.349 936.145ZM1076.73 781.39C1070.23 843.527 1039.19 897.942 993.968 933.852L996.456 936.984C1042.52 900.41 1074.1 845.017 1080.71 781.806L1076.73 781.39ZM1096 757C1096 768.385 1088.3 777.713 1078.34 779.634L1079.1 783.562C1091.07 781.251 1100 770.163 1100 757H1096ZM1078.34 734.366C1088.3 736.287 1096 745.615 1096 757H1100C1100 743.837 1091.07 732.749 1079.1 730.438L1078.34 734.366ZM992.526 579.013C1038.53 614.905 1070.16 669.815 1076.73 732.61L1080.71 732.194C1074.03 668.313 1041.84 612.417 994.986 575.859L992.526 579.013ZM995 564.5C995 568.886 993.902 572.98 991.999 576.481L995.513 578.391C997.733 574.308 999 569.557 999 564.5H995ZM973.5 541C985.223 541 995 551.364 995 564.5H999C999 549.469 987.734 537 973.5 537V541ZM954.624 553.242C958.307 545.884 965.424 541 973.5 541V537C963.729 537 955.323 542.91 951.047 551.452L954.624 553.242ZM865.5 535C896.302 535 925.57 541.845 951.991 554.16L953.68 550.534C926.745 537.98 896.902 531 865.5 531V535ZM781.342 553.09C807.148 541.45 835.601 535 865.5 535V531C835.02 531 806.007 537.576 779.697 549.444L781.342 553.09ZM760 541C767.908 541 774.894 545.466 778.784 552.261L782.255 550.273C777.724 542.358 769.48 537 760 537V541ZM738 564.5C738 551.405 747.962 541 760 541V537C745.528 537 734 549.428 734 564.5H738ZM740.512 575.414C738.91 572.158 738 568.447 738 564.5H734C734 569.066 735.053 573.381 736.923 577.18L740.512 575.414ZM654.279 732.506C660.94 669.092 693.165 613.729 739.934 577.884L737.501 574.71C689.864 611.219 657.077 667.578 650.3 732.088L654.279 732.506ZM634 757C634 745.444 642.128 735.966 652.609 734.271L651.97 730.323C639.465 732.344 630 743.571 630 757H634ZM652.609 779.729C642.128 778.034 634 768.556 634 757H630C630 770.429 639.465 781.656 651.97 783.677L652.609 779.729ZM738.597 935.083C692.552 899.212 660.876 844.302 654.279 781.494L650.3 781.912C657.012 845.806 689.24 901.703 736.139 938.238L738.597 935.083ZM738 945C738 942.296 738.445 939.707 739.262 937.303L735.474 936.017C734.519 938.831 734 941.855 734 945H738ZM760 968C747.926 968 738 957.78 738 945H734C734 959.834 745.564 972 760 972V968ZM776.452 960.27C772.408 965.028 766.528 968 760 968V972C767.782 972 774.749 968.449 779.5 962.86L776.452 960.27ZM865.5 979C834.625 979 805.292 972.122 778.822 959.753L777.129 963.377C804.114 975.987 834.024 983 865.5 983V979Z" fill="#77F721"/>
<ellipse cx="865.5" cy="757" rx="214.5" ry="224" fill="#F4F4F4" stroke="#77F721" stroke-width="4"/>
<circle cx="866" cy="757" r="148" fill="#F4F4F4" stroke="#77F721" stroke-width="4"/>
<path fill-rule="evenodd" clip-rule="evenodd" d="M634.387 753C659.237 753 682.817 747.319 704.001 737.134C707.346 741.596 712.5 744.456 718.283 744.456C728.365 744.456 736.538 735.762 736.538 725.037C736.538 722.4 736.044 719.886 735.149 717.593C770.605 689.441 794.931 646.791 800.022 598.105C808.54 596.462 814.999 588.532 814.999 578.998C814.999 569.463 808.54 561.533 800.022 559.89C794.875 510.691 770.086 467.655 734.018 439.517C735.619 436.571 736.538 433.136 736.538 429.468C736.538 418.529 728.365 409.66 718.283 409.66C711.351 409.66 705.321 413.852 702.23 420.028C681.506 410.369 658.547 405 634.387 405C610.935 405 588.615 410.059 568.373 419.189C565.102 413.476 559.187 409.66 552.433 409.66C542.136 409.66 533.789 418.529 533.789 429.468C533.789 432.774 534.552 435.892 535.9 438.632C499.232 466.733 473.98 510.125 468.76 559.809C459.833 561.253 453 569.294 453 578.998C453 588.701 459.832 596.742 468.76 598.186C473.929 647.398 498.75 690.436 534.852 718.558C534.164 720.585 533.789 722.765 533.789 725.037C533.789 735.762 542.136 744.456 552.433 744.456C557.991 744.456 562.981 741.923 566.397 737.904C587.159 747.605 610.17 753 634.387 753Z" fill="#77F721"/>
<path d="M704.001 737.134L705.601 735.934L704.616 734.619L703.134 735.331L704.001 737.134ZM735.149 717.593L733.905 716.027L732.749 716.945L733.286 718.321L735.149 717.593ZM800.022 598.105L799.644 596.141L798.187 596.422L798.033 597.897L800.022 598.105ZM800.022 559.89L798.033 560.098L798.187 561.573L799.643 561.854L800.022 559.89ZM734.018 439.517L732.261 438.562L731.451 440.051L732.788 441.094L734.018 439.517ZM702.23 420.028L701.385 421.841L703.148 422.662L704.018 420.923L702.23 420.028ZM568.373 419.189L566.637 420.183L567.54 421.759L569.195 421.012L568.373 419.189ZM535.9 438.632L537.116 440.219L538.419 439.221L537.694 437.749L535.9 438.632ZM468.76 559.809L469.079 561.783L470.589 561.539L470.749 560.018L468.76 559.809ZM468.76 598.186L470.749 597.978L470.589 596.456L469.079 596.212L468.76 598.186ZM534.852 718.558L536.745 719.202L537.203 717.855L536.081 716.981L534.852 718.558ZM566.397 737.904L567.244 736.092L565.861 735.446L564.873 736.609L566.397 737.904ZM703.134 735.331C682.213 745.391 658.929 751 634.387 751V755C659.546 755 683.421 749.248 704.868 738.936L703.134 735.331ZM718.283 742.456C713.185 742.456 708.603 739.939 705.601 735.934L702.4 738.333C706.089 743.254 711.816 746.456 718.283 746.456V742.456ZM734.538 725.037C734.538 734.776 727.146 742.456 718.283 742.456V746.456C729.584 746.456 738.538 736.748 738.538 725.037H734.538ZM733.286 718.321C734.091 720.383 734.538 722.651 734.538 725.037H738.538C738.538 722.149 737.997 719.388 737.012 716.866L733.286 718.321ZM798.033 597.897C792.998 646.045 768.943 688.207 733.905 716.027L736.393 719.16C772.267 690.675 796.863 647.536 802.012 598.313L798.033 597.897ZM812.999 578.998C812.999 587.643 807.154 594.692 799.644 596.141L800.401 600.069C809.926 598.231 816.999 589.422 816.999 578.998H812.999ZM799.643 561.854C807.153 563.303 812.999 570.352 812.999 578.998H816.999C816.999 568.574 809.926 559.764 800.401 557.927L799.643 561.854ZM732.788 441.094C768.43 468.9 792.943 511.442 798.033 560.098L802.011 559.682C796.807 509.939 771.743 466.411 735.248 437.94L732.788 441.094ZM734.538 429.468C734.538 432.8 733.704 435.907 732.261 438.562L735.775 440.472C737.535 437.235 738.538 433.472 738.538 429.468H734.538ZM718.283 411.66C727.11 411.66 734.538 419.476 734.538 429.468H738.538C738.538 417.581 729.62 407.66 718.283 407.66V411.66ZM704.018 420.923C706.813 415.34 712.198 411.66 718.283 411.66V407.66C710.503 407.66 703.829 412.365 700.441 419.133L704.018 420.923ZM634.387 407C658.247 407 680.919 412.302 701.385 421.841L703.075 418.215C682.094 408.437 658.847 403 634.387 403V407ZM569.195 421.012C589.186 411.996 611.226 407 634.387 407V403C610.644 403 588.045 408.122 567.551 417.366L569.195 421.012ZM552.433 411.66C558.401 411.66 563.687 415.03 566.637 420.183L570.109 418.195C566.517 411.922 559.973 407.66 552.433 407.66V411.66ZM535.789 429.468C535.789 419.517 543.353 411.66 552.433 411.66V407.66C540.919 407.66 531.789 417.54 531.789 429.468H535.789ZM537.694 437.749C536.48 435.28 535.789 432.465 535.789 429.468H531.789C531.789 433.084 532.623 436.503 534.105 439.515L537.694 437.749ZM470.749 560.018C475.912 510.882 500.882 467.988 537.116 440.219L534.683 437.044C497.581 465.478 472.049 509.367 466.771 559.6L470.749 560.018ZM455 578.998C455 570.231 461.164 563.064 469.079 561.783L468.441 557.835C458.501 559.442 451 568.357 451 578.998H455ZM469.079 596.212C461.164 594.932 455 587.764 455 578.998H451C451 589.638 458.501 598.553 468.44 600.161L469.079 596.212ZM536.081 716.981C500.406 689.191 475.861 646.646 470.749 597.978L466.77 598.395C471.997 648.15 497.094 691.681 533.623 720.136L536.081 716.981ZM535.789 725.037C535.789 722.986 536.127 721.023 536.745 719.202L532.958 717.915C532.2 720.147 531.789 722.544 531.789 725.037H535.789ZM552.433 742.456C543.317 742.456 535.789 734.735 535.789 725.037H531.789C531.789 736.789 540.956 746.456 552.433 746.456V742.456ZM564.873 736.609C561.811 740.212 557.364 742.456 552.433 742.456V746.456C558.618 746.456 564.152 743.634 567.921 739.199L564.873 736.609ZM634.387 751C610.47 751 587.748 745.673 567.244 736.092L565.551 739.716C586.57 749.538 609.869 755 634.387 755V751Z" fill="#77F721"/>
<ellipse cx="634.386" cy="579" rx="166.629" ry="174" fill="#F4F4F4" stroke="#77F721" stroke-width="4"/>
<circle cx="635" cy="581" r="115" fill="#F4F4F4" stroke="#77F721" stroke-width="4"/>
<path fill-rule="evenodd" clip-rule="evenodd" d="M184.933 519.004C212.736 519.004 239.118 512.653 262.819 501.267C266.561 506.256 272.328 509.454 278.799 509.454C290.078 509.454 299.222 499.735 299.222 487.747C299.222 484.798 298.669 481.986 297.667 479.423C337.333 447.953 364.546 400.28 370.243 345.859C379.773 344.023 386.999 335.159 386.999 324.501C386.999 313.842 379.772 304.978 370.243 303.142C364.485 248.146 336.753 200.041 296.402 168.586C298.194 165.293 299.222 161.453 299.222 157.353C299.222 145.124 290.078 135.211 278.799 135.211C271.043 135.211 264.297 139.897 260.839 146.801C237.653 136.003 211.965 130 184.933 130C158.696 130 133.724 135.655 111.077 145.861C107.418 139.476 100.801 135.211 93.2448 135.211C81.7252 135.211 72.3867 145.124 72.3867 157.353C72.3867 161.048 73.2395 164.532 74.7475 167.595C33.7238 199.007 5.47247 247.512 -0.367439 303.051C-10.3554 304.665 -18 313.653 -18 324.501C-18 335.348 -10.3556 344.336 -0.367737 345.95C5.41574 400.96 33.1855 449.069 73.5756 480.505C72.8057 482.77 72.3867 485.207 72.3867 487.747C72.3867 499.735 81.7252 509.454 93.2448 509.454C99.4635 509.454 105.047 506.622 108.868 502.129C132.096 512.974 157.839 519.004 184.933 519.004Z" fill="#77F721"/>
<path d="M262.819 501.267L264.419 500.067L263.433 498.753L261.953 499.464L262.819 501.267ZM297.667 479.423L296.424 477.856L295.266 478.775L295.804 480.151L297.667 479.423ZM370.243 345.859L369.865 343.895L368.408 344.176L368.254 345.651L370.243 345.859ZM370.243 303.142L368.254 303.35L368.408 304.825L369.864 305.106L370.243 303.142ZM296.402 168.586L294.645 167.63L293.834 169.121L295.172 170.164L296.402 168.586ZM260.839 146.801L259.995 148.614L261.757 149.434L262.627 147.696L260.839 146.801ZM111.077 145.861L109.342 146.856L110.245 148.43L111.899 147.685L111.077 145.861ZM74.7475 167.595L75.9634 169.182L77.2671 168.184L76.5418 166.711L74.7475 167.595ZM-0.367439 303.051L-0.0484553 305.025L1.46163 304.781L1.6216 303.26L-0.367439 303.051ZM-0.367737 345.95L1.6213 345.741L1.46136 344.22L-0.0487218 343.976L-0.367737 345.95ZM73.5756 480.505L75.4692 481.148L75.9274 479.801L74.804 478.926L73.5756 480.505ZM108.868 502.129L109.714 500.317L108.332 499.672L107.345 500.833L108.868 502.129ZM261.953 499.464C238.515 510.724 212.428 517.004 184.933 517.004V521.004C213.045 521.004 239.722 514.582 263.685 503.069L261.953 499.464ZM278.799 507.454C273.012 507.454 267.817 504.598 264.419 500.067L261.219 502.467C265.305 507.915 271.644 511.454 278.799 511.454V507.454ZM297.222 487.747C297.222 498.747 288.86 507.454 278.799 507.454V511.454C291.296 511.454 301.222 500.723 301.222 487.747H297.222ZM295.804 480.151C296.716 482.484 297.222 485.049 297.222 487.747H301.222C301.222 484.546 300.622 481.488 299.529 478.695L295.804 480.151ZM368.254 345.651C362.614 399.534 335.671 446.719 296.424 477.856L298.91 480.99C338.995 449.188 366.479 401.026 372.232 346.067L368.254 345.651ZM384.999 324.501C384.999 334.268 378.388 342.253 369.865 343.895L370.622 347.823C381.158 345.793 388.999 336.049 388.999 324.501H384.999ZM369.864 305.106C378.388 306.748 384.999 314.733 384.999 324.501H388.999C388.999 312.952 381.157 303.208 370.621 301.178L369.864 305.106ZM295.172 170.164C335.097 201.286 362.553 248.898 368.254 303.35L372.232 302.934C366.417 247.394 338.409 198.796 297.632 167.009L295.172 170.164ZM297.222 157.353C297.222 161.117 296.279 164.629 294.645 167.63L298.159 169.542C300.109 165.958 301.222 161.789 301.222 157.353H297.222ZM278.799 137.211C288.825 137.211 297.222 146.074 297.222 157.353H301.222C301.222 144.175 291.332 133.211 278.799 133.211V137.211ZM262.627 147.696C265.789 141.386 271.89 137.211 278.799 137.211V133.211C270.196 133.211 262.806 138.409 259.051 145.905L262.627 147.696ZM184.933 132C211.665 132 237.066 137.936 259.995 148.614L261.683 144.988C238.24 134.07 212.264 128 184.933 128V132ZM111.899 147.685C134.294 137.592 158.986 132 184.933 132V128C158.405 128 133.154 133.718 110.256 144.038L111.899 147.685ZM93.2448 137.211C100.016 137.211 106.004 141.031 109.342 146.856L112.813 144.867C108.832 137.921 101.586 133.211 93.2448 133.211V137.211ZM74.3867 157.353C74.3867 146.114 82.9406 137.211 93.2448 137.211V133.211C80.5098 133.211 70.3867 144.134 70.3867 157.353H74.3867ZM76.5418 166.711C75.1676 163.92 74.3867 160.738 74.3867 157.353H70.3867C70.3867 161.358 71.3113 165.143 72.9532 168.478L76.5418 166.711ZM1.6216 303.26C7.40379 248.27 35.3737 200.263 75.9634 169.182L73.5315 166.007C32.0738 197.752 3.54114 246.754 -2.35647 302.842L1.6216 303.26ZM-16 324.501C-16 314.592 -9.02541 306.476 -0.0484553 305.025L-0.686423 301.077C-11.6855 302.854 -20 312.715 -20 324.501H-16ZM-0.0487218 343.976C-9.02555 342.525 -16 334.409 -16 324.501H-20C-20 336.286 -11.6856 346.147 -0.686752 347.925L-0.0487218 343.976ZM74.804 478.926C34.8408 447.823 7.34762 400.207 1.6213 345.741L-2.35677 346.159C3.48386 401.713 31.5302 450.315 72.3472 482.083L74.804 478.926ZM74.3867 487.747C74.3867 485.428 74.7691 483.208 75.4692 481.148L71.6821 479.861C70.8423 482.331 70.3867 484.986 70.3867 487.747H74.3867ZM93.2448 507.454C82.9043 507.454 74.3867 498.707 74.3867 487.747H70.3867C70.3867 500.764 80.5461 511.454 93.2448 511.454V507.454ZM107.345 500.833C103.877 504.911 98.8374 507.454 93.2448 507.454V511.454C100.09 511.454 106.216 508.333 110.391 503.425L107.345 500.833ZM184.933 517.004C158.14 517.004 132.684 511.041 109.714 500.317L108.022 503.941C131.508 514.906 157.539 521.004 184.933 521.004V517.004Z" fill="#77F721"/>
<ellipse cx="184.929" cy="324.502" rx="186.421" ry="194.502" fill="#F4F4F4" stroke="#77F721" stroke-width="4"/>
<ellipse cx="185.5" cy="325.5" rx="128.5" ry="129.5" fill="#F4F4F4" stroke="#77F721" stroke-width="4"/>
<path fill-rule="evenodd" clip-rule="evenodd" d="M1165.5 527C1197.49 527 1227.85 519.687 1255.12 506.574C1259.42 512.318 1266.06 516 1273.5 516C1286.48 516 1297 504.807 1297 491C1297 487.605 1296.36 484.369 1295.21 481.418C1340.85 445.176 1372.17 390.272 1378.72 327.598C1389.69 325.482 1398 315.274 1398 303C1398 290.726 1389.69 280.518 1378.72 278.402C1372.1 215.064 1340.19 159.661 1293.76 123.436C1295.82 119.644 1297 115.222 1297 110.5C1297 96.4167 1286.48 85 1273.5 85C1264.58 85 1256.81 90.397 1252.84 98.3469C1226.16 85.9126 1196.6 79 1165.5 79C1135.31 79 1106.58 85.513 1080.52 97.267C1076.31 89.9122 1068.69 85 1060 85C1046.75 85 1036 96.4167 1036 110.5C1036 114.756 1036.98 118.769 1038.72 122.297C991.515 158.474 959.009 214.335 952.29 278.297C940.797 280.155 932 290.507 932 303C932 315.493 940.797 325.845 952.29 327.703C958.944 391.054 990.896 446.457 1037.37 482.66C1036.48 485.269 1036 488.076 1036 491C1036 504.807 1046.75 516 1060 516C1067.15 516 1073.58 512.739 1077.98 507.565C1104.7 520.055 1134.32 527 1165.5 527Z" fill="#77F721"/>
<path d="M1255.12 506.574L1256.72 505.374L1255.73 504.059L1254.25 504.771L1255.12 506.574ZM1295.21 481.418L1293.97 479.852L1292.81 480.77L1293.35 482.145L1295.21 481.418ZM1378.72 327.598L1378.34 325.634L1376.89 325.915L1376.73 327.39L1378.72 327.598ZM1378.72 278.402L1376.73 278.61L1376.89 280.085L1378.34 280.366L1378.72 278.402ZM1293.76 123.436L1292 122.481L1291.19 123.97L1292.53 125.013L1293.76 123.436ZM1252.84 98.3469L1251.99 100.16L1253.75 100.981L1254.62 99.2421L1252.84 98.3469ZM1080.52 97.267L1078.78 98.2606L1079.69 99.8369L1081.34 99.0901L1080.52 97.267ZM1038.72 122.297L1039.93 123.884L1041.24 122.886L1040.51 121.414L1038.72 122.297ZM952.29 278.297L952.609 280.271L954.119 280.027L954.279 278.506L952.29 278.297ZM952.29 327.703L954.279 327.494L954.119 325.973L952.609 325.729L952.29 327.703ZM1037.37 482.66L1039.26 483.303L1039.72 481.957L1038.6 481.083L1037.37 482.66ZM1077.98 507.565L1078.82 505.753L1077.44 505.107L1076.45 506.27L1077.98 507.565ZM1254.25 504.771C1227.24 517.758 1197.18 525 1165.5 525V529C1197.8 529 1228.45 521.615 1255.98 508.376L1254.25 504.771ZM1273.5 514C1266.74 514 1260.68 510.661 1256.72 505.374L1253.52 507.773C1258.16 513.976 1265.37 518 1273.5 518V514ZM1295 491C1295 503.821 1285.26 514 1273.5 514V518C1287.7 518 1299 505.793 1299 491H1295ZM1293.35 482.145C1294.41 484.866 1295 487.856 1295 491H1299C1299 487.354 1298.32 483.871 1297.07 480.69L1293.35 482.145ZM1376.73 327.39C1370.23 389.527 1339.19 443.942 1293.97 479.852L1296.46 482.984C1342.52 446.41 1374.1 391.017 1380.71 327.806L1376.73 327.39ZM1396 303C1396 314.385 1388.3 323.713 1378.34 325.634L1379.1 329.562C1391.07 327.251 1400 316.163 1400 303H1396ZM1378.34 280.366C1388.3 282.287 1396 291.615 1396 303H1400C1400 289.837 1391.07 278.749 1379.1 276.438L1378.34 280.366ZM1292.53 125.013C1338.53 160.905 1370.16 215.815 1376.73 278.61L1380.71 278.194C1374.03 214.313 1341.84 158.417 1294.99 121.859L1292.53 125.013ZM1295 110.5C1295 114.886 1293.9 118.98 1292 122.481L1295.51 124.391C1297.73 120.308 1299 115.557 1299 110.5H1295ZM1273.5 87C1285.22 87 1295 97.3644 1295 110.5H1299C1299 95.4691 1287.73 83 1273.5 83V87ZM1254.62 99.2421C1258.31 91.8844 1265.42 87 1273.5 87V83C1263.73 83 1255.32 88.9095 1251.05 97.4517L1254.62 99.2421ZM1165.5 81C1196.3 81 1225.57 87.8453 1251.99 100.16L1253.68 96.5341C1226.75 83.9799 1196.9 77 1165.5 77V81ZM1081.34 99.0901C1107.15 87.4497 1135.6 81 1165.5 81V77C1135.02 77 1106.01 83.5764 1079.7 95.4439L1081.34 99.0901ZM1060 87C1067.91 87 1074.89 91.4661 1078.78 98.2606L1082.26 96.2733C1077.72 88.3582 1069.48 83 1060 83V87ZM1038 110.5C1038 97.4054 1047.96 87 1060 87V83C1045.53 83 1034 95.4281 1034 110.5H1038ZM1040.51 121.414C1038.91 118.158 1038 114.447 1038 110.5H1034C1034 115.066 1035.05 119.381 1036.92 123.18L1040.51 121.414ZM954.279 278.506C960.94 215.092 993.165 159.729 1039.93 123.884L1037.5 120.71C989.864 157.219 957.077 213.578 950.3 278.088L954.279 278.506ZM934 303C934 291.444 942.128 281.966 952.609 280.271L951.97 276.323C939.465 278.344 930 289.571 930 303H934ZM952.609 325.729C942.128 324.034 934 314.556 934 303H930C930 316.429 939.465 327.656 951.97 329.677L952.609 325.729ZM1038.6 481.083C992.552 445.212 960.876 390.302 954.279 327.494L950.3 327.912C957.012 391.806 989.24 447.703 1036.14 484.238L1038.6 481.083ZM1038 491C1038 488.296 1038.45 485.707 1039.26 483.303L1035.47 482.017C1034.52 484.831 1034 487.855 1034 491H1038ZM1060 514C1047.93 514 1038 503.78 1038 491H1034C1034 505.834 1045.56 518 1060 518V514ZM1076.45 506.27C1072.41 511.028 1066.53 514 1060 514V518C1067.78 518 1074.75 514.449 1079.5 508.86L1076.45 506.27ZM1165.5 525C1134.63 525 1105.29 518.122 1078.82 505.753L1077.13 509.377C1104.11 521.987 1134.02 529 1165.5 529V525Z" fill="#77F721"/>
<ellipse cx="1165.5" cy="303" rx="214.5" ry="224" fill="#F4F4F4" stroke="#77F721" stroke-width="4"/>
<circle cx="1166" cy="303" r="148" fill="#F4F4F4" stroke="#77F721" stroke-width="4"/>
<path fill-rule="evenodd" clip-rule="evenodd" d="M72.3446 676C94.8638 676 116.231 670.84 135.427 661.589C138.457 665.643 143.129 668.241 148.369 668.241C157.504 668.241 164.91 660.346 164.91 650.607C164.91 648.21 164.461 645.925 163.649 643.842C195.768 618.279 217.803 579.556 222.418 535.354C230.141 533.867 236 526.664 236 518.001C236 509.339 230.141 502.135 222.418 500.648C217.755 455.975 195.298 416.899 162.621 391.347C164.075 388.67 164.91 385.548 164.91 382.213C164.91 372.28 157.504 364.227 148.369 364.227C142.085 364.227 136.62 368.037 133.82 373.649C115.042 364.877 94.2375 360 72.3446 360C51.0977 360 30.8759 364.593 12.5364 372.883C9.57324 367.693 4.21265 364.227 -1.90831 364.227C-11.2378 364.227 -18.8008 372.28 -18.8008 382.213C-18.8008 385.217 -18.1094 388.048 -16.8869 390.537C-50.1118 416.055 -72.9924 455.459 -77.7214 500.577C-85.8097 501.889 -92 509.19 -92 518.001C-92 526.812 -85.8095 534.114 -77.7212 535.426C-73.0368 580.111 -50.5478 619.19 -17.8385 644.726C-18.4617 646.565 -18.8008 648.545 -18.8008 650.607C-18.8008 660.346 -11.2378 668.241 -1.90831 668.241C3.12728 668.241 7.64825 665.941 10.7431 662.292C29.5543 671.101 50.4028 676 72.3446 676Z" fill="#77F721"/>
<path d="M135.427 661.589L137.029 660.391L136.043 659.072L134.559 659.787L135.427 661.589ZM163.649 643.842L162.404 642.277L161.25 643.195L161.786 644.568L163.649 643.842ZM222.418 535.354L222.04 533.39L220.583 533.671L220.429 535.146L222.418 535.354ZM222.418 500.648L220.429 500.856L220.583 502.332L222.04 502.612L222.418 500.648ZM162.621 391.347L160.864 390.393L160.056 391.88L161.389 392.923L162.621 391.347ZM133.82 373.649L132.974 375.461L134.74 376.286L135.61 374.542L133.82 373.649ZM12.5364 372.883L10.7996 373.874L11.7019 375.455L13.3602 374.705L12.5364 372.883ZM-16.8869 390.537L-15.6686 392.124L-14.3696 391.126L-15.0917 389.656L-16.8869 390.537ZM-77.7214 500.577L-77.4013 502.551L-75.8917 502.306L-75.7323 500.786L-77.7214 500.577ZM-77.7212 535.426L-75.7321 535.217L-75.8915 533.696L-77.4011 533.451L-77.7212 535.426ZM-17.8385 644.726L-15.9443 645.367L-15.4888 644.023L-16.6078 643.149L-17.8385 644.726ZM10.7431 662.292L11.5913 660.481L10.2068 659.833L9.21789 660.998L10.7431 662.292ZM134.559 659.787C115.626 668.912 94.5545 674 72.3446 674V678C95.1731 678 116.837 672.769 136.295 663.39L134.559 659.787ZM148.369 666.241C143.815 666.241 139.717 663.987 137.029 660.391L133.825 662.786C137.198 667.299 142.442 670.241 148.369 670.241V666.241ZM162.91 650.607C162.91 659.364 156.281 666.241 148.369 666.241V670.241C158.728 670.241 166.91 661.328 166.91 650.607H162.91ZM161.786 644.568C162.508 646.422 162.91 648.461 162.91 650.607H166.91C166.91 647.959 166.414 645.428 165.512 643.115L161.786 644.568ZM220.429 535.146C215.87 578.813 194.104 617.047 162.404 642.277L164.894 645.407C197.432 619.511 219.737 580.3 224.407 535.562L220.429 535.146ZM234 518.001C234 525.777 228.752 532.098 222.04 533.39L222.796 537.318C231.53 535.637 238 527.55 238 518.001H234ZM222.04 502.612C228.752 503.905 234 510.225 234 518.001H238C238 508.453 231.53 500.366 222.796 498.685L222.04 502.612ZM161.389 392.923C193.64 418.141 215.823 456.724 220.429 500.856L224.407 500.441C219.688 455.226 196.956 415.657 163.853 389.772L161.389 392.923ZM162.91 382.213C162.91 385.212 162.16 388.007 160.864 390.393L164.379 392.302C165.991 389.334 166.91 385.883 166.91 382.213H162.91ZM148.369 366.227C156.245 366.227 162.91 373.223 162.91 382.213H166.91C166.91 371.336 158.763 362.227 148.369 362.227V366.227ZM135.61 374.542C138.114 369.522 142.936 366.227 148.369 366.227V362.227C141.235 362.227 135.126 366.553 132.031 372.756L135.61 374.542ZM72.3446 362C93.937 362 114.453 366.809 132.974 375.461L134.667 371.837C115.631 362.944 94.538 358 72.3446 358V362ZM13.3602 374.705C31.4476 366.53 51.3892 362 72.3446 362V358C50.8062 358 30.3042 362.657 11.7127 371.06L13.3602 374.705ZM-1.90831 366.227C3.42441 366.227 8.15613 369.245 10.7996 373.874L14.2732 371.891C10.9904 366.141 5.0009 362.227 -1.90831 362.227V366.227ZM-16.8008 382.213C-16.8008 373.264 -10.0168 366.227 -1.90831 366.227V362.227C-12.4587 362.227 -20.8008 371.295 -20.8008 382.213H-16.8008ZM-15.0917 389.656C-16.1809 387.438 -16.8008 384.908 -16.8008 382.213H-20.8008C-20.8008 385.526 -20.0379 388.659 -18.682 391.419L-15.0917 389.656ZM-75.7323 500.786C-71.0606 456.214 -48.4597 417.308 -15.6686 392.124L-18.1051 388.951C-51.764 414.802 -74.9242 454.703 -79.7105 500.369L-75.7323 500.786ZM-90 518.001C-90 510.124 -84.4748 503.698 -77.4013 502.551L-78.0416 498.603C-87.1446 500.079 -94 508.257 -94 518.001H-90ZM-77.4011 533.451C-84.4747 532.304 -90 525.879 -90 518.001H-94C-94 527.746 -87.1444 535.924 -78.0413 537.4L-77.4011 533.451ZM-16.6078 643.149C-48.8904 617.946 -71.1045 579.36 -75.7321 535.217L-79.7103 535.634C-74.9691 580.861 -52.2052 620.433 -19.0693 646.302L-16.6078 643.149ZM-16.8008 650.607C-16.8008 648.765 -16.4981 647.002 -15.9443 645.367L-19.7328 644.084C-20.4253 646.128 -20.8008 648.324 -20.8008 650.607H-16.8008ZM-1.90831 666.241C-10.0531 666.241 -16.8008 659.323 -16.8008 650.607H-20.8008C-20.8008 661.369 -12.4224 670.241 -1.90831 670.241V666.241ZM9.21789 660.998C6.47576 664.231 2.49891 666.241 -1.90831 666.241V670.241C3.75565 670.241 8.82075 667.65 12.2683 663.586L9.21789 660.998ZM72.3446 674C50.704 674 30.1444 669.169 11.5913 660.481L9.89491 664.103C28.9642 673.033 50.1016 678 72.3446 678V674Z" fill="#77F721"/>
<ellipse cx="72.3485" cy="518" rx="150.973" ry="158" fill="#F4F4F4" stroke="#77F721" stroke-width="4"/>
<ellipse cx="72.4452" cy="518" rx="103.465" ry="104" fill="#F4F4F4" stroke="#77F721" stroke-width="4"/>
<path fill-rule="evenodd" clip-rule="evenodd" d="M152.311 885C172.496 885 191.648 880.379 208.854 872.095C211.57 875.726 215.757 878.053 220.455 878.053C228.642 878.053 235.28 870.982 235.28 862.261C235.28 860.114 234.878 858.068 234.15 856.203C262.942 833.309 282.695 798.63 286.831 759.042C293.751 757.708 298.999 751.258 298.999 743.503C298.999 735.748 293.751 729.299 286.832 727.964C282.653 687.954 262.522 652.957 233.231 630.073C234.533 627.676 235.28 624.881 235.28 621.897C235.28 613.001 228.642 605.789 220.455 605.789C214.824 605.789 209.926 609.2 207.416 614.224C190.584 606.368 171.935 602 152.311 602C133.266 602 115.139 606.114 98.7 613.538C96.0437 608.892 91.2398 605.789 85.7546 605.789C77.3924 605.789 70.6135 613.001 70.6135 621.897C70.6135 624.585 71.2327 627.12 72.3276 629.348C42.5454 652.202 22.0359 687.491 17.7976 727.899C10.5482 729.074 5 735.613 5 743.503C5 751.393 10.5485 757.932 17.7982 759.107C21.9974 799.126 42.1563 834.124 71.4763 856.993C70.9176 858.641 70.6135 860.414 70.6135 862.261C70.6135 870.982 77.3924 878.053 85.7546 878.053C90.2686 878.053 94.3213 875.992 97.0953 872.724C113.957 880.613 132.644 885 152.311 885Z" fill="#77F721"/>
<path d="M208.854 872.095L210.455 870.897L209.469 869.579L207.986 870.293L208.854 872.095ZM234.15 856.203L232.905 854.637L231.75 855.555L232.287 856.93L234.15 856.203ZM286.831 759.042L286.453 757.078L284.996 757.359L284.842 758.834L286.831 759.042ZM286.832 727.964L284.843 728.172L284.997 729.647L286.453 729.928L286.832 727.964ZM233.231 630.073L231.474 629.118L230.665 630.606L232 631.649L233.231 630.073ZM207.416 614.224L206.57 616.036L208.335 616.86L209.205 615.118L207.416 614.224ZM98.7 613.538L96.9637 614.531L97.8662 616.109L99.5232 615.361L98.7 613.538ZM72.3276 629.348L73.5451 630.935L74.8453 629.937L74.1226 628.466L72.3276 629.348ZM17.7976 727.899L18.1175 729.873L19.6271 729.629L19.7867 728.108L17.7976 727.899ZM17.7982 759.107L19.7873 758.898L19.6277 757.377L18.1181 757.133L17.7982 759.107ZM71.4763 856.993L73.3704 857.635L73.8267 856.29L72.7064 855.416L71.4763 856.993ZM97.0953 872.724L97.9428 870.913L96.5591 870.265L95.5705 871.43L97.0953 872.724ZM207.986 870.293C191.043 878.451 172.187 883 152.311 883V887C172.805 887 192.253 882.308 209.721 873.897L207.986 870.293ZM220.455 876.053C216.443 876.053 212.828 874.069 210.455 870.897L207.252 873.293C210.311 877.382 215.071 880.053 220.455 880.053V876.053ZM233.28 862.261C233.28 869.999 227.421 876.053 220.455 876.053V880.053C229.864 880.053 237.28 871.966 237.28 862.261H233.28ZM232.287 856.93C232.925 858.565 233.28 860.365 233.28 862.261H237.28C237.28 859.864 236.831 857.571 236.013 855.475L232.287 856.93ZM284.842 758.834C280.762 797.885 261.279 832.077 232.905 854.637L235.395 857.768C264.605 834.542 284.628 799.374 288.82 759.25L284.842 758.834ZM296.999 743.503C296.999 750.371 292.363 755.938 286.453 757.078L287.21 761.006C295.139 759.477 300.999 752.146 300.999 743.503H296.999ZM286.453 729.928C292.363 731.068 296.999 736.635 296.999 743.503H300.999C300.999 734.86 295.139 727.529 287.211 726L286.453 729.928ZM232 631.649C260.865 654.2 280.721 688.704 284.843 728.172L288.821 727.756C284.586 687.204 264.18 651.714 234.462 628.497L232 631.649ZM233.28 621.897C233.28 624.546 232.617 627.013 231.474 629.118L234.988 631.028C236.449 628.34 237.28 625.217 237.28 621.897H233.28ZM220.455 607.789C227.385 607.789 233.28 613.946 233.28 621.897H237.28C237.28 612.056 229.9 603.789 220.455 603.789V607.789ZM209.205 615.118C211.419 610.686 215.673 607.789 220.455 607.789V603.789C213.974 603.789 208.432 607.714 205.627 613.33L209.205 615.118ZM152.311 604C171.635 604 189.995 608.3 206.57 616.036L208.262 612.411C191.172 604.435 172.236 600 152.311 600V604ZM99.5232 615.361C115.711 608.05 133.557 604 152.311 604V600C132.975 600 114.568 604.177 97.8768 611.715L99.5232 615.361ZM85.7546 607.789C90.4526 607.789 94.6276 610.445 96.9637 614.531L100.436 612.545C97.4598 607.339 92.027 603.789 85.7546 603.789V607.789ZM72.6135 621.897C72.6135 613.987 78.6118 607.789 85.7546 607.789V603.789C76.173 603.789 68.6135 612.015 68.6135 621.897H72.6135ZM74.1226 628.466C73.1611 626.51 72.6135 624.276 72.6135 621.897H68.6135C68.6135 624.894 69.3042 627.731 70.5325 630.23L74.1226 628.466ZM19.7867 728.108C23.9676 688.248 44.1969 653.456 73.5451 630.935L71.11 627.762C40.8939 650.948 20.1043 686.735 15.8085 727.69L19.7867 728.108ZM7 743.503C7 736.547 11.8818 730.884 18.1175 729.873L17.4777 725.925C9.21464 727.264 3 734.678 3 743.503H7ZM18.1181 757.133C11.8821 756.122 7 750.459 7 743.503H3C3 752.328 9.215 759.742 17.4784 761.081L18.1181 757.133ZM72.7064 855.416C43.8131 832.88 23.9296 798.375 19.7873 758.898L15.8091 759.316C20.0652 799.877 40.4996 835.368 70.2463 858.57L72.7064 855.416ZM72.6135 862.261C72.6135 860.634 72.8811 859.078 73.3704 857.635L69.5823 856.351C68.954 858.203 68.6135 860.193 68.6135 862.261H72.6135ZM85.7546 876.053C78.5755 876.053 72.6135 869.958 72.6135 862.261H68.6135C68.6135 872.007 76.2093 880.053 85.7546 880.053V876.053ZM95.5705 871.43C93.1494 874.282 89.6408 876.053 85.7546 876.053V880.053C90.8964 880.053 95.4931 877.702 98.6201 874.018L95.5705 871.43ZM152.311 883C132.945 883 114.546 878.681 97.9428 870.913L96.2477 874.536C113.367 882.545 132.343 887 152.311 887V883Z" fill="#77F721"/>
<ellipse cx="152.311" cy="743.5" rx="135.327" ry="141.5" fill="#F4F4F4" stroke="#77F721" stroke-width="4"/>
<circle cx="152.5" cy="741.5" r="93.5" fill="#F4F4F4" stroke="#77F721" stroke-width="4"/>
<path fill-rule="evenodd" clip-rule="evenodd" d="M489.247 368C505.587 368 521.092 364.261 535.02 357.556C537.219 360.495 540.609 362.379 544.412 362.379C551.041 362.379 556.414 356.657 556.414 349.599C556.414 347.862 556.088 346.205 555.499 344.695C578.804 326.171 594.793 298.11 598.141 266.078C603.747 265.002 608 259.781 608 253.502C608 247.223 603.747 242.002 598.142 240.926C594.758 208.552 578.463 180.234 554.753 161.717C555.809 159.777 556.414 157.514 556.414 155.097C556.414 147.898 551.041 142.062 544.412 142.062C539.852 142.062 535.886 144.824 533.855 148.892C520.229 142.534 505.133 139 489.247 139C473.831 139 459.158 142.328 445.852 148.335C443.702 144.574 439.812 142.062 435.371 142.062C428.601 142.062 423.113 147.898 423.113 155.097C423.113 157.273 423.615 159.325 424.502 161.128C400.392 179.621 383.789 208.177 380.358 240.875C374.49 241.827 370 247.118 370 253.502C370 259.886 374.49 265.177 380.358 266.128C383.757 298.512 400.076 326.833 423.812 345.338C423.359 346.671 423.113 348.105 423.113 349.599C423.113 356.657 428.601 362.379 435.371 362.379C439.025 362.379 442.305 360.712 444.551 358.067C458.2 364.451 473.327 368 489.247 368Z" fill="#77F721"/>
<path d="M535.02 357.556L536.621 356.358L535.635 355.04L534.152 355.754L535.02 357.556ZM555.499 344.695L554.254 343.13L553.099 344.048L553.636 345.423L555.499 344.695ZM598.141 266.078L597.764 264.114L596.306 264.393L596.152 265.87L598.141 266.078ZM598.142 240.926L596.152 241.134L596.307 242.61L597.765 242.89L598.142 240.926ZM554.753 161.717L552.996 160.762L552.186 162.251L553.522 163.294L554.753 161.717ZM533.855 148.892L533.009 150.704L534.774 151.527L535.644 149.785L533.855 148.892ZM445.852 148.335L444.115 149.328L445.018 150.906L446.675 150.158L445.852 148.335ZM424.502 161.128L425.719 162.715L427.02 161.717L426.296 160.246L424.502 161.128ZM380.358 240.875L380.678 242.849L382.187 242.605L382.347 241.084L380.358 240.875ZM380.358 266.128L382.347 265.92L382.187 264.399L380.678 264.154L380.358 266.128ZM423.812 345.338L425.706 345.98L426.162 344.634L425.041 343.761L423.812 345.338ZM444.551 358.067L445.398 356.256L444.015 355.609L443.027 356.773L444.551 358.067ZM534.152 355.754C520.487 362.332 505.278 366 489.247 366V370C505.896 370 521.696 366.189 535.887 359.358L534.152 355.754ZM544.412 360.379C541.295 360.379 538.477 358.838 536.621 356.358L533.419 358.754C535.961 362.152 539.923 364.379 544.412 364.379V360.379ZM554.414 349.599C554.414 355.673 549.82 360.379 544.412 360.379V364.379C552.262 364.379 558.414 357.642 558.414 349.599H554.414ZM553.636 345.423C554.136 346.703 554.414 348.113 554.414 349.599H558.414C558.414 347.611 558.041 345.708 557.361 343.968L553.636 345.423ZM596.152 265.87C592.86 297.365 577.141 324.938 554.254 343.13L556.743 346.261C580.467 327.404 596.726 298.854 600.13 266.286L596.152 265.87ZM606 253.502C606 258.892 602.36 263.231 597.764 264.114L598.518 268.042C605.134 266.772 610 260.669 610 253.502H606ZM597.765 242.89C602.361 243.772 606 248.112 606 253.502H610C610 246.335 605.134 240.232 598.519 238.962L597.765 242.89ZM553.522 163.294C576.806 181.478 592.826 209.302 596.152 241.134L600.131 240.718C596.691 207.802 580.121 178.991 555.984 160.141L553.522 163.294ZM554.414 155.097C554.414 157.178 553.893 159.113 552.996 160.762L556.51 162.673C557.724 160.441 558.414 157.85 558.414 155.097H554.414ZM544.412 144.062C549.784 144.062 554.414 148.844 554.414 155.097H558.414C558.414 146.952 552.297 140.062 544.412 140.062V144.062ZM535.644 149.785C537.38 146.31 540.701 144.062 544.412 144.062V140.062C539.003 140.062 534.393 143.338 532.066 147.998L535.644 149.785ZM489.247 141C504.833 141 519.641 144.467 533.009 150.704L534.701 147.079C520.817 140.602 505.433 137 489.247 137V141ZM446.675 150.158C459.729 144.265 474.122 141 489.247 141V137C473.54 137 458.587 140.392 445.029 146.512L446.675 150.158ZM435.371 144.062C439.025 144.062 442.286 146.127 444.115 149.328L447.588 147.342C445.117 143.021 440.599 140.062 435.371 140.062V144.062ZM425.113 155.097C425.113 148.885 429.82 144.062 435.371 144.062V140.062C427.383 140.062 421.113 146.911 421.113 155.097H425.113ZM426.296 160.246C425.543 158.714 425.113 156.964 425.113 155.097H421.113C421.113 157.583 421.687 159.936 422.707 162.011L426.296 160.246ZM382.347 241.084C385.72 208.934 402.043 180.875 425.719 162.715L423.284 159.542C398.741 178.367 381.857 207.421 378.368 240.667L382.347 241.084ZM372 253.502C372 248.053 375.823 243.637 380.678 242.849L380.037 238.901C373.157 240.017 368 246.183 368 253.502H372ZM380.678 264.154C375.823 263.367 372 258.951 372 253.502H368C368 260.821 373.157 266.987 380.038 268.103L380.678 264.154ZM425.041 343.761C401.733 325.588 385.689 297.761 382.347 265.92L378.369 266.337C381.825 299.263 398.42 328.077 422.582 346.915L425.041 343.761ZM425.113 349.599C425.113 348.326 425.323 347.108 425.706 345.98L421.918 344.695C421.396 346.233 421.113 347.885 421.113 349.599H425.113ZM435.371 360.379C429.784 360.379 425.113 355.632 425.113 349.599H421.113C421.113 357.682 427.419 364.379 435.371 364.379V360.379ZM443.027 356.773C441.134 359.001 438.397 360.379 435.371 360.379V364.379C439.652 364.379 443.477 362.422 446.075 359.362L443.027 356.773ZM489.247 366C473.628 366 458.789 362.518 445.398 356.256L443.704 359.879C457.611 366.383 473.026 370 489.247 370V366Z" fill="#77F721"/>
<ellipse cx="489.251" cy="253.5" rx="109.548" ry="114.5" fill="#F4F4F4" stroke="#77F721" stroke-width="4"/>
<circle cx="489.5" cy="253.348" r="75.5" fill="#F4F4F4" stroke="#77F721" stroke-width="4"/>
<path fill-rule="evenodd" clip-rule="evenodd" d="M825.314 334C845.772 334 865.185 329.314 882.625 320.912C885.378 324.594 889.622 326.953 894.383 326.953C902.683 326.953 909.411 319.783 909.411 310.938C909.411 308.761 909.004 306.686 908.266 304.794C937.448 281.577 957.469 246.407 961.661 206.26C968.678 204.91 974.001 198.368 974.001 190.5C974.001 182.633 968.678 176.09 961.661 174.74C957.424 134.166 937.021 98.6763 907.333 75.4701C908.653 73.039 909.411 70.2036 909.411 67.1759C909.411 58.1538 902.683 50.8398 894.383 50.8398C888.675 50.8398 883.71 54.2999 881.166 59.3961C864.105 51.4291 845.204 47 825.314 47C806.01 47 787.637 51.1719 770.975 58.7009C768.282 53.9878 763.412 50.8398 757.851 50.8398C749.375 50.8398 742.504 58.1538 742.504 67.1759C742.504 69.9036 743.132 72.4751 744.243 74.7356C714.057 97.9115 693.27 133.698 688.973 174.675C681.624 175.866 676 182.498 676 190.5C676 198.503 681.624 205.134 688.973 206.325C693.229 246.91 713.661 282.403 743.378 305.596C742.812 307.266 742.504 309.064 742.504 310.938C742.504 319.783 749.375 326.953 757.851 326.953C762.427 326.953 766.534 324.864 769.346 321.55C786.437 329.551 805.379 334 825.314 334Z" fill="#77F721"/>
<path d="M882.625 320.912L884.226 319.714L883.24 318.395L881.757 319.11L882.625 320.912ZM908.266 304.794L907.02 303.229L905.866 304.147L906.402 305.521L908.266 304.794ZM961.661 206.26L961.283 204.297L959.826 204.577L959.672 206.053L961.661 206.26ZM961.661 174.74L959.672 174.948L959.826 176.423L961.283 176.704L961.661 174.74ZM907.333 75.4701L905.575 74.5155L904.767 76.0032L906.101 77.0458L907.333 75.4701ZM881.166 59.3961L880.32 61.2083L882.085 62.0327L882.955 60.2893L881.166 59.3961ZM770.975 58.7009L769.238 59.6929L770.14 61.2726L771.798 60.5235L770.975 58.7009ZM744.243 74.7356L745.461 76.3219L746.76 75.3241L746.038 73.8536L744.243 74.7356ZM688.973 174.675L689.293 176.649L690.803 176.404L690.962 174.883L688.973 174.675ZM688.973 206.325L690.962 206.117L690.803 204.596L689.293 204.351L688.973 206.325ZM743.378 305.596L745.273 306.238L745.728 304.893L744.609 304.019L743.378 305.596ZM769.346 321.55L770.194 319.739L768.81 319.091L767.821 320.256L769.346 321.55ZM881.757 319.11C864.58 327.385 845.463 332 825.314 332V336C846.082 336 865.79 331.242 883.493 322.714L881.757 319.11ZM894.383 324.953C890.308 324.953 886.637 322.938 884.226 319.714L881.023 322.11C884.119 326.25 888.936 328.953 894.383 328.953V324.953ZM907.411 310.938C907.411 318.8 901.46 324.953 894.383 324.953V328.953C903.905 328.953 911.411 320.766 911.411 310.938H907.411ZM906.402 305.521C907.051 307.183 907.411 309.012 907.411 310.938H911.411C911.411 308.51 910.956 306.189 910.129 304.067L906.402 305.521ZM959.672 206.053C955.536 245.664 935.784 280.345 907.02 303.229L909.511 306.359C939.111 282.809 959.402 247.151 963.65 206.468L959.672 206.053ZM972.001 190.5C972.001 197.481 967.29 203.141 961.283 204.297L962.039 208.224C970.066 206.68 976.001 199.255 976.001 190.5H972.001ZM961.283 176.704C967.29 177.86 972.001 183.52 972.001 190.5H976.001C976.001 181.746 970.066 174.321 962.039 172.776L961.283 176.704ZM906.101 77.0458C935.363 99.9189 955.492 134.916 959.672 174.948L963.65 174.532C959.357 133.417 938.679 97.4338 908.564 73.8944L906.101 77.0458ZM907.411 67.1759C907.411 69.8682 906.737 72.3757 905.575 74.5155L909.09 76.4247C910.569 73.7023 911.411 70.539 911.411 67.1759H907.411ZM894.383 52.8398C901.424 52.8398 907.411 59.0979 907.411 67.1759H911.411C911.411 57.2097 903.941 48.8398 894.383 48.8398V52.8398ZM882.955 60.2893C885.204 55.785 889.525 52.8398 894.383 52.8398V48.8398C887.825 48.8398 882.215 52.8149 879.376 58.5029L882.955 60.2893ZM825.314 49C844.903 49 863.517 53.3616 880.32 61.2083L882.012 57.584C864.694 49.4967 845.504 45 825.314 45V49ZM771.798 60.5235C788.208 53.1083 806.301 49 825.314 49V45C805.718 45 787.065 49.2355 770.151 56.8783L771.798 60.5235ZM757.851 52.8398C762.624 52.8398 766.866 55.5398 769.238 59.6929L772.711 57.7089C769.699 52.4358 764.2 48.8398 757.851 48.8398V52.8398ZM744.504 67.1759C744.504 59.1389 750.596 52.8398 757.851 52.8398V48.8398C748.155 48.8398 740.504 57.1686 740.504 67.1759H744.504ZM746.038 73.8536C745.06 71.8648 744.504 69.5946 744.504 67.1759H740.504C740.504 70.2125 741.203 73.0854 742.447 75.6175L746.038 73.8536ZM690.962 174.883C695.201 134.454 715.709 99.1648 745.461 76.3219L743.025 73.1492C712.405 96.6583 691.338 132.942 686.984 174.466L690.962 174.883ZM678 190.5C678 183.431 682.959 177.676 689.293 176.649L688.653 172.701C680.29 174.056 674 181.564 674 190.5H678ZM689.293 204.351C682.959 203.325 678 197.569 678 190.5H674C674 199.436 680.29 206.944 688.653 208.3L689.293 204.351ZM744.609 304.019C715.318 281.159 695.161 246.159 690.962 206.117L686.984 206.534C691.296 247.66 712.004 283.647 742.148 307.172L744.609 304.019ZM744.504 310.938C744.504 309.285 744.776 307.703 745.273 306.238L741.484 304.954C740.848 306.829 740.504 308.844 740.504 310.938H744.504ZM757.851 324.953C750.559 324.953 744.504 318.76 744.504 310.938H740.504C740.504 320.806 748.191 328.953 757.851 328.953V324.953ZM767.821 320.256C765.362 323.154 761.798 324.953 757.851 324.953V328.953C763.055 328.953 767.707 326.574 770.871 322.844L767.821 320.256ZM825.314 332C805.68 332 787.027 327.619 770.194 319.739L768.498 323.361C785.847 331.483 805.077 336 825.314 336V332Z" fill="#77F721"/>
<ellipse cx="825.314" cy="190.5" rx="137.165" ry="143.5" fill="#F4F4F4" stroke="#77F721" stroke-width="4"/>
<ellipse cx="825.5" cy="190.688" rx="94.5" ry="95" fill="#F4F4F4" stroke="#77F721" stroke-width="4"/>
<path fill-rule="evenodd" clip-rule="evenodd" d="M400.5 982C432.491 982 462.846 974.687 490.116 961.574C494.421 967.318 501.057 971 508.5 971C521.479 971 532 959.807 532 946C532 942.605 531.364 939.369 530.212 936.418C575.853 900.176 607.166 845.272 613.721 782.598C624.686 780.482 633 770.274 633 758C633 745.726 624.686 735.518 613.721 733.402C607.097 670.064 575.187 614.661 528.756 578.436C530.817 574.644 532 570.222 532 565.5C532 551.417 521.479 540 508.5 540C499.577 540 491.815 545.397 487.835 553.347C461.158 540.913 431.602 534 400.5 534C370.31 534 341.578 540.513 315.52 552.267C311.309 544.912 303.694 540 295 540C281.745 540 271 551.417 271 565.5C271 569.756 271.982 573.769 273.717 577.297C226.515 613.474 194.009 669.335 187.29 733.297C175.797 735.155 167 745.507 167 758C167 770.493 175.797 780.845 187.29 782.703C193.944 846.054 225.896 901.457 272.368 937.66C271.482 940.269 271 943.076 271 946C271 959.807 281.745 971 295 971C302.155 971 308.579 967.739 312.976 962.565C339.703 975.055 369.325 982 400.5 982Z" fill="#77F721"/>
<path d="M490.116 961.574L491.716 960.374L490.73 959.059L489.249 959.771L490.116 961.574ZM530.212 936.418L528.968 934.852L527.812 935.77L528.349 937.145L530.212 936.418ZM613.721 782.598L613.343 780.634L611.887 780.915L611.732 782.39L613.721 782.598ZM613.721 733.402L611.732 733.61L611.887 735.085L613.343 735.366L613.721 733.402ZM528.756 578.436L526.999 577.481L526.189 578.97L527.526 580.013L528.756 578.436ZM487.835 553.347L486.991 555.16L488.753 555.981L489.624 554.242L487.835 553.347ZM315.52 552.267L313.784 553.261L314.686 554.837L316.342 554.09L315.52 552.267ZM273.717 577.297L274.934 578.884L276.236 577.886L275.512 576.414L273.717 577.297ZM187.29 733.297L187.609 735.271L189.119 735.027L189.279 733.506L187.29 733.297ZM187.29 782.703L189.279 782.494L189.119 780.973L187.609 780.729L187.29 782.703ZM272.368 937.66L274.262 938.303L274.719 936.957L273.597 936.083L272.368 937.66ZM312.976 962.565L313.822 960.753L312.44 960.107L311.452 961.27L312.976 962.565ZM489.249 959.771C462.242 972.758 432.182 980 400.5 980V984C432.799 984 463.45 976.615 490.982 963.376L489.249 959.771ZM508.5 969C501.741 969 495.678 965.661 491.716 960.374L488.515 962.773C493.164 968.976 500.372 973 508.5 973V969ZM530 946C530 958.821 520.259 969 508.5 969V973C522.698 973 534 960.793 534 946H530ZM528.349 937.145C529.411 939.866 530 942.856 530 946H534C534 942.354 533.317 938.871 532.075 935.69L528.349 937.145ZM611.732 782.39C605.233 844.527 574.191 898.942 528.968 934.852L531.456 937.984C577.515 901.41 609.099 846.017 615.711 782.806L611.732 782.39ZM631 758C631 769.385 623.299 778.713 613.343 780.634L614.1 784.562C626.072 782.251 635 771.163 635 758H631ZM613.343 735.366C623.299 737.287 631 746.615 631 758H635C635 744.837 626.072 733.749 614.1 731.438L613.343 735.366ZM527.526 580.013C573.53 615.905 605.164 670.815 611.732 733.61L615.711 733.194C609.029 669.313 576.843 613.417 529.986 576.859L527.526 580.013ZM530 565.5C530 569.886 528.902 573.98 526.999 577.481L530.513 579.391C532.733 575.308 534 570.557 534 565.5H530ZM508.5 542C520.223 542 530 552.364 530 565.5H534C534 550.469 522.734 538 508.5 538V542ZM489.624 554.242C493.307 546.884 500.424 542 508.5 542V538C498.729 538 490.323 543.91 486.047 552.452L489.624 554.242ZM400.5 536C431.302 536 460.57 542.845 486.991 555.16L488.68 551.534C461.745 538.98 431.902 532 400.5 532V536ZM316.342 554.09C342.148 542.45 370.601 536 400.5 536V532C370.02 532 341.007 538.576 314.697 550.444L316.342 554.09ZM295 542C302.908 542 309.894 546.466 313.784 553.261L317.255 551.273C312.724 543.358 304.48 538 295 538V542ZM273 565.5C273 552.405 282.962 542 295 542V538C280.528 538 269 550.428 269 565.5H273ZM275.512 576.414C273.91 573.158 273 569.447 273 565.5H269C269 570.066 270.053 574.381 271.923 578.18L275.512 576.414ZM189.279 733.506C195.94 670.092 228.165 614.729 274.934 578.884L272.501 575.71C224.864 612.219 192.077 668.578 185.3 733.088L189.279 733.506ZM169 758C169 746.444 177.128 736.966 187.609 735.271L186.97 731.323C174.465 733.344 165 744.571 165 758H169ZM187.609 780.729C177.128 779.034 169 769.556 169 758H165C165 771.429 174.465 782.656 186.97 784.677L187.609 780.729ZM273.597 936.083C227.552 900.212 195.876 845.302 189.279 782.494L185.3 782.912C192.012 846.806 224.24 902.703 271.139 939.238L273.597 936.083ZM273 946C273 943.296 273.445 940.707 274.262 938.303L270.474 937.017C269.519 939.831 269 942.855 269 946H273ZM295 969C282.926 969 273 958.78 273 946H269C269 960.834 280.564 973 295 973V969ZM311.452 961.27C307.408 966.028 301.528 969 295 969V973C302.782 973 309.749 969.449 314.5 963.86L311.452 961.27ZM400.5 980C369.625 980 340.292 973.122 313.822 960.753L312.129 964.377C339.114 976.987 369.024 984 400.5 984V980Z" fill="#77F721"/>
<ellipse cx="400.5" cy="758" rx="214.5" ry="224" fill="#F4F4F4" stroke="#77F721" stroke-width="4"/>
<circle cx="401" cy="758" r="148" fill="#F4F4F4" stroke="#77F721" stroke-width="4"/>
<path fill-rule="evenodd" clip-rule="evenodd" d="M1182.92 867C1210.18 867 1236.04 860.764 1259.27 849.582C1262.94 854.482 1268.59 857.622 1274.93 857.622C1285.99 857.622 1294.95 848.078 1294.95 836.305C1294.95 833.409 1294.41 830.648 1293.43 828.13C1332.31 797.228 1358.99 750.415 1364.57 696.976C1373.91 695.175 1381 686.469 1381 676.001C1381 665.532 1373.91 656.826 1364.57 655.025C1358.93 601.02 1331.74 553.781 1292.19 522.893C1293.95 519.659 1294.95 515.887 1294.95 511.86C1294.95 499.852 1285.99 490.117 1274.93 490.117C1267.33 490.117 1260.72 494.719 1257.33 501.499C1234.6 490.895 1209.42 485 1182.92 485C1157.2 485 1132.73 490.553 1110.53 500.574C1106.94 494.305 1100.45 490.117 1093.05 490.117C1081.76 490.117 1072.6 499.852 1072.6 511.86C1072.6 515.489 1073.44 518.909 1074.91 521.916C1034.7 552.764 1007.01 600.396 1001.28 654.937C991.492 656.523 984 665.35 984 676.001C984 686.652 991.492 695.478 1001.28 697.064C1006.95 751.083 1034.17 798.326 1073.77 829.195C1073.01 831.419 1072.6 833.812 1072.6 836.305C1072.6 848.078 1081.76 857.622 1093.05 857.622C1099.14 857.622 1104.62 854.841 1108.36 850.43C1131.13 861.079 1156.36 867 1182.92 867Z" fill="#77F721"/>
<path d="M1259.27 849.582L1260.87 848.383L1259.89 847.066L1258.4 847.779L1259.27 849.582ZM1293.43 828.13L1292.19 826.565L1291.03 827.483L1291.57 828.858L1293.43 828.13ZM1364.57 696.976L1364.19 695.012L1362.74 695.293L1362.58 696.768L1364.57 696.976ZM1364.57 655.025L1362.58 655.233L1362.74 656.708L1364.19 656.989L1364.57 655.025ZM1292.19 522.893L1290.43 521.938L1289.62 523.427L1290.96 524.469L1292.19 522.893ZM1257.33 501.499L1256.48 503.311L1258.25 504.134L1259.12 502.393L1257.33 501.499ZM1110.53 500.574L1108.79 501.568L1109.69 503.145L1111.35 502.397L1110.53 500.574ZM1074.91 521.916L1076.13 523.503L1077.43 522.506L1076.71 521.034L1074.91 521.916ZM1001.28 654.937L1001.6 656.912L1003.11 656.667L1003.27 655.146L1001.28 654.937ZM1001.28 697.064L1003.27 696.855L1003.11 695.334L1001.6 695.09L1001.28 697.064ZM1073.77 829.195L1075.66 829.838L1076.12 828.492L1075 827.618L1073.77 829.195ZM1108.36 850.43L1109.21 848.619L1107.83 847.972L1106.84 849.136L1108.36 850.43ZM1258.4 847.779C1235.43 858.835 1209.87 865 1182.92 865V869C1210.49 869 1236.64 862.692 1260.14 851.384L1258.4 847.779ZM1274.93 855.622C1269.28 855.622 1264.2 852.825 1260.87 848.383L1257.67 850.78C1261.68 856.139 1267.91 859.622 1274.93 859.622V855.622ZM1292.95 836.305C1292.95 847.094 1284.77 855.622 1274.93 855.622V859.622C1287.21 859.622 1296.95 849.063 1296.95 836.305H1292.95ZM1291.57 828.858C1292.46 831.145 1292.95 833.66 1292.95 836.305H1296.95C1296.95 833.158 1296.37 830.151 1295.29 827.403L1291.57 828.858ZM1362.58 696.768C1357.05 749.67 1330.65 795.995 1292.19 826.565L1294.67 829.696C1333.97 798.461 1360.92 751.159 1366.56 697.184L1362.58 696.768ZM1379 676.001C1379 685.581 1372.53 693.406 1364.19 695.012L1364.95 698.94C1375.3 696.945 1383 687.357 1383 676.001H1379ZM1364.19 656.989C1372.53 658.595 1379 666.42 1379 676.001H1383C1383 664.644 1375.3 655.057 1364.95 653.061L1364.19 656.989ZM1290.96 524.469C1330.09 555.024 1356.99 601.77 1362.58 655.233L1366.56 654.817C1360.86 600.27 1333.4 552.538 1293.42 521.316L1290.96 524.469ZM1292.95 511.86C1292.95 515.552 1292.03 518.995 1290.43 521.938L1293.95 523.847C1295.86 520.322 1296.95 516.223 1296.95 511.86H1292.95ZM1274.93 492.117C1284.73 492.117 1292.95 500.798 1292.95 511.86H1296.95C1296.95 498.906 1287.25 488.117 1274.93 488.117V492.117ZM1259.12 502.393C1262.21 496.206 1268.18 492.117 1274.93 492.117V488.117C1266.48 488.117 1259.23 493.233 1255.54 500.604L1259.12 502.393ZM1182.92 487C1209.12 487 1234.01 492.828 1256.48 503.311L1258.17 499.686C1235.19 488.962 1209.72 483 1182.92 483V487ZM1111.35 502.397C1133.3 492.49 1157.49 487 1182.92 487V483C1156.91 483 1132.16 488.616 1109.7 498.752L1111.35 502.397ZM1093.05 492.117C1099.67 492.117 1105.52 495.858 1108.79 501.568L1112.26 499.581C1108.36 492.751 1101.24 488.117 1093.05 488.117V492.117ZM1074.6 511.86C1074.6 500.839 1082.97 492.117 1093.05 492.117V488.117C1080.54 488.117 1070.6 498.865 1070.6 511.86H1074.6ZM1076.71 521.034C1075.37 518.299 1074.6 515.18 1074.6 511.86H1070.6C1070.6 515.798 1071.51 519.52 1073.12 522.798L1076.71 521.034ZM1003.27 655.146C1008.94 601.153 1036.35 554.018 1076.13 523.503L1073.7 520.329C1033.05 551.51 1005.07 599.64 999.293 654.729L1003.27 655.146ZM986 676.001C986 666.285 992.825 658.333 1001.6 656.912L1000.96 652.963C990.159 654.713 982 664.414 982 676.001H986ZM1001.6 695.09C992.825 693.668 986 685.716 986 676.001H982C982 687.587 990.16 697.288 1000.96 699.038L1001.6 695.09ZM1075 827.618C1035.83 797.082 1008.88 750.332 1003.27 696.855L999.293 697.273C1005.02 751.835 1032.52 799.571 1072.54 830.773L1075 827.618ZM1074.6 836.305C1074.6 834.033 1074.98 831.857 1075.66 829.838L1071.87 828.553C1071.05 830.982 1070.6 833.592 1070.6 836.305H1074.6ZM1093.05 855.622C1082.94 855.622 1074.6 847.053 1074.6 836.305H1070.6C1070.6 849.103 1080.57 859.622 1093.05 859.622V855.622ZM1106.84 849.136C1103.44 853.131 1098.52 855.622 1093.05 855.622V859.622C1099.77 859.622 1105.79 856.552 1109.89 851.725L1106.84 849.136ZM1182.92 865C1156.67 865 1131.72 859.146 1109.21 848.619L1107.51 852.242C1130.54 863.011 1156.06 869 1182.92 869V865Z" fill="#77F721"/>
<ellipse cx="1182.92" cy="676" rx="182.738" ry="191" fill="#F4F4F4" stroke="#77F721" stroke-width="4"/>
<circle cx="1183" cy="676" r="126" fill="#F4F4F4" stroke="#77F721" stroke-width="4"/>
</g>
<defs>
<clipPath id="clip0_5300_55040">
<rect width="1280" height="1024" fill="white"/>
</clipPath>
</defs>
</svg>
