<svg width="1280" height="1024" viewBox="0 0 1280 1024" fill="none" xmlns="http://www.w3.org/2000/svg">
<g clip-path="url(#clip0_5210_222)">
<rect width="1280" height="1024" fill="#F4F4F4"/>
<path d="M790.332 -42.1021L683.095 1129.18M790.332 -42.1021L744.497 -44.2184L637.213 1128.08L683.095 1129.18M790.332 -42.1021L838.361 -39.8841M683.095 1129.18L734.171 1130.56M838.361 -39.8841L734.171 1130.56M838.361 -39.8841L888.392 -37.5736M734.171 1130.56L782.243 1131.86M888.392 -37.5736L782.243 1131.86M888.392 -37.5736L941.924 -35.1014M782.243 1131.86L834.32 1133.27M941.924 -35.1014L834.32 1133.27M941.924 -35.1014L979.952 -33.3452L887.9 1134.72L834.32 1133.27" stroke="#9EF761" stroke-width="4"/>
<circle cx="828.996" cy="340" r="13" stroke="#9EF761" stroke-width="4"/>
<circle cx="840.996" cy="211" r="13" stroke="#9EF761" stroke-width="4"/>
<circle cx="853.996" cy="61" r="13" stroke="#9EF761" stroke-width="4"/>
<line y1="-2" x2="240" y2="-2" transform="matrix(0.996195 0.0871557 -0.081299 0.99669 701.996 421)" stroke="#9EF761" stroke-width="4"/>
<line y1="-2" x2="239" y2="-2" transform="matrix(0.996195 0.0871557 -0.081299 0.99669 706.996 366)" stroke="#9EF761" stroke-width="4"/>
<line y1="-2" x2="239" y2="-2" transform="matrix(0.996195 0.0871557 -0.081299 0.99669 712.996 304)" stroke="#9EF761" stroke-width="4"/>
<line y1="-2" x2="239" y2="-2" transform="matrix(0.996195 0.0871557 -0.081299 0.99669 718.996 240.219)" stroke="#9EF761" stroke-width="4"/>
<line y1="-2" x2="239" y2="-2" transform="matrix(0.996195 0.0871557 -0.081299 0.99669 722.996 175)" stroke="#9EF761" stroke-width="4"/>
<line y1="-2" x2="237" y2="-2" transform="matrix(0.996195 0.0871557 -0.081299 0.99669 730.996 95)" stroke="#9EF761" stroke-width="4"/>
<line x1="740.136" y1="18.0049" x2="974.563" y2="34.3976" stroke="#9EF761" stroke-width="4"/>
<path d="M1355.39 813.84C1361.15 787.611 1393.65 778.145 1412.59 797.175L1550.24 935.419C1568.42 953.681 1560.42 984.748 1535.68 991.956L1356.17 1044.25C1331.43 1051.46 1307.99 1029.55 1313.52 1004.38L1355.39 813.84Z" fill="#101010"/>
<path d="M1345.73 -2469.02C1392.4 -2658.88 1180.11 -2699.33 1125.82 -2578.41L1091.81 -2595.05C1102.07 -2618.74 1070.39 -2662.49 1037.58 -2599.79C1011.34 -2549.63 1055.34 -2521.74 1075.4 -2563.7L1112.17 -2546.82L1080.9 -2470.33L1051.78 -2481.08C1065.95 -2518.08 1019.28 -2546.75 992.613 -2491.72C963.403 -2431.44 1027.59 -2423.09 1041.28 -2454.68L1070.39 -2443.93L1032.98 -2359.79L1012 -2369.82C1020.27 -2401.88 983.158 -2446.1 947.643 -2383.64C915.087 -2326.39 981.906 -2306.88 1001.73 -2346.13L1022.71 -2336.1L993.429 -2251.24L967.266 -2264.45C975.298 -2293.8 935.003 -2332.84 908.332 -2277.81C882.932 -2225.39 936.462 -2193.39 953.813 -2235.58L979.975 -2222.36L942.562 -2138.22L919.111 -2151.2C929.853 -2180.31 887.084 -2222.3 856.754 -2156.65C830.063 -2098.88 892.44 -2096.16 908.368 -2122.08L929.109 -2109.34L900.541 -2032.62L874.378 -2045.83C888.306 -2080.13 838.692 -2106.33 814.732 -2051.05C793.055 -2001.04 840.625 -1972.29 863.872 -2019.43L889.798 -2003.51L880.241 -1987.95C815.344 -1870.69 924.977 -1874.76 921.656 -1836.8L729.829 12.3082C717.732 150.577 715.36 177.689 574.379 165.355C433.399 153.021 410.963 3.53433 416.893 -64.2446L425.906 -167.269C432.358 -241.012 327.11 -225.086 274.04 -180.555C203.28 -121.18 143.232 141.294 227.787 348.121C268.327 447.284 310.349 685.171 177.976 917.464C13.3784 1206.31 -147.685 1580.15 101.362 1793.17C375.313 2027.49 1081.08 2086.51 1326.8 1900.38C1484.87 1780.65 1554.87 1567.92 1393.22 1141.26C1302.22 901.082 1284.14 853.058 1446.11 536.668C1488.95 452.994 1506.57 345.26 1471.73 243.863C1436.89 142.466 1323.44 141.733 1309.06 229.631C1296.17 308.475 1254.85 370.583 1220.68 396.741C1118.2 475.196 956.851 414.637 960.409 373.97L1110.01 -1648.21L1127.09 -1843.42C1134.58 -1887.38 1166.38 -1949.01 1205.54 -1959.49C1269.88 -1976.71 1271.66 -2007.43 1266.64 -2033.37L1226.61 -2356.5C1231.12 -2408.02 1327.67 -2418.69 1345.73 -2469.02Z" stroke="#77F721" stroke-width="4"/>
<path d="M724.468 478.766C696.272 476.299 691.366 451.282 695.153 407.903L703.669 310.571C704.238 304.064 667.891 282.853 639.017 269.399C596.113 260.182 556.345 267.63 584.49 393.029C598.25 454.334 591.375 612.184 559.45 710.471C548.233 745.005 527.158 786.871 506.346 817.833C440.441 915.88 420.904 982.468 410.455 1101.76C396.285 1264.43 490.664 1308.2 561.23 1314.38C563.507 1288.35 561.265 1251.55 588.375 1253.92L873.046 1278.83C914.256 1282.43 918.798 1328.36 915.917 1350.87L1051.48 1362.73C1132.81 1369.85 1256.46 1517.83 1307.41 1559.97C1381.29 1621.07 1423.99 1570.17 1429.68 1505.1C1433.48 1461.72 1407.25 1355.61 1379.35 1268.48L1291.78 1020.41C1249.52 910.172 1247.21 811.621 1322.16 673.198C1395.17 556.839 1444.39 462.713 1430.57 308.33C1425.47 251.229 1376.83 198.094 1354.66 301.688C1341.56 362.897 1314.71 408.482 1265.47 446.872C1183.28 510.934 1028.14 505.333 955.438 430.675C951.643 474.054 949.508 498.454 911.551 495.133L724.468 478.766Z" fill="#77F721" fill-opacity="0.7" stroke="#77F721" stroke-width="4"/>
<rect x="644.435" y="512.206" width="344.354" height="93.9745" rx="46.9872" transform="rotate(5 644.435 512.206)" stroke="#F4F4F4" stroke-width="4"/>
<rect x="619.291" y="799.592" width="344.354" height="93.9745" rx="46.9872" transform="rotate(5 619.291 799.592)" stroke="#F4F4F4" stroke-width="4"/>
<rect x="1018.74" y="512.242" width="292.921" height="162.259" transform="rotate(15 1018.74 512.242)" fill="#F4F4F4"/>
<rect x="988.215" y="627.074" width="292.921" height="44.356" transform="rotate(14.6432 988.215 627.074)" fill="#101010"/>
<rect x="1018.02" y="513" width="292.921" height="44.356" transform="rotate(14.6432 1018.02 513)" fill="#101010"/>
<path d="M170.07 133.992L609.577 87.7982L616.993 158.41L677.781 737.227L680.131 759.604L701.281 960.996L261.774 1007.19L240.624 805.798L238.274 783.421L177.486 204.604L170.07 133.992Z" fill="#F4F4F4"/>
<path d="M177.486 204.604L170.07 133.992L609.577 87.7982L616.993 158.41M177.486 204.604L616.993 158.41M177.486 204.604L238.274 783.421M616.993 158.41L677.781 737.227M238.274 783.421L677.781 737.227M238.274 783.421L240.624 805.798M677.781 737.227L680.131 759.604M240.624 805.798L261.774 1007.19L701.281 960.996L680.131 759.604M240.624 805.798L680.131 759.604" stroke="#101010" stroke-width="4"/>
<rect width="349" height="163" transform="matrix(0.994522 -0.104528 0.104447 0.99453 288.289 819.391)" fill="#F4F4F4"/>
<rect width="327" height="146" transform="matrix(0.994522 -0.104528 0.104447 0.99453 300.168 827.191)" stroke="#101010" stroke-width="4" stroke-miterlimit="3.8637" stroke-linecap="square" stroke-dasharray="15 15"/>
<rect width="1.55224" height="49" transform="matrix(-0.104447 -0.99453 0.994522 -0.104528 322.016 939.52)" fill="#101010"/>
<rect width="1.55224" height="49" transform="matrix(-0.104447 -0.99453 0.994522 -0.104528 320.801 927.941)" fill="#101010"/>
<rect width="3.10447" height="49" transform="matrix(-0.104447 -0.99453 0.994522 -0.104528 318.859 909.414)" fill="#101010"/>
<rect width="2.32836" height="49" transform="matrix(-0.104447 -0.99453 0.994522 -0.104528 316.426 886.258)" fill="#101010"/>
<rect width="3.10447" height="49" transform="matrix(-0.104447 -0.99453 0.994522 -0.104528 313.828 861.559)" fill="#101010"/>
<rect width="2.32836" height="49" transform="matrix(-0.104447 -0.99453 0.994522 -0.104528 312.699 850.754)" fill="#101010"/>
<rect width="2.32836" height="49" transform="matrix(-0.104447 -0.99453 0.994522 -0.104528 311.805 842.266)" fill="#101010"/>
<rect width="1.55224" height="49" transform="matrix(-0.104447 -0.99453 0.994522 -0.104528 319.828 918.68)" fill="#101010"/>
<rect width="1.55224" height="49" transform="matrix(-0.104447 -0.99453 0.994522 -0.104528 318.047 901.695)" fill="#101010"/>
<rect width="1.55224" height="49" transform="matrix(-0.104447 -0.99453 0.994522 -0.104528 317.562 897.066)" fill="#101010"/>
<rect width="1.55224" height="49" transform="matrix(-0.104447 -0.99453 0.994522 -0.104528 317.312 894.75)" fill="#101010"/>
<rect width="1.55224" height="49" transform="matrix(-0.104447 -0.99453 0.994522 -0.104528 317 891.668)" fill="#101010"/>
<rect width="1.55224" height="49" transform="matrix(-0.104447 -0.99453 0.994522 -0.104528 316.668 888.574)" fill="#101010"/>
<rect width="1.55224" height="49" transform="matrix(-0.104447 -0.99453 0.994522 -0.104528 314.883 871.598)" fill="#101010"/>
<rect width="1.55224" height="49" transform="matrix(-0.104447 -0.99453 0.994522 -0.104528 315.375 876.227)" fill="#101010"/>
<rect width="1.55224" height="49" transform="matrix(-0.104447 -0.99453 0.994522 -0.104528 312.938 853.07)" fill="#101010"/>
<rect width="1.55224" height="49" transform="matrix(-0.104447 -0.99453 0.994522 -0.104528 312.207 846.121)" fill="#101010"/>
<rect width="1.55224" height="49" transform="matrix(-0.104447 -0.99453 0.994522 -0.104528 311.32 837.629)" fill="#101010"/>
<rect width="0.776119" height="49" transform="matrix(-0.104447 -0.99453 0.994522 -0.104528 321.777 937.203)" fill="#101010"/>
<rect width="0.776119" height="49" transform="matrix(-0.104447 -0.99453 0.994522 -0.104528 321.535 934.891)" fill="#101010"/>
<rect width="0.776119" height="49" transform="matrix(-0.104447 -0.99453 0.994522 -0.104528 320.234 922.535)" fill="#101010"/>
<rect width="0.776119" height="49" transform="matrix(-0.104447 -0.99453 0.994522 -0.104528 318.449 905.559)" fill="#101010"/>
<rect width="0.776119" height="49" transform="matrix(-0.104447 -0.99453 0.994522 -0.104528 318.207 903.238)" fill="#101010"/>
<rect width="0.776119" height="49" transform="matrix(-0.104447 -0.99453 0.994522 -0.104528 316.102 883.18)" fill="#101010"/>
<rect width="0.776119" height="49" transform="matrix(-0.104447 -0.99453 0.994522 -0.104528 315.777 880.086)" fill="#101010"/>
<rect width="0.776119" height="49" transform="matrix(-0.104447 -0.99453 0.994522 -0.104528 315.535 877.77)" fill="#101010"/>
<rect width="0.776119" height="49" transform="matrix(-0.104447 -0.99453 0.994522 -0.104528 314.238 865.41)" fill="#101010"/>
<rect width="0.776119" height="49" transform="matrix(-0.104447 -0.99453 0.994522 -0.104528 313.996 863.102)" fill="#101010"/>
<rect width="0.776119" height="49" transform="matrix(-0.104447 -0.99453 0.994522 -0.104528 313.344 856.926)" fill="#101010"/>
<rect width="0.776119" height="49" transform="matrix(-0.104447 -0.99453 0.994522 -0.104528 313.102 854.617)" fill="#101010"/>
<rect width="0.776119" height="49" transform="matrix(-0.104447 -0.99453 0.994522 -0.104528 311.48 839.172)" fill="#101010"/>
<rect width="0.776119" height="49" transform="matrix(-0.104447 -0.99453 0.994522 -0.104528 314.402 866.961)" fill="#101010"/>
<rect width="0.776119" height="49" transform="matrix(-0.104447 -0.99453 0.994522 -0.104528 319.102 911.73)" fill="#101010"/>
<rect width="0.776119" height="49" transform="matrix(-0.104447 -0.99453 0.994522 -0.104528 319.348 914.051)" fill="#101010"/>
<rect width="0.776119" height="49" transform="matrix(-0.104447 -0.99453 0.994522 -0.104528 319.586 916.367)" fill="#101010"/>
<rect width="0.776119" height="49" transform="matrix(-0.104447 -0.99453 0.994522 -0.104528 321.129 931.031)" fill="#101010"/>
<rect width="0.776119" height="49" transform="matrix(-0.104447 -0.99453 0.994522 -0.104528 320.395 924.078)" fill="#101010"/>
<path fill-rule="evenodd" clip-rule="evenodd" d="M591.011 345L622.658 646.343L280.542 682.301L275.57 682.823L243.922 381.48L591.011 345Z" fill="#F4F4F4"/>
<path d="M581.088 250.52L234 287L243.922 381.48L591.011 345L581.088 250.52Z" fill="#77F721"/>
<path d="M282.985 753.435L630.074 716.954L622.658 646.343L280.542 682.301L275.57 682.823L282.985 753.435Z" fill="#77F721"/>
<path d="M243.922 381.48L234 287L581.088 250.52L591.011 345M243.922 381.48L591.011 345M243.922 381.48L275.57 682.823M591.011 345L622.658 646.343M622.658 646.343L630.074 716.954L282.985 753.435L275.57 682.823M622.658 646.343L280.542 682.301L275.57 682.823" stroke="#101010" stroke-width="4"/>
<path d="M1143.32 856.11C1117.76 818.502 1094.34 822.175 1081.87 840.554C1072.67 854.11 1083.53 878.716 1089.04 884.694L1121.34 923.728C1118.99 939.1 1119.26 970.942 1151.12 993.723C1168 1004 1204.83 1010.24 1233.65 982.658C1243.12 974.481 1255.56 942.777 1250.56 925.314C1254.35 918.515 1256.09 887.19 1248.91 872.45C1245.79 861.585 1224.45 856.364 1215.65 860.989C1214.76 857.885 1206.01 855.353 1201.33 856.695L1199.89 839.891C1196.46 780.817 1129.81 786.909 1143.32 856.11Z" fill="#F4F4F4"/>
<path d="M1215.64 878.631C1216.37 870.862 1233.25 869.38 1237.98 878.522C1243.12 892.409 1245 912.146 1236.72 922.697C1246.51 993.668 1173.85 1002.32 1149.96 976.418C1139.1 966.514 1126.96 937.74 1135.66 922.142C1135.83 921.723 1136.11 921.204 1136.49 920.624L1099.13 877.181C1074.12 844.455 1105.17 827.574 1126.16 855.151L1160.19 892.85L1154.76 829.733C1153.09 812.151 1180.73 805.486 1184.57 826.224L1191.2 871.452C1199.25 866.994 1211.41 871.224 1215.64 878.631Z" fill="#F4F4F4"/>
<path d="M1215.64 878.631C1216.37 870.862 1233.25 869.38 1237.98 878.522C1243.12 892.409 1245 912.146 1236.72 922.697M1215.64 878.631L1218.8 923.502M1215.64 878.631C1211.41 871.224 1199.25 866.994 1191.2 871.452M1218.8 923.502C1226.31 933.525 1234.12 925.407 1234.12 925.407C1235.08 924.593 1235.94 923.685 1236.72 922.697M1218.8 923.502L1212.66 931.56C1207.7 936.342 1202.46 938.685 1194.22 930.549L1191.55 927.116M1236.72 922.697C1246.51 993.668 1173.85 1002.32 1149.96 976.418C1139.1 966.514 1126.96 937.74 1135.66 922.142C1135.83 921.723 1136.11 921.204 1136.49 920.624M1185.99 901.832C1176.62 904.517 1155.95 910.446 1148.15 912.683C1141.82 914.497 1138.14 918.131 1136.49 920.624M1185.99 901.832C1199.25 898.029 1207.21 912.545 1191.55 927.116M1185.99 901.832C1180.93 884.207 1184.74 875.031 1191.2 871.452M1191.55 927.116C1176.66 935.582 1186.64 930.622 1169.59 938.872L1178.67 942.568C1183.4 945.83 1185.63 947.711 1189.41 960.905M1136.49 920.624L1099.13 877.181C1074.12 844.455 1105.17 827.574 1126.16 855.151L1160.19 892.85L1154.76 829.733C1153.09 812.151 1180.73 805.486 1184.57 826.224L1191.2 871.452" stroke="#101010" stroke-width="4.05251"/>
<g clip-path="url(#clip1_5210_222)">
<path d="M1026.09 758.238L1027.67 758.63C1032.68 738.506 1051.02 726.115 1068.33 730.43C1085.63 734.745 1096 754.293 1090.99 774.418C1083.22 805.568 1050.51 829.85 1005.94 839.076C970.915 810.004 953.434 773.209 961.201 742.059C966.219 721.934 984.554 709.544 1001.86 713.859C1019.17 718.174 1029.54 737.721 1024.52 757.846L1026.09 758.238Z" fill="#77F721" stroke="#101010" stroke-width="3.24201"/>
<path d="M999.548 783.63C1010.49 782.093 1018.1 771.98 1016.56 761.042C1015.02 750.105 1004.91 742.484 993.969 744.021C983.031 745.558 975.413 755.671 976.953 766.609C978.494 777.547 988.61 785.168 999.548 783.63Z" fill="#E8E6DF"/>
<path d="M1003.42 782.699C1011.35 781.584 1016.88 774.252 1015.76 766.322C1014.64 758.392 1007.31 752.867 999.378 753.982C991.448 755.097 985.925 762.428 987.042 770.358C988.159 778.288 995.493 783.813 1003.42 782.699Z" fill="#101010"/>
<path d="M1051.4 795.64C1062.34 794.103 1069.99 784.212 1068.49 773.547C1066.99 762.883 1056.9 755.484 1045.97 757.021C1035.03 758.558 1027.38 768.45 1028.88 779.114C1030.38 789.778 1040.47 797.177 1051.4 795.64Z" fill="#E8E6DF"/>
<path d="M1014.52 806.517C1008.1 804.916 1004.11 798.672 1005.62 792.598C1005.84 791.716 1006.78 791.189 1007.71 791.421C1008.64 791.654 1009.22 792.558 1009 793.441C1007.93 797.752 1010.76 802.184 1015.32 803.32C1019.87 804.456 1024.45 801.873 1025.53 797.562C1025.75 796.679 1026.68 796.152 1027.62 796.385C1028.55 796.617 1029.13 797.522 1028.91 798.405C1027.39 804.478 1020.94 808.118 1014.52 806.517Z" fill="#101010"/>
<path d="M1045.53 792.558C1053.46 791.443 1058.98 784.112 1057.86 776.182C1056.75 768.252 1049.41 762.727 1041.48 763.841C1033.55 764.956 1028.03 772.288 1029.15 780.218C1030.26 788.148 1037.6 793.672 1045.53 792.558Z" fill="#101010"/>
</g>
</g>
<defs>
<clipPath id="clip0_5210_222">
<rect width="1280" height="1024" fill="white"/>
</clipPath>
<clipPath id="clip1_5210_222">
<rect width="137" height="123.929" fill="white" transform="translate(969 704) rotate(14)"/>
</clipPath>
</defs>
</svg>
