<svg width="1280" height="792" viewBox="0 0 1280 792" fill="none" xmlns="http://www.w3.org/2000/svg">
<g clip-path="url(#clip0_5227_573)">
<rect width="1280" height="792" fill="#F4F4F4"/>
<path d="M422.288 127.663L763.041 73.6926L856.745 665.318L515.992 719.288L422.288 127.663Z" stroke="#101010" stroke-width="4"/>
<path d="M469.102 269.805L761.457 223.5" stroke="#101010" stroke-width="4" stroke-miterlimit="3.8637" stroke-linecap="square" stroke-dasharray="19 19"/>
<path d="M490.996 414.445L783.352 368.141" stroke="#101010" stroke-width="4" stroke-miterlimit="3.8637" stroke-linecap="square" stroke-dasharray="19 19"/>
<path d="M499.133 465.805L791.489 419.5" stroke="#101010" stroke-width="4" stroke-miterlimit="3.8637" stroke-linecap="square" stroke-dasharray="19 19"/>
<rect x="573.379" y="595.789" width="3" height="64" transform="rotate(-9 573.379 595.789)" fill="#101010"/>
<rect x="597.082" y="592.031" width="3" height="64" transform="rotate(-9 597.082 592.031)" fill="#101010"/>
<rect x="634.617" y="586.094" width="6" height="64" transform="rotate(-9 634.617 586.094)" fill="#101010"/>
<rect x="681.035" y="578.734" width="5" height="64" transform="rotate(-9 681.035 578.734)" fill="#101010"/>
<rect x="731.41" y="570.758" width="7" height="64" transform="rotate(-9 731.41 570.758)" fill="#101010"/>
<rect x="753.137" y="567.32" width="5" height="64" transform="rotate(-9 753.137 567.32)" fill="#101010"/>
<rect x="615.848" y="589.062" width="3" height="64" transform="rotate(-9 615.848 589.062)" fill="#101010"/>
<rect x="650.418" y="583.586" width="3" height="64" transform="rotate(-9 650.418 583.586)" fill="#101010"/>
<rect x="659.309" y="582.18" width="3" height="64" transform="rotate(-9 659.309 582.18)" fill="#101010"/>
<rect x="664.246" y="581.398" width="3" height="64" transform="rotate(-9 664.246 581.398)" fill="#101010"/>
<rect x="670.172" y="580.461" width="4" height="64" transform="rotate(-9 670.172 580.461)" fill="#101010"/>
<rect x="677.086" y="579.367" width="3" height="64" transform="rotate(-9 677.086 579.367)" fill="#101010"/>
<rect x="711.656" y="573.891" width="3" height="64" transform="rotate(-9 711.656 573.891)" fill="#101010"/>
<rect x="701.777" y="575.453" width="3" height="64" transform="rotate(-9 701.777 575.453)" fill="#101010"/>
<rect x="749.188" y="567.945" width="3" height="64" transform="rotate(-9 749.188 567.945)" fill="#101010"/>
<rect x="763.016" y="565.75" width="3" height="64" transform="rotate(-9 763.016 565.75)" fill="#101010"/>
<rect x="578.316" y="595.008" width="1" height="64" transform="rotate(-9 578.316 595.008)" fill="#101010"/>
<rect x="583.254" y="594.227" width="1" height="64" transform="rotate(-9 583.254 594.227)" fill="#101010"/>
<rect x="607.949" y="590.312" width="1" height="64" transform="rotate(-9 607.949 590.312)" fill="#101010"/>
<rect x="642.516" y="584.836" width="1" height="64" transform="rotate(-9 642.516 584.836)" fill="#101010"/>
<rect x="647.457" y="584.055" width="1" height="64" transform="rotate(-9 647.457 584.055)" fill="#101010"/>
<rect x="687.949" y="577.641" width="1" height="64" transform="rotate(-9 687.949 577.641)" fill="#101010"/>
<rect x="693.875" y="576.703" width="2" height="64" transform="rotate(-9 693.875 576.703)" fill="#101010"/>
<rect x="698.816" y="575.922" width="1" height="64" transform="rotate(-9 698.816 575.922)" fill="#101010"/>
<rect x="723.508" y="572.008" width="2" height="64" transform="rotate(-9 723.508 572.008)" fill="#101010"/>
<rect x="728.445" y="571.227" width="2" height="64" transform="rotate(-9 728.445 571.227)" fill="#101010"/>
<rect x="741.285" y="569.195" width="1" height="64" transform="rotate(-9 741.285 569.195)" fill="#101010"/>
<rect x="745.238" y="568.57" width="2" height="64" transform="rotate(-9 745.238 568.57)" fill="#101010"/>
<rect x="720.543" y="572.477" width="2" height="64" transform="rotate(-9 720.543 572.477)" fill="#101010"/>
<rect x="629.676" y="586.875" width="2" height="64" transform="rotate(-9 629.676 586.875)" fill="#101010"/>
<rect x="624.738" y="587.656" width="2" height="64" transform="rotate(-9 624.738 587.656)" fill="#101010"/>
<rect x="620.789" y="588.281" width="1" height="64" transform="rotate(-9 620.789 588.281)" fill="#101010"/>
<rect x="590.168" y="593.133" width="2" height="64" transform="rotate(-9 590.168 593.133)" fill="#101010"/>
<rect x="604.984" y="590.781" width="1" height="64" transform="rotate(-9 604.984 590.781)" fill="#101010"/>
<rect x="47.8107" y="514.771" width="342" height="346" transform="rotate(33 47.8107 514.771)" fill="#F4F4F4" stroke="#77F721" stroke-width="4"/>
<mask id="path-40-outside-1_5227_573" maskUnits="userSpaceOnUse" x="19.3273" y="608.842" width="212.852" height="181.391" fill="black">
<rect fill="white" x="19.3273" y="608.842" width="212.852" height="181.391"/>
<path d="M87.2287 671.371L83.273 717.856L66.7596 707.132L71.5977 675.648L44.9877 692.994L28.9355 682.569L68.8797 660.242L71.8371 619.536L88.2583 630.2L84.1836 656.671L107.17 642.482L123.222 652.906L87.2287 671.371ZM174.152 685.98L165.127 696.645L149.351 686.401L115.382 738.708L100.253 728.883L134.222 676.575L117.708 665.851L125.257 654.227L174.152 685.98ZM204.127 703.216C208.125 705.812 211.282 708.693 213.598 711.859C215.976 715.064 217.789 718.734 219.039 722.869L206.272 726.775C205.324 724.061 204.167 721.736 202.801 719.8C201.435 717.863 199.707 716.216 197.616 714.858C193.311 712.062 188.719 711.66 183.841 713.651C179.024 715.682 174.16 720.48 169.247 728.045C164.414 735.487 162.05 741.821 162.153 747.047C162.359 752.252 164.675 756.292 169.103 759.168C171.44 760.685 173.842 761.633 176.308 762.01C178.813 762.326 181.712 762.372 185.005 762.149L186.108 775.195C182.151 776.035 177.952 776.106 173.509 775.407C169.128 774.748 164.877 773.081 160.757 770.405C154.852 766.57 150.556 761.944 147.867 756.525C145.177 751.106 144.24 745.076 145.055 738.435C145.972 731.773 148.746 724.875 153.379 717.74C157.893 710.791 163.017 705.593 168.752 702.147C174.549 698.742 180.469 697.165 186.513 697.418C192.659 697.649 198.53 699.582 204.127 703.216Z"/>
</mask>
<path d="M87.2287 671.371L83.273 717.856L66.7596 707.132L71.5977 675.648L44.9877 692.994L28.9355 682.569L68.8797 660.242L71.8371 619.536L88.2583 630.2L84.1836 656.671L107.17 642.482L123.222 652.906L87.2287 671.371ZM174.152 685.98L165.127 696.645L149.351 686.401L115.382 738.708L100.253 728.883L134.222 676.575L117.708 665.851L125.257 654.227L174.152 685.98ZM204.127 703.216C208.125 705.812 211.282 708.693 213.598 711.859C215.976 715.064 217.789 718.734 219.039 722.869L206.272 726.775C205.324 724.061 204.167 721.736 202.801 719.8C201.435 717.863 199.707 716.216 197.616 714.858C193.311 712.062 188.719 711.66 183.841 713.651C179.024 715.682 174.16 720.48 169.247 728.045C164.414 735.487 162.05 741.821 162.153 747.047C162.359 752.252 164.675 756.292 169.103 759.168C171.44 760.685 173.842 761.633 176.308 762.01C178.813 762.326 181.712 762.372 185.005 762.149L186.108 775.195C182.151 776.035 177.952 776.106 173.509 775.407C169.128 774.748 164.877 773.081 160.757 770.405C154.852 766.57 150.556 761.944 147.867 756.525C145.177 751.106 144.24 745.076 145.055 738.435C145.972 731.773 148.746 724.875 153.379 717.74C157.893 710.791 163.017 705.593 168.752 702.147C174.549 698.742 180.469 697.165 186.513 697.418C192.659 697.649 198.53 699.582 204.127 703.216Z" fill="#77F721"/>
<path d="M87.2287 671.371L85.4029 667.812L83.431 668.824L83.2431 671.032L87.2287 671.371ZM83.273 717.856L81.0944 721.211L86.6926 724.847L87.2586 718.196L83.273 717.856ZM66.7596 707.132L62.806 706.525L62.4134 709.079L64.581 710.487L66.7596 707.132ZM71.5977 675.648L75.5513 676.256L76.9105 667.41L69.4134 672.297L71.5977 675.648ZM44.9877 692.994L42.8091 696.348L44.9917 697.766L47.1719 696.345L44.9877 692.994ZM28.9355 682.569L26.9839 679.078L21.1962 682.313L26.757 685.924L28.9355 682.569ZM68.8797 660.242L70.8313 663.734L72.713 662.682L72.8692 660.532L68.8797 660.242ZM71.8371 619.536L74.0157 616.181L68.3382 612.494L67.8477 619.246L71.8371 619.536ZM88.2583 630.2L92.2118 630.809L92.6051 628.253L90.4369 626.845L88.2583 630.2ZM84.1836 656.671L80.2302 656.063L78.912 664.626L86.2847 660.075L84.1836 656.671ZM107.17 642.482L109.349 639.127L107.225 637.747L105.069 639.078L107.17 642.482ZM123.222 652.906L125.048 656.465L131.193 653.313L125.401 649.551L123.222 652.906ZM83.2431 671.032L79.2874 717.517L87.2586 718.196L91.2143 671.711L83.2431 671.032ZM85.4515 714.502L68.9381 703.778L64.581 710.487L81.0944 721.211L85.4515 714.502ZM70.7131 707.74L75.5513 676.256L67.6441 675.041L62.806 706.525L70.7131 707.74ZM69.4134 672.297L42.8034 689.643L47.1719 696.345L73.782 678.999L69.4134 672.297ZM47.1662 689.639L31.1141 679.215L26.757 685.924L42.8091 696.348L47.1662 689.639ZM30.8871 686.061L70.8313 663.734L66.9281 656.751L26.9839 679.078L30.8871 686.061ZM72.8692 660.532L75.8266 619.826L67.8477 619.246L64.8902 659.953L72.8692 660.532ZM69.6586 622.891L86.0798 633.555L90.4369 626.845L74.0157 616.181L69.6586 622.891ZM84.3049 629.591L80.2302 656.063L88.137 657.28L92.2118 630.809L84.3049 629.591ZM86.2847 660.075L109.271 645.885L105.069 639.078L82.0825 653.268L86.2847 660.075ZM104.992 645.836L121.044 656.261L125.401 649.551L109.349 639.127L104.992 645.836ZM121.397 649.347L85.4029 667.812L89.0545 674.93L125.048 656.465L121.397 649.347ZM174.152 685.98L177.205 688.564L180.138 685.098L176.33 682.625L174.152 685.98ZM165.127 696.645L162.948 700L165.904 701.919L168.18 699.229L165.127 696.645ZM149.351 686.401L151.53 683.046L148.175 680.867L145.997 684.222L149.351 686.401ZM115.382 738.708L113.204 742.063L116.558 744.242L118.737 740.887L115.382 738.708ZM100.253 728.883L96.898 726.705L94.7195 730.059L98.0742 732.238L100.253 728.883ZM134.222 676.575L137.577 678.754L139.755 675.399L136.4 673.221L134.222 676.575ZM117.708 665.851L114.354 663.673L112.175 667.027L115.53 669.206L117.708 665.851ZM125.257 654.227L127.436 650.873L124.081 648.694L121.902 652.049L125.257 654.227ZM171.098 683.396L162.073 694.061L168.18 699.229L177.205 688.564L171.098 683.396ZM167.305 693.291L151.53 683.046L147.173 689.755L162.948 700L167.305 693.291ZM145.997 684.222L112.028 736.53L118.737 740.887L152.706 688.579L145.997 684.222ZM117.561 735.354L102.431 725.528L98.0742 732.238L113.204 742.063L117.561 735.354ZM103.607 731.062L137.577 678.754L130.867 674.397L96.898 726.705L103.607 731.062ZM136.4 673.221L119.887 662.497L115.53 669.206L132.043 679.93L136.4 673.221ZM121.063 668.03L128.612 656.406L121.902 652.049L114.354 663.673L121.063 668.03ZM123.079 657.582L171.973 689.334L176.33 682.625L127.436 650.873L123.079 657.582ZM213.598 711.859L210.37 714.221L210.377 714.231L210.385 714.242L213.598 711.859ZM219.039 722.869L220.21 726.694L224.022 725.527L222.868 721.711L219.039 722.869ZM206.272 726.775L202.496 728.094L203.764 731.726L207.442 730.6L206.272 726.775ZM183.841 713.651L182.329 709.948L182.308 709.957L182.287 709.965L183.841 713.651ZM162.153 747.047L158.154 747.126L158.155 747.165L158.157 747.205L162.153 747.047ZM176.308 762.01L175.703 765.964L175.755 765.972L175.808 765.979L176.308 762.01ZM185.005 762.149L188.991 761.812L188.659 757.893L184.735 758.158L185.005 762.149ZM186.108 775.195L186.939 779.107L190.391 778.374L190.094 774.858L186.108 775.195ZM173.509 775.407L174.131 771.456L174.118 771.454L174.105 771.452L173.509 775.407ZM147.867 756.525L151.45 754.747L151.45 754.747L147.867 756.525ZM145.055 738.435L141.093 737.89L141.089 737.919L141.085 737.948L145.055 738.435ZM168.752 702.147L166.726 698.699L166.709 698.708L166.692 698.719L168.752 702.147ZM186.513 697.418L186.346 701.414L186.355 701.415L186.363 701.415L186.513 697.418ZM201.948 706.571C205.624 708.958 208.395 711.521 210.37 714.221L216.826 709.497C214.169 705.865 210.625 702.667 206.306 699.862L201.948 706.571ZM210.385 714.242C212.467 717.048 214.083 720.296 215.21 724.026L222.868 721.711C221.496 717.172 219.484 713.081 216.81 709.476L210.385 714.242ZM217.869 719.044L205.102 722.95L207.442 730.6L220.21 726.694L217.869 719.044ZM210.048 725.456C209.003 722.463 207.69 719.79 206.07 717.494L199.533 722.105C200.644 723.681 201.645 725.659 202.496 728.094L210.048 725.456ZM206.07 717.494C204.396 715.12 202.29 713.124 199.794 711.504L195.437 718.213C197.124 719.308 198.475 720.606 199.533 722.105L206.07 717.494ZM199.794 711.504C194.356 707.972 188.382 707.477 182.329 709.948L185.353 717.355C189.056 715.843 192.265 716.153 195.437 718.213L199.794 711.504ZM182.287 709.965C176.37 712.461 170.961 718.062 165.892 725.866L172.602 730.224C177.359 722.898 181.679 718.904 185.395 717.337L182.287 709.965ZM165.892 725.866C160.895 733.561 158.027 740.716 158.154 747.126L166.153 746.968C166.073 742.926 167.933 737.412 172.602 730.224L165.892 725.866ZM158.157 747.205C158.414 753.728 161.425 758.951 166.925 762.522L171.282 755.813C167.925 753.633 166.303 750.776 166.15 746.89L158.157 747.205ZM166.925 762.522C169.682 764.313 172.613 765.491 175.703 765.964L176.912 758.056C175.07 757.774 173.199 757.058 171.282 755.813L166.925 762.522ZM175.808 765.979C178.632 766.334 181.799 766.375 185.275 766.14L184.735 758.158C181.626 758.369 178.994 758.317 176.807 758.041L175.808 765.979ZM181.019 762.486L182.122 775.532L190.094 774.858L188.991 761.812L181.019 762.486ZM185.276 771.282C181.848 772.011 178.145 772.088 174.131 771.456L172.888 779.359C177.759 780.125 182.455 780.06 186.939 779.107L185.276 771.282ZM174.105 771.452C170.347 770.886 166.63 769.449 162.935 767.05L158.578 773.759C163.125 776.712 167.91 778.61 172.914 779.363L174.105 771.452ZM162.935 767.05C157.532 763.541 153.771 759.425 151.45 754.747L144.283 758.303C147.34 764.462 152.173 769.599 158.578 773.759L162.935 767.05ZM151.45 754.747C149.145 750.102 148.295 744.872 149.025 738.923L141.085 737.948C140.185 745.28 141.21 752.11 144.283 758.303L151.45 754.747ZM149.018 738.981C149.836 733.034 152.339 726.687 156.734 719.919L150.025 715.562C145.154 723.063 142.107 730.512 141.093 737.89L149.018 738.981ZM156.734 719.919C160.994 713.36 165.707 708.643 170.812 705.576L166.692 698.719C160.327 702.543 154.792 708.221 150.025 715.562L156.734 719.919ZM170.778 705.596C175.988 702.535 181.155 701.197 186.346 701.414L186.681 693.421C179.784 693.133 173.109 694.948 166.726 698.699L170.778 705.596ZM186.363 701.415C191.726 701.617 196.904 703.295 201.948 706.571L206.306 699.862C200.156 695.868 193.592 693.681 186.664 693.421L186.363 701.415Z" fill="#77F721" mask="url(#path-40-outside-1_5227_573)"/>
<rect x="937.229" y="466.259" width="342" height="346" transform="rotate(-83 937.229 466.259)" fill="#F4F4F4" stroke="#77F721" stroke-width="4"/>
<mask id="path-43-outside-2_5227_573" maskUnits="userSpaceOnUse" x="1010.26" y="125.867" width="257.097" height="350.259" fill="black">
<rect fill="white" x="1010.26" y="125.867" width="257.097" height="350.259"/>
<path d="M1020.15 409.073C1021.35 399.319 1025.47 391.292 1032.53 384.991L1040.91 395.22C1038.54 397.663 1036.78 399.995 1035.62 402.217C1034.4 404.357 1033.6 406.919 1033.24 409.904C1032.55 415.508 1034.22 420.257 1038.25 424.15C1042.2 428.035 1048.66 430.527 1057.61 431.626C1067.29 432.815 1074.33 432.385 1078.72 430.338C1083.03 428.282 1085.52 424.561 1086.18 419.175C1086.65 415.39 1086.23 411.866 1084.93 408.604L1067.79 406.499L1066.58 416.325L1053.7 416.517L1057.26 387.584L1094.7 392.183C1096.77 396.426 1098.2 400.998 1099 405.899C1099.81 410.8 1099.92 415.616 1099.34 420.347C1097.92 431.847 1093.51 440.098 1086.1 445.099C1078.62 450.09 1068.36 451.786 1055.33 450.187C1047.03 449.168 1040.09 446.727 1034.51 442.864C1028.93 438.929 1024.95 434.044 1022.57 428.21C1020.12 422.294 1019.31 415.915 1020.15 409.073ZM1076.41 352.529L1075.55 359.517L1104.49 363.069L1102.29 380.975L1026.62 371.685L1029.67 346.901C1030.94 336.565 1033.78 329.045 1038.2 324.342C1042.63 319.566 1048.74 317.657 1056.53 318.613C1061.4 319.212 1065.34 320.877 1068.32 323.608C1071.24 326.33 1073.52 330.341 1075.16 335.641L1109.73 320.38L1107.25 340.578L1076.41 352.529ZM1063.22 358.002L1064.14 350.468C1064.63 346.465 1064.09 343.369 1062.51 341.18C1060.94 338.919 1058.19 337.547 1054.26 337.064C1050.62 336.617 1047.83 337.383 1045.89 339.361C1043.95 341.266 1042.72 344.439 1042.17 348.879L1041.38 355.321L1063.22 358.002ZM1040.6 257.898L1053.14 261.323L1049.87 287.963L1068 290.188L1070.85 266.933L1083.41 268.474L1080.55 291.73L1099.88 294.103L1103.37 265.607L1116.26 267.188L1110.56 313.59L1034.9 304.3L1040.6 257.898ZM1047.65 200.43L1060.2 203.854L1056.93 230.494L1075.05 232.719L1077.91 209.464L1090.46 211.006L1087.61 234.261L1106.93 236.634L1110.43 208.138L1123.31 209.72L1117.62 256.121L1041.95 246.831L1047.65 200.43ZM1131.83 140.35L1129.03 163.169L1067.72 177.806C1073.56 177.784 1078.72 177.864 1083.21 178.045C1087.63 178.145 1092.86 178.565 1098.9 179.307L1126.63 182.712L1124.67 198.652L1049.01 189.362L1051.75 167.09L1113.23 151.92C1103.06 152.297 1093.58 151.945 1084.77 150.863L1054.2 147.11L1056.17 131.06L1131.83 140.35ZM1159.68 371.124C1161.14 359.26 1165 350.092 1171.26 343.62C1177.46 337.067 1187.69 334.666 1201.96 336.418C1216.01 338.142 1225.48 342.852 1230.37 350.545C1235.19 358.23 1236.92 367.64 1235.55 378.777L1232.76 401.486L1157.1 392.196L1159.68 371.124ZM1172.29 375.886L1221.97 381.985L1222.69 376.09C1223.41 370.194 1222.14 365.494 1218.88 361.99C1215.54 358.477 1209.14 356.14 1199.68 354.978C1193.2 354.183 1188.09 354.33 1184.33 355.421C1180.58 356.512 1177.89 358.287 1176.25 360.746C1174.55 363.197 1173.46 366.351 1172.99 370.208L1172.29 375.886ZM1246.25 291.585L1229.5 293.518L1226.8 315.573L1242.59 321.391L1240.31 339.952L1167.45 307.843L1170.12 286.117L1248.59 272.588L1246.25 291.585ZM1214.18 310.92L1216.14 294.98L1181.75 298.848L1214.18 310.92ZM1180.05 205.304L1224.34 235.346L1252.73 238.832L1250.53 256.737L1222.25 253.265L1171.89 271.685L1174.29 252.142L1209.31 242.256L1177.73 224.192L1180.05 205.304Z"/>
</mask>
<path d="M1020.15 409.073C1021.35 399.319 1025.47 391.292 1032.53 384.991L1040.91 395.22C1038.54 397.663 1036.78 399.995 1035.62 402.217C1034.4 404.357 1033.6 406.919 1033.24 409.904C1032.55 415.508 1034.22 420.257 1038.25 424.15C1042.2 428.035 1048.66 430.527 1057.61 431.626C1067.29 432.815 1074.33 432.385 1078.72 430.338C1083.03 428.282 1085.52 424.561 1086.18 419.175C1086.65 415.39 1086.23 411.866 1084.93 408.604L1067.79 406.499L1066.58 416.325L1053.7 416.517L1057.26 387.584L1094.7 392.183C1096.77 396.426 1098.2 400.998 1099 405.899C1099.81 410.8 1099.92 415.616 1099.34 420.347C1097.92 431.847 1093.51 440.098 1086.1 445.099C1078.62 450.09 1068.36 451.786 1055.33 450.187C1047.03 449.168 1040.09 446.727 1034.51 442.864C1028.93 438.929 1024.95 434.044 1022.57 428.21C1020.12 422.294 1019.31 415.915 1020.15 409.073ZM1076.41 352.529L1075.55 359.517L1104.49 363.069L1102.29 380.975L1026.62 371.685L1029.67 346.901C1030.94 336.565 1033.78 329.045 1038.2 324.342C1042.63 319.566 1048.74 317.657 1056.53 318.613C1061.4 319.212 1065.34 320.877 1068.32 323.608C1071.24 326.33 1073.52 330.341 1075.16 335.641L1109.73 320.38L1107.25 340.578L1076.41 352.529ZM1063.22 358.002L1064.14 350.468C1064.63 346.465 1064.09 343.369 1062.51 341.18C1060.94 338.919 1058.19 337.547 1054.26 337.064C1050.62 336.617 1047.83 337.383 1045.89 339.361C1043.95 341.266 1042.72 344.439 1042.17 348.879L1041.38 355.321L1063.22 358.002ZM1040.6 257.898L1053.14 261.323L1049.87 287.963L1068 290.188L1070.85 266.933L1083.41 268.474L1080.55 291.73L1099.88 294.103L1103.37 265.607L1116.26 267.188L1110.56 313.59L1034.9 304.3L1040.6 257.898ZM1047.65 200.43L1060.2 203.854L1056.93 230.494L1075.05 232.719L1077.91 209.464L1090.46 211.006L1087.61 234.261L1106.93 236.634L1110.43 208.138L1123.31 209.72L1117.62 256.121L1041.95 246.831L1047.65 200.43ZM1131.83 140.35L1129.03 163.169L1067.72 177.806C1073.56 177.784 1078.72 177.864 1083.21 178.045C1087.63 178.145 1092.86 178.565 1098.9 179.307L1126.63 182.712L1124.67 198.652L1049.01 189.362L1051.75 167.09L1113.23 151.92C1103.06 152.297 1093.58 151.945 1084.77 150.863L1054.2 147.11L1056.17 131.06L1131.83 140.35ZM1159.68 371.124C1161.14 359.26 1165 350.092 1171.26 343.62C1177.46 337.067 1187.69 334.666 1201.96 336.418C1216.01 338.142 1225.48 342.852 1230.37 350.545C1235.19 358.23 1236.92 367.64 1235.55 378.777L1232.76 401.486L1157.1 392.196L1159.68 371.124ZM1172.29 375.886L1221.97 381.985L1222.69 376.09C1223.41 370.194 1222.14 365.494 1218.88 361.99C1215.54 358.477 1209.14 356.14 1199.68 354.978C1193.2 354.183 1188.09 354.33 1184.33 355.421C1180.58 356.512 1177.89 358.287 1176.25 360.746C1174.55 363.197 1173.46 366.351 1172.99 370.208L1172.29 375.886ZM1246.25 291.585L1229.5 293.518L1226.8 315.573L1242.59 321.391L1240.31 339.952L1167.45 307.843L1170.12 286.117L1248.59 272.588L1246.25 291.585ZM1214.18 310.92L1216.14 294.98L1181.75 298.848L1214.18 310.92ZM1180.05 205.304L1224.34 235.346L1252.73 238.832L1250.53 256.737L1222.25 253.265L1171.89 271.685L1174.29 252.142L1209.31 242.256L1177.73 224.192L1180.05 205.304Z" fill="#77F721"/>
<path d="M1032.53 384.991L1035.62 382.455L1032.97 379.228L1029.86 382.008L1032.53 384.991ZM1040.91 395.22L1043.78 398.004L1046.27 395.443L1044.01 392.684L1040.91 395.22ZM1035.62 402.217L1039.09 404.202L1039.13 404.135L1039.17 404.067L1035.62 402.217ZM1038.25 424.15L1041.05 421.296L1041.04 421.285L1041.03 421.274L1038.25 424.15ZM1078.72 430.338L1080.41 433.963L1080.42 433.957L1080.44 433.95L1078.72 430.338ZM1084.93 408.604L1088.65 407.124L1087.77 404.922L1085.42 404.634L1084.93 408.604ZM1067.79 406.499L1068.28 402.529L1064.31 402.041L1063.82 406.012L1067.79 406.499ZM1066.58 416.325L1066.64 420.325L1070.13 420.273L1070.55 416.813L1066.58 416.325ZM1053.7 416.517L1049.73 416.03L1049.17 420.585L1053.76 420.517L1053.7 416.517ZM1057.26 387.584L1057.74 383.614L1053.77 383.127L1053.29 387.097L1057.26 387.584ZM1094.7 392.183L1098.3 390.432L1097.35 388.477L1095.19 388.212L1094.7 392.183ZM1099 405.899L1102.95 405.253L1102.95 405.253L1099 405.899ZM1086.1 445.099L1088.32 448.426L1088.33 448.42L1088.34 448.414L1086.1 445.099ZM1034.51 442.864L1032.2 446.132L1032.22 446.143L1032.23 446.154L1034.51 442.864ZM1022.57 428.21L1026.27 426.695L1026.26 426.687L1026.26 426.679L1022.57 428.21ZM1024.12 409.56C1025.2 400.728 1028.89 393.602 1035.19 387.975L1029.86 382.008C1022.06 388.982 1017.49 397.91 1016.18 408.585L1024.12 409.56ZM1029.43 387.528L1037.82 397.756L1044.01 392.684L1035.62 382.455L1029.43 387.528ZM1038.04 392.435C1035.49 395.063 1033.46 397.705 1032.07 400.366L1039.17 404.067C1040.1 402.285 1041.6 400.262 1043.78 398.004L1038.04 392.435ZM1032.15 400.232C1030.61 402.923 1029.68 406.017 1029.27 409.416L1037.21 410.391C1037.52 407.821 1038.19 405.791 1039.09 404.202L1032.15 400.232ZM1029.27 409.416C1028.43 416.255 1030.53 422.253 1035.47 427.027L1041.03 421.274C1037.91 418.261 1036.67 414.761 1037.21 410.391L1029.27 409.416ZM1035.45 427.005C1040.31 431.786 1047.8 434.452 1057.12 435.596L1058.1 427.656C1049.51 426.602 1044.09 424.284 1041.05 421.296L1035.45 427.005ZM1057.12 435.596C1066.93 436.8 1074.94 436.515 1080.41 433.963L1077.02 426.713C1073.72 428.256 1067.65 428.829 1058.1 427.656L1057.12 435.596ZM1080.44 433.95C1086.17 431.217 1089.35 426.19 1090.15 419.662L1082.21 418.688C1081.69 422.933 1079.89 425.347 1076.99 426.727L1080.44 433.95ZM1090.15 419.662C1090.69 415.27 1090.21 411.064 1088.65 407.124L1081.21 410.083C1082.24 412.669 1082.6 415.51 1082.21 418.688L1090.15 419.662ZM1085.42 404.634L1068.28 402.529L1067.3 410.469L1084.44 412.574L1085.42 404.634ZM1063.82 406.012L1062.61 415.838L1070.55 416.813L1071.76 406.987L1063.82 406.012ZM1066.52 412.326L1053.64 412.518L1053.76 420.517L1066.64 420.325L1066.52 412.326ZM1057.67 417.005L1061.23 388.072L1053.29 387.097L1049.73 416.03L1057.67 417.005ZM1056.77 391.555L1094.22 396.153L1095.19 388.212L1057.74 383.614L1056.77 391.555ZM1091.11 393.933C1092.99 397.809 1094.31 402.007 1095.06 406.545L1102.95 405.253C1102.09 399.989 1100.54 395.042 1098.3 390.432L1091.11 393.933ZM1095.06 406.545C1095.8 411.087 1095.9 415.521 1095.37 419.859L1103.31 420.834C1103.94 415.711 1103.81 410.513 1102.95 405.253L1095.06 406.545ZM1095.37 419.859C1094.05 430.574 1090.05 437.609 1083.86 441.783L1088.34 448.414C1096.98 442.586 1101.8 433.121 1103.31 420.834L1095.37 419.859ZM1083.88 441.771C1077.49 446.034 1068.32 447.752 1055.82 446.216L1054.84 454.157C1068.4 455.821 1079.74 454.147 1088.32 448.426L1083.88 441.771ZM1055.82 446.216C1048.02 445.258 1041.73 442.994 1036.78 439.575L1032.23 446.154C1038.46 450.46 1046.05 453.077 1054.84 454.157L1055.82 446.216ZM1036.82 439.596C1031.81 436.063 1028.34 431.766 1026.27 426.695L1018.86 429.724C1021.56 436.322 1026.06 441.795 1032.2 446.132L1036.82 439.596ZM1026.26 426.679C1024.1 421.449 1023.36 415.771 1024.12 409.56L1016.18 408.585C1015.26 416.058 1016.14 423.138 1018.87 429.74L1026.26 426.679ZM1076.41 352.529L1074.96 348.799L1072.73 349.665L1072.44 352.042L1076.41 352.529ZM1075.55 359.517L1071.58 359.029L1071.09 362.999L1075.06 363.487L1075.55 359.517ZM1104.49 363.069L1108.46 363.557L1108.94 359.586L1104.97 359.099L1104.49 363.069ZM1102.29 380.975L1101.8 384.945L1105.77 385.432L1106.26 381.462L1102.29 380.975ZM1026.62 371.685L1022.65 371.197L1022.17 375.167L1026.14 375.655L1026.62 371.685ZM1038.2 324.342L1041.12 327.082L1041.12 327.072L1041.13 327.062L1038.2 324.342ZM1068.32 323.608L1071.05 320.684L1071.04 320.669L1071.02 320.655L1068.32 323.608ZM1075.16 335.641L1071.34 336.823L1072.67 341.114L1076.77 339.3L1075.16 335.641ZM1109.73 320.38L1113.7 320.867L1114.56 313.875L1108.11 316.72L1109.73 320.38ZM1107.25 340.578L1108.69 344.308L1110.93 343.442L1111.22 341.065L1107.25 340.578ZM1063.22 358.002L1062.73 361.972L1066.7 362.459L1067.19 358.489L1063.22 358.002ZM1062.51 341.18L1059.22 343.461L1059.24 343.491L1059.27 343.52L1062.51 341.18ZM1045.89 339.361L1048.7 342.21L1048.72 342.187L1048.74 342.164L1045.89 339.361ZM1041.38 355.321L1037.41 354.833L1036.92 358.803L1040.89 359.291L1041.38 355.321ZM1072.44 352.042L1071.58 359.029L1079.52 360.004L1080.38 353.017L1072.44 352.042ZM1075.06 363.487L1104 367.039L1104.97 359.099L1076.04 355.546L1075.06 363.487ZM1100.52 362.582L1098.32 380.487L1106.26 381.462L1108.46 363.557L1100.52 362.582ZM1102.77 377.004L1027.11 367.714L1026.14 375.655L1101.8 384.945L1102.77 377.004ZM1030.6 372.172L1033.64 347.388L1025.7 346.413L1022.65 371.197L1030.6 372.172ZM1033.64 347.388C1034.86 337.42 1037.54 330.889 1041.12 327.082L1035.29 321.603C1030.02 327.202 1027.01 335.71 1025.7 346.413L1033.64 347.388ZM1041.13 327.062C1044.5 323.427 1049.23 321.747 1056.04 322.583L1057.01 314.643C1048.25 313.566 1040.75 315.706 1035.27 321.623L1041.13 327.062ZM1056.04 322.583C1060.27 323.103 1063.37 324.501 1065.63 326.561L1071.02 320.655C1067.3 317.253 1062.54 315.321 1057.01 314.643L1056.04 322.583ZM1065.6 326.532C1067.84 328.629 1069.83 331.942 1071.34 336.823L1078.98 334.458C1077.21 328.741 1074.64 324.032 1071.05 320.684L1065.6 326.532ZM1076.77 339.3L1111.34 324.039L1108.11 316.72L1073.54 331.981L1076.77 339.3ZM1105.76 319.892L1103.28 340.09L1111.22 341.065L1113.7 320.867L1105.76 319.892ZM1105.8 336.848L1074.96 348.799L1077.86 356.259L1108.69 344.308L1105.8 336.848ZM1067.19 358.489L1068.11 350.956L1060.17 349.981L1059.24 357.514L1067.19 358.489ZM1068.11 350.956C1068.67 346.436 1068.16 342.171 1065.75 338.841L1059.27 343.52C1060.02 344.567 1060.6 346.494 1060.17 349.981L1068.11 350.956ZM1065.8 338.9C1063.33 335.352 1059.3 333.653 1054.75 333.094L1053.77 341.035C1057.08 341.441 1058.55 342.486 1059.22 343.461L1065.8 338.9ZM1054.75 333.094C1050.3 332.549 1046.11 333.423 1043.03 336.559L1048.74 342.164C1049.55 341.343 1050.94 340.686 1053.77 341.035L1054.75 333.094ZM1043.08 336.512C1040.2 339.347 1038.79 343.59 1038.2 348.392L1046.14 349.366C1046.64 345.288 1047.7 343.186 1048.7 342.21L1043.08 336.512ZM1038.2 348.392L1037.41 354.833L1045.35 355.808L1046.14 349.366L1038.2 348.392ZM1040.89 359.291L1062.73 361.972L1063.7 354.032L1041.87 351.35L1040.89 359.291ZM1040.6 257.898L1041.65 254.04L1037.19 252.822L1036.63 257.411L1040.6 257.898ZM1053.14 261.323L1057.11 261.81L1057.53 258.375L1054.2 257.464L1053.14 261.323ZM1049.87 287.963L1045.9 287.475L1045.41 291.446L1049.38 291.933L1049.87 287.963ZM1068 290.188L1067.51 294.158L1071.48 294.646L1071.97 290.676L1068 290.188ZM1070.85 266.933L1071.34 262.963L1067.37 262.475L1066.88 266.445L1070.85 266.933ZM1083.41 268.474L1087.38 268.962L1087.86 264.992L1083.89 264.504L1083.41 268.474ZM1080.55 291.73L1076.58 291.242L1076.09 295.213L1080.06 295.7L1080.55 291.73ZM1099.88 294.103L1099.39 298.073L1103.36 298.56L1103.85 294.59L1099.88 294.103ZM1103.37 265.607L1103.86 261.636L1099.89 261.149L1099.4 265.119L1103.37 265.607ZM1116.26 267.188L1120.23 267.676L1120.72 263.706L1116.75 263.218L1116.26 267.188ZM1110.56 313.59L1110.07 317.56L1114.04 318.048L1114.53 314.078L1110.56 313.59ZM1034.9 304.3L1030.93 303.812L1030.44 307.783L1034.41 308.27L1034.9 304.3ZM1039.54 261.757L1052.09 265.182L1054.2 257.464L1041.65 254.04L1039.54 261.757ZM1049.17 260.835L1045.9 287.475L1053.84 288.45L1057.11 261.81L1049.17 260.835ZM1049.38 291.933L1067.51 294.158L1068.48 286.218L1050.36 283.993L1049.38 291.933ZM1071.97 290.676L1074.82 267.42L1066.88 266.445L1064.02 289.701L1071.97 290.676ZM1070.36 270.903L1082.92 272.445L1083.89 264.504L1071.34 262.963L1070.36 270.903ZM1079.44 267.987L1076.58 291.242L1084.52 292.217L1087.38 268.962L1079.44 267.987ZM1080.06 295.7L1099.39 298.073L1100.36 290.132L1081.04 287.76L1080.06 295.7ZM1103.85 294.59L1107.34 266.094L1099.4 265.119L1095.91 293.615L1103.85 294.59ZM1102.89 269.577L1115.77 271.159L1116.75 263.218L1103.86 261.636L1102.89 269.577ZM1112.29 266.701L1106.59 313.103L1114.53 314.078L1120.23 267.676L1112.29 266.701ZM1111.05 309.62L1035.39 300.33L1034.41 308.27L1110.07 317.56L1111.05 309.62ZM1038.87 304.787L1044.57 258.386L1036.63 257.411L1030.93 303.812L1038.87 304.787ZM1047.65 200.43L1048.71 196.571L1044.25 195.353L1043.68 199.942L1047.65 200.43ZM1060.2 203.854L1064.17 204.342L1064.59 200.907L1061.25 199.995L1060.2 203.854ZM1056.93 230.494L1052.96 230.007L1052.47 233.977L1056.44 234.464L1056.93 230.494ZM1075.05 232.719L1074.56 236.69L1078.53 237.177L1079.02 233.207L1075.05 232.719ZM1077.91 209.464L1078.39 205.494L1074.42 205.006L1073.94 208.977L1077.91 209.464ZM1090.46 211.006L1094.43 211.493L1094.92 207.523L1090.95 207.035L1090.46 211.006ZM1087.61 234.261L1083.64 233.774L1083.15 237.744L1087.12 238.231L1087.61 234.261ZM1106.93 236.634L1106.44 240.604L1110.41 241.091L1110.9 237.121L1106.93 236.634ZM1110.43 208.138L1110.92 204.168L1106.95 203.68L1106.46 207.65L1110.43 208.138ZM1123.31 209.72L1127.28 210.207L1127.77 206.237L1123.8 205.749L1123.31 209.72ZM1117.62 256.121L1117.13 260.091L1121.1 260.579L1121.59 256.609L1117.62 256.121ZM1041.95 246.831L1037.98 246.344L1037.5 250.314L1041.47 250.801L1041.95 246.831ZM1046.6 204.288L1059.15 207.713L1061.25 199.995L1048.71 196.571L1046.6 204.288ZM1056.23 203.367L1052.96 230.007L1060.9 230.982L1064.17 204.342L1056.23 203.367ZM1056.44 234.464L1074.56 236.69L1075.54 228.749L1057.42 226.524L1056.44 234.464ZM1079.02 233.207L1081.88 209.951L1073.94 208.977L1071.08 232.232L1079.02 233.207ZM1077.42 213.434L1089.98 214.976L1090.95 207.035L1078.39 205.494L1077.42 213.434ZM1086.49 210.518L1083.64 233.774L1091.58 234.748L1094.43 211.493L1086.49 210.518ZM1087.12 238.231L1106.44 240.604L1107.42 232.664L1088.09 230.291L1087.12 238.231ZM1110.9 237.121L1114.4 208.625L1106.46 207.65L1102.96 236.146L1110.9 237.121ZM1109.94 212.108L1122.83 213.69L1123.8 205.749L1110.92 204.168L1109.94 212.108ZM1119.34 209.232L1113.65 255.634L1121.59 256.609L1127.28 210.207L1119.34 209.232ZM1118.1 252.151L1042.44 242.861L1041.47 250.801L1117.13 260.091L1118.1 252.151ZM1045.93 247.319L1051.62 200.917L1043.68 199.942L1037.98 246.344L1045.93 247.319ZM1131.83 140.35L1135.8 140.838L1136.29 136.868L1132.32 136.38L1131.83 140.35ZM1129.03 163.169L1129.96 167.06L1132.66 166.414L1133 163.656L1129.03 163.169ZM1067.72 177.806L1066.79 173.915L1067.73 181.806L1067.72 177.806ZM1083.21 178.045L1083.04 182.042L1083.08 182.043L1083.12 182.044L1083.21 178.045ZM1126.63 182.712L1130.6 183.2L1131.09 179.229L1127.12 178.742L1126.63 182.712ZM1124.67 198.652L1124.19 202.623L1128.16 203.11L1128.64 199.14L1124.67 198.652ZM1049.01 189.362L1045.04 188.875L1044.55 192.845L1048.52 193.332L1049.01 189.362ZM1051.75 167.09L1050.79 163.206L1048.11 163.866L1047.78 166.602L1051.75 167.09ZM1113.23 151.92L1114.19 155.803L1113.08 147.923L1113.23 151.92ZM1054.2 147.11L1050.23 146.622L1049.74 150.592L1053.71 151.08L1054.2 147.11ZM1056.17 131.06L1056.66 127.09L1052.69 126.602L1052.2 130.573L1056.17 131.06ZM1127.86 139.863L1125.06 162.681L1133 163.656L1135.8 140.838L1127.86 139.863ZM1128.1 159.278L1066.79 173.915L1068.65 181.697L1129.96 167.06L1128.1 159.278ZM1067.73 181.806C1073.53 181.784 1078.63 181.864 1083.04 182.042L1083.37 174.048C1078.81 173.864 1073.59 173.784 1067.7 173.806L1067.73 181.806ZM1083.12 182.044C1087.36 182.14 1092.46 182.546 1098.41 183.277L1099.39 175.337C1093.26 174.584 1087.89 174.15 1083.3 174.046L1083.12 182.044ZM1098.41 183.277L1126.14 186.682L1127.12 178.742L1099.39 175.337L1098.41 183.277ZM1122.66 182.225L1120.7 198.165L1128.64 199.14L1130.6 183.2L1122.66 182.225ZM1125.16 194.682L1049.5 185.392L1048.52 193.332L1124.19 202.623L1125.16 194.682ZM1052.98 189.85L1055.72 167.577L1047.78 166.602L1045.04 188.875L1052.98 189.85ZM1052.7 170.973L1114.19 155.803L1112.27 148.036L1050.79 163.206L1052.7 170.973ZM1113.08 147.923C1103.1 148.293 1093.83 147.945 1085.26 146.893L1084.28 154.833C1093.33 155.944 1103.03 156.301 1113.38 155.917L1113.08 147.923ZM1085.26 146.893L1054.69 143.139L1053.71 151.08L1084.28 154.833L1085.26 146.893ZM1058.17 147.597L1060.14 131.548L1052.2 130.573L1050.23 146.622L1058.17 147.597ZM1055.68 135.03L1131.34 144.32L1132.32 136.38L1056.66 127.09L1055.68 135.03ZM1171.26 343.62L1174.14 346.402L1174.15 346.385L1174.17 346.369L1171.26 343.62ZM1230.37 350.545L1233.76 348.42L1233.75 348.409L1233.75 348.399L1230.37 350.545ZM1232.76 401.486L1232.27 405.456L1236.24 405.944L1236.73 401.974L1232.76 401.486ZM1157.1 392.196L1153.13 391.709L1152.64 395.679L1156.61 396.166L1157.1 392.196ZM1172.29 375.886L1168.32 375.398L1167.83 379.368L1171.8 379.856L1172.29 375.886ZM1221.97 381.985L1221.48 385.956L1225.45 386.443L1225.94 382.473L1221.97 381.985ZM1218.88 361.99L1221.81 359.264L1221.79 359.249L1221.78 359.235L1218.88 361.99ZM1184.33 355.421L1183.22 351.58L1183.22 351.58L1184.33 355.421ZM1176.25 360.746L1179.54 363.03L1179.56 362.994L1179.59 362.958L1176.25 360.746ZM1163.66 371.612C1165.04 360.33 1168.65 352.071 1174.14 346.402L1168.39 340.839C1161.35 348.113 1157.24 358.19 1155.71 370.637L1163.66 371.612ZM1174.17 346.369C1179.08 341.18 1187.71 338.698 1201.47 340.388L1202.45 332.447C1187.68 330.634 1175.85 332.954 1168.36 340.872L1174.17 346.369ZM1201.47 340.388C1214.99 342.048 1223.03 346.458 1226.99 352.692L1233.75 348.399C1227.92 339.245 1217.02 334.237 1202.45 332.447L1201.47 340.388ZM1226.98 352.67C1231.21 359.406 1232.86 367.842 1231.58 378.289L1239.52 379.264C1240.97 367.438 1239.17 357.054 1233.76 348.42L1226.98 352.67ZM1231.58 378.289L1228.79 400.999L1236.73 401.974L1239.52 379.264L1231.58 378.289ZM1233.25 397.516L1157.59 388.226L1156.61 396.166L1232.27 405.456L1233.25 397.516ZM1161.07 392.684L1163.66 371.612L1155.71 370.637L1153.13 391.709L1161.07 392.684ZM1171.8 379.856L1221.48 385.956L1222.45 378.015L1172.78 371.916L1171.8 379.856ZM1225.94 382.473L1226.66 376.577L1218.72 375.602L1218 381.498L1225.94 382.473ZM1226.66 376.577C1227.49 369.816 1226.07 363.836 1221.81 359.264L1215.95 364.717C1218.22 367.152 1219.34 370.572 1218.72 375.602L1226.66 376.577ZM1221.78 359.235C1217.42 354.65 1209.79 352.19 1200.17 351.008L1199.19 358.948C1208.49 360.09 1213.66 362.305 1215.98 364.745L1221.78 359.235ZM1200.17 351.008C1193.47 350.185 1187.73 350.27 1183.22 351.58L1185.45 359.262C1188.45 358.391 1192.94 358.181 1199.19 358.948L1200.17 351.008ZM1183.22 351.58C1178.85 352.848 1175.22 355.062 1172.92 358.535L1179.59 362.958C1180.55 361.511 1182.3 360.175 1185.45 359.262L1183.22 351.58ZM1172.97 358.462C1170.8 361.583 1169.55 365.406 1169.02 369.721L1176.96 370.696C1177.37 367.295 1178.3 364.81 1179.54 363.03L1172.97 358.462ZM1169.02 369.721L1168.32 375.398L1176.26 376.373L1176.96 370.696L1169.02 369.721ZM1246.25 291.585L1246.71 295.559L1249.84 295.198L1250.22 292.073L1246.25 291.585ZM1229.5 293.518L1229.04 289.545L1225.92 289.906L1225.53 293.031L1229.5 293.518ZM1226.8 315.573L1222.83 315.085L1222.44 318.231L1225.41 319.326L1226.8 315.573ZM1242.59 321.391L1246.56 321.879L1246.95 318.733L1243.98 317.638L1242.59 321.391ZM1240.31 339.952L1238.7 343.612L1243.63 345.784L1244.29 340.44L1240.31 339.952ZM1167.45 307.843L1163.48 307.356L1163.12 310.305L1165.84 311.504L1167.45 307.843ZM1170.12 286.117L1169.44 282.175L1166.51 282.68L1166.15 285.629L1170.12 286.117ZM1248.59 272.588L1252.56 273.075L1253.21 267.731L1247.91 268.646L1248.59 272.588ZM1214.18 310.92L1212.78 314.669L1217.53 316.437L1218.15 311.408L1214.18 310.92ZM1216.14 294.98L1220.11 295.468L1220.72 290.439L1215.69 291.005L1216.14 294.98ZM1181.75 298.848L1181.3 294.873L1180.35 302.597L1181.75 298.848ZM1245.8 287.612L1229.04 289.545L1229.96 297.492L1246.71 295.559L1245.8 287.612ZM1225.53 293.031L1222.83 315.085L1230.77 316.06L1233.47 294.006L1225.53 293.031ZM1225.41 319.326L1241.21 325.145L1243.98 317.638L1228.18 311.819L1225.41 319.326ZM1238.62 320.904L1236.34 339.465L1244.29 340.44L1246.56 321.879L1238.62 320.904ZM1241.93 336.292L1169.07 304.183L1165.84 311.504L1238.7 343.612L1241.93 336.292ZM1171.43 308.331L1174.09 286.604L1166.15 285.629L1163.48 307.356L1171.43 308.331ZM1170.8 290.058L1249.27 276.53L1247.91 268.646L1169.44 282.175L1170.8 290.058ZM1244.62 272.1L1242.28 291.098L1250.22 292.073L1252.56 273.075L1244.62 272.1ZM1218.15 311.408L1220.11 295.468L1212.17 294.493L1210.21 310.433L1218.15 311.408ZM1215.69 291.005L1181.3 294.873L1182.19 302.823L1216.58 298.955L1215.69 291.005ZM1180.35 302.597L1212.78 314.669L1215.57 307.172L1183.14 295.099L1180.35 302.597ZM1180.05 205.304L1182.29 201.993L1176.87 198.319L1176.07 204.816L1180.05 205.304ZM1224.34 235.346L1222.1 238.657L1222.9 239.199L1223.86 239.316L1224.34 235.346ZM1252.73 238.832L1256.7 239.319L1257.19 235.349L1253.22 234.862L1252.73 238.832ZM1250.53 256.737L1250.04 260.707L1254.02 261.195L1254.5 257.225L1250.53 256.737ZM1222.25 253.265L1222.74 249.295L1221.79 249.178L1220.88 249.509L1222.25 253.265ZM1171.89 271.685L1167.92 271.198L1167.13 277.688L1173.27 275.442L1171.89 271.685ZM1174.29 252.142L1173.21 248.292L1170.65 249.015L1170.32 251.654L1174.29 252.142ZM1209.31 242.256L1210.4 246.105L1219.57 243.515L1211.3 238.783L1209.31 242.256ZM1177.73 224.192L1173.76 223.704L1173.43 226.344L1175.74 227.664L1177.73 224.192ZM1177.8 208.614L1222.1 238.657L1226.59 232.036L1182.29 201.993L1177.8 208.614ZM1223.86 239.316L1252.24 242.802L1253.22 234.862L1224.83 231.376L1223.86 239.316ZM1248.76 238.344L1246.56 256.25L1254.5 257.225L1256.7 239.319L1248.76 238.344ZM1251.02 252.767L1222.74 249.295L1221.77 257.235L1250.04 260.707L1251.02 252.767ZM1220.88 249.509L1170.52 267.929L1173.27 275.442L1223.63 257.022L1220.88 249.509ZM1175.86 272.173L1178.26 252.629L1170.32 251.654L1167.92 271.198L1175.86 272.173ZM1175.38 255.991L1210.4 246.105L1208.22 238.406L1173.21 248.292L1175.38 255.991ZM1211.3 238.783L1179.71 220.72L1175.74 227.664L1207.32 245.728L1211.3 238.783ZM1181.7 224.679L1184.02 205.791L1176.07 204.816L1173.76 223.704L1181.7 224.679Z" fill="#77F721" mask="url(#path-43-outside-2_5227_573)"/>
<rect x="372.182" y="94.7535" width="342" height="346" transform="rotate(140 372.182 94.7535)" fill="#F4F4F4" stroke="#77F721" stroke-width="4"/>
<mask id="path-46-outside-3_5227_573" maskUnits="userSpaceOnUse" x="-34.5976" y="-98.7204" width="323.855" height="321.39" fill="black">
<rect fill="white" x="-34.5976" y="-98.7204" width="323.855" height="321.39"/>
<path d="M261.073 86.4663C253.377 92.9241 246.05 96.3433 239.094 96.7237C232.138 97.1041 226.02 94.1484 220.741 87.8566C215.225 81.284 213.16 74.5447 214.545 67.6387C215.921 60.8361 220.12 54.4887 227.142 48.5965L233.462 43.2935L217.129 23.8283L230.948 12.2324L279.948 70.628L261.073 86.4663ZM236.665 57.5499C233.407 60.2839 231.572 63.1163 231.159 66.0472C230.738 69.0814 232.012 72.3681 234.981 75.9072C240.119 82.0305 246.115 82.2167 252.969 76.4659L257.856 72.3649L241.806 53.2368L236.665 57.5499ZM149.076 80.9317L170.076 105.958L187.603 91.2513L166.603 66.2247L180.422 54.6288L229.422 113.024L215.603 124.62L196.653 102.037L179.126 116.744L198.076 139.327L184.256 150.923L135.256 92.5275L149.076 80.9317ZM131.262 119.429C129.184 121.173 126.778 121.899 124.044 121.608C121.302 121.42 119.059 120.287 117.315 118.209C115.523 116.074 114.75 113.612 114.994 110.822C115.229 108.136 116.386 105.921 118.464 104.177C120.599 102.386 123.037 101.584 125.78 101.772C128.513 102.063 130.775 103.276 132.567 105.411C134.311 107.489 135.065 109.872 134.83 112.558C134.586 115.347 133.397 117.638 131.262 119.429ZM136.794 190.749C127.637 198.432 118.562 202.505 109.569 202.967C100.566 203.533 91.4453 198.311 82.2063 187.3C73.1087 176.458 69.3944 166.555 71.0635 157.592C72.7797 148.685 77.9353 140.626 86.5303 133.414L104.057 118.707L153.057 177.102L136.794 190.749ZM130.824 178.671L98.6521 140.33L94.1018 144.148C89.5515 147.966 87.275 152.27 87.2725 157.058C87.3171 161.903 90.4034 167.977 96.5313 175.28C100.727 180.28 104.569 183.661 108.058 185.424C111.548 187.186 114.728 187.725 117.599 187.039C120.517 186.41 123.464 184.846 126.442 182.347L130.824 178.671ZM153.062 -71.1771C150.983 -69.433 148.577 -68.7066 145.844 -68.9978C143.102 -69.1856 140.858 -70.3188 139.114 -72.3974C137.323 -74.5321 136.55 -76.9942 136.794 -79.7837C137.029 -82.4698 138.185 -84.685 140.264 -86.4291C142.399 -88.2203 144.837 -89.022 147.58 -88.8341C150.313 -88.5429 152.575 -87.33 154.366 -85.1953C156.11 -83.1167 156.865 -80.7344 156.63 -78.0482C156.386 -75.2587 155.197 -72.9684 153.062 -71.1771Z"/>
</mask>
<path d="M261.073 86.4663C253.377 92.9241 246.05 96.3433 239.094 96.7237C232.138 97.1041 226.02 94.1484 220.741 87.8566C215.225 81.284 213.16 74.5447 214.545 67.6387C215.921 60.8361 220.12 54.4887 227.142 48.5965L233.462 43.2935L217.129 23.8283L230.948 12.2324L279.948 70.628L261.073 86.4663ZM236.665 57.5499C233.407 60.2839 231.572 63.1163 231.159 66.0472C230.738 69.0814 232.012 72.3681 234.981 75.9072C240.119 82.0305 246.115 82.2167 252.969 76.4659L257.856 72.3649L241.806 53.2368L236.665 57.5499ZM149.076 80.9317L170.076 105.958L187.603 91.2513L166.603 66.2247L180.422 54.6288L229.422 113.024L215.603 124.62L196.653 102.037L179.126 116.744L198.076 139.327L184.256 150.923L135.256 92.5275L149.076 80.9317ZM131.262 119.429C129.184 121.173 126.778 121.899 124.044 121.608C121.302 121.42 119.059 120.287 117.315 118.209C115.523 116.074 114.75 113.612 114.994 110.822C115.229 108.136 116.386 105.921 118.464 104.177C120.599 102.386 123.037 101.584 125.78 101.772C128.513 102.063 130.775 103.276 132.567 105.411C134.311 107.489 135.065 109.872 134.83 112.558C134.586 115.347 133.397 117.638 131.262 119.429ZM136.794 190.749C127.637 198.432 118.562 202.505 109.569 202.967C100.566 203.533 91.4453 198.311 82.2063 187.3C73.1087 176.458 69.3944 166.555 71.0635 157.592C72.7797 148.685 77.9353 140.626 86.5303 133.414L104.057 118.707L153.057 177.102L136.794 190.749ZM130.824 178.671L98.6521 140.33L94.1018 144.148C89.5515 147.966 87.275 152.27 87.2725 157.058C87.3171 161.903 90.4034 167.977 96.5313 175.28C100.727 180.28 104.569 183.661 108.058 185.424C111.548 187.186 114.728 187.725 117.599 187.039C120.517 186.41 123.464 184.846 126.442 182.347L130.824 178.671ZM153.062 -71.1771C150.983 -69.433 148.577 -68.7066 145.844 -68.9978C143.102 -69.1856 140.858 -70.3188 139.114 -72.3974C137.323 -74.5321 136.55 -76.9942 136.794 -79.7837C137.029 -82.4698 138.185 -84.685 140.264 -86.4291C142.399 -88.2203 144.837 -89.022 147.58 -88.8341C150.313 -88.5429 152.575 -87.33 154.366 -85.1953C156.11 -83.1167 156.865 -80.7344 156.63 -78.0482C156.386 -75.2587 155.197 -72.9684 153.062 -71.1771Z" fill="#77F721"/>
<path d="M239.094 96.7237L239.313 100.718L239.313 100.718L239.094 96.7237ZM214.545 67.6387L210.625 66.8457L210.623 66.8522L214.545 67.6387ZM233.462 43.2935L236.033 46.3577L239.098 43.7865L236.526 40.7223L233.462 43.2935ZM217.129 23.8283L214.558 20.7641L211.494 23.3353L214.065 26.3995L217.129 23.8283ZM230.948 12.2324L234.013 9.66127L231.442 6.5971L228.377 9.16825L230.948 12.2324ZM279.948 70.628L282.519 73.6922L285.584 71.121L283.012 68.0568L279.948 70.628ZM231.159 66.0472L227.198 65.4896L227.197 65.4967L231.159 66.0472ZM257.856 72.3649L260.427 75.4291L263.491 72.8579L260.92 69.7937L257.856 72.3649ZM241.806 53.2368L244.87 50.6656L242.299 47.6014L239.234 50.1726L241.806 53.2368ZM258.502 83.4021C251.186 89.541 244.66 92.4133 238.876 92.7297L239.313 100.718C247.441 100.273 255.568 96.3073 263.644 89.5305L258.502 83.4021ZM238.876 92.7297C233.411 93.0285 228.439 90.8079 223.805 85.2855L217.676 90.4278C223.601 97.4889 230.865 101.18 239.313 100.718L238.876 92.7297ZM223.805 85.2855C218.882 79.4191 217.373 73.8793 218.467 68.4253L210.623 66.8522C208.947 75.21 211.569 83.1488 217.676 90.4278L223.805 85.2855ZM218.466 68.4318C219.612 62.7662 223.162 57.1581 229.714 51.6607L224.571 45.5323C217.079 51.8194 212.231 58.9061 210.625 66.8457L218.466 68.4318ZM229.714 51.6607L236.033 46.3577L230.891 40.2293L224.571 45.5323L229.714 51.6607ZM236.526 40.7223L220.193 21.2572L214.065 26.3995L230.398 45.8647L236.526 40.7223ZM219.7 26.8925L233.52 15.2966L228.377 9.16825L214.558 20.7641L219.7 26.8925ZM227.884 14.8036L276.884 73.1991L283.012 68.0568L234.013 9.66127L227.884 14.8036ZM277.377 67.5638L258.502 83.4021L263.644 89.5305L282.519 73.6922L277.377 67.5638ZM234.094 54.4857C230.406 57.5802 227.798 61.2266 227.198 65.4896L235.12 66.6048C235.345 65.006 236.408 62.9875 239.237 60.614L234.094 54.4857ZM227.197 65.4967C226.555 70.1174 228.591 74.5138 231.917 78.4784L238.046 73.3361C235.433 70.2224 234.92 68.0454 235.121 66.5977L227.197 65.4967ZM231.917 78.4784C234.962 82.1072 238.726 84.4982 243.208 84.6374C247.574 84.773 251.721 82.7348 255.54 79.53L250.398 73.4017C247.363 75.9477 245.085 76.6918 243.456 76.6412C241.942 76.5942 240.139 75.8304 238.046 73.3361L231.917 78.4784ZM255.54 79.53L260.427 75.4291L255.285 69.3007L250.398 73.4017L255.54 79.53ZM260.92 69.7937L244.87 50.6656L238.741 55.8079L254.792 74.936L260.92 69.7937ZM239.234 50.1726L234.094 54.4857L239.237 60.614L244.377 56.3009L239.234 50.1726ZM149.076 80.9317L152.14 78.3605L149.569 75.2963L146.505 77.8675L149.076 80.9317ZM170.076 105.958L167.012 108.529L169.583 111.594L172.647 109.023L170.076 105.958ZM187.603 91.2513L190.174 94.3155L193.238 91.7444L190.667 88.6802L187.603 91.2513ZM166.603 66.2247L164.032 63.1605L160.968 65.7316L163.539 68.7958L166.603 66.2247ZM180.422 54.6288L183.487 52.0576L180.915 48.9935L177.851 51.5646L180.422 54.6288ZM229.422 113.024L231.993 116.089L235.057 113.517L232.486 110.453L229.422 113.024ZM215.603 124.62L212.539 127.191L215.11 130.256L218.174 127.684L215.603 124.62ZM196.653 102.037L199.718 99.4661L197.146 96.4019L194.082 98.9731L196.653 102.037ZM179.126 116.744L176.555 113.68L173.491 116.251L176.062 119.315L179.126 116.744ZM198.076 139.327L200.647 142.391L203.711 139.82L201.14 136.756L198.076 139.327ZM184.256 150.923L181.192 153.494L183.763 156.558L186.827 153.987L184.256 150.923ZM135.256 92.5275L132.685 89.4634L129.621 92.0345L132.192 95.0987L135.256 92.5275ZM146.012 83.5028L167.012 108.529L173.14 103.387L152.14 78.3605L146.012 83.5028ZM172.647 109.023L190.174 94.3155L185.032 88.1872L167.505 102.894L172.647 109.023ZM190.667 88.6802L169.667 63.6535L163.539 68.7958L184.539 93.8225L190.667 88.6802ZM169.174 69.2888L182.994 57.693L177.851 51.5646L164.032 63.1605L169.174 69.2888ZM177.358 57.1999L226.358 115.595L232.486 110.453L183.487 52.0576L177.358 57.1999ZM226.851 109.96L213.032 121.556L218.174 127.684L231.993 116.089L226.851 109.96ZM218.667 122.049L199.718 99.4661L193.589 104.608L212.539 127.191L218.667 122.049ZM194.082 98.9731L176.555 113.68L181.697 119.808L199.224 105.101L194.082 98.9731ZM176.062 119.315L195.011 141.898L201.14 136.756L182.19 114.173L176.062 119.315ZM195.504 136.263L181.685 147.859L186.827 153.987L200.647 142.391L195.504 136.263ZM187.32 148.352L138.321 89.9564L132.192 95.0987L181.192 153.494L187.32 148.352ZM137.828 95.5917L151.647 83.9958L146.505 77.8675L132.685 89.4634L137.828 95.5917ZM124.044 121.608L124.468 117.631L124.393 117.623L124.318 117.618L124.044 121.608ZM114.994 110.822L111.009 110.474L111.009 110.474L114.994 110.822ZM125.78 101.772L126.203 97.7943L126.128 97.7863L126.053 97.7812L125.78 101.772ZM134.83 112.558L138.815 112.906L138.815 112.906L134.83 112.558ZM128.691 116.365C127.457 117.4 126.136 117.808 124.468 117.631L123.621 125.586C127.419 125.99 130.91 124.946 133.833 122.493L128.691 116.365ZM124.318 117.618C122.644 117.503 121.414 116.871 120.379 115.637L114.25 120.78C116.704 123.703 119.96 125.338 123.771 125.599L124.318 117.618ZM120.379 115.637C119.273 114.32 118.827 112.909 118.979 111.171L111.009 110.474C110.673 114.314 111.774 117.828 114.25 120.78L120.379 115.637ZM118.979 111.171C119.121 109.549 119.764 108.308 121.035 107.241L115.893 101.113C113.008 103.534 111.337 106.723 111.009 110.474L118.979 111.171ZM121.035 107.241C122.39 106.105 123.812 105.646 125.506 105.762L126.053 97.7812C122.263 97.5215 118.808 98.6666 115.893 101.113L121.035 107.241ZM125.356 105.749C127.045 105.929 128.366 106.628 129.502 107.982L135.631 102.84C133.185 99.9243 129.981 98.1968 126.203 97.7943L125.356 105.749ZM129.502 107.982C130.569 109.253 130.987 110.587 130.845 112.209L138.815 112.906C139.143 109.156 138.052 105.725 135.631 102.84L129.502 107.982ZM130.845 112.209C130.693 113.948 130.009 115.259 128.691 116.365L133.833 122.493C136.785 120.016 138.479 116.747 138.815 112.906L130.845 112.209ZM109.569 202.967L109.363 198.973L109.34 198.974L109.318 198.975L109.569 202.967ZM71.0635 157.592L67.1357 156.835L67.1334 156.848L67.1311 156.86L71.0635 157.592ZM104.057 118.707L107.122 116.136L104.55 113.071L101.486 115.642L104.057 118.707ZM153.057 177.102L155.628 180.166L158.692 177.595L156.121 174.531L153.057 177.102ZM130.824 178.671L133.395 181.735L136.459 179.164L133.888 176.099L130.824 178.671ZM98.6521 140.33L101.716 137.759L99.1451 134.695L96.0809 137.266L98.6521 140.33ZM87.2725 157.058L83.2725 157.056L83.2725 157.076L83.2727 157.095L87.2725 157.058ZM108.058 185.424L106.255 188.994L106.255 188.994L108.058 185.424ZM117.599 187.039L116.755 183.129L116.712 183.138L116.669 183.149L117.599 187.039ZM134.223 187.684C125.515 194.991 117.242 198.568 109.363 198.973L109.774 206.962C119.882 206.442 129.759 201.873 139.365 193.813L134.223 187.684ZM109.318 198.975C102.19 199.423 94.184 195.352 85.2704 184.729L79.1421 189.871C88.7065 201.27 98.9423 207.643 109.819 206.96L109.318 198.975ZM85.2704 184.729C76.5145 174.294 73.6436 165.586 74.9959 158.325L67.1311 156.86C65.1452 167.525 69.7028 178.622 79.1421 189.871L85.2704 184.729ZM74.9912 158.349C76.4955 150.542 81.0387 143.243 89.1015 136.478L83.9592 130.349C74.8319 138.008 69.0639 146.829 67.1357 156.835L74.9912 158.349ZM89.1015 136.478L106.629 121.771L101.486 115.642L83.9592 130.349L89.1015 136.478ZM100.993 121.278L149.993 179.673L156.121 174.531L107.122 116.136L100.993 121.278ZM150.486 174.038L134.223 187.684L139.365 193.813L155.628 180.166L150.486 174.038ZM133.888 176.099L101.716 137.759L95.5879 142.901L127.759 181.242L133.888 176.099ZM96.0809 137.266L91.5306 141.084L96.6729 147.212L101.223 143.394L96.0809 137.266ZM91.5306 141.084C86.3123 145.463 83.2758 150.808 83.2725 157.056L91.2725 157.061C91.2743 153.732 92.7906 150.47 96.6729 147.212L91.5306 141.084ZM83.2727 157.095C83.3309 163.419 87.2348 170.424 93.4671 177.851L99.5955 172.709C93.572 165.53 91.3033 160.387 91.2723 157.022L83.2727 157.095ZM93.4671 177.851C97.8081 183.025 102.063 186.877 106.255 188.994L109.862 181.853C107.075 180.445 103.645 177.535 99.5955 172.709L93.4671 177.851ZM106.255 188.994C110.312 191.043 114.475 191.898 118.528 190.93L116.669 183.149C114.981 183.552 112.784 183.33 109.862 181.853L106.255 188.994ZM118.442 190.949C122.159 190.147 125.683 188.206 129.013 185.412L123.871 179.283C121.246 181.485 118.874 182.672 116.755 183.129L118.442 190.949ZM129.013 185.412L133.395 181.735L128.252 175.606L123.871 179.283L129.013 185.412ZM145.844 -68.9978L146.268 -72.9753L146.193 -72.9832L146.117 -72.9884L145.844 -68.9978ZM136.794 -79.7837L132.809 -80.1323L132.809 -80.1323L136.794 -79.7837ZM147.58 -88.8341L148.003 -92.8116L147.928 -92.8196L147.853 -92.8248L147.58 -88.8341ZM156.63 -78.0482L160.615 -77.6996L160.615 -77.6996L156.63 -78.0482ZM150.491 -74.2413C149.257 -73.2062 147.936 -72.7975 146.268 -72.9753L145.42 -65.0203C149.219 -64.6156 152.71 -65.6599 155.633 -68.113L150.491 -74.2413ZM146.117 -72.9884C144.444 -73.1031 143.214 -73.7349 142.179 -74.9685L136.05 -69.8262C138.503 -66.9028 141.76 -65.2682 145.571 -65.0071L146.117 -72.9884ZM142.179 -74.9685C141.073 -76.2861 140.626 -77.6966 140.778 -79.435L132.809 -80.1323C132.473 -76.2917 133.573 -72.778 136.05 -69.8262L142.179 -74.9685ZM140.778 -79.435C140.92 -81.057 141.563 -82.2979 142.835 -83.3649L137.693 -89.4933C134.807 -87.0721 133.137 -83.8827 132.809 -80.1323L140.778 -79.435ZM142.835 -83.3649C144.189 -84.5012 145.612 -84.9595 147.306 -84.8435L147.853 -92.8248C144.062 -93.0844 140.608 -91.9394 137.693 -89.4933L142.835 -83.3649ZM147.156 -84.8566C148.844 -84.6767 150.166 -83.9784 151.302 -82.6241L157.431 -87.7664C154.984 -90.6816 151.781 -92.4091 148.003 -92.8116L147.156 -84.8566ZM151.302 -82.6241C152.369 -81.3525 152.787 -80.0187 152.645 -78.3968L160.615 -77.6996C160.943 -81.45 159.852 -84.8809 157.431 -87.7664L151.302 -82.6241ZM152.645 -78.3968C152.493 -76.6584 151.808 -75.3469 150.491 -74.2413L155.633 -68.113C158.585 -70.5898 160.279 -73.859 160.615 -77.6996L152.645 -78.3968Z" fill="#77F721" mask="url(#path-46-outside-3_5227_573)"/>
<rect x="198.526" y="188.371" width="342" height="346" transform="rotate(106 198.526 188.371)" fill="#F4F4F4" stroke="#77F721" stroke-width="4"/>
<mask id="path-49-outside-4_5227_573" maskUnits="userSpaceOnUse" x="-20.7694" y="225.98" width="134.616" height="195.636" fill="black">
<rect fill="white" x="-20.7694" y="225.98" width="134.616" height="195.636"/>
<path d="M100.343 273.042C97.0481 284.533 91.802 292.984 84.6047 298.397C77.4576 303.9 66.9758 304.67 53.1592 300.709C39.5542 296.807 30.9374 290.675 27.309 282.311C23.7511 273.967 23.5184 264.402 26.6111 253.617L32.9177 231.623L106.195 252.635L100.343 273.042ZM88.6392 266.368L40.5281 252.572L38.8908 258.282C37.2535 263.992 37.7727 268.833 40.4484 272.804C43.1945 276.796 49.1496 280.105 58.3137 282.733C64.5875 284.532 69.6637 285.187 73.5423 284.697C77.4209 284.207 80.3585 282.875 82.3551 280.701C84.4221 278.547 85.9913 275.602 87.0626 271.866L88.6392 266.368ZM81.4726 338.851L8.19565 317.839L13.1682 300.498L86.4451 321.51L81.4726 338.851ZM70.8702 382.61C67.8786 393.043 62.2057 400.189 53.8514 404.05C45.4769 407.98 35.192 408.197 22.9968 404.7C15.0312 402.416 8.54222 399.106 3.52994 394.77C-1.50255 390.504 -4.85205 385.424 -6.51857 379.529C-8.13481 373.726 -7.96258 367.405 -6.00188 360.567C-4.04118 353.73 -0.837774 348.278 3.60834 344.213C8.05446 340.147 13.5165 337.594 19.9945 336.553C26.5228 335.602 33.8403 336.289 41.9469 338.613C49.8421 340.877 56.3059 344.142 61.3384 348.408C66.3507 352.744 69.6649 357.814 71.2812 363.618C72.9679 369.441 72.8309 375.772 70.8702 382.61ZM58.1816 378.972C59.6167 373.967 58.6437 369.644 55.2626 366.005C51.9318 362.456 45.7549 359.388 36.7319 356.8C27.7088 354.213 20.7993 353.567 16.0032 354.862C11.2072 356.157 8.10171 359.271 6.68677 364.206C5.23141 369.281 6.16913 373.593 9.49995 377.142C12.881 380.782 19.1184 383.906 28.2119 386.513C37.3054 389.121 44.215 389.767 48.9405 388.452C53.6661 387.137 56.7464 383.977 58.1816 378.972Z"/>
</mask>
<path d="M100.343 273.042C97.0481 284.533 91.802 292.984 84.6047 298.397C77.4576 303.9 66.9758 304.67 53.1592 300.709C39.5542 296.807 30.9374 290.675 27.309 282.311C23.7511 273.967 23.5184 264.402 26.6111 253.617L32.9177 231.623L106.195 252.635L100.343 273.042ZM88.6392 266.368L40.5281 252.572L38.8908 258.282C37.2535 263.992 37.7727 268.833 40.4484 272.804C43.1945 276.796 49.1496 280.105 58.3137 282.733C64.5875 284.532 69.6637 285.187 73.5423 284.697C77.4209 284.207 80.3585 282.875 82.3551 280.701C84.4221 278.547 85.9913 275.602 87.0626 271.866L88.6392 266.368ZM81.4726 338.851L8.19565 317.839L13.1682 300.498L86.4451 321.51L81.4726 338.851ZM70.8702 382.61C67.8786 393.043 62.2057 400.189 53.8514 404.05C45.4769 407.98 35.192 408.197 22.9968 404.7C15.0312 402.416 8.54222 399.106 3.52994 394.77C-1.50255 390.504 -4.85205 385.424 -6.51857 379.529C-8.13481 373.726 -7.96258 367.405 -6.00188 360.567C-4.04118 353.73 -0.837774 348.278 3.60834 344.213C8.05446 340.147 13.5165 337.594 19.9945 336.553C26.5228 335.602 33.8403 336.289 41.9469 338.613C49.8421 340.877 56.3059 344.142 61.3384 348.408C66.3507 352.744 69.6649 357.814 71.2812 363.618C72.9679 369.441 72.8309 375.772 70.8702 382.61ZM58.1816 378.972C59.6167 373.967 58.6437 369.644 55.2626 366.005C51.9318 362.456 45.7549 359.388 36.7319 356.8C27.7088 354.213 20.7993 353.567 16.0032 354.862C11.2072 356.157 8.10171 359.271 6.68677 364.206C5.23141 369.281 6.16913 373.593 9.49995 377.142C12.881 380.782 19.1184 383.906 28.2119 386.513C37.3054 389.121 44.215 389.767 48.9405 388.452C53.6661 387.137 56.7464 383.977 58.1816 378.972Z" fill="#77F721"/>
<path d="M84.6047 298.397L82.2005 295.2L82.1823 295.213L82.1643 295.227L84.6047 298.397ZM27.309 282.311L23.6296 283.88L23.6345 283.891L23.6394 283.902L27.309 282.311ZM32.9177 231.623L34.0202 227.778L30.1752 226.675L29.0726 230.52L32.9177 231.623ZM106.195 252.635L110.04 253.737L111.142 249.892L107.297 248.79L106.195 252.635ZM88.6392 266.368L92.4843 267.47L93.5868 263.625L89.7418 262.523L88.6392 266.368ZM40.5281 252.572L41.6306 248.727L37.7856 247.625L36.683 251.47L40.5281 252.572ZM40.4484 272.804L37.131 275.039L37.1419 275.055L37.153 275.071L40.4484 272.804ZM73.5423 284.697L74.0436 288.665L74.0436 288.665L73.5423 284.697ZM82.3551 280.701L79.4692 277.931L79.4388 277.963L79.409 277.995L82.3551 280.701ZM96.4978 271.94C93.3647 282.866 88.5058 290.458 82.2005 295.2L87.0088 301.593C95.0982 295.51 100.731 286.199 104.188 274.145L96.4978 271.94ZM82.1643 295.227C76.5054 299.585 67.5917 300.686 54.2618 296.864L52.0567 304.554C66.3598 308.655 78.4097 308.215 87.045 301.566L82.1643 295.227ZM54.2618 296.864C41.1677 293.109 33.9183 287.495 30.9786 280.719L23.6394 283.902C27.9566 293.854 37.9407 300.506 52.0567 304.554L54.2618 296.864ZM30.9885 280.742C27.8699 273.428 27.555 264.837 30.4561 254.719L22.766 252.514C19.4819 263.967 19.6323 274.505 23.6296 283.88L30.9885 280.742ZM30.4561 254.719L36.7627 232.726L29.0726 230.52L22.766 252.514L30.4561 254.719ZM31.8151 235.468L105.092 256.48L107.297 248.79L34.0202 227.778L31.8151 235.468ZM102.35 251.532L96.4978 271.94L104.188 274.145L110.04 253.737L102.35 251.532ZM89.7418 262.523L41.6306 248.727L39.4255 256.417L87.5367 270.213L89.7418 262.523ZM36.683 251.47L35.0458 257.18L42.7359 259.385L44.3731 253.675L36.683 251.47ZM35.0458 257.18C33.1681 263.728 33.6397 269.857 37.131 275.039L43.7657 270.569C41.9057 267.808 41.3389 264.256 42.7359 259.385L35.0458 257.18ZM37.153 275.071C40.7375 280.281 47.8909 283.906 57.2111 286.578L59.4162 278.888C50.4083 276.305 45.6516 273.31 43.7438 270.537L37.153 275.071ZM57.2111 286.578C63.7029 288.44 69.3846 289.254 74.0436 288.665L73.0411 280.728C69.9428 281.12 65.4721 280.624 59.4162 278.888L57.2111 286.578ZM74.0436 288.665C78.5529 288.096 82.4821 286.476 85.3011 283.407L79.409 277.995C78.235 279.274 76.2889 280.318 73.0411 280.728L74.0436 288.665ZM85.2409 283.471C87.874 280.727 89.7094 277.148 90.9076 272.969L83.2175 270.764C82.2732 274.057 80.9702 276.367 79.4692 277.931L85.2409 283.471ZM90.9076 272.969L92.4843 267.47L84.7942 265.265L83.2175 270.764L90.9076 272.969ZM81.4726 338.851L80.3701 342.696L84.2151 343.798L85.3177 339.953L81.4726 338.851ZM8.19565 317.839L4.35061 316.736L3.24806 320.581L7.0931 321.684L8.19565 317.839ZM13.1682 300.498L14.2707 296.653L10.4257 295.55L9.32311 299.395L13.1682 300.498ZM86.4451 321.51L90.2902 322.612L91.3927 318.767L87.5477 317.665L86.4451 321.51ZM82.5752 335.006L9.2982 313.994L7.0931 321.684L80.3701 342.696L82.5752 335.006ZM12.0407 318.941L17.0132 301.6L9.32311 299.395L4.35061 316.736L12.0407 318.941ZM12.0656 304.343L85.3426 325.355L87.5477 317.665L14.2707 296.653L12.0656 304.343ZM82.6001 320.407L77.6276 337.748L85.3177 339.953L90.2902 322.612L82.6001 320.407ZM53.8514 404.05L52.1736 400.418L52.1627 400.423L52.1519 400.429L53.8514 404.05ZM3.52994 394.77L6.14699 391.745L6.13174 391.731L6.11635 391.718L3.52994 394.77ZM-6.51857 379.529L-10.3719 380.603L-10.3698 380.61L-10.3677 380.618L-6.51857 379.529ZM3.60834 344.213L0.909166 341.261L0.909166 341.261L3.60834 344.213ZM19.9945 336.553L19.4181 332.594L19.3888 332.599L19.3596 332.603L19.9945 336.553ZM61.3384 348.408L63.9554 345.383L63.9402 345.37L63.9248 345.356L61.3384 348.408ZM71.2812 363.618L67.4278 364.691L67.4333 364.711L67.4391 364.73L71.2812 363.618ZM55.2626 366.005L58.1932 363.282L58.1863 363.275L58.1793 363.267L55.2626 366.005ZM16.0032 354.862L17.0458 358.723L17.0458 358.723L16.0032 354.862ZM9.49995 377.142L12.4305 374.42L12.4236 374.412L12.4166 374.405L9.49995 377.142ZM48.9405 388.452L50.0129 392.305L50.0129 392.305L48.9405 388.452ZM67.0252 381.508C64.2907 391.044 59.2801 397.135 52.1736 400.418L55.5292 407.681C65.1313 403.244 71.4665 395.042 74.7153 383.713L67.0252 381.508ZM52.1519 400.429C44.9324 403.817 35.7107 404.185 24.0994 400.855L21.8943 408.545C34.6734 412.21 46.0214 412.143 55.5509 407.671L52.1519 400.429ZM24.0994 400.855C16.5563 398.692 10.6243 395.618 6.14699 391.745L0.912895 397.795C6.4601 402.594 13.5061 406.14 21.8943 408.545L24.0994 400.855ZM6.11635 391.718C1.64156 387.925 -1.23616 383.511 -2.66946 378.441L-10.3677 380.618C-8.46795 387.337 -4.64666 393.082 0.943539 397.821L6.11635 391.718ZM-2.66521 378.456C-4.04978 373.485 -3.95105 367.927 -2.15684 361.67L-9.84693 359.465C-11.9741 366.883 -12.2199 373.967 -10.3719 380.603L-2.66521 378.456ZM-2.15684 361.67C-0.362622 355.413 2.49871 350.647 6.30752 347.165L0.909166 341.261C-4.17426 345.909 -7.71974 352.046 -9.84693 359.465L-2.15684 361.67ZM6.30752 347.165C10.1263 343.673 14.8505 341.431 20.6294 340.502L19.3596 332.603C12.1826 333.757 5.98261 336.622 0.909166 341.261L6.30752 347.165ZM20.571 340.511C26.4047 339.661 33.1368 340.248 40.8444 342.458L43.0495 334.768C34.5437 332.329 26.6409 331.543 19.4181 332.594L20.571 340.511ZM40.8444 342.458C48.324 344.603 54.2446 347.638 58.752 351.459L63.9248 345.356C58.3672 340.646 51.3601 337.151 43.0495 334.768L40.8444 342.458ZM58.7213 351.433C63.2005 355.308 66.0437 359.721 67.4278 364.691L75.1345 362.544C73.2862 355.907 69.5008 350.18 63.9554 345.383L58.7213 351.433ZM67.4391 364.73C68.8822 369.713 68.8148 375.266 67.0252 381.508L74.7153 383.713C76.847 376.278 77.0536 369.17 75.1233 362.505L67.4391 364.73ZM62.0266 380.074C63.8254 373.801 62.5828 368.008 58.1932 363.282L52.3321 368.727C54.7047 371.281 55.408 374.132 54.3365 377.869L62.0266 380.074ZM58.1793 363.267C54.0773 358.897 47.0148 355.588 37.8344 352.955L35.6293 360.645C44.495 363.188 49.7864 366.015 52.346 368.742L58.1793 363.267ZM37.8344 352.955C28.6353 350.318 20.8461 349.411 14.9606 351L17.0458 358.723C20.7525 357.723 26.7823 358.109 35.6293 360.645L37.8344 352.955ZM14.9606 351C8.75732 352.675 4.6272 356.877 2.84172 363.103L10.5318 365.308C11.5762 361.666 13.6571 359.638 17.0458 358.723L14.9606 351ZM2.84172 363.103C1.03791 369.394 2.19346 375.202 6.58333 379.88L12.4166 374.405C10.1448 371.984 9.42491 369.169 10.5318 365.308L2.84172 363.103ZM6.56936 379.865C10.721 384.334 17.8465 387.702 27.1093 390.358L29.3144 382.668C20.3902 380.109 15.0411 377.23 12.4305 374.42L6.56936 379.865ZM27.1093 390.358C36.3626 393.011 44.1745 393.93 50.0129 392.305L47.8681 384.598C44.2554 385.604 38.2482 385.23 29.3144 382.668L27.1093 390.358ZM50.0129 392.305C56.1748 390.591 60.2367 386.316 62.0266 380.074L54.3365 377.869C53.2561 381.637 51.1574 383.683 47.8681 384.598L50.0129 392.305Z" fill="#77F721" mask="url(#path-49-outside-4_5227_573)"/>
<rect x="1168.75" y="315.182" width="342" height="346" transform="rotate(-140 1168.75 315.182)" fill="#F4F4F4" stroke="#77F721" stroke-width="4"/>
<mask id="path-52-outside-5_5227_573" maskUnits="userSpaceOnUse" x="1010.71" y="12.8673" width="207.432" height="198.311" fill="black">
<rect fill="white" x="1010.71" y="12.8673" width="207.432" height="198.311"/>
<path d="M1168.36 133.844C1172.27 129.182 1176.34 126.041 1180.57 124.421C1184.75 122.755 1188.92 122.234 1193.09 122.858C1197.24 123.379 1201.72 124.601 1206.52 126.523L1202.03 139.409C1198.76 138.29 1195.98 137.83 1193.71 138.029C1191.44 138.228 1189.42 138.977 1187.66 140.276C1185.84 141.528 1183.88 143.418 1181.75 145.946L1140.6 194.988L1126.78 183.392L1168.36 133.844ZM1091.34 156.091C1083.02 149.114 1078.8 141.025 1078.67 131.823C1078.49 122.574 1082.47 113.09 1090.63 103.371C1095.96 97.0233 1101.62 92.4417 1107.62 89.6265C1113.56 86.7641 1119.57 85.7704 1125.63 86.6454C1131.59 87.5295 1137.29 90.2577 1142.74 94.83C1148.19 99.4024 1151.87 104.546 1153.77 110.261C1155.68 115.977 1155.79 122.005 1154.11 128.347C1152.32 134.697 1148.72 141.103 1143.3 147.563C1138.02 153.855 1132.4 158.432 1126.46 161.294C1120.46 164.109 1114.48 165.075 1108.52 164.191C1102.52 163.363 1096.79 160.663 1091.34 156.091ZM1099.82 145.979C1103.81 149.326 1108.16 150.195 1112.86 148.586C1117.45 146.987 1122.77 142.592 1128.8 135.401C1134.84 128.211 1138.24 122.161 1139 117.253C1139.77 112.345 1138.19 108.241 1134.26 104.942C1130.21 101.548 1125.89 100.651 1121.29 102.25C1116.59 103.858 1111.2 108.286 1105.12 115.533C1099.04 122.78 1095.64 128.829 1094.92 133.681C1094.2 138.533 1095.83 142.632 1099.82 145.979ZM1084.67 63.621C1088.58 58.9584 1092.65 55.8173 1096.89 54.1979C1101.06 52.5314 1105.23 52.0104 1109.4 52.6348C1113.56 53.156 1118.03 54.3777 1122.84 56.3L1118.34 69.1859C1115.07 68.0668 1112.29 67.6067 1110.02 67.8055C1107.75 68.0044 1105.73 68.7534 1103.97 70.0526C1102.16 71.3046 1100.19 73.1946 1098.07 75.7225L1056.91 124.765L1043.1 113.169L1084.67 63.621ZM1018.63 92.6368L1067.63 34.2412L1081.45 45.8371L1032.45 104.233L1018.63 92.6368Z"/>
</mask>
<path d="M1168.36 133.844C1172.27 129.182 1176.34 126.041 1180.57 124.421C1184.75 122.755 1188.92 122.234 1193.09 122.858C1197.24 123.379 1201.72 124.601 1206.52 126.523L1202.03 139.409C1198.76 138.29 1195.98 137.83 1193.71 138.029C1191.44 138.228 1189.42 138.977 1187.66 140.276C1185.84 141.528 1183.88 143.418 1181.75 145.946L1140.6 194.988L1126.78 183.392L1168.36 133.844ZM1091.34 156.091C1083.02 149.114 1078.8 141.025 1078.67 131.823C1078.49 122.574 1082.47 113.09 1090.63 103.371C1095.96 97.0233 1101.62 92.4417 1107.62 89.6265C1113.56 86.7641 1119.57 85.7704 1125.63 86.6454C1131.59 87.5295 1137.29 90.2577 1142.74 94.83C1148.19 99.4024 1151.87 104.546 1153.77 110.261C1155.68 115.977 1155.79 122.005 1154.11 128.347C1152.32 134.697 1148.72 141.103 1143.3 147.563C1138.02 153.855 1132.4 158.432 1126.46 161.294C1120.46 164.109 1114.48 165.075 1108.52 164.191C1102.52 163.363 1096.79 160.663 1091.34 156.091ZM1099.82 145.979C1103.81 149.326 1108.16 150.195 1112.86 148.586C1117.45 146.987 1122.77 142.592 1128.8 135.401C1134.84 128.211 1138.24 122.161 1139 117.253C1139.77 112.345 1138.19 108.241 1134.26 104.942C1130.21 101.548 1125.89 100.651 1121.29 102.25C1116.59 103.858 1111.2 108.286 1105.12 115.533C1099.04 122.78 1095.64 128.829 1094.92 133.681C1094.2 138.533 1095.83 142.632 1099.82 145.979ZM1084.67 63.621C1088.58 58.9584 1092.65 55.8173 1096.89 54.1979C1101.06 52.5314 1105.23 52.0104 1109.4 52.6348C1113.56 53.156 1118.03 54.3777 1122.84 56.3L1118.34 69.1859C1115.07 68.0668 1112.29 67.6067 1110.02 67.8055C1107.75 68.0044 1105.73 68.7534 1103.97 70.0526C1102.16 71.3046 1100.19 73.1946 1098.07 75.7225L1056.91 124.765L1043.1 113.169L1084.67 63.621ZM1018.63 92.6368L1067.63 34.2412L1081.45 45.8371L1032.45 104.233L1018.63 92.6368Z" fill="#77F721"/>
<path d="M1180.57 124.421L1182 128.157L1182.03 128.147L1182.06 128.136L1180.57 124.421ZM1193.09 122.858L1192.49 126.814L1192.54 126.821L1192.59 126.827L1193.09 122.858ZM1206.52 126.523L1210.3 127.841L1211.56 124.231L1208.01 122.81L1206.52 126.523ZM1202.03 139.409L1200.74 143.194L1204.5 144.48L1205.81 140.726L1202.03 139.409ZM1193.71 138.029L1194.06 142.014L1194.06 142.014L1193.71 138.029ZM1187.66 140.276L1189.93 143.569L1189.98 143.533L1190.04 143.494L1187.66 140.276ZM1140.6 194.988L1138.03 198.052L1141.1 200.623L1143.67 197.559L1140.6 194.988ZM1126.78 183.392L1123.72 180.821L1121.15 183.885L1124.21 186.456L1126.78 183.392ZM1171.42 136.415C1175.04 132.102 1178.59 129.464 1182 128.157L1179.14 120.686C1174.1 122.617 1169.5 126.262 1165.3 131.273L1171.42 136.415ZM1182.06 128.136C1185.62 126.714 1189.07 126.302 1192.49 126.814L1193.68 118.902C1188.76 118.166 1183.88 118.795 1179.09 120.706L1182.06 128.136ZM1192.59 126.827C1196.34 127.297 1200.48 128.413 1205.04 130.237L1208.01 122.81C1202.96 120.789 1198.15 119.461 1193.58 118.889L1192.59 126.827ZM1202.75 125.206L1198.25 138.092L1205.81 140.726L1210.3 127.841L1202.75 125.206ZM1203.32 135.624C1199.77 134.409 1196.4 133.778 1193.36 134.044L1194.06 142.014C1195.57 141.882 1197.74 142.171 1200.74 143.194L1203.32 135.624ZM1193.36 134.044C1190.39 134.304 1187.66 135.302 1185.29 137.058L1190.04 143.494C1191.18 142.651 1192.49 142.151 1194.06 142.014L1193.36 134.044ZM1185.39 136.982C1183.17 138.512 1180.94 140.693 1178.69 143.375L1184.82 148.517C1186.81 146.142 1188.52 144.543 1189.93 143.569L1185.39 136.982ZM1178.69 143.375L1137.54 192.417L1143.67 197.559L1184.82 148.517L1178.69 143.375ZM1143.17 191.924L1129.36 180.328L1124.21 186.456L1138.03 198.052L1143.17 191.924ZM1129.85 185.963L1171.42 136.415L1165.3 131.273L1123.72 180.821L1129.85 185.963ZM1078.67 131.823L1082.67 131.767L1082.67 131.755L1082.67 131.743L1078.67 131.823ZM1107.62 89.6265L1109.32 93.2477L1109.34 93.2391L1109.36 93.2304L1107.62 89.6265ZM1125.63 86.6454L1126.22 82.6887L1126.21 82.6876L1126.2 82.6865L1125.63 86.6454ZM1153.77 110.261L1157.57 108.996L1157.57 108.996L1153.77 110.261ZM1154.11 128.347L1157.96 129.43L1157.97 129.402L1157.97 129.373L1154.11 128.347ZM1126.46 161.294L1128.16 164.915L1128.18 164.907L1128.2 164.898L1126.46 161.294ZM1108.52 164.191L1109.11 160.234L1109.09 160.231L1109.07 160.228L1108.52 164.191ZM1112.86 148.586L1114.15 152.371L1114.16 152.368L1114.17 152.364L1112.86 148.586ZM1139 117.253L1135.05 116.635L1135.05 116.635L1139 117.253ZM1121.29 102.25L1122.59 106.035L1122.6 106.031L1122.61 106.028L1121.29 102.25ZM1094.92 133.681L1090.96 133.093L1090.96 133.093L1094.92 133.681ZM1093.91 153.026C1086.31 146.65 1082.78 139.595 1082.67 131.767L1074.67 131.879C1074.82 142.455 1079.74 151.579 1088.77 159.155L1093.91 153.026ZM1082.67 131.743C1082.51 123.77 1085.93 115.196 1093.69 105.942L1087.57 100.8C1079.02 110.984 1074.47 121.378 1074.68 131.903L1082.67 131.743ZM1093.69 105.942C1098.74 99.9312 1103.96 95.7625 1109.32 93.2477L1105.92 86.0053C1099.28 89.121 1093.17 94.1155 1087.57 100.8L1093.69 105.942ZM1109.36 93.2304C1114.64 90.6852 1119.84 89.8519 1125.06 90.6044L1126.2 82.6865C1119.29 81.689 1112.49 82.843 1105.88 86.0226L1109.36 93.2304ZM1125.04 90.6021C1130.15 91.3595 1135.18 93.7101 1140.17 97.8942L1145.31 91.7659C1139.4 86.8053 1133.03 83.6995 1126.22 82.6887L1125.04 90.6021ZM1140.17 97.8942C1145.16 102.078 1148.35 106.631 1149.98 111.527L1157.57 108.996C1155.39 102.462 1151.22 96.7265 1145.31 91.7659L1140.17 97.8942ZM1149.98 111.527C1151.62 116.435 1151.74 121.663 1150.24 127.32L1157.97 129.373C1159.84 122.347 1159.74 115.518 1157.57 108.996L1149.98 111.527ZM1150.26 127.263C1148.66 132.938 1145.39 138.85 1140.23 144.992L1146.36 150.134C1152.05 143.356 1155.98 136.456 1157.96 129.43L1150.26 127.263ZM1140.23 144.992C1135.23 150.952 1130.05 155.127 1124.72 157.69L1128.2 164.898C1134.76 161.737 1140.8 156.757 1146.36 150.134L1140.23 144.992ZM1124.76 157.673C1119.4 160.189 1114.21 160.991 1109.11 160.234L1107.93 168.148C1114.75 169.159 1121.52 168.03 1128.16 164.915L1124.76 157.673ZM1109.07 160.228C1103.93 159.52 1098.88 157.2 1093.91 153.026L1088.77 159.155C1094.69 164.126 1101.1 167.206 1107.98 168.154L1109.07 160.228ZM1097.25 149.043C1102.25 153.238 1108.05 154.459 1114.15 152.371L1111.56 144.802C1108.26 145.931 1105.37 145.413 1102.39 142.915L1097.25 149.043ZM1114.17 152.364C1119.83 150.395 1125.73 145.289 1131.87 137.973L1125.74 132.83C1119.81 139.895 1115.07 143.579 1111.54 144.809L1114.17 152.364ZM1131.87 137.973C1138.02 130.642 1142.01 123.895 1142.96 117.872L1135.05 116.635C1134.46 120.428 1131.65 125.78 1125.74 132.83L1131.87 137.973ZM1142.96 117.872C1143.95 111.523 1141.79 106.041 1136.83 101.878L1131.69 108.006C1134.59 110.442 1135.59 113.167 1135.05 116.635L1142.96 117.872ZM1136.83 101.878C1131.82 97.6711 1126.04 96.3643 1119.98 98.4722L1122.61 106.028C1125.74 104.937 1128.61 105.425 1131.69 108.006L1136.83 101.878ZM1120 98.4655C1114.23 100.44 1108.25 105.58 1102.06 112.962L1108.19 118.104C1114.16 110.992 1118.96 107.276 1122.59 106.035L1120 98.4655ZM1102.06 112.962C1095.87 120.336 1091.86 127.099 1090.96 133.093L1098.88 134.269C1099.43 130.559 1102.21 125.223 1108.19 118.104L1102.06 112.962ZM1090.96 133.093C1090.02 139.42 1092.28 144.869 1097.25 149.043L1102.39 142.915C1099.39 140.395 1098.38 137.646 1098.88 134.269L1090.96 133.093ZM1096.89 54.1979L1098.32 57.9336L1098.34 57.9234L1098.37 57.9129L1096.89 54.1979ZM1109.4 52.6348L1108.8 56.5906L1108.85 56.5978L1108.9 56.6038L1109.4 52.6348ZM1122.84 56.3L1126.61 57.6173L1127.87 54.0077L1124.32 52.5867L1122.84 56.3ZM1118.34 69.1859L1117.05 72.9708L1120.81 74.2569L1122.12 70.5032L1118.34 69.1859ZM1110.02 67.8055L1110.37 71.7903L1110.37 71.7903L1110.02 67.8055ZM1103.97 70.0526L1106.24 73.346L1106.3 73.3093L1106.35 73.2709L1103.97 70.0526ZM1056.91 124.765L1054.34 127.829L1057.41 130.4L1059.98 127.336L1056.91 124.765ZM1043.1 113.169L1040.03 110.598L1037.46 113.662L1040.52 116.233L1043.1 113.169ZM1087.73 66.1922C1091.35 61.8783 1094.9 59.2407 1098.32 57.9336L1095.46 50.4623C1090.41 52.394 1085.81 56.0385 1081.61 61.0499L1087.73 66.1922ZM1098.37 57.9129C1101.93 56.4909 1105.39 56.0783 1108.8 56.5906L1109.99 48.679C1105.08 47.9424 1100.19 48.5719 1095.4 50.483L1098.37 57.9129ZM1108.9 56.6038C1112.65 57.0738 1116.79 58.1898 1121.35 60.0134L1124.32 52.5867C1119.27 50.5656 1114.46 49.2381 1109.89 48.6659L1108.9 56.6038ZM1119.06 54.9827L1114.56 67.8686L1122.12 70.5032L1126.61 57.6173L1119.06 54.9827ZM1119.64 65.401C1116.08 64.1857 1112.71 63.5548 1109.67 63.8208L1110.37 71.7903C1111.88 71.6585 1114.06 71.9479 1117.05 72.9708L1119.64 65.401ZM1109.67 63.8208C1106.7 64.0809 1103.98 65.0788 1101.6 66.8342L1106.35 73.2709C1107.49 72.4281 1108.8 71.9279 1110.37 71.7903L1109.67 63.8208ZM1101.7 66.7591C1099.48 68.2891 1097.25 70.47 1095 73.1514L1101.13 78.2937C1103.12 75.9192 1104.83 74.32 1106.24 73.346L1101.7 66.7591ZM1095 73.1514L1053.85 122.194L1059.98 127.336L1101.13 78.2937L1095 73.1514ZM1059.49 121.701L1045.67 110.105L1040.52 116.233L1054.34 127.829L1059.49 121.701ZM1046.16 115.74L1087.73 66.1922L1081.61 61.0499L1040.03 110.598L1046.16 115.74ZM1018.63 92.6368L1015.56 90.0657L1012.99 93.1298L1016.05 95.701L1018.63 92.6368ZM1067.63 34.2412L1070.2 31.1771L1067.13 28.6059L1064.56 31.6701L1067.63 34.2412ZM1081.45 45.8371L1084.51 48.4083L1087.08 45.3441L1084.02 42.7729L1081.45 45.8371ZM1032.45 104.233L1029.87 107.297L1032.94 109.868L1035.51 106.804L1032.45 104.233ZM1021.69 95.208L1070.69 36.8124L1064.56 31.6701L1015.56 90.0657L1021.69 95.208ZM1065.05 37.3054L1078.87 48.9013L1084.02 42.7729L1070.2 31.1771L1065.05 37.3054ZM1078.38 43.266L1029.38 101.662L1035.51 106.804L1084.51 48.4083L1078.38 43.266ZM1035.02 101.169L1021.2 89.5726L1016.05 95.701L1029.87 107.297L1035.02 101.169Z" fill="#77F721" mask="url(#path-52-outside-5_5227_573)"/>
<rect x="954.767" y="700.588" width="342" height="346" transform="rotate(-33 954.767 700.588)" fill="#F4F4F4" stroke="#77F721" stroke-width="4"/>
<mask id="path-55-outside-6_5227_573" maskUnits="userSpaceOnUse" x="1054.32" y="595.117" width="237.762" height="196.597" fill="black">
<rect fill="white" x="1054.32" y="595.117" width="237.762" height="196.597"/>
<path d="M1151.18 752.43L1131.9 764.952L1081.27 727.393C1085.04 731.853 1088.3 735.858 1091.05 739.41C1093.81 742.861 1096.85 747.138 1100.17 752.243L1115.38 775.676L1101.91 784.422L1060.4 720.491L1079.22 708.269L1130.36 745.62C1123.54 738.073 1117.71 730.578 1112.87 723.136L1096.1 697.305L1109.66 688.499L1151.18 752.43ZM1160.78 655.303L1166.22 667.115L1143.71 681.733L1153.65 697.047L1173.3 684.287L1180.19 694.896L1160.54 707.657L1171.15 723.986L1195.23 708.349L1202.29 719.235L1163.09 744.697L1121.57 680.765L1160.78 655.303ZM1246.85 660.131C1249.69 664.498 1251.27 669.022 1251.6 673.705C1251.99 678.347 1250.95 682.87 1248.48 687.275C1246.01 691.679 1242.06 695.639 1236.65 699.154C1228.53 704.426 1221.01 706.379 1214.09 705.015C1207.17 703.65 1201.46 699.493 1196.94 692.543L1169.21 649.829L1184.34 640.004L1211.65 682.072C1214.33 686.192 1217.1 688.768 1219.95 689.799C1222.83 690.729 1225.96 690.095 1229.34 687.899C1232.79 685.662 1234.64 683.06 1234.9 680.094C1235.18 677.026 1233.98 673.431 1231.3 669.311L1203.99 627.243L1219.12 617.418L1246.85 660.131ZM1243.04 601.879L1267.44 643.484L1255.63 651.153L1227.54 611.944L1243.04 601.879ZM1266.99 655.714C1269.32 654.196 1271.83 653.748 1274.51 654.37C1277.21 654.891 1279.3 656.289 1280.77 658.565C1282.29 660.902 1282.76 663.44 1282.18 666.179C1281.62 668.816 1280.17 670.894 1277.83 672.412C1275.55 673.889 1273.07 674.368 1270.37 673.847C1267.69 673.225 1265.59 671.746 1264.07 669.408C1262.6 667.133 1262.14 664.676 1262.7 662.039C1263.28 659.3 1264.71 657.192 1266.99 655.714Z"/>
</mask>
<path d="M1151.18 752.43L1131.9 764.952L1081.27 727.393C1085.04 731.853 1088.3 735.858 1091.05 739.41C1093.81 742.861 1096.85 747.138 1100.17 752.243L1115.38 775.676L1101.91 784.422L1060.4 720.491L1079.22 708.269L1130.36 745.62C1123.54 738.073 1117.71 730.578 1112.87 723.136L1096.1 697.305L1109.66 688.499L1151.18 752.43ZM1160.78 655.303L1166.22 667.115L1143.71 681.733L1153.65 697.047L1173.3 684.287L1180.19 694.896L1160.54 707.657L1171.15 723.986L1195.23 708.349L1202.29 719.235L1163.09 744.697L1121.57 680.765L1160.78 655.303ZM1246.85 660.131C1249.69 664.498 1251.27 669.022 1251.6 673.705C1251.99 678.347 1250.95 682.87 1248.48 687.275C1246.01 691.679 1242.06 695.639 1236.65 699.154C1228.53 704.426 1221.01 706.379 1214.09 705.015C1207.17 703.65 1201.46 699.493 1196.94 692.543L1169.21 649.829L1184.34 640.004L1211.65 682.072C1214.33 686.192 1217.1 688.768 1219.95 689.799C1222.83 690.729 1225.96 690.095 1229.34 687.899C1232.79 685.662 1234.64 683.06 1234.9 680.094C1235.18 677.026 1233.98 673.431 1231.3 669.311L1203.99 627.243L1219.12 617.418L1246.85 660.131ZM1243.04 601.879L1267.44 643.484L1255.63 651.153L1227.54 611.944L1243.04 601.879ZM1266.99 655.714C1269.32 654.196 1271.83 653.748 1274.51 654.37C1277.21 654.891 1279.3 656.289 1280.77 658.565C1282.29 660.902 1282.76 663.44 1282.18 666.179C1281.62 668.816 1280.17 670.894 1277.83 672.412C1275.55 673.889 1273.07 674.368 1270.37 673.847C1267.69 673.225 1265.59 671.746 1264.07 669.408C1262.6 667.133 1262.14 664.676 1262.7 662.039C1263.28 659.3 1264.71 657.192 1266.99 655.714Z" fill="#77F721"/>
<path d="M1151.18 752.43L1153.36 755.785L1156.71 753.607L1154.53 750.252L1151.18 752.43ZM1131.9 764.952L1129.51 768.164L1131.75 769.82L1134.08 768.306L1131.9 764.952ZM1081.27 727.393L1083.66 724.181L1078.22 729.976L1081.27 727.393ZM1091.05 739.41L1087.88 741.856L1087.9 741.884L1087.92 741.912L1091.05 739.41ZM1115.38 775.676L1117.56 779.03L1120.92 776.852L1118.74 773.497L1115.38 775.676ZM1101.91 784.422L1098.56 786.601L1100.74 789.956L1104.09 787.777L1101.91 784.422ZM1060.4 720.491L1058.22 717.136L1054.86 719.315L1057.04 722.669L1060.4 720.491ZM1079.22 708.269L1081.58 705.039L1079.35 703.413L1077.04 704.914L1079.22 708.269ZM1130.36 745.62L1128 748.85L1133.33 742.937L1130.36 745.62ZM1096.1 697.305L1093.92 693.951L1090.57 696.129L1092.74 699.484L1096.1 697.305ZM1109.66 688.499L1113.01 686.32L1110.84 682.965L1107.48 685.144L1109.66 688.499ZM1149 749.076L1129.72 761.597L1134.08 768.306L1153.36 755.785L1149 749.076ZM1134.28 761.739L1083.66 724.181L1078.89 730.606L1129.51 768.164L1134.28 761.739ZM1078.22 729.976C1081.96 734.403 1085.18 738.362 1087.88 741.856L1094.21 736.965C1091.42 733.355 1088.13 729.303 1084.33 724.811L1078.22 729.976ZM1087.92 741.912C1090.58 745.228 1093.54 749.39 1096.81 754.422L1103.52 750.065C1100.16 744.887 1097.04 740.493 1094.17 736.909L1087.92 741.912ZM1096.81 754.422L1112.03 777.854L1118.74 773.497L1103.52 750.065L1096.81 754.422ZM1113.21 772.321L1099.74 781.068L1104.09 787.777L1117.56 779.03L1113.21 772.321ZM1105.27 782.244L1063.75 718.312L1057.04 722.669L1098.56 786.601L1105.27 782.244ZM1062.58 723.845L1081.4 711.624L1077.04 704.914L1058.22 717.136L1062.58 723.845ZM1076.86 711.499L1128 748.85L1132.72 742.39L1081.58 705.039L1076.86 711.499ZM1133.33 742.937C1126.62 735.525 1120.93 728.198 1116.23 720.958L1109.52 725.315C1114.48 732.959 1120.45 740.62 1127.39 748.303L1133.33 742.937ZM1116.23 720.958L1099.45 695.127L1092.74 699.484L1109.52 725.315L1116.23 720.958ZM1098.28 700.66L1111.84 691.853L1107.48 685.144L1093.92 693.951L1098.28 700.66ZM1106.31 690.677L1147.82 754.609L1154.53 750.252L1113.01 686.32L1106.31 690.677ZM1160.78 655.303L1164.41 653.63L1162.48 649.43L1158.6 651.948L1160.78 655.303ZM1166.22 667.115L1168.4 670.47L1171.3 668.585L1169.85 665.442L1166.22 667.115ZM1143.71 681.733L1141.53 678.379L1138.17 680.557L1140.35 683.912L1143.71 681.733ZM1153.65 697.047L1150.3 699.226L1152.48 702.581L1155.83 700.402L1153.65 697.047ZM1173.3 684.287L1176.66 682.108L1174.48 678.753L1171.12 680.932L1173.3 684.287ZM1180.19 694.896L1182.37 698.25L1185.73 696.072L1183.55 692.717L1180.19 694.896ZM1160.54 707.657L1158.36 704.302L1155.01 706.481L1157.19 709.835L1160.54 707.657ZM1171.15 723.986L1167.79 726.164L1169.97 729.519L1173.33 727.34L1171.15 723.986ZM1195.23 708.349L1198.58 706.17L1196.4 702.816L1193.05 704.994L1195.23 708.349ZM1202.29 719.235L1204.47 722.59L1207.83 720.411L1205.65 717.056L1202.29 719.235ZM1163.09 744.697L1159.73 746.875L1161.91 750.23L1165.27 748.051L1163.09 744.697ZM1121.57 680.765L1119.39 677.41L1116.04 679.589L1118.21 682.944L1121.57 680.765ZM1157.14 656.977L1162.58 668.789L1169.85 665.442L1164.41 653.63L1157.14 656.977ZM1164.04 663.761L1141.53 678.379L1145.89 685.088L1168.4 670.47L1164.04 663.761ZM1140.35 683.912L1150.3 699.226L1157.01 694.869L1147.06 679.555L1140.35 683.912ZM1155.83 700.402L1175.48 687.641L1171.12 680.932L1151.47 693.693L1155.83 700.402ZM1169.95 686.465L1176.84 697.074L1183.55 692.717L1176.66 682.108L1169.95 686.465ZM1178.01 691.541L1158.36 704.302L1162.72 711.011L1182.37 698.25L1178.01 691.541ZM1157.19 709.835L1167.79 726.164L1174.5 721.807L1163.9 705.478L1157.19 709.835ZM1173.33 727.34L1197.4 711.704L1193.05 704.994L1168.97 720.631L1173.33 727.34ZM1191.87 710.528L1198.94 721.413L1205.65 717.056L1198.58 706.17L1191.87 710.528ZM1200.12 715.88L1160.91 741.342L1165.27 748.051L1204.47 722.59L1200.12 715.88ZM1166.44 742.518L1124.92 678.586L1118.21 682.944L1159.73 746.875L1166.44 742.518ZM1123.75 684.12L1162.96 658.658L1158.6 651.948L1119.39 677.41L1123.75 684.12ZM1251.6 673.705L1247.61 673.986L1247.61 674.013L1247.62 674.041L1251.6 673.705ZM1248.48 687.275L1251.97 689.234L1251.97 689.234L1248.48 687.275ZM1214.09 705.015L1213.32 708.939L1214.09 705.015ZM1169.21 649.829L1167.03 646.475L1163.67 648.653L1165.85 652.008L1169.21 649.829ZM1184.34 640.004L1187.69 637.825L1185.51 634.471L1182.16 636.649L1184.34 640.004ZM1219.95 689.799L1218.59 693.562L1218.66 693.585L1218.72 693.606L1219.95 689.799ZM1234.9 680.094L1230.91 679.729L1230.91 679.737L1230.91 679.745L1234.9 680.094ZM1203.99 627.243L1201.81 623.888L1198.45 626.067L1200.63 629.422L1203.99 627.243ZM1219.12 617.418L1222.47 615.239L1220.29 611.885L1216.94 614.063L1219.12 617.418ZM1243.5 662.31C1246.01 666.172 1247.33 670.051 1247.61 673.986L1255.59 673.423C1255.21 667.994 1253.37 662.824 1250.21 657.953L1243.5 662.31ZM1247.62 674.041C1247.94 677.818 1247.11 681.548 1244.99 685.316L1251.97 689.234C1254.8 684.193 1256.05 678.876 1255.59 673.369L1247.62 674.041ZM1244.99 685.316C1242.91 689.021 1239.49 692.542 1234.47 695.799L1238.83 702.508C1244.64 698.736 1249.1 694.337 1251.97 689.234L1244.99 685.316ZM1234.47 695.799C1226.9 700.719 1220.44 702.188 1214.87 701.09L1213.32 708.939C1221.59 710.57 1230.17 708.132 1238.83 702.508L1234.47 695.799ZM1214.87 701.09C1209.19 699.971 1204.33 696.579 1200.3 690.364L1193.59 694.721C1198.58 702.406 1205.15 707.328 1213.32 708.939L1214.87 701.09ZM1200.3 690.364L1172.56 647.651L1165.85 652.008L1193.59 694.721L1200.3 690.364ZM1171.38 653.184L1186.51 643.359L1182.16 636.649L1167.03 646.475L1171.38 653.184ZM1180.98 642.183L1208.3 684.25L1215.01 679.893L1187.69 637.825L1180.98 642.183ZM1208.3 684.25C1211.18 688.685 1214.55 692.101 1218.59 693.562L1221.31 686.037C1219.64 685.435 1217.48 683.7 1215.01 679.893L1208.3 684.25ZM1218.72 693.606C1223.1 695.02 1227.49 693.872 1231.52 691.253L1227.16 684.544C1224.43 686.319 1222.56 686.438 1221.18 685.993L1218.72 693.606ZM1231.52 691.253C1235.58 688.616 1238.48 685.057 1238.88 680.442L1230.91 679.745C1230.8 681.064 1229.99 682.708 1227.16 684.544L1231.52 691.253ZM1238.88 680.459C1239.28 676.102 1237.55 671.588 1234.66 667.132L1227.95 671.489C1230.41 675.275 1231.08 677.95 1230.91 679.729L1238.88 680.459ZM1234.66 667.132L1207.34 625.065L1200.63 629.422L1227.95 671.489L1234.66 667.132ZM1206.16 630.598L1221.29 620.772L1216.94 614.063L1201.81 623.888L1206.16 630.598ZM1215.76 619.596L1243.5 662.31L1250.21 657.953L1222.47 615.239L1215.76 619.596ZM1243.04 601.879L1246.49 599.856L1244.38 596.244L1240.86 598.524L1243.04 601.879ZM1267.44 643.484L1269.62 646.839L1272.82 644.758L1270.89 641.461L1267.44 643.484ZM1255.63 651.153L1252.38 653.482L1254.6 656.589L1257.81 654.508L1255.63 651.153ZM1227.54 611.944L1225.37 608.589L1221.85 610.87L1224.29 614.273L1227.54 611.944ZM1274.51 654.37L1273.6 658.267L1273.68 658.284L1273.75 658.298L1274.51 654.37ZM1282.18 666.179L1286.09 667.01L1286.09 667.01L1282.18 666.179ZM1270.37 673.847L1269.46 677.744L1269.54 677.761L1269.61 677.775L1270.37 673.847ZM1262.7 662.039L1258.79 661.207L1258.79 661.207L1262.7 662.039ZM1239.59 603.902L1263.99 645.508L1270.89 641.461L1246.49 599.856L1239.59 603.902ZM1265.26 640.13L1253.45 647.798L1257.81 654.508L1269.62 646.839L1265.26 640.13ZM1258.88 648.824L1230.8 609.615L1224.29 614.273L1252.38 653.482L1258.88 648.824ZM1229.72 615.299L1245.22 605.234L1240.86 598.524L1225.37 608.589L1229.72 615.299ZM1269.16 659.068C1270.6 658.133 1272 657.894 1273.6 658.267L1275.41 650.474C1271.66 649.602 1268.04 650.258 1264.81 652.359L1269.16 659.068ZM1273.75 658.298C1275.4 658.616 1276.54 659.393 1277.42 660.743L1284.13 656.386C1282.05 653.186 1279.02 651.166 1275.27 650.443L1273.75 658.298ZM1277.42 660.743C1278.36 662.186 1278.63 663.64 1278.26 665.347L1286.09 667.01C1286.89 663.239 1286.23 659.618 1284.13 656.386L1277.42 660.743ZM1278.26 665.347C1277.93 666.909 1277.13 668.095 1275.65 669.057L1280.01 675.766C1283.2 673.692 1285.3 670.724 1286.09 667.01L1278.26 665.347ZM1275.65 669.057C1274.26 669.963 1272.82 670.247 1271.13 669.92L1269.61 677.775C1273.31 678.489 1276.85 677.816 1280.01 675.766L1275.65 669.057ZM1271.27 669.951C1269.62 669.567 1268.39 668.713 1267.43 667.23L1260.72 671.587C1262.79 674.779 1265.76 676.884 1269.46 677.744L1271.27 669.951ZM1267.43 667.23C1266.53 665.838 1266.27 664.463 1266.61 662.87L1258.79 661.207C1258 664.89 1258.67 668.428 1260.72 671.587L1267.43 667.23ZM1266.61 662.87C1266.98 661.132 1267.81 659.948 1269.16 659.068L1264.81 652.359C1261.61 654.435 1259.58 657.468 1258.79 661.207L1266.61 662.87Z" fill="#77F721" mask="url(#path-55-outside-6_5227_573)"/>
</g>
<defs>
<clipPath id="clip0_5227_573">
<rect width="1280" height="792" fill="white"/>
</clipPath>
</defs>
</svg>
