<svg width="332" height="320" viewBox="0 0 332 320" fill="none" xmlns="http://www.w3.org/2000/svg">
<path fill-rule="evenodd" clip-rule="evenodd" d="M166.345 318C188.864 318 210.231 312.84 229.427 303.589C232.457 307.643 237.129 310.241 242.369 310.241C251.504 310.241 258.91 302.346 258.91 292.607C258.91 290.21 258.461 287.925 257.649 285.842C289.768 260.279 311.803 221.556 316.418 177.354C324.141 175.867 330 168.664 330 160.001C330 151.339 324.141 144.135 316.418 142.648C311.755 97.9752 289.298 58.8989 256.621 33.3475C258.075 30.6703 258.91 27.5478 258.91 24.2133C258.91 14.2795 251.504 6.22656 242.369 6.22656C236.085 6.22656 230.62 10.0371 227.82 15.6491C209.042 6.87685 188.238 2 166.345 2C145.098 2 124.876 6.59327 106.536 14.8827C103.573 9.69299 98.2127 6.22656 92.0917 6.22656C82.7622 6.22656 75.1992 14.2795 75.1992 24.2133C75.1992 27.2168 75.8906 30.0484 77.1131 32.5374C43.8882 58.0554 21.0076 97.4588 16.2786 142.577C8.19032 143.889 2 151.19 2 160.001C2 168.812 8.19045 176.114 16.2788 177.426C20.9632 222.111 43.4522 261.19 76.1615 286.726C75.5383 288.565 75.1992 290.545 75.1992 292.607C75.1992 302.346 82.7622 310.241 92.0917 310.241C97.1273 310.241 101.648 307.941 104.743 304.292C123.554 313.101 144.403 318 166.345 318Z" fill="#77F721"/>
<path d="M229.427 303.589L231.029 302.391L230.043 301.072L228.559 301.787L229.427 303.589ZM257.649 285.842L256.404 284.277L255.25 285.195L255.786 286.568L257.649 285.842ZM316.418 177.354L316.04 175.39L314.583 175.671L314.429 177.146L316.418 177.354ZM316.418 142.648L314.429 142.856L314.583 144.332L316.04 144.612L316.418 142.648ZM256.621 33.3475L254.864 32.3929L254.056 33.8803L255.389 34.923L256.621 33.3475ZM227.82 15.6491L226.974 17.4612L228.74 18.2862L229.61 16.5419L227.82 15.6491ZM106.536 14.8827L104.8 15.8744L105.702 17.4548L107.36 16.7052L106.536 14.8827ZM77.1131 32.5374L78.3314 34.1235L79.6304 33.1258L78.9083 31.6557L77.1131 32.5374ZM16.2786 142.577L16.5987 144.551L18.1083 144.306L18.2677 142.786L16.2786 142.577ZM16.2788 177.426L18.2679 177.217L18.1085 175.696L16.5989 175.451L16.2788 177.426ZM76.1615 286.726L78.0557 287.367L78.5112 286.023L77.3922 285.149L76.1615 286.726ZM104.743 304.292L105.591 302.481L104.207 301.833L103.218 302.998L104.743 304.292ZM228.559 301.787C209.626 310.912 188.554 316 166.345 316V320C189.173 320 210.837 314.769 230.295 305.39L228.559 301.787ZM242.369 308.241C237.815 308.241 233.717 305.987 231.029 302.391L227.825 304.786C231.198 309.299 236.442 312.241 242.369 312.241V308.241ZM256.91 292.607C256.91 301.364 250.281 308.241 242.369 308.241V312.241C252.728 312.241 260.91 303.328 260.91 292.607H256.91ZM255.786 286.568C256.508 288.422 256.91 290.461 256.91 292.607H260.91C260.91 289.959 260.414 287.428 259.512 285.115L255.786 286.568ZM314.429 177.146C309.87 220.813 288.104 259.047 256.404 284.277L258.894 287.407C291.432 261.511 313.737 222.3 318.407 177.562L314.429 177.146ZM328 160.001C328 167.777 322.752 174.098 316.04 175.39L316.796 179.318C325.53 177.637 332 169.55 332 160.001H328ZM316.04 144.612C322.752 145.905 328 152.225 328 160.001H332C332 150.453 325.53 142.366 316.796 140.685L316.04 144.612ZM255.389 34.923C287.64 60.1411 309.823 98.7244 314.429 142.856L318.407 142.441C313.688 97.226 290.956 57.6566 257.853 31.772L255.389 34.923ZM256.91 24.2133C256.91 27.2124 256.16 30.007 254.864 32.3929L258.379 34.3021C259.991 31.3336 260.91 27.8831 260.91 24.2133H256.91ZM242.369 8.22656C250.245 8.22656 256.91 15.223 256.91 24.2133H260.91C260.91 13.3361 252.763 4.22656 242.369 4.22656V8.22656ZM229.61 16.5419C232.114 11.5217 236.936 8.22656 242.369 8.22656V4.22656C235.235 4.22656 229.126 8.55251 226.031 14.7564L229.61 16.5419ZM166.345 4C187.937 4 208.453 8.80925 226.974 17.4612L228.667 13.8371C209.631 4.94445 188.538 0 166.345 0V4ZM107.36 16.7052C125.448 8.52966 145.389 4 166.345 4V0C144.806 0 124.304 4.65688 105.713 13.0603L107.36 16.7052ZM92.0917 8.22656C97.4244 8.22656 102.156 11.2446 104.8 15.8744L108.273 13.8911C104.99 8.14135 99.0009 4.22656 92.0917 4.22656V8.22656ZM77.1992 24.2133C77.1992 15.264 83.9832 8.22656 92.0917 8.22656V4.22656C81.5413 4.22656 73.1992 13.2951 73.1992 24.2133H77.1992ZM78.9083 31.6557C77.8191 29.4382 77.1992 26.908 77.1992 24.2133H73.1992C73.1992 27.5257 73.9621 30.6585 75.318 33.4191L78.9083 31.6557ZM18.2677 142.786C22.9394 98.2141 45.5403 59.3083 78.3314 34.1235L75.8949 30.9512C42.236 56.8025 19.0758 96.7034 14.2895 142.369L18.2677 142.786ZM4 160.001C4 152.124 9.52521 145.698 16.5987 144.551L15.9584 140.603C6.85542 142.079 0 150.257 0 160.001H4ZM16.5989 175.451C9.52534 174.304 4 167.879 4 160.001H0C0 169.746 6.85557 177.924 15.9587 179.4L16.5989 175.451ZM77.3922 285.149C45.1096 259.946 22.8955 221.36 18.2679 177.217L14.2897 177.634C19.0309 222.861 41.7948 262.433 74.9307 288.302L77.3922 285.149ZM77.1992 292.607C77.1992 290.765 77.5019 289.002 78.0557 287.367L74.2672 286.084C73.5747 288.128 73.1992 290.324 73.1992 292.607H77.1992ZM92.0917 308.241C83.9469 308.241 77.1992 301.323 77.1992 292.607H73.1992C73.1992 303.369 81.5776 312.241 92.0917 312.241V308.241ZM103.218 302.998C100.476 306.231 96.4989 308.241 92.0917 308.241V312.241C97.7557 312.241 102.821 309.65 106.268 305.586L103.218 302.998ZM166.345 316C144.704 316 124.144 311.169 105.591 302.481L103.895 306.103C122.964 315.033 144.102 320 166.345 320V316Z" fill="#77F721"/>
<ellipse cx="166.348" cy="160" rx="150.973" ry="158" fill="#F4F4F4" stroke="#77F721" stroke-width="4"/>
<ellipse cx="166.445" cy="160" rx="103.465" ry="104" fill="#F4F4F4" stroke="#77F721" stroke-width="4"/>
</svg>
