<svg width="238" height="320" viewBox="0 0 238 320" fill="none" xmlns="http://www.w3.org/2000/svg">
<path fill-rule="evenodd" clip-rule="evenodd" d="M72.3446 318C94.8638 318 116.231 312.84 135.427 303.589C138.457 307.643 143.129 310.241 148.369 310.241C157.504 310.241 164.91 302.346 164.91 292.607C164.91 290.21 164.461 287.925 163.649 285.842C195.768 260.279 217.803 221.556 222.418 177.354C230.141 175.867 236 168.664 236 160.001C236 151.339 230.141 144.135 222.418 142.648C217.755 97.9752 195.298 58.8989 162.621 33.3475C164.075 30.6703 164.91 27.5478 164.91 24.2133C164.91 14.2795 157.504 6.22656 148.369 6.22656C142.085 6.22656 136.62 10.0371 133.82 15.6491C115.042 6.87685 94.2375 2 72.3446 2C51.0977 2 30.8759 6.59327 12.5364 14.8827C9.57324 9.69299 4.21265 6.22656 -1.90831 6.22656C-11.2378 6.22656 -18.8008 14.2795 -18.8008 24.2133C-18.8008 27.2168 -18.1094 30.0484 -16.8869 32.5374C-50.1118 58.0554 -72.9924 97.4588 -77.7214 142.577C-85.8097 143.889 -92 151.19 -92 160.001C-92 168.812 -85.8095 176.114 -77.7212 177.426C-73.0368 222.111 -50.5478 261.19 -17.8385 286.726C-18.4617 288.565 -18.8008 290.545 -18.8008 292.607C-18.8008 302.346 -11.2378 310.241 -1.90831 310.241C3.12728 310.241 7.64825 307.941 10.7431 304.292C29.5543 313.101 50.4028 318 72.3446 318Z" fill="#77F721"/>
<path d="M135.427 303.589L137.029 302.391L136.043 301.072L134.559 301.787L135.427 303.589ZM163.649 285.842L162.404 284.277L161.25 285.195L161.786 286.568L163.649 285.842ZM222.418 177.354L222.04 175.39L220.583 175.671L220.429 177.146L222.418 177.354ZM222.418 142.648L220.429 142.856L220.583 144.332L222.04 144.612L222.418 142.648ZM162.621 33.3475L160.864 32.3929L160.056 33.8803L161.389 34.923L162.621 33.3475ZM133.82 15.6491L132.974 17.4612L134.74 18.2862L135.61 16.5419L133.82 15.6491ZM12.5364 14.8827L10.7996 15.8744L11.7019 17.4548L13.3602 16.7052L12.5364 14.8827ZM-16.8869 32.5374L-15.6686 34.1235L-14.3696 33.1258L-15.0917 31.6557L-16.8869 32.5374ZM-77.7214 142.577L-77.4013 144.551L-75.8917 144.306L-75.7323 142.786L-77.7214 142.577ZM-77.7212 177.426L-75.7321 177.217L-75.8915 175.696L-77.4011 175.451L-77.7212 177.426ZM-17.8385 286.726L-15.9443 287.367L-15.4888 286.023L-16.6078 285.149L-17.8385 286.726ZM10.7431 304.292L11.5913 302.481L10.2068 301.833L9.21789 302.998L10.7431 304.292ZM134.559 301.787C115.626 310.912 94.5545 316 72.3446 316V320C95.1731 320 116.837 314.769 136.295 305.39L134.559 301.787ZM148.369 308.241C143.815 308.241 139.717 305.987 137.029 302.391L133.825 304.786C137.198 309.299 142.442 312.241 148.369 312.241V308.241ZM162.91 292.607C162.91 301.364 156.281 308.241 148.369 308.241V312.241C158.728 312.241 166.91 303.328 166.91 292.607H162.91ZM161.786 286.568C162.508 288.422 162.91 290.461 162.91 292.607H166.91C166.91 289.959 166.414 287.428 165.512 285.115L161.786 286.568ZM220.429 177.146C215.87 220.813 194.104 259.047 162.404 284.277L164.894 287.407C197.432 261.511 219.737 222.3 224.407 177.562L220.429 177.146ZM234 160.001C234 167.777 228.752 174.098 222.04 175.39L222.796 179.318C231.53 177.637 238 169.55 238 160.001H234ZM222.04 144.612C228.752 145.905 234 152.225 234 160.001H238C238 150.453 231.53 142.366 222.796 140.685L222.04 144.612ZM161.389 34.923C193.64 60.1411 215.823 98.7244 220.429 142.856L224.407 142.441C219.688 97.226 196.956 57.6566 163.853 31.772L161.389 34.923ZM162.91 24.2133C162.91 27.2124 162.16 30.007 160.864 32.3929L164.379 34.3021C165.991 31.3336 166.91 27.8831 166.91 24.2133H162.91ZM148.369 8.22656C156.245 8.22656 162.91 15.223 162.91 24.2133H166.91C166.91 13.3361 158.763 4.22656 148.369 4.22656V8.22656ZM135.61 16.5419C138.114 11.5217 142.936 8.22656 148.369 8.22656V4.22656C141.235 4.22656 135.126 8.55251 132.031 14.7564L135.61 16.5419ZM72.3446 4C93.937 4 114.453 8.80925 132.974 17.4612L134.667 13.8371C115.631 4.94445 94.538 0 72.3446 0V4ZM13.3602 16.7052C31.4476 8.52966 51.3892 4 72.3446 4V0C50.8062 0 30.3042 4.65688 11.7127 13.0603L13.3602 16.7052ZM-1.90831 8.22656C3.42441 8.22656 8.15613 11.2446 10.7996 15.8744L14.2732 13.8911C10.9904 8.14135 5.0009 4.22656 -1.90831 4.22656V8.22656ZM-16.8008 24.2133C-16.8008 15.264 -10.0168 8.22656 -1.90831 8.22656V4.22656C-12.4587 4.22656 -20.8008 13.2951 -20.8008 24.2133H-16.8008ZM-15.0917 31.6557C-16.1809 29.4382 -16.8008 26.908 -16.8008 24.2133H-20.8008C-20.8008 27.5257 -20.0379 30.6585 -18.682 33.4191L-15.0917 31.6557ZM-75.7323 142.786C-71.0606 98.2141 -48.4597 59.3083 -15.6686 34.1235L-18.1051 30.9512C-51.764 56.8025 -74.9242 96.7034 -79.7105 142.369L-75.7323 142.786ZM-90 160.001C-90 152.124 -84.4748 145.698 -77.4013 144.551L-78.0416 140.603C-87.1446 142.079 -94 150.257 -94 160.001H-90ZM-77.4011 175.451C-84.4747 174.304 -90 167.879 -90 160.001H-94C-94 169.746 -87.1444 177.924 -78.0413 179.4L-77.4011 175.451ZM-16.6078 285.149C-48.8904 259.946 -71.1045 221.36 -75.7321 177.217L-79.7103 177.634C-74.9691 222.861 -52.2052 262.433 -19.0693 288.302L-16.6078 285.149ZM-16.8008 292.607C-16.8008 290.765 -16.4981 289.002 -15.9443 287.367L-19.7328 286.084C-20.4253 288.128 -20.8008 290.324 -20.8008 292.607H-16.8008ZM-1.90831 308.241C-10.0531 308.241 -16.8008 301.323 -16.8008 292.607H-20.8008C-20.8008 303.369 -12.4224 312.241 -1.90831 312.241V308.241ZM9.21789 302.998C6.47576 306.231 2.49891 308.241 -1.90831 308.241V312.241C3.75565 312.241 8.82075 309.65 12.2683 305.586L9.21789 302.998ZM72.3446 316C50.704 316 30.1444 311.169 11.5913 302.481L9.89491 306.103C28.9642 315.033 50.1016 320 72.3446 320V316Z" fill="#77F721"/>
<ellipse cx="72.3485" cy="160" rx="150.973" ry="158" fill="#F4F4F4" stroke="#77F721" stroke-width="4"/>
<ellipse cx="72.4452" cy="160" rx="103.465" ry="104" fill="#F4F4F4" stroke="#77F721" stroke-width="4"/>
</svg>
