<svg width="242" height="233" viewBox="0 0 242 233" fill="none" xmlns="http://www.w3.org/2000/svg">
<path fill-rule="evenodd" clip-rule="evenodd" d="M121.247 231C137.587 231 153.092 227.261 167.02 220.556C169.219 223.495 172.609 225.379 176.412 225.379C183.041 225.379 188.414 219.657 188.414 212.599C188.414 210.862 188.088 209.205 187.499 207.695C210.804 189.171 226.793 161.11 230.141 129.078C235.747 128.002 240 122.781 240 116.502C240 110.223 235.747 105.002 230.142 103.926C226.758 71.552 210.463 43.2341 186.753 24.7174C187.809 22.7771 188.414 20.514 188.414 18.0972C188.414 10.8983 183.041 5.0625 176.412 5.0625C171.852 5.0625 167.886 7.82424 165.855 11.8916C152.229 5.53428 137.133 2 121.247 2C105.831 2 91.1584 5.32832 77.8517 11.335C75.7015 7.57432 71.812 5.0625 67.3708 5.0625C60.6012 5.0625 55.1134 10.8983 55.1134 18.0972C55.1134 20.2734 55.6149 22.325 56.5017 24.1285C32.392 42.6212 15.7887 71.1773 12.3575 103.875C6.49014 104.827 2 110.118 2 116.502C2 122.886 6.49034 128.177 12.3579 129.128C15.7571 161.512 32.0763 189.833 55.8115 208.338C55.3594 209.671 55.1134 211.105 55.1134 212.599C55.1134 219.657 60.6012 225.379 67.3708 225.379C71.0248 225.379 74.3053 223.712 76.551 221.067C90.1999 227.451 105.327 231 121.247 231Z" fill="#77F721"/>
<path d="M167.02 220.556L168.621 219.358L167.635 218.04L166.152 218.754L167.02 220.556ZM187.499 207.695L186.254 206.13L185.099 207.048L185.636 208.423L187.499 207.695ZM230.141 129.078L229.764 127.114L228.306 127.393L228.152 128.87L230.141 129.078ZM230.142 103.926L228.152 104.134L228.307 105.61L229.765 105.89L230.142 103.926ZM186.753 24.7174L184.996 23.7618L184.186 25.2506L185.522 26.2937L186.753 24.7174ZM165.855 11.8916L165.009 13.704L166.774 14.5274L167.644 12.7852L165.855 11.8916ZM77.8517 11.335L76.1154 12.3277L77.0177 13.9057L78.6745 13.1578L77.8517 11.335ZM56.5017 24.1285L57.7189 25.7154L59.02 24.7175L58.2965 23.246L56.5017 24.1285ZM12.3575 103.875L12.6778 105.849L14.187 105.605L14.3466 104.084L12.3575 103.875ZM12.3579 129.128L14.347 128.92L14.1873 127.399L12.6781 127.154L12.3579 129.128ZM55.8115 208.338L57.7056 208.98L58.1621 207.634L57.0413 206.761L55.8115 208.338ZM76.551 221.067L77.3982 219.256L76.015 218.609L75.0265 219.773L76.551 221.067ZM166.152 218.754C152.487 225.332 137.278 229 121.247 229V233C137.896 233 153.696 229.189 167.887 222.358L166.152 218.754ZM176.412 223.379C173.295 223.379 170.477 221.838 168.621 219.358L165.419 221.754C167.961 225.152 171.923 227.379 176.412 227.379V223.379ZM186.414 212.599C186.414 218.673 181.82 223.379 176.412 223.379V227.379C184.262 227.379 190.414 220.642 190.414 212.599H186.414ZM185.636 208.423C186.136 209.703 186.414 211.113 186.414 212.599H190.414C190.414 210.611 190.041 208.708 189.361 206.968L185.636 208.423ZM228.152 128.87C224.86 160.365 209.141 187.938 186.254 206.13L188.743 209.261C212.467 190.404 228.726 161.854 232.13 129.286L228.152 128.87ZM238 116.502C238 121.892 234.36 126.231 229.764 127.114L230.518 131.042C237.134 129.772 242 123.669 242 116.502H238ZM229.765 105.89C234.361 106.772 238 111.112 238 116.502H242C242 109.335 237.134 103.232 230.519 101.962L229.765 105.89ZM185.522 26.2937C208.806 44.4775 224.826 72.3023 228.152 104.134L232.131 103.718C228.691 70.8018 212.121 41.9908 187.984 23.1412L185.522 26.2937ZM186.414 18.0972C186.414 20.1781 185.893 22.113 184.996 23.7618L188.51 25.6731C189.724 23.4413 190.414 20.8498 190.414 18.0972H186.414ZM176.412 7.0625C181.784 7.0625 186.414 11.8443 186.414 18.0972H190.414C190.414 9.9524 184.297 3.0625 176.412 3.0625V7.0625ZM167.644 12.7852C169.38 9.31018 172.701 7.0625 176.412 7.0625V3.0625C171.003 3.0625 166.393 6.33831 164.066 10.998L167.644 12.7852ZM121.247 4C136.833 4 151.641 7.46686 165.009 13.704L166.701 10.0792C152.817 3.6017 137.433 0 121.247 0V4ZM78.6745 13.1578C91.7294 7.26488 106.122 4 121.247 4V0C105.54 0 90.5874 3.39175 77.0288 9.51207L78.6745 13.1578ZM67.3708 7.0625C71.025 7.0625 74.2856 9.12726 76.1154 12.3277L79.5879 10.3422C77.1174 6.02139 72.5989 3.0625 67.3708 3.0625V7.0625ZM57.1134 18.0972C57.1134 11.8853 61.8199 7.0625 67.3708 7.0625V3.0625C59.3826 3.0625 53.1134 9.91141 53.1134 18.0972H57.1134ZM58.2965 23.246C57.5433 21.7142 57.1134 19.9642 57.1134 18.0972H53.1134C53.1134 20.5826 53.6865 22.9358 54.7069 25.011L58.2965 23.246ZM14.3466 104.084C17.7203 71.9338 34.0432 43.8752 57.7189 25.7154L55.2845 22.5415C30.7408 41.3671 13.8571 70.4209 10.3684 103.667L14.3466 104.084ZM4 116.502C4 111.053 7.82328 106.637 12.6778 105.849L12.0372 101.901C5.157 103.017 0 109.183 0 116.502H4ZM12.6781 127.154C7.82345 126.367 4 121.951 4 116.502H0C0 123.821 5.15723 129.987 12.0377 131.103L12.6781 127.154ZM57.0413 206.761C33.7328 188.588 17.6892 160.761 14.347 128.92L10.3688 129.337C13.825 162.263 30.4198 191.077 54.5818 209.915L57.0413 206.761ZM57.1134 212.599C57.1134 211.326 57.323 210.108 57.7056 208.98L53.9175 207.695C53.3959 209.233 53.1134 210.885 53.1134 212.599H57.1134ZM67.3708 223.379C61.7836 223.379 57.1134 218.632 57.1134 212.599H53.1134C53.1134 220.682 59.4189 227.379 67.3708 227.379V223.379ZM75.0265 219.773C73.1339 222.001 70.3973 223.379 67.3708 223.379V227.379C71.6522 227.379 75.4767 225.422 78.0754 222.362L75.0265 219.773ZM121.247 229C105.628 229 90.7892 225.518 77.3982 219.256L75.7037 222.879C89.6105 229.383 105.026 233 121.247 233V229Z" fill="#77F721"/>
<ellipse cx="121.251" cy="116.5" rx="109.548" ry="114.5" fill="#F4F4F4" stroke="#77F721" stroke-width="4"/>
<circle cx="121.5" cy="116.348" r="75.5" fill="#F4F4F4" stroke="#77F721" stroke-width="4"/>
</svg>
