<svg width="298" height="287" viewBox="0 0 298 287" fill="none" xmlns="http://www.w3.org/2000/svg">
<path fill-rule="evenodd" clip-rule="evenodd" d="M149.311 285C169.496 285 188.648 280.379 205.854 272.095C208.57 275.726 212.757 278.053 217.455 278.053C225.642 278.053 232.28 270.982 232.28 262.261C232.28 260.114 231.878 258.068 231.15 256.203C259.942 233.309 279.695 198.63 283.831 159.042C290.751 157.708 295.999 151.258 295.999 143.503C295.999 135.748 290.751 129.299 283.832 127.964C279.653 87.9541 259.522 52.9567 230.231 30.073C231.533 27.6764 232.28 24.8814 232.28 21.8969C232.28 13.0008 225.642 5.78906 217.455 5.78906C211.824 5.78906 206.926 9.19989 204.416 14.2237C187.584 6.36755 168.935 2 149.311 2C130.266 2 112.139 6.11386 95.7 13.5381C93.0437 8.89209 88.2398 5.78906 82.7546 5.78906C74.3924 5.78906 67.6135 13.0008 67.6135 21.8969C67.6135 24.5854 68.2327 27.1201 69.3276 29.3484C39.5454 52.202 19.0359 87.4914 14.7976 127.899C7.54821 129.074 2 135.613 2 143.503C2 151.393 7.54853 157.932 14.7982 159.107C18.9974 199.126 39.1563 234.124 68.4763 256.993C67.9176 258.641 67.6135 260.414 67.6135 262.261C67.6135 270.982 74.3924 278.053 82.7546 278.053C87.2686 278.053 91.3213 275.992 94.0953 272.724C110.957 280.613 129.644 285 149.311 285Z" fill="#77F721"/>
<path d="M205.854 272.095L207.455 270.897L206.469 269.579L204.986 270.293L205.854 272.095ZM231.15 256.203L229.905 254.637L228.75 255.555L229.287 256.93L231.15 256.203ZM283.831 159.042L283.453 157.078L281.996 157.359L281.842 158.834L283.831 159.042ZM283.832 127.964L281.843 128.172L281.997 129.647L283.453 129.928L283.832 127.964ZM230.231 30.073L228.474 29.1183L227.665 30.6064L229 31.6491L230.231 30.073ZM204.416 14.2237L203.57 16.036L205.335 16.8597L206.205 15.1175L204.416 14.2237ZM95.7 13.5381L93.9637 14.5308L94.8662 16.1092L96.5232 15.3608L95.7 13.5381ZM69.3276 29.3484L70.5451 30.9351L71.8453 29.9374L71.1226 28.4664L69.3276 29.3484ZM14.7976 127.899L15.1175 129.873L16.6271 129.629L16.7867 128.108L14.7976 127.899ZM14.7982 159.107L16.7873 158.898L16.6277 157.377L15.1181 157.133L14.7982 159.107ZM68.4763 256.993L70.3704 257.635L70.8267 256.29L69.7064 255.416L68.4763 256.993ZM94.0953 272.724L94.9428 270.913L93.5591 270.265L92.5705 271.43L94.0953 272.724ZM204.986 270.293C188.043 278.451 169.187 283 149.311 283V287C169.805 287 189.253 282.308 206.721 273.897L204.986 270.293ZM217.455 276.053C213.443 276.053 209.828 274.069 207.455 270.897L204.252 273.293C207.311 277.382 212.071 280.053 217.455 280.053V276.053ZM230.28 262.261C230.28 269.999 224.421 276.053 217.455 276.053V280.053C226.864 280.053 234.28 271.966 234.28 262.261H230.28ZM229.287 256.93C229.925 258.565 230.28 260.365 230.28 262.261H234.28C234.28 259.863 233.831 257.571 233.013 255.475L229.287 256.93ZM281.842 158.834C277.762 197.885 258.279 232.077 229.905 254.637L232.395 257.768C261.605 234.542 281.628 199.374 285.82 159.25L281.842 158.834ZM293.999 143.503C293.999 150.371 289.363 155.938 283.453 157.078L284.21 161.006C292.139 159.477 297.999 152.146 297.999 143.503H293.999ZM283.453 129.928C289.363 131.068 293.999 136.635 293.999 143.503H297.999C297.999 134.86 292.139 127.529 284.211 126L283.453 129.928ZM229 31.6491C257.865 54.1998 277.721 88.704 281.843 128.172L285.821 127.756C281.586 87.2042 261.18 51.7137 231.462 28.497L229 31.6491ZM230.28 21.8969C230.28 24.5459 229.617 27.0129 228.474 29.1183L231.988 31.0278C233.449 28.3398 234.28 25.2169 234.28 21.8969H230.28ZM217.455 7.78906C224.385 7.78906 230.28 13.9459 230.28 21.8969H234.28C234.28 12.0556 226.9 3.78906 217.455 3.78906V7.78906ZM206.205 15.1175C208.419 10.6857 212.673 7.78906 217.455 7.78906V3.78906C210.974 3.78906 205.432 7.7141 202.627 13.3299L206.205 15.1175ZM149.311 4C168.635 4 186.995 8.30007 203.57 16.036L205.262 12.4114C188.172 4.43502 169.236 0 149.311 0V4ZM96.5232 15.3608C112.711 8.05036 130.557 4 149.311 4V0C129.975 0 111.568 4.17735 94.8768 11.7154L96.5232 15.3608ZM82.7546 7.78906C87.4526 7.78906 91.6276 10.4448 93.9637 14.5308L97.4362 12.5454C94.4598 7.33941 89.027 3.78906 82.7546 3.78906V7.78906ZM69.6135 21.8969C69.6135 13.9869 75.6118 7.78906 82.7546 7.78906V3.78906C73.173 3.78906 65.6135 12.0146 65.6135 21.8969H69.6135ZM71.1226 28.4664C70.1611 26.5097 69.6135 24.2764 69.6135 21.8969H65.6135C65.6135 24.8944 66.3042 27.7305 67.5325 30.2304L71.1226 28.4664ZM16.7867 128.108C20.9676 88.2475 41.1969 53.4557 70.5451 30.9351L68.11 27.7617C37.8939 50.9483 17.1043 86.7353 12.8085 127.69L16.7867 128.108ZM4 143.503C4 136.547 8.88178 130.884 15.1175 129.873L14.4777 125.925C6.21464 127.264 0 134.678 0 143.503H4ZM15.1181 157.133C8.88205 156.122 4 150.459 4 143.503H0C0 152.328 6.215 159.742 14.4784 161.081L15.1181 157.133ZM69.7064 255.416C40.8131 232.88 20.9296 198.375 16.7873 158.898L12.8091 159.316C17.0652 199.877 37.4996 235.368 67.2463 258.57L69.7064 255.416ZM69.6135 262.261C69.6135 260.634 69.8811 259.078 70.3704 257.635L66.5823 256.351C65.954 258.203 65.6135 260.193 65.6135 262.261H69.6135ZM82.7546 276.053C75.5755 276.053 69.6135 269.958 69.6135 262.261H65.6135C65.6135 272.007 73.2093 280.053 82.7546 280.053V276.053ZM92.5705 271.43C90.1494 274.282 86.6408 276.053 82.7546 276.053V280.053C87.8964 280.053 92.4931 277.702 95.6201 274.018L92.5705 271.43ZM149.311 283C129.945 283 111.546 278.681 94.9428 270.913L93.2477 274.536C110.367 282.545 129.343 287 149.311 287V283Z" fill="#77F721"/>
<ellipse cx="149.311" cy="143.5" rx="135.327" ry="141.5" fill="#F4F4F4" stroke="#77F721" stroke-width="4"/>
<circle cx="149.5" cy="141.5" r="93.5" fill="#F4F4F4" stroke="#77F721" stroke-width="4"/>
</svg>
