<svg width="470" height="452" viewBox="0 0 470 452" fill="none" xmlns="http://www.w3.org/2000/svg">
<path fill-rule="evenodd" clip-rule="evenodd" d="M235.5 450C267.491 450 297.846 442.687 325.116 429.574C329.421 435.318 336.057 439 343.5 439C356.479 439 367 427.807 367 414C367 410.605 366.364 407.369 365.212 404.418C410.853 368.176 442.166 313.272 448.721 250.598C459.686 248.482 468 238.274 468 226C468 213.726 459.686 203.518 448.721 201.402C442.097 138.064 410.187 82.6611 363.756 46.4362C365.817 42.6437 367 38.2217 367 33.5C367 19.4167 356.479 8 343.5 8C334.577 8 326.815 13.397 322.835 21.3469C296.158 8.91261 266.602 2 235.5 2C205.31 2 176.578 8.51303 150.52 20.267C146.309 12.9122 138.694 8 130 8C116.745 8 106 19.4167 106 33.5C106 37.7564 106.982 41.7693 108.717 45.297C61.5149 81.4742 29.0087 137.335 22.2895 201.297C10.7966 203.155 2 213.507 2 226C2 238.493 10.7966 248.845 22.2895 250.703C28.9445 314.054 60.8958 369.457 107.368 405.66C106.482 408.269 106 411.076 106 414C106 427.807 116.745 439 130 439C137.155 439 143.579 435.739 147.976 430.565C174.703 443.055 204.325 450 235.5 450Z" fill="#77F721"/>
<path d="M325.116 429.574L326.716 428.374L325.73 427.059L324.249 427.771L325.116 429.574ZM365.212 404.418L363.968 402.852L362.812 403.77L363.349 405.145L365.212 404.418ZM448.721 250.598L448.343 248.634L446.887 248.915L446.732 250.39L448.721 250.598ZM448.721 201.402L446.732 201.61L446.887 203.085L448.343 203.366L448.721 201.402ZM363.756 46.4362L361.999 45.481L361.189 46.9703L362.526 48.013L363.756 46.4362ZM322.835 21.3469L321.991 23.1596L323.753 23.9813L324.624 22.2421L322.835 21.3469ZM150.52 20.267L148.784 21.2606L149.686 22.8369L151.342 22.0901L150.52 20.267ZM108.717 45.297L109.934 46.8844L111.236 45.8863L110.512 44.4141L108.717 45.297ZM22.2895 201.297L22.6087 203.271L24.1188 203.027L24.2786 201.506L22.2895 201.297ZM22.2895 250.703L24.2786 250.494L24.1188 248.973L22.6087 248.729L22.2895 250.703ZM107.368 405.66L109.262 406.303L109.719 404.957L108.597 404.083L107.368 405.66ZM147.976 430.565L148.822 428.753L147.44 428.107L146.452 429.27L147.976 430.565ZM324.249 427.771C297.242 440.758 267.182 448 235.5 448V452C267.799 452 298.45 444.615 325.982 431.376L324.249 427.771ZM343.5 437C336.741 437 330.678 433.661 326.716 428.374L323.515 430.773C328.164 436.976 335.372 441 343.5 441V437ZM365 414C365 426.821 355.259 437 343.5 437V441C357.698 441 369 428.793 369 414H365ZM363.349 405.145C364.411 407.866 365 410.856 365 414H369C369 410.354 368.317 406.871 367.075 403.69L363.349 405.145ZM446.732 250.39C440.233 312.527 409.191 366.942 363.968 402.852L366.456 405.984C412.515 369.41 444.099 314.017 450.711 250.806L446.732 250.39ZM466 226C466 237.385 458.299 246.713 448.343 248.634L449.1 252.562C461.072 250.251 470 239.163 470 226H466ZM448.343 203.366C458.299 205.287 466 214.615 466 226H470C470 212.837 461.072 201.749 449.1 199.438L448.343 203.366ZM362.526 48.013C408.53 83.9053 440.164 138.815 446.732 201.61L450.711 201.194C444.029 137.313 411.843 81.4169 364.986 44.8593L362.526 48.013ZM365 33.5C365 37.886 363.902 41.9799 361.999 45.481L365.513 47.3913C367.733 43.3075 369 38.5575 369 33.5H365ZM343.5 10C355.223 10 365 20.3644 365 33.5H369C369 18.4691 357.734 6 343.5 6V10ZM324.624 22.2421C328.307 14.8844 335.424 10 343.5 10V6C333.729 6 325.323 11.9095 321.047 20.4517L324.624 22.2421ZM235.5 4C266.302 4 295.57 10.8453 321.991 23.1596L323.68 19.5341C296.745 6.97989 266.902 0 235.5 0V4ZM151.342 22.0901C177.148 10.4497 205.601 4 235.5 4V0C205.02 0 176.007 6.57636 149.697 18.4439L151.342 22.0901ZM130 10C137.908 10 144.894 14.4661 148.784 21.2606L152.255 19.2733C147.724 11.3582 139.48 6 130 6V10ZM108 33.5C108 20.4054 117.962 10 130 10V6C115.528 6 104 18.4281 104 33.5H108ZM110.512 44.4141C108.91 41.1581 108 37.447 108 33.5H104C104 38.0659 105.053 42.3805 106.923 46.18L110.512 44.4141ZM24.2786 201.506C30.9402 138.092 63.1655 82.729 109.934 46.8844L107.501 43.7096C59.8642 80.2194 27.0773 136.578 20.3005 201.088L24.2786 201.506ZM4 226C4 214.444 12.128 204.966 22.6087 203.271L21.9704 199.323C9.46514 201.344 0 212.571 0 226H4ZM22.6087 248.729C12.128 247.034 4 237.556 4 226H0C0 239.429 9.46514 250.656 21.9704 252.677L22.6087 248.729ZM108.597 404.083C62.5518 368.212 30.8765 313.302 24.2786 250.494L20.3005 250.912C27.0125 314.806 59.2399 370.703 106.139 407.238L108.597 404.083ZM108 414C108 411.296 108.445 408.707 109.262 406.303L105.474 405.017C104.519 407.831 104 410.855 104 414H108ZM130 437C117.926 437 108 426.78 108 414H104C104 428.834 115.564 441 130 441V437ZM146.452 429.27C142.408 434.028 136.528 437 130 437V441C137.782 441 144.749 437.449 149.5 431.86L146.452 429.27ZM235.5 448C204.625 448 175.292 441.122 148.822 428.753L147.129 432.377C174.114 444.987 204.024 452 235.5 452V448Z" fill="#77F721"/>
<ellipse cx="235.5" cy="226" rx="214.5" ry="224" fill="#F4F4F4" stroke="#77F721" stroke-width="4"/>
<circle cx="236" cy="226" r="148" fill="#F4F4F4" stroke="#77F721" stroke-width="4"/>
</svg>
