<svg width="302" height="291" viewBox="0 0 302 291" fill="none" xmlns="http://www.w3.org/2000/svg">
<path fill-rule="evenodd" clip-rule="evenodd" d="M151.314 289C171.772 289 191.185 284.314 208.625 275.912C211.378 279.594 215.622 281.953 220.383 281.953C228.683 281.953 235.411 274.783 235.411 265.938C235.411 263.761 235.004 261.686 234.266 259.794C263.448 236.577 283.469 201.407 287.661 161.26C294.678 159.91 300.001 153.368 300.001 145.5C300.001 137.633 294.678 131.09 287.661 129.74C283.424 89.1664 263.021 53.6763 233.333 30.4701C234.653 28.039 235.411 25.2036 235.411 22.1759C235.411 13.1538 228.683 5.83984 220.383 5.83984C214.675 5.83984 209.71 9.29995 207.166 14.3961C190.105 6.42914 171.204 2 151.314 2C132.01 2 113.637 6.1719 96.9745 13.7009C94.2823 8.98783 89.4122 5.83984 83.8514 5.83984C75.3752 5.83984 68.5039 13.1538 68.5039 22.1759C68.5039 24.9036 69.132 27.4751 70.2425 29.7356C40.0571 52.9115 19.2697 88.6981 14.973 129.675C7.62431 130.866 2 137.498 2 145.5C2 153.503 7.62432 160.134 14.973 161.325C19.2286 201.91 39.6607 237.403 69.3784 260.596C68.8121 262.266 68.5039 264.064 68.5039 265.938C68.5039 274.783 75.3752 281.953 83.8514 281.953C88.4266 281.953 92.5343 279.864 95.3461 276.55C112.437 284.551 131.379 289 151.314 289Z" fill="#77F721"/>
<path d="M208.625 275.912L210.226 274.714L209.24 273.395L207.757 274.11L208.625 275.912ZM234.266 259.794L233.02 258.229L231.866 259.147L232.402 260.521L234.266 259.794ZM287.661 161.26L287.283 159.297L285.826 159.577L285.672 161.053L287.661 161.26ZM287.661 129.74L285.672 129.948L285.826 131.423L287.283 131.704L287.661 129.74ZM233.333 30.4701L231.575 29.5155L230.767 31.0032L232.101 32.0458L233.333 30.4701ZM207.166 14.3961L206.32 16.2083L208.085 17.0327L208.955 15.2893L207.166 14.3961ZM96.9745 13.7009L95.2379 14.6929L96.1402 16.2726L97.7981 15.5235L96.9745 13.7009ZM70.2425 29.7356L71.4605 31.3219L72.76 30.3241L72.0376 28.8536L70.2425 29.7356ZM14.973 129.675L15.2929 131.649L16.8026 131.404L16.962 129.883L14.973 129.675ZM14.973 161.325L16.9621 161.117L16.8026 159.596L15.293 159.351L14.973 161.325ZM69.3784 260.596L71.2725 261.238L71.7284 259.893L70.6089 259.019L69.3784 260.596ZM95.3461 276.55L96.1941 274.739L94.8099 274.091L93.8211 275.256L95.3461 276.55ZM207.757 274.11C190.58 282.385 171.463 287 151.314 287V291C172.082 291 191.79 286.242 209.493 277.714L207.757 274.11ZM220.383 279.953C216.308 279.953 212.637 277.938 210.226 274.714L207.023 277.11C210.119 281.25 214.936 283.953 220.383 283.953V279.953ZM233.411 265.938C233.411 273.8 227.46 279.953 220.383 279.953V283.953C229.905 283.953 237.411 275.766 237.411 265.938H233.411ZM232.402 260.521C233.051 262.183 233.411 264.012 233.411 265.938H237.411C237.411 263.51 236.956 261.189 236.129 259.067L232.402 260.521ZM285.672 161.053C281.536 200.664 261.784 235.345 233.02 258.229L235.511 261.359C265.111 237.809 285.402 202.151 289.65 161.468L285.672 161.053ZM298.001 145.5C298.001 152.481 293.29 158.141 287.283 159.297L288.039 163.224C296.066 161.68 302.001 154.255 302.001 145.5H298.001ZM287.283 131.704C293.29 132.86 298.001 138.52 298.001 145.5H302.001C302.001 136.746 296.066 129.321 288.039 127.776L287.283 131.704ZM232.101 32.0458C261.363 54.9189 281.492 89.9159 285.672 129.948L289.65 129.532C285.357 88.4169 264.679 52.4338 234.564 28.8944L232.101 32.0458ZM233.411 22.1759C233.411 24.8682 232.737 27.3757 231.575 29.5155L235.09 31.4247C236.569 28.7023 237.411 25.539 237.411 22.1759H233.411ZM220.383 7.83984C227.424 7.83984 233.411 14.0979 233.411 22.1759H237.411C237.411 12.2097 229.941 3.83984 220.383 3.83984V7.83984ZM208.955 15.2893C211.204 10.785 215.525 7.83984 220.383 7.83984V3.83984C213.825 3.83984 208.215 7.81489 205.376 13.5029L208.955 15.2893ZM151.314 4C170.903 4 189.517 8.36159 206.32 16.2083L208.012 12.584C190.694 4.49669 171.504 0 151.314 0V4ZM97.7981 15.5235C114.208 8.10834 132.301 4 151.314 4V0C131.718 0 113.065 4.23547 96.151 11.8783L97.7981 15.5235ZM83.8514 7.83984C88.6243 7.83984 92.8655 10.5398 95.2379 14.6929L98.7112 12.7089C95.699 7.43582 90.2001 3.83984 83.8514 3.83984V7.83984ZM70.5039 22.1759C70.5039 14.1389 76.5956 7.83984 83.8514 7.83984V3.83984C74.1548 3.83984 66.5039 12.1686 66.5039 22.1759H70.5039ZM72.0376 28.8536C71.0604 26.8648 70.5039 24.5946 70.5039 22.1759H66.5039C66.5039 25.2125 67.2035 28.0854 68.4475 30.6175L72.0376 28.8536ZM16.962 129.883C21.2014 89.4537 41.709 54.1648 71.4605 31.3219L69.0245 28.1492C38.4052 51.6583 17.3379 87.9424 12.9839 129.466L16.962 129.883ZM4 145.5C4 138.431 8.95865 132.676 15.2929 131.649L14.653 127.701C6.28996 129.056 0 136.564 0 145.5H4ZM15.293 159.351C8.95867 158.325 4 152.569 4 145.5H0C0 154.436 6.28998 161.944 14.653 163.3L15.293 159.351ZM70.6089 259.019C41.3179 236.159 21.1609 201.159 16.9621 161.117L12.9839 161.534C17.2964 202.66 38.0036 238.647 68.1479 262.172L70.6089 259.019ZM70.5039 265.938C70.5039 264.285 70.7757 262.703 71.2725 261.238L67.4842 259.954C66.8485 261.829 66.5039 263.844 66.5039 265.938H70.5039ZM83.8514 279.953C76.5593 279.953 70.5039 273.76 70.5039 265.938H66.5039C66.5039 275.806 74.1911 283.953 83.8514 283.953V279.953ZM93.8211 275.256C91.3621 278.154 87.7985 279.953 83.8514 279.953V283.953C89.0548 283.953 93.7066 281.574 96.8712 277.844L93.8211 275.256ZM151.314 287C131.68 287 113.027 282.619 96.1941 274.739L94.4982 278.361C111.847 286.483 131.077 291 151.314 291V287Z" fill="#77F721"/>
<ellipse cx="151.314" cy="145.5" rx="137.165" ry="143.5" fill="#F4F4F4" stroke="#77F721" stroke-width="4"/>
<ellipse cx="151.5" cy="145.688" rx="94.5" ry="95" fill="#F4F4F4" stroke="#77F721" stroke-width="4"/>
</svg>
