<svg width="334" height="334" viewBox="0 0 334 334" fill="none" xmlns="http://www.w3.org/2000/svg">
<path d="M167 2.67114C198.084 30.2473 232.103 64.4962 261.143 100.414C290.62 136.871 314.856 174.913 325.772 209.354C336.678 243.764 334.186 274.137 310.948 296.012C287.508 318.079 242.497 332 167 332C91.5031 332 46.4923 318.079 23.0516 296.012C-0.186188 274.137 -2.67749 243.764 8.22833 209.354C19.1441 174.913 43.3802 136.871 72.8572 100.414C101.897 64.4962 135.916 30.2473 167 2.67114Z" fill="#77F721" fill-opacity="0.7" stroke="#101010" stroke-width="4"/>
<path d="M137.086 72.6484C134.967 76.2849 131.504 84.3082 125.998 82.6207C123.123 81.7396 121.121 78.7953 118.376 77.5121C119.514 86.5415 118.621 92.6939 107.981 90.7134C108.471 95.6172 113.409 103.436 105.209 103.22C108.651 107.911 110.821 108.419 108.674 114.337L116.297 115.726L110.753 124.064C114.04 122.865 117.514 120.013 121.144 120.127C127.014 120.311 124.003 125.619 120.454 126.843L121.84 131.707H114.218C115.52 137.222 117.511 141.581 111.446 144.908C112.413 147.634 116.263 162.305 108.011 158.639C104.022 156.867 105.71 152.975 103.804 150.116C102.219 147.737 99.9978 147.166 98.9722 144.213C95.663 144.525 94.1937 144.029 92.0424 141.434H90.6564L85.1126 145.603L83.7267 140.045C79.6161 143.312 78.3822 144.188 73.332 142.129L78.0909 156.72L74.718 167.142C83.1521 168.673 84.2976 175.165 83.7267 182.428C87.6553 183.783 88.5307 186.098 88.5775 190.07C96.1163 189.479 101.379 191.963 101.051 200.493C106.862 199.506 112.166 197.667 115.604 203.967C122.003 201.269 123.289 200.698 130.156 201.882C129.314 196.655 132.129 189.56 137.779 189.376C137.236 182.478 136.895 178.159 140.551 172.006H141.244L144.709 174.785C146.043 172.019 149.391 169.646 150.521 174.104C151.195 176.761 149.914 179.785 149.559 182.428C157.378 183.678 152.659 187.639 150.7 192.155C149.833 194.152 151.16 195.729 150.837 197.703C150.283 201.101 145.965 202.09 143.323 203.272C146.657 207.48 143.992 208.764 139.858 210.22V210.915C148.679 217.734 141.738 221.807 133.621 219.947L132.928 220.642C133.581 222.124 134.489 223.371 135.213 224.811C137.012 228.392 134.037 229.794 130.849 228.939C125.34 227.459 122.632 222.262 117.683 219.947C119.625 226.059 135.209 241.93 124.612 245.655C124.933 253.668 122.684 253.221 115.604 252.603C118.269 261.882 118.079 265.109 107.288 265.109C108.394 271.657 108.784 274.996 101.744 277.616V278.311C108.722 282.973 107.249 287.525 103.13 293.596C108.856 296.626 111.985 298.323 114.218 304.713C119.709 303.157 119.888 306.482 122.533 310.272C126.393 304.2 127.571 301.052 135.007 303.324C135.007 294.628 135.547 283.912 146.095 282.48C144.998 280.119 142.307 278.062 141.765 275.535C140.36 268.992 151.181 273.42 153.717 274.142C152.478 266.891 153.505 267.047 160.647 267.194L159.954 263.72L166.191 263.025C163.888 259.206 155.263 251.391 166.191 253.298C165.462 246.935 169.078 247.045 174.507 247.044L172.428 241.486L175.893 240.791C174.417 233.319 177.236 229.697 184.901 229.674C184.203 224.132 183.029 216.385 191.138 219.252C191.035 216.843 190.104 213.945 190.97 211.623C192.791 206.738 198.179 208.567 200.128 212.315C201.924 215.769 201.532 221.018 201.533 224.811H202.226C203.277 222.601 204.172 219.92 206.456 218.685C211.95 215.712 220.986 226.951 210.541 225.506C210.71 233.675 209.362 244.712 198.068 242.876C198.048 250.305 196.194 252.168 189.059 250.519C191.155 257.161 193.819 262.177 184.208 263.025C185.51 266.739 185.618 268.356 184.208 272.057C193.036 276.779 193.428 282.478 182.822 282.48C184.912 285.678 189.233 286.194 191.413 289.457C194.344 293.847 191.344 300.608 191.138 305.408C199.167 303.546 202.842 302.036 205.691 310.967C211.411 306.943 213.76 303.77 220.936 306.103C219.271 300.032 226.011 299.946 230.638 299.85C228.623 296.289 219.96 293.62 227.851 290.753C229.035 290.323 230.173 289.928 231.331 289.428C226.237 286.367 214.106 288.352 222.313 279.704C223.592 278.355 224.721 277.049 225.787 275.532C212.19 269.449 227.266 266.823 234.796 266.499C236.412 258.468 243.678 259.44 250.041 260.246C249.29 257.317 247.16 254.931 246.727 251.908C245.571 243.848 253.724 237.879 260.436 235.928V234.538C253.167 229.792 257.216 226.234 261.129 220.642C258.444 220.001 255.31 220.266 252.816 219.031C243.04 214.193 250.667 205.114 254.892 199.798C244.273 196.562 240.334 196.207 245.19 184.512C239.78 184.493 236.453 182.771 236.874 176.869C234.23 177.318 222.654 180.568 224.132 174.08C224.695 171.605 227.383 169.417 228.559 167.142C225.672 166.451 222.032 166.718 219.656 164.7C217.813 163.136 217.39 160.064 220.284 159.371C223.185 158.677 227.024 161.756 229.945 162.278C228.416 157.294 226.747 145.843 236.179 147.286C239.217 147.751 241.103 151.232 243.804 152.551C243.685 146.745 242.905 142.997 250.041 142.824C248.562 137.14 250.381 134.974 256.278 134.486L252.813 131.707V130.317L256.278 128.928C253.769 125.527 253.323 124.337 255.585 120.59C251.889 120.556 249.729 119.992 247.269 117.116H246.576C243.614 120.567 240.631 120.559 239.646 115.726C234.904 118.596 230.854 122.604 230.638 113.642H229.945C227.585 119.729 225.959 121.848 219.55 119.895C219.51 124.377 210.568 139.255 207.076 132.402C205.665 133.19 203.898 135.747 202.254 135.733C198.005 135.694 201.077 126.756 201.533 124.759C195.691 123.217 193.629 122.249 195.296 115.726C186.948 112.516 187.866 110.231 185.594 102.525C182.154 103.626 174.457 105.428 175.107 99.0505C175.398 96.1908 177.457 93.6053 177.971 90.7134C175.29 91.1086 172.377 92.4482 169.656 91.7921C167.427 91.2546 165.763 89.2044 163.419 89.1104C159.915 88.9699 157.038 91.6079 153.938 88.4177C151.743 86.1601 152.473 82.4267 151.638 79.5965C148.406 80.6222 143.374 84.9572 140.362 81.4595C138.256 79.0135 138.886 75.2743 137.086 72.6484Z" fill="#101010"/>
<path d="M128.77 88.624C119.403 86.3622 113.929 100.676 115.232 108.079C116.568 115.676 122.344 114.739 128.77 117.435C131.077 118.403 134.596 119.016 135.188 122.003C136.716 129.715 123.234 134.38 120.34 140.04C118.094 144.432 119.389 148.069 118.653 152.546C117.963 156.741 114.797 159.796 114.443 164.358C114.131 168.379 116.202 172.129 116.296 176.169C112.188 175.407 107.574 177.642 103.825 176.241C99.7759 174.728 97.902 170.298 101.051 167.137L100.358 165.053L104.516 163.663L103.823 165.053L105.209 162.273C101.096 163.468 96.4419 166.564 96.893 171.306L96.2 172.001L94.1211 171.306L94.8141 176.169H95.507V172.695C102.399 176.902 110.309 183.065 118.375 184.507L122.735 176.169L130.849 146.293C127.23 146.293 131.438 141.638 132.235 140.04L128.77 141.429C128.025 134.685 134.329 133.56 138.472 130.154C141.818 127.402 144.078 122.957 148.866 124.059L146.787 122.669L147.48 117.806L146.094 115.027H145.401C144.658 117.264 136.393 126.734 136.393 119.195C136.393 117.427 145.088 110.953 144.708 110.858L141.243 109.468L142.629 101.825H139.858L138.472 106.689L141.243 107.384L135.7 117.806L127.384 116.416L126.691 112.942L131.542 113.637H132.235L133.621 110.858H123.919C121.131 102.263 125.619 90.3169 137.086 94.0329C142.501 95.7881 144.904 101.893 146.787 106.689L144.708 107.384V108.079L147.48 113.637L149.559 114.332L148.866 116.416L153.717 118.501L153.024 119.89L155.796 120.585C158.664 117.263 170.71 114.755 174.506 117.111H175.199C181.126 110.713 183.01 121.195 183.515 126.144L181.436 124.754L193.91 139.345L191.831 141.429L179.357 150.462L184.208 156.715L182.129 158.799L184.901 158.105L186.98 160.884L184.901 165.053C189.779 164.619 189.369 171.251 191.138 174.78L193.91 174.085L191.831 173.39C194.838 166.983 199.589 166.409 204.997 169.916L200.839 160.189C208.15 160.168 212.483 155.698 218.857 152.761C222.167 151.236 225.99 150.3 227.866 146.988L200.839 156.02L202.918 151.851L201.532 149.767H209.848L209.155 147.682L221.629 144.903L226.48 144.208V140.734H222.322L225.787 136.566L226.48 140.04C236.924 139.32 244.045 139.835 249.348 128.228L240.339 132.397L241.725 128.228L243.804 128.923V126.144L238.26 129.618L236.181 135.176V128.923H235.488L234.795 132.397L230.637 128.923L231.33 135.176C224.677 135.519 228.287 129.594 224.401 126.144L223.708 129.618L225.787 131.702C218.96 132.809 223.075 139.645 218.806 143.07C213.423 147.39 203.852 144.903 197.375 144.903C198.121 135.927 192.824 133.97 189.18 126.838C186.311 121.223 186.223 114.078 178.664 112.033C172.323 110.319 165.897 114.116 159.261 112.247C160.21 109.453 158.448 106.354 159.374 104.071C160.896 100.314 167.141 104.006 169.656 104.605C171.845 92.7715 164.67 100.669 158.568 101.131L154.41 103.91L155.103 101.825H154.41L155.796 106.689L158.568 105.994C159.364 109.147 158.727 110.784 155.796 112.247V109.468H155.103L154.41 111.553C148.276 106.723 150.184 101.253 152.331 94.8773H149.559V94.1825L150.945 92.0981L142.629 89.3188L143.322 87.2344C139.704 85.7721 131.365 85.2064 128.77 88.624ZM128.77 107.384C138.443 107.068 132.64 96.8925 129.743 103.906C129.28 105.027 129.042 106.209 128.77 107.384ZM166.191 118.501V119.195L175.892 120.585C173.217 117.366 170.029 117.584 166.191 118.501ZM150.252 119.89L150.945 121.28H151.638L152.331 119.89H150.252ZM177.278 121.28V121.975L180.05 123.364L177.278 121.28ZM235.488 124.059L234.795 127.533H237.567L236.874 124.059H235.488ZM151.638 124.754L148.866 125.449V126.144C150.425 126.331 152.296 126.66 151.638 124.754ZM169.656 125.449V126.144L175.199 125.449H169.656ZM144.015 126.838L135.007 135.176L140.551 133.786L139.858 131.702C142.046 130.668 144.071 129.421 144.015 126.838ZM177.971 127.533L171.041 128.923V129.618H173.813V131.702L182.822 131.007V130.312H175.199V129.618L177.971 127.533ZM144.708 133.786C148.569 132.782 152.184 132.343 153.717 128.228L144.708 133.786Z" fill="#F4F4F4"/>
<path d="M155.796 129.617L141.937 144.208L142.63 136.565H141.937C140.603 140.801 136.836 143.41 135.238 147.682C131.244 158.359 129.09 170.551 126.922 181.728C126.556 183.618 127.589 185.539 127.153 187.286C126.628 189.391 121.84 193.238 121.84 189.37L115.604 187.286L119.068 192.15L90.6564 179.643C90.6157 175.834 87.3494 171.807 92.7353 170.611L94.1212 161.578L91.3493 162.273L93.4283 147.682C89.547 149.811 88.3713 153.329 87.1915 157.409L92.0423 150.461L89.2704 160.189L87.1915 158.799L86.4985 160.883H85.1126L83.7266 153.241H83.0336L80.2617 154.63C80.8009 161.48 83.9199 165.19 86.3124 171.305C87.5104 174.367 87.5805 178.149 90.2361 180.44C93.3328 183.11 97.8353 183.324 101.051 186.045C107.827 191.778 113.93 197.796 123.844 195.006C126.889 194.149 127.983 189.015 129.526 186.591C135.251 177.599 139.858 170.463 139.858 159.494C143.2 160.253 146.144 162.169 149.559 162.741C152.991 163.317 156.741 162.551 159.881 164.455C165.408 167.804 166.193 181.359 163.88 186.591C161.65 191.637 156.754 193.571 154.41 198.403L157.182 197.708V198.403C153.613 200.539 147.619 210.858 151.638 214.383V215.078C147.971 219.005 147.322 223.482 141.244 224.111C141.967 226.63 143.738 229.149 144.004 231.753C144.887 240.42 132.94 234.467 129.463 233.838C132.843 241.936 133.619 253.472 128.667 261.63C123.235 270.58 115.132 274.938 113.258 285.948C111.581 295.808 120.379 304.668 128.47 295.447C131.363 292.149 130.544 285.882 131.652 281.779C134.644 270.705 141.826 265.021 153.024 263.02L157.182 259.546C154.362 253.023 161.563 246.426 167.577 244.26C167.286 241.165 167.45 239.486 170.349 238.007C169.605 231.941 172.997 226.093 179.357 224.805C179.117 218.804 179.147 211.561 186.98 212.299C186.816 198.084 207.295 197.659 204.997 212.994C211.598 211.825 218.961 217.082 222.316 222.722C225.153 227.492 222.099 232.15 216.778 231.754C215.898 239.291 209.776 251.758 204.789 257.451C201.713 260.962 193.85 263.344 193.576 268.581C193.291 274.011 197.193 276.659 198.827 281.122C200.777 286.447 199.547 291.775 203.237 296.866C205.82 300.431 211.083 303.029 214.006 298.455L211.927 299.15V298.455C220.072 294.114 214.734 287.545 212.685 281.085C210.579 274.446 211.935 267.087 217.481 262.596C219.221 261.188 221.479 259.905 223.708 259.52C226.128 259.102 228.388 260.214 230.638 260.935C231.994 255.728 235.21 254.034 240.339 253.987L238.414 246.745L241.725 238.702L252.813 232.448C248.153 228.447 250.302 227.305 253.506 222.721C251.051 222.114 248.203 222.032 245.896 220.974C237.416 217.085 245.644 207.544 247.962 202.572C239.219 200.872 230.663 196.628 229.252 186.591L204.997 170.611L201.533 183.117H202.226L202.919 181.033H203.612L206.383 184.507C206.293 181.658 208.03 179.172 210.961 181.534C214.592 184.461 214.026 190.566 216.506 194.234C221.197 201.17 227.769 207.083 232.951 213.689C234.38 215.509 238.449 219.25 237.39 221.855C236.502 224.037 233.154 223.312 231.331 223.416C228.345 209.104 212.83 202.172 206.645 190.259C205.016 187.122 201.381 189.204 201.533 184.507H200.84C200.246 186.919 200.21 190.611 198.336 192.44C196.44 194.292 194.658 190.741 192.491 191.283C189.899 191.929 189.02 195.208 186.908 196.58C182.359 199.536 179.547 192.847 179.357 189.37C169.539 187.888 166.162 175.598 171.042 168.526H171.735L175.2 174.085L180.05 174.78L181.436 168.526C179.571 166.238 179.066 165.095 180.05 162.273L177.971 162.968V160.189H175.2L175.892 157.409L175.2 156.715L173.121 157.409V153.935C168.118 152.831 164.383 158.04 162.726 162.273H162.033C160.686 155.793 166.476 156.052 168.27 151.156C164.334 152.685 161.324 155.453 159.954 159.494L157.875 156.715L155.103 157.409C154.337 149.297 165.047 148.293 165.498 140.039C160.071 143.857 153.649 147.517 153.024 154.63L150.252 149.072C154.916 146.93 161.296 142.367 162.726 137.26L147.48 150.461L146.787 146.293L144.709 146.987L146.094 137.955C149.988 136.658 157.781 135.435 155.796 129.617ZM178.664 133.091C180.424 135.812 183.454 135.32 186.287 134.481L178.664 133.091Z" fill="#F4F4F4"/>
<path d="M232.723 132.398C232.361 134.547 232.667 135.275 234.802 135.872L232.723 132.398ZM238.96 133.788L237.574 137.957L242.424 134.483L238.96 133.788Z" fill="#101010"/>
<path d="M146.789 144.907L159.263 135.18C154.063 136.713 148.959 139.783 146.789 144.907ZM169.657 138.654L177.28 140.738L175.201 143.517L180.052 142.128V141.433H177.973L179.359 138.654L176.587 137.264L175.894 139.349C173.777 138.439 170.401 135.244 169.657 138.654ZM182.131 136.569C183.965 139.117 186.52 138.79 189.061 137.264L182.131 136.569Z" fill="#F4F4F4"/>
<path d="M235.49 136.57L232.718 137.265L233.411 139.35H236.183L235.49 136.57Z" fill="#101010"/>
<path d="M185.595 140.742L186.288 142.827L177.973 144.911V145.606L190.446 142.132V141.437L185.595 140.742ZM228.56 142.132L229.946 143.521L228.56 146.995L232.718 142.827L228.56 142.132Z" fill="#F4F4F4"/>
<path d="M191.832 143.523V147.692C194.995 149.516 193.522 153.748 196.21 155.275C198.417 156.528 200.602 153.996 200.292 151.857C199.81 148.534 195.862 145.406 193.911 142.828L191.832 143.523Z" fill="#101010"/>
<path d="M166.191 144.906L157.875 155.328C162.734 153.481 166.734 150.228 167.577 144.906H166.191Z" fill="#F4F4F4"/>
<path d="M156.488 149.076L157.181 149.771L160.646 146.297L156.488 149.076Z" fill="#101010"/>
<path d="M82.3453 148.383L81.6523 151.857H83.7313H84.4243V148.383H82.3453ZM98.9768 151.857L98.2838 157.415L96.8978 156.72L94.8189 167.143C97.9961 163.939 101.118 156.407 100.363 151.857H98.9768Z" fill="#F4F4F4"/>
<path d="M81.6523 155.334L82.3453 158.808H83.0383L81.6523 155.334ZM169.66 156.029L164.81 165.062C168.452 163.856 170.355 159.622 171.046 156.029H169.66ZM82.3453 162.282V162.977C84.0654 164.441 87.1671 170.346 89.2751 168.536L91.354 169.231L88.5821 161.588V166.451C86.8849 163.839 85.6215 161.971 82.3453 162.282Z" fill="#101010"/>
<path d="M90.6566 172.009V174.788H91.3495L90.6566 172.009ZM95.5074 177.568V179.652H96.2004L95.5074 177.568ZM100.358 178.262C103.725 182.23 109.17 185.397 114.218 186.6V185.905L100.358 178.262ZM184.901 180.347V181.042L190.445 181.736V180.347H184.901ZM184.901 185.21V185.905C189.539 185.905 193.699 186.5 195.989 181.736L184.901 185.21ZM177.972 183.126V183.821L182.129 184.516L177.972 183.126ZM195.989 187.295V188.684L197.375 187.295H195.989Z" fill="#F4F4F4"/>
<path d="M148.867 243.569L149.56 247.043L145.402 241.485C133.314 249.082 133.92 263.065 124.613 272.056L125.306 270.666C122.277 272.589 121.451 275.539 121.148 279.004L125.999 278.309L124.613 283.868L123.92 281.783L121.148 282.478L120.455 279.004L119.069 283.173L116.297 283.868L117.683 290.816L120.455 290.121V292.9C126.727 295.998 126.948 292.658 128.077 286.647L127.384 285.952L125.306 286.647L125.999 283.173L128.77 284.562L130.849 275.53C133.117 274.016 132.629 272.235 130.156 271.361V270.666C133.241 270.42 135.938 268.332 134.314 265.108V264.413C138.051 261.935 140.941 258.236 144.709 255.896C149.32 253.034 156.37 254.55 153.718 247.043C160.767 247.832 157.901 238.55 159.157 233.842C161.209 226.143 162.925 215.749 167.077 208.929C168.162 207.146 170.366 206.495 171.221 204.56C172.071 202.634 171.457 200.423 172.846 198.678C174.345 196.793 177.27 196.221 177.676 193.516C178.409 188.63 173.462 189.865 171.042 191.459C169.129 188.342 165.561 188.404 164.153 192.184C163.333 194.385 164.103 196.815 163.379 199.101C160.006 209.761 156.442 220.423 153.005 231.062C151.761 234.908 143.83 240.292 148.867 243.569Z" fill="#101010"/>
<path d="M180.051 190.07V190.765L186.288 194.239L188.366 190.07H180.051Z" fill="#F4F4F4"/>
<path d="M234.101 224.113L229.733 233.41L221.205 239.627L216.415 248.233L201.531 265.801C197.969 264.934 195.522 266.747 196.731 270.635C197.571 273.332 200.036 274.094 201.47 276.316C202.898 278.527 203.266 281.452 204.303 283.866L206.382 285.256C200.568 286.062 208.027 295.839 208.461 298.457C216.971 296.142 214.04 292.528 209.154 288.73H213.312L208.646 271.36L211.233 260.243H214.005L225.092 246.555L233.408 238.704C236.147 238.495 237.442 237.927 238.259 235.23L231.329 236.62V233.145C236.331 236.709 240.372 234.579 240.915 229.671C241.128 227.747 242.733 226.894 241.608 224.808C239.288 220.508 234.588 227.901 234.101 224.113Z" fill="#101010"/>
<path d="M235.485 229.672V230.367L238.257 229.672H235.485ZM225.783 240.789L223.704 240.094L222.318 244.263L228.555 238.704L225.783 240.789ZM149.556 243.568V244.263L153.021 244.958V244.263L149.556 243.568ZM141.24 247.737L136.389 256.769H137.082L142.626 247.737H141.24ZM204.301 275.529V278.308H204.994L204.301 275.529ZM120.451 285.256L119.758 285.951L120.451 290.12H121.144L120.451 285.256ZM123.916 288.036L123.223 291.51H123.916V288.036Z" fill="#F4F4F4"/>
</svg>
