<svg width="153" height="74" viewBox="0 0 153 74" fill="none" xmlns="http://www.w3.org/2000/svg">
<path fill-rule="evenodd" clip-rule="evenodd" d="M71.9961 74V10.5H18.5H-0.00390625V11V12V74H71.9961Z" fill="#F4F4F4"/>
<path d="M71.9961 0H-0.00390625V10V10.5H18.5H71.9961V0Z" fill="#77F721"/>
<path d="M1.83691 12.3408H18.5H70.1553V72.1592H1.83691V12.3408ZM70.1553 8.65918H18.5H1.83691V1.84082H70.1553V8.65918Z" stroke="#77F721" stroke-width="3.68163"/>
<path fill-rule="evenodd" clip-rule="evenodd" d="M153 74V10.5H117H81V74H153Z" fill="#F4F4F4"/>
<path d="M153 0H81V10.5H117H153V0Z" fill="#77F721"/>
<path d="M82.8408 12.3408H117H151.159V72.1592H82.8408V12.3408ZM151.159 8.65918H117H82.8408V1.84082H151.159V8.65918Z" stroke="#77F721" stroke-width="3.68163"/>
</svg>
